<svg xmlns="http://www.w3.org/2000/svg" viewBox="0 0 2069.86 80.82"><defs><style>.cls-1{fill:#f8d8de;}.cls-2{fill:#851b06;}</style></defs><g id="Layer_2" data-name="Layer 2"><g id="Layer_1-2" data-name="Layer 1"><path class="cls-1" d="M1002.15,18.43s132.06-40.83,229.36,9.12l-5.65,36.92-137.7,4.35-65.59-8.69Z"/><path class="cls-1" d="M588.16,18.43S720.22-22.4,817.52,27.55l-5.65,36.92-137.7,4.35-65.59-8.69Z"/><path class="cls-1" d="M174.25,18.43S306.3-22.4,403.6,27.55L398,64.47,260.25,68.82l-65.59-8.69Z"/><path class="cls-1" d="M1416.16,18.43s132.06-40.83,229.36,9.12l-5.65,36.92-137.7,4.35-65.59-8.69Z"/><path class="cls-1" d="M1830.11,18.43s132.05-40.83,229.35,9.12l-5.64,36.92-137.7,4.35-65.6-8.69Z"/><path class="cls-2" d="M1798.72.19c-46-1.82-86.16,10.08-142,20.69h0l-1.3.23v0C1510.85,45.64,1505.49,5,1384.78.19c-46.25-1.83-86.55,10.2-142.86,20.85h0C1096.85,45.74,1091.64,5,970.77.19,924.52-1.64,884.22,10.39,827.91,21h0C682.86,45.74,677.64,5,556.78.19c-46-1.82-86.1,10.07-141.91,20.66v0l-2,.39h0C268.93,45.52,263.41,5,142.86.19,96.62-1.64,56.31,10.39,0,21V80.8H412.87v0h2v0H2069.86V21C1924.8,45.74,1919.59,5,1798.72.19Z"/></g></g></svg>