<svg xmlns="http://www.w3.org/2000/svg" width="2187" height="1122" viewBox="0 0 2187 1122">
  <g id="Group_229" data-name="Group 229" transform="translate(0 -73)" opacity="0.9">
    <g id="Group_227" data-name="Group 227" transform="translate(-517.292 235.409)">
      <path id="Path_1078" data-name="Path 1078" d="M921.23,284.812l103.477-59.742V187.551l-33.252,19.2h0l-35.491,20.491h0l-34.73,20.052Z" fill="none"/>
      <path id="Path_1079" data-name="Path 1079" d="M1310.145,145.7l-32.492,18.759L1381.13,224.2l32.492-18.759Z" fill="none"/>
      <path id="Path_1080" data-name="Path 1080" d="M884.238,145.7l-32.492,18.759L955.222,224.2l32.492-18.759Z" fill="none"/>
      <path id="Path_1081" data-name="Path 1081" d="M1134.184,284.812l103.477-59.742V187.551l-33.253,19.2h0l-35.491,20.491h0l-34.73,20.052Z" fill="none"/>
      <path id="Path_1082" data-name="Path 1082" d="M1097.192,145.7,1064.7,164.461,1168.176,224.2l32.492-18.759Z" fill="none"/>
      <path id="Path_1083" data-name="Path 1083" d="M1203.669,330.125l-32.493,18.759,103.477,59.743,32.492-18.76Z" fill="none"/>
      <path id="Path_1084" data-name="Path 1084" d="M889.9,353.888l-76.65-44.254-32.492,18.759,103.477,59.742,32.492-18.759Z" fill="none"/>
      <path id="Path_1085" data-name="Path 1085" d="M1206.669,328.393l103.477,59.742,32.492-18.759-27.229-15.721-76.248-44.022Z" fill="none"/>
      <path id="Path_1086" data-name="Path 1086" d="M1276.153,696.375l32.492,18.759V595.649l-32.492-18.759Z" fill="none"/>
      <path id="Path_1087" data-name="Path 1087" d="M811.753,431.717l-32.492-18.759V532.442l5.665,3.271L811.753,551.2Z" fill="none"/>
      <path id="Path_1088" data-name="Path 1088" d="M1347.138,694.643,1450.615,634.9V597.381l-103.478,59.742Z" fill="none"/>
      <path id="Path_1089" data-name="Path 1089" d="M1310.145,514.549l-32.492,18.759,103.477,59.742,32.492-18.759Z" fill="none"/>
      <path id="Path_1090" data-name="Path 1090" d="M1347.138,325.8l103.478-59.742V228.534l-103.478,59.742Z" fill="none"/>
      <path id="Path_1091" data-name="Path 1091" d="M1240.661,510.219l103.477-59.743V412.957L1240.661,472.7Z" fill="none"/>
      <path id="Path_1092" data-name="Path 1092" d="M921.23,735.626l103.477-59.743V638.364L921.23,698.106Z" fill="none"/>
      <path id="Path_1093" data-name="Path 1093" d="M1134.184,735.626l103.477-59.743V638.364l-103.477,59.742Z" fill="none"/>
      <path id="Path_1094" data-name="Path 1094" d="M1240.661,675.883l32.492,18.759V575.158l-32.492-18.76Z" fill="none"/>
      <path id="Path_1095" data-name="Path 1095" d="M882.738,346.287V226.8l-32.493-18.759V327.527Z" fill="none"/>
      <path id="Path_1096" data-name="Path 1096" d="M989.215,530.71V411.226l-32.493-18.76V511.951Z" fill="none"/>
      <path id="Path_1097" data-name="Path 1097" d="M1058.7,410.359,955.222,350.617l-5.666,3.271L922.73,369.376l103.477,59.742Z" fill="none"/>
      <path id="Path_1098" data-name="Path 1098" d="M958.222,348.885,1061.7,408.627l32.492-18.76L990.715,330.125Z" fill="none"/>
      <path id="Path_1099" data-name="Path 1099" d="M1205.168,532.442l6.074,3.507,26.418,15.253V431.717l-32.493-18.759Z" fill="none"/>
      <path id="Path_1100" data-name="Path 1100" d="M1131.184,453.94l-103.477,59.743V551.2l103.477-59.742Z" fill="none"/>
      <path id="Path_1101" data-name="Path 1101" d="M1169.676,511.951l32.492,18.759V411.226l-32.492-18.76Z" fill="none"/>
      <path id="Path_1102" data-name="Path 1102" d="M1134.184,366.778l103.477-59.743V269.517l-103.477,59.742Z" fill="none"/>
      <path id="Path_1103" data-name="Path 1103" d="M1134.184,491.46l32.492,18.759V390.734l-32.492-18.759Z" fill="none"/>
      <path id="Path_1104" data-name="Path 1104" d="M991.453,575.6l-35.491,20.49h0l-34.73,20.052v37.519l103.477-59.742V556.4l-33.252,19.2Z" fill="none"/>
      <path id="Path_1105" data-name="Path 1105" d="M1132.684,494.058l-32.492,18.759,103.477,59.742,32.493-18.759Z" fill="none"/>
      <path id="Path_1106" data-name="Path 1106" d="M1165.176,594.783,1061.7,535.041,1029.207,553.8l103.477,59.742Z" fill="none"/>
      <path id="Path_1107" data-name="Path 1107" d="M1024.707,597.381,921.23,657.123v37.519L1024.707,634.9Z" fill="none"/>
      <path id="Path_1108" data-name="Path 1108" d="M1097.192,514.549l-32.493,18.76,103.477,59.742,32.492-18.759Z" fill="none"/>
      <path id="Path_1109" data-name="Path 1109" d="M1024.707,269.517,921.23,329.259v37.519l103.477-59.743Z" fill="none"/>
      <path id="Path_1110" data-name="Path 1110" d="M1027.707,510.219l103.477-59.743V412.957L1027.707,472.7Z" fill="none"/>
      <path id="Path_1111" data-name="Path 1111" d="M1024.707,431.717l-32.492-18.759V532.442l5.665,3.271,26.827,15.489Z" fill="none"/>
      <path id="Path_1112" data-name="Path 1112" d="M1062.437,411.665l-34.73,20.052v37.519l103.477-59.743V371.975l-33.252,19.2h0l-35.491,20.491Z" fill="none"/>
      <path id="Path_1113" data-name="Path 1113" d="M1344.138,735.625V616.141l-32.492-18.76V716.866Z" fill="none"/>
      <path id="Path_1114" data-name="Path 1114" d="M845.745,41.512,742.268-18.23,736.6-14.959,709.776.529,813.253,60.271Z" fill="none"/>
      <path id="Path_1115" data-name="Path 1115" d="M1062.437,42.818l-34.73,20.052v37.519l103.477-59.743V3.127l-33.252,19.2h0l-35.491,20.491Z" fill="none"/>
      <path id="Path_1116" data-name="Path 1116" d="M1453.615,920.049l103.477-59.743V822.787L1453.615,882.53Z" fill="none"/>
      <path id="Path_1117" data-name="Path 1117" d="M1275.391,42.818l-34.73,20.051v37.519l103.477-59.743V3.127l-33.252,19.2h0l-35.49,20.49Z" fill="none"/>
      <path id="Path_1118" data-name="Path 1118" d="M1488.346,42.818l-34.73,20.052v37.519l103.477-59.743V3.127l-33.252,19.2h0l-35.491,20.491Z" fill="none"/>
      <path id="Path_1119" data-name="Path 1119" d="M1484.607,41.512,1381.13-18.23l-5.264,3.039L1348.638.529l103.478,59.742Z" fill="none"/>
      <path id="Path_1120" data-name="Path 1120" d="M1453.615,141.372l103.477-59.743V44.11l-103.477,59.743Z" fill="none"/>
      <path id="Path_1121" data-name="Path 1121" d="M1271.653,41.512,1168.176-18.23l-6.074,3.507L1135.684.529l103.477,59.742Z" fill="none"/>
      <path id="Path_1122" data-name="Path 1122" d="M1058.7,41.512,955.222-18.23l-5.666,3.271L922.73.529l103.477,59.742Z" fill="none"/>
      <path id="Path_1123" data-name="Path 1123" d="M601.8,100.389,705.276,40.646V3.127l-33.253,19.2h0L636.531,42.817h0L601.8,62.87Z" fill="none"/>
      <path id="Path_1124" data-name="Path 1124" d="M598.8,431.717l-32.492-18.759V532.442l5.665,3.271L598.8,551.2Z" fill="none"/>
      <path id="Path_1125" data-name="Path 1125" d="M601.8,838.083l103.477-59.742V740.821l-33.253,19.2h0l-35.49,20.49,0,0L601.8,800.564Z" fill="none"/>
      <path id="Path_1126" data-name="Path 1126" d="M849.483,42.818,814.753,62.87v37.519L918.23,40.646V3.127l-33.253,19.2h0L849.485,42.817Z" fill="none"/>
      <path id="Path_1127" data-name="Path 1127" d="M1134.184,325.8l103.477-59.742V228.534l-103.477,59.742Z" fill="none"/>
      <path id="Path_1128" data-name="Path 1128" d="M1416.622,330.125l-32.492,18.759,103.477,59.743,32.492-18.76Z" fill="none"/>
      <path id="Path_1129" data-name="Path 1129" d="M598.8,62.87,566.307,44.11V163.6l5.665,3.271L598.8,182.355Z" fill="none"/>
      <path id="Path_1130" data-name="Path 1130" d="M601.8,469.236l103.477-59.743V371.975l-33.253,19.2h0l-35.491,20.491h0L601.8,431.717Z" fill="none"/>
      <path id="Path_1131" data-name="Path 1131" d="M1453.615,879.066l103.477-59.742V781.8l-103.477,59.742Z" fill="none"/>
      <path id="Path_1132" data-name="Path 1132" d="M1453.615,510.219l103.477-59.743V412.957L1453.615,472.7Z" fill="none"/>
      <path id="Path_1133" data-name="Path 1133" d="M1239.161,678.481l-32.493,18.76,103.478,59.742,32.492-18.76Z" fill="none"/>
      <path id="Path_1134" data-name="Path 1134" d="M1203.668,698.973l-32.492,18.76,103.477,59.742,32.493-18.76Z" fill="none"/>
      <path id="Path_1135" data-name="Path 1135" d="M813.253,678.481l-32.493,18.76,103.478,59.742,32.492-18.76Z" fill="none"/>
      <path id="Path_1136" data-name="Path 1136" d="M1026.207,678.481l-32.493,18.76,103.478,59.742,32.492-18.76Z" fill="none"/>
      <path id="Path_1137" data-name="Path 1137" d="M777.761,698.973l-32.493,18.76,103.477,59.742,32.493-18.76Z" fill="none"/>
      <path id="Path_1138" data-name="Path 1138" d="M811.753,228.534,708.276,288.276V325.8l103.477-59.742Z" fill="none"/>
      <path id="Path_1139" data-name="Path 1139" d="M706.776,494.058l-32.492,18.759L777.761,572.56l32.492-18.76Z" fill="none"/>
      <path id="Path_1140" data-name="Path 1140" d="M990.714,698.973l-32.492,18.76L1061.7,777.475l32.493-18.76Z" fill="none"/>
      <path id="Path_1141" data-name="Path 1141" d="M706.776,125.21,674.284,143.97l103.477,59.743,32.492-18.76Z" fill="none"/>
      <path id="Path_1142" data-name="Path 1142" d="M1416.622,698.973l-32.492,18.76,103.477,59.742,32.493-18.76Z" fill="none"/>
      <path id="Path_1143" data-name="Path 1143" d="M1381.13,719.464l-32.493,18.76,103.478,59.743,32.492-18.76Z" fill="none"/>
      <path id="Path_1144" data-name="Path 1144" d="M1452.115,678.481l-32.493,18.76L1523.1,756.983l32.492-18.76Z" fill="none"/>
      <path id="Path_1145" data-name="Path 1145" d="M845.745,779.206,742.268,719.464l-32.493,18.76,103.477,59.743Z" fill="none"/>
      <path id="Path_1146" data-name="Path 1146" d="M705.276,735.625V616.141l-32.492-18.76V716.866Z" fill="none"/>
      <path id="Path_1147" data-name="Path 1147" d="M1058.7,779.206,955.222,719.464l-32.493,18.76,103.477,59.743Z" fill="none"/>
      <path id="Path_1148" data-name="Path 1148" d="M1271.654,779.206l-103.477-59.743-32.493,18.76,103.477,59.743Z" fill="none"/>
      <path id="Path_1149" data-name="Path 1149" d="M919.73,494.058l-32.492,18.759,103.477,59.742,32.492-18.759Z" fill="none"/>
      <path id="Path_1150" data-name="Path 1150" d="M1453.615,675.883l32.492,18.759V575.158l-32.492-18.76Z" fill="none"/>
      <path id="Path_1151" data-name="Path 1151" d="M1557.092,453.94l-103.477,59.743V551.2l103.477-59.742Z" fill="none"/>
      <path id="Path_1152" data-name="Path 1152" d="M1419.623,328.393,1523.1,388.136l32.492-18.759-26.418-15.252-77.059-44.49Z" fill="none"/>
      <path id="Path_1153" data-name="Path 1153" d="M1027.707,141.372l103.477-59.743V44.11l-103.477,59.743Z" fill="none"/>
      <path id="Path_1154" data-name="Path 1154" d="M1489.107,208.042V327.527l32.492,18.759V226.8Z" fill="none"/>
      <path id="Path_1155" data-name="Path 1155" d="M1489.107,576.89V696.375l32.492,18.759V595.649Z" fill="none"/>
      <path id="Path_1156" data-name="Path 1156" d="M1382.63,761.313V880.8l32.492,18.759V780.073Z" fill="none"/>
      <path id="Path_1157" data-name="Path 1157" d="M1523.838,760.021l-35.49,20.49,0,0-34.729,20.051v37.519l103.477-59.742V740.821l-33.252,19.2Z" fill="none"/>
      <path id="Path_1158" data-name="Path 1158" d="M1344.138,822.787,1240.661,882.53v37.519l103.477-59.743Z" fill="none"/>
      <path id="Path_1159" data-name="Path 1159" d="M1450.615,800.564l-32.493-18.76V901.289l32.493,18.76Z" fill="none"/>
      <path id="Path_1160" data-name="Path 1160" d="M703.776.529,676.547-15.191,600.3-59.213,567.807-40.454,671.284,19.289Z" fill="none"/>
      <path id="Path_1161" data-name="Path 1161" d="M745.268-19.962,848.745,39.78l32.493-18.76L777.761-38.722Z" fill="none"/>
      <path id="Path_1162" data-name="Path 1162" d="M1237.661,800.564,1205.168,781.8V901.289l32.493,18.76Z" fill="none"/>
      <path id="Path_1163" data-name="Path 1163" d="M672.784-20.828l5.263,3.038L705.276-2.069V-121.554l-32.492-18.76Z" fill="none"/>
      <path id="Path_1164" data-name="Path 1164" d="M703.776,369.376l-27.229-15.721L600.3,309.634l-32.492,18.759,103.477,59.742Z" fill="none"/>
      <path id="Path_1165" data-name="Path 1165" d="M634.291,206.311,601.8,187.551V307.036l32.492,18.76Z" fill="none"/>
      <path id="Path_1166" data-name="Path 1166" d="M1453.615,307.036l32.492,18.76V206.311l-32.492-18.76Z" fill="none"/>
      <path id="Path_1167" data-name="Path 1167" d="M1384.13-19.962,1487.607,39.78,1520.1,21.021,1416.622-38.722Z" fill="none"/>
      <path id="Path_1168" data-name="Path 1168" d="M1557.092,85.093l-103.477,59.743v37.519l103.477-59.742Z" fill="none"/>
      <path id="Path_1169" data-name="Path 1169" d="M1171.176-19.962,1274.653,39.78l32.492-18.76L1203.669-38.722Z" fill="none"/>
      <path id="Path_1170" data-name="Path 1170" d="M958.222-19.962,1061.7,39.78l32.492-18.76L990.715-38.722Z" fill="none"/>
      <path id="Path_1171" data-name="Path 1171" d="M1131.184,822.787,1027.707,882.53v37.519l103.477-59.743Z" fill="none"/>
      <path id="Path_1172" data-name="Path 1172" d="M669.784,346.287V226.8l-32.493-18.759V327.527Z" fill="none"/>
      <path id="Path_1173" data-name="Path 1173" d="M739.268,225.936,635.791,166.193,603.3,184.953,706.776,244.7Z" fill="none"/>
      <path id="Path_1174" data-name="Path 1174" d="M1169.676,761.313V880.8l32.492,18.759V780.073Z" fill="none"/>
      <path id="Path_1175" data-name="Path 1175" d="M601.8,510.219l103.477-59.743V412.957L601.8,472.7Z" fill="none"/>
      <path id="Path_1176" data-name="Path 1176" d="M705.276,453.94,601.8,513.683V551.2L705.276,491.46Z" fill="none"/>
      <path id="Path_1177" data-name="Path 1177" d="M705.276,85.093,601.8,144.836v37.519l103.477-59.742Z" fill="none"/>
      <path id="Path_1178" data-name="Path 1178" d="M993.715,328.393l103.477,59.742,32.492-18.759-27.229-15.721-76.248-44.022Z" fill="none"/>
      <path id="Path_1179" data-name="Path 1179" d="M811.753-102.795v-37.519L708.276-80.571v37.519Z" fill="none"/>
      <path id="Path_1180" data-name="Path 1180" d="M601.8,141.372,705.276,81.629V44.11L601.8,103.853Z" fill="none"/>
      <path id="Path_1181" data-name="Path 1181" d="M814.753,141.372,918.23,81.629V44.11L814.753,103.853Z" fill="none"/>
      <path id="Path_1182" data-name="Path 1182" d="M705.276,247.293l-32.492-18.759V348.019l5.263,3.039,27.229,15.721Z" fill="none"/>
      <path id="Path_1183" data-name="Path 1183" d="M739.268,594.783,635.791,535.041,603.3,553.8l103.477,59.742Z" fill="none"/>
      <path id="Path_1184" data-name="Path 1184" d="M811.753,800.564,779.261,781.8V901.289l32.492,18.76Z" fill="none"/>
      <path id="Path_1185" data-name="Path 1185" d="M956.722,761.313V880.8l32.493,18.759V780.073Z" fill="none"/>
      <path id="Path_1186" data-name="Path 1186" d="M634.291,694.642V575.158L601.8,556.4V675.883Z" fill="none"/>
      <path id="Path_1187" data-name="Path 1187" d="M1024.707,800.564,992.215,781.8V901.289l32.492,18.76Z" fill="none"/>
      <path id="Path_1188" data-name="Path 1188" d="M918.23,822.787,814.753,882.53v37.519L918.23,860.306Z" fill="none"/>
      <path id="Path_1189" data-name="Path 1189" d="M743.768,761.313V880.8l32.493,18.759V780.073Z" fill="none"/>
      <path id="Path_1190" data-name="Path 1190" d="M669.784,715.134V595.649L637.291,576.89V696.375Z" fill="none"/>
      <path id="Path_1191" data-name="Path 1191" d="M601.8,879.066l103.477-59.742V781.8L601.8,841.547Z" fill="none"/>
      <path id="Path_1192" data-name="Path 1192" d="M705.276,822.787,601.8,882.53v37.519l103.477-59.743Z" fill="none"/>
      <path id="Path_1193" data-name="Path 1193" d="M1523.838,391.174l-35.491,20.491h0l-34.73,20.051v37.519l103.477-59.743V371.975l-33.252,19.2Z" fill="none"/>
      <path id="Path_1194" data-name="Path 1194" d="M887.237,881.664l103.477,59.743,32.493-18.76L919.73,862.9Z" fill="none"/>
      <path id="Path_1195" data-name="Path 1195" d="M1100.191,881.664l103.477,59.743,32.493-18.76L1132.684,862.9Z" fill="none"/>
      <path id="Path_1196" data-name="Path 1196" d="M674.283,881.664,777.76,941.407l32.493-18.76L706.776,862.9Z" fill="none"/>
      <path id="Path_1197" data-name="Path 1197" d="M1560.092,860.306l32.492,18.76V759.581l-32.492-18.76Z" fill="none"/>
      <path id="Path_1198" data-name="Path 1198" d="M1313.145,881.664l103.477,59.743,32.493-18.76L1345.638,862.9Z" fill="none"/>
      <path id="Path_1199" data-name="Path 1199" d="M1595.584,880.8l32.493,18.759V780.073l-32.493-18.76Z" fill="none"/>
      <path id="Path_1200" data-name="Path 1200" d="M563.307,411.226l-32.492-18.76V511.951l32.492,18.759Z" fill="none"/>
      <path id="Path_1201" data-name="Path 1201" d="M564.807,330.125l-32.492,18.759,103.477,59.743,32.492-18.76Z" fill="none"/>
      <path id="Path_1202" data-name="Path 1202" d="M563.307,42.378l-32.492-18.76V143.1l32.492,18.76Z" fill="none"/>
      <path id="Path_1203" data-name="Path 1203" d="M563.307,780.073l-32.492-18.76V880.8l32.492,18.759Z" fill="none"/>
      <path id="Path_1204" data-name="Path 1204" d="M564.807,698.973l-32.493,18.76,103.477,59.742,32.493-18.76Z" fill="none"/>
      <path id="Path_1205" data-name="Path 1205" d="M1308.645-142.045,1276.153-160.8V-41.32l32.492,18.759Z" fill="none"/>
      <path id="Path_1206" data-name="Path 1206" d="M703.776,738.224,600.3,678.481l-32.493,18.76,103.478,59.742Z" fill="none"/>
      <path id="Path_1207" data-name="Path 1207" d="M1237.661-102.795v-37.519L1134.184-80.571v37.519Z" fill="none"/>
      <path id="Path_1208" data-name="Path 1208" d="M1024.707-102.795v-37.519L921.23-80.571v37.519Z" fill="none"/>
      <path id="Path_1209" data-name="Path 1209" d="M1594.084,593.051l32.493-18.759L1523.1,514.549l-32.492,18.759Z" fill="none"/>
      <path id="Path_1210" data-name="Path 1210" d="M1095.691-142.045,1063.2-160.8V-41.32l32.492,18.759Z" fill="none"/>
      <path id="Path_1211" data-name="Path 1211" d="M1595.584,511.951l32.493,18.759V411.226l-32.493-18.76Z" fill="none"/>
      <path id="Path_1212" data-name="Path 1212" d="M1594.084,224.2l32.493-18.759L1523.1,145.7l-32.492,18.759Z" fill="none"/>
      <path id="Path_1213" data-name="Path 1213" d="M1521.6-142.045,1489.107-160.8V-41.32L1521.6-22.561Z" fill="none"/>
      <path id="Path_1214" data-name="Path 1214" d="M1595.584,143.1l32.493,18.76V42.378l-32.493-18.76Z" fill="none"/>
      <path id="Path_1215" data-name="Path 1215" d="M1450.615-102.795v-37.519L1347.138-80.571v37.519Z" fill="none"/>
      <path id="Path_1216" data-name="Path 1216" d="M1560.092,3.127V122.612l32.492,18.759V21.887Z" fill="none"/>
      <path id="Path_1217" data-name="Path 1217" d="M1487.607,166.193l-32.492,18.76L1558.592,244.7l32.492-18.759Z" fill="none"/>
      <path id="Path_1218" data-name="Path 1218" d="M1347.138-2.069l103.478-59.743V-99.331L1347.138-39.588Z" fill="none"/>
      <path id="Path_1219" data-name="Path 1219" d="M1524.6,348.019l6.074,3.507,26.418,15.252V247.293L1524.6,228.534Z" fill="none"/>
      <path id="Path_1220" data-name="Path 1220" d="M1524.6-20.828l6.074,3.507,26.418,15.252V-121.554l-32.492-18.76Z" fill="none"/>
      <path id="Path_1221" data-name="Path 1221" d="M1419.623-40.454,1523.1,19.289,1555.592.529l-26.418-15.252-77.059-44.49Z" fill="none"/>
      <path id="Path_1222" data-name="Path 1222" d="M1524.6,716.866l32.492,18.76V616.141l-32.492-18.76Z" fill="none"/>
      <path id="Path_1223" data-name="Path 1223" d="M566.307,781.8V901.289l32.492,18.76V800.564Z" fill="none"/>
      <path id="Path_1224" data-name="Path 1224" d="M1487.607,535.041,1455.115,553.8l103.477,59.742,32.492-18.759Z" fill="none"/>
      <path id="Path_1225" data-name="Path 1225" d="M1560.092,371.975V491.46l32.492,18.759V390.734Z" fill="none"/>
      <path id="Path_1226" data-name="Path 1226" d="M669.784-142.045,637.291-160.8V-41.32l32.493,18.759Z" fill="none"/>
      <path id="Path_1227" data-name="Path 1227" d="M885.738-20.828l5.666,3.271L918.23-2.069V-121.554l-32.492-18.76Z" fill="none"/>
      <path id="Path_1228" data-name="Path 1228" d="M780.761-40.454,884.238,19.289,916.73.529,889.9-14.959l-76.65-44.254Z" fill="none"/>
      <path id="Path_1229" data-name="Path 1229" d="M564.807-38.722,532.314-19.962,635.791,39.78l32.492-18.759Z" fill="none"/>
      <path id="Path_1230" data-name="Path 1230" d="M708.276-2.069,811.753-61.812V-99.331L708.276-39.588Z" fill="none"/>
      <path id="Path_1231" data-name="Path 1231" d="M921.23-2.069l103.477-59.743V-99.331L921.23-39.588Z" fill="none"/>
      <path id="Path_1232" data-name="Path 1232" d="M1134.184-2.069l103.477-59.743V-99.331L1134.184-39.588Z" fill="none"/>
      <path id="Path_1233" data-name="Path 1233" d="M1311.645-20.828l5.264,3.038,27.229,15.721V-121.554l-32.492-18.76Z" fill="none"/>
      <path id="Path_1234" data-name="Path 1234" d="M993.715-40.454l103.477,59.742L1129.684.529l-27.229-15.721-76.248-44.021Z" fill="none"/>
      <path id="Path_1235" data-name="Path 1235" d="M1206.669-40.454l103.477,59.742L1342.638.529l-27.229-15.721-76.248-44.021Z" fill="none"/>
      <path id="Path_1236" data-name="Path 1236" d="M1098.691-20.828l5.264,3.038,27.229,15.721V-121.554l-32.493-18.76Z" fill="none"/>
      <path id="Path_1237" data-name="Path 1237" d="M953.722,510.219V390.734L921.23,371.975V491.46Z" fill="none"/>
      <path id="Path_1238" data-name="Path 1238" d="M887.238,143.97l103.477,59.742,32.492-18.759L919.73,125.21Z" fill="none"/>
      <path id="Path_1239" data-name="Path 1239" d="M1165.176,225.936,1061.7,166.193l-32.492,18.76L1132.684,244.7Z" fill="none"/>
      <path id="Path_1240" data-name="Path 1240" d="M952.222,225.936,848.745,166.193l-32.492,18.76L919.73,244.7Z" fill="none"/>
      <path id="Path_1241" data-name="Path 1241" d="M708.276,284.812,811.753,225.07V187.551l-33.253,19.2h0l-35.491,20.491h0l-34.731,20.052Z" fill="none"/>
      <path id="Path_1242" data-name="Path 1242" d="M1100.192,143.97l103.477,59.742,32.493-18.759L1132.684,125.21Z" fill="none"/>
      <path id="Path_1243" data-name="Path 1243" d="M1276.153,327.527l32.492,18.759V226.8l-32.492-18.759Z" fill="none"/>
      <path id="Path_1244" data-name="Path 1244" d="M1240.661,307.036l32.492,18.76V206.311l-32.492-18.76Z" fill="none"/>
      <path id="Path_1245" data-name="Path 1245" d="M814.753,182.355,918.23,122.612V85.093L814.753,144.836Z" fill="none"/>
      <path id="Path_1246" data-name="Path 1246" d="M779.261,163.6l5.665,3.271,26.827,15.489V62.87L779.261,44.11Z" fill="none"/>
      <path id="Path_1247" data-name="Path 1247" d="M774.761,205.444,671.284,145.7l-32.492,18.759L742.268,224.2Z" fill="none"/>
      <path id="Path_1248" data-name="Path 1248" d="M921.23,122.612l32.492,18.759V21.887L921.23,3.127Z" fill="none"/>
      <path id="Path_1249" data-name="Path 1249" d="M847.245,206.31l-32.492-18.759V307.036l32.492,18.76Z" fill="none"/>
      <path id="Path_1250" data-name="Path 1250" d="M743.768,143.1l32.493,18.76V42.378l-32.493-18.76Z" fill="none"/>
      <path id="Path_1251" data-name="Path 1251" d="M918.23,740.821l-33.253,19.2h0l-35.49,20.49,0,0-34.73,20.051v37.519L918.23,778.341Z" fill="none"/>
      <path id="Path_1252" data-name="Path 1252" d="M1311.645,348.019l5.264,3.039,27.229,15.721V247.293l-32.492-18.759Z" fill="none"/>
      <path id="Path_1253" data-name="Path 1253" d="M1131.184,616.141l-32.493-18.76V716.866l32.493,18.76Z" fill="none"/>
      <path id="Path_1254" data-name="Path 1254" d="M953.722,759.581l-32.492-18.76V860.306l32.492,18.76Z" fill="none"/>
      <path id="Path_1255" data-name="Path 1255" d="M956.722,143.1l32.493,18.76V42.378l-32.493-18.76Z" fill="none"/>
      <path id="Path_1256" data-name="Path 1256" d="M1095.691,595.649,1063.2,576.89V696.375l32.492,18.759Z" fill="none"/>
      <path id="Path_1257" data-name="Path 1257" d="M918.23,781.8,814.753,841.547v37.519L918.23,819.324Z" fill="none"/>
      <path id="Path_1258" data-name="Path 1258" d="M1310.884,391.174l-35.49,20.49h0l-34.73,20.051v37.519l103.477-59.743V371.975l-33.252,19.2Z" fill="none"/>
      <path id="Path_1259" data-name="Path 1259" d="M811.753,269.517,708.276,329.259v37.519l103.477-59.743Z" fill="none"/>
      <path id="Path_1260" data-name="Path 1260" d="M740.768,510.219V390.734l-32.492-18.759V491.46Z" fill="none"/>
      <path id="Path_1261" data-name="Path 1261" d="M708.276,653.659l103.477-59.742V556.4L778.5,575.6h0l-35.491,20.491h0l-34.731,20.052Z" fill="none"/>
      <path id="Path_1262" data-name="Path 1262" d="M774.761,574.292,671.284,514.549l-32.492,18.759,103.477,59.742Z" fill="none"/>
      <path id="Path_1263" data-name="Path 1263" d="M740.768,759.581l-32.492-18.76V860.306l32.492,18.76Z" fill="none"/>
      <path id="Path_1264" data-name="Path 1264" d="M1240.661,551.2l103.477-59.742V453.94l-103.477,59.743Z" fill="none"/>
      <path id="Path_1265" data-name="Path 1265" d="M992.215,163.6l5.665,3.271,26.827,15.489V62.87L992.215,44.11Z" fill="none"/>
      <path id="Path_1266" data-name="Path 1266" d="M776.261,530.71V411.225l-32.493-18.759V511.951Z" fill="none"/>
      <path id="Path_1267" data-name="Path 1267" d="M811.753,638.364,708.276,698.106v37.519l103.477-59.743Z" fill="none"/>
      <path id="Path_1268" data-name="Path 1268" d="M1347.138,698.106v37.519l103.478-59.743V638.364Z" fill="none"/>
      <path id="Path_1269" data-name="Path 1269" d="M845.745,410.359,742.268,350.617l-5.666,3.271-26.827,15.488,103.477,59.742Z" fill="none"/>
      <path id="Path_1270" data-name="Path 1270" d="M1417.361,575.6l-35.491,20.491h0l-34.731,20.052v37.519l103.478-59.742V556.4l-33.253,19.2Z" fill="none"/>
      <path id="Path_1271" data-name="Path 1271" d="M847.245,694.642V575.157L814.753,556.4V675.883Z" fill="none"/>
      <path id="Path_1272" data-name="Path 1272" d="M881.238,389.868,777.761,330.125l-32.492,18.759,103.477,59.743Z" fill="none"/>
      <path id="Path_1273" data-name="Path 1273" d="M814.753,469.236,918.23,409.493V371.975l-33.253,19.2h0l-35.491,20.491h0l-34.73,20.052Z" fill="none"/>
      <path id="Path_1274" data-name="Path 1274" d="M1274.653,166.193l-32.492,18.76L1345.638,244.7l32.493-18.759Z" fill="none"/>
      <path id="Path_1275" data-name="Path 1275" d="M1313.145,512.817l103.477,59.743,32.493-18.76-103.478-59.742Z" fill="none"/>
      <path id="Path_1276" data-name="Path 1276" d="M1274.653,535.041,1242.161,553.8l103.477,59.742,32.493-18.759Z" fill="none"/>
      <path id="Path_1277" data-name="Path 1277" d="M708.276,694.643,811.753,634.9V597.381L708.276,657.123Z" fill="none"/>
      <path id="Path_1278" data-name="Path 1278" d="M1347.138,122.612l32.493,18.759V21.887L1347.138,3.127Z" fill="none"/>
      <path id="Path_1279" data-name="Path 1279" d="M1382.63,392.466V511.951l32.492,18.759V411.225Z" fill="none"/>
      <path id="Path_1280" data-name="Path 1280" d="M1169.676,143.1l32.492,18.76V42.378l-32.492-18.76Z" fill="none"/>
      <path id="Path_1281" data-name="Path 1281" d="M1205.168,163.6l6.074,3.507,26.418,15.252V62.87L1205.168,44.11Z" fill="none"/>
      <path id="Path_1282" data-name="Path 1282" d="M1134.184,122.612l32.492,18.759V21.887L1134.184,3.127Z" fill="none"/>
      <path id="Path_1283" data-name="Path 1283" d="M1027.707,182.355l103.477-59.742V85.093l-103.477,59.743Z" fill="none"/>
      <path id="Path_1284" data-name="Path 1284" d="M1240.661,182.355l103.477-59.742V85.093l-103.477,59.743Z" fill="none"/>
      <path id="Path_1285" data-name="Path 1285" d="M1347.138,491.46l32.493,18.759V390.734l-32.493-18.759Z" fill="none"/>
      <path id="Path_1286" data-name="Path 1286" d="M1347.138,329.259v37.519l103.478-59.743V269.517Z" fill="none"/>
      <path id="Path_1287" data-name="Path 1287" d="M1417.361,206.75l-35.491,20.491h0l-34.731,20.052v37.519l103.478-59.742V187.551l-33.253,19.2Z" fill="none"/>
      <path id="Path_1288" data-name="Path 1288" d="M1313.145,143.97l103.477,59.743,32.493-18.76L1345.638,125.21Z" fill="none"/>
      <path id="Path_1289" data-name="Path 1289" d="M1382.63,23.619V143.1l32.492,18.76V42.378Z" fill="none"/>
      <path id="Path_1290" data-name="Path 1290" d="M708.276,122.612l32.492,18.759V21.887L708.276,3.127Z" fill="none"/>
      <path id="Path_1291" data-name="Path 1291" d="M918.23,453.94,814.753,513.683V551.2L918.23,491.46Z" fill="none"/>
      <path id="Path_1292" data-name="Path 1292" d="M814.753,510.219,918.23,450.476V412.957L814.753,472.7Z" fill="none"/>
      <path id="Path_1293" data-name="Path 1293" d="M885.738,348.019l5.666,3.271,26.827,15.488V247.293l-32.492-18.759Z" fill="none"/>
      <path id="Path_1294" data-name="Path 1294" d="M952.222,594.783,848.745,535.041,816.253,553.8,919.73,613.542Z" fill="none"/>
      <path id="Path_1295" data-name="Path 1295" d="M1027.707,307.036,1060.2,325.8V206.31l-32.492-18.759Z" fill="none"/>
      <path id="Path_1296" data-name="Path 1296" d="M1381.13,350.617l-5.264,3.039-27.229,15.721,103.478,59.742,32.492-18.759Z" fill="none"/>
      <path id="Path_1297" data-name="Path 1297" d="M1098.691,348.019l5.264,3.039,27.229,15.721V247.293l-32.493-18.759Z" fill="none"/>
      <path id="Path_1298" data-name="Path 1298" d="M1063.2,327.527l32.492,18.759V226.8L1063.2,208.042Z" fill="none"/>
      <path id="Path_1299" data-name="Path 1299" d="M1344.138,781.8l-103.477,59.742v37.519l103.477-59.742Z" fill="none"/>
      <path id="Path_1300" data-name="Path 1300" d="M1166.676,759.581l-32.492-18.76V860.306l32.492,18.76Z" fill="none"/>
      <path id="Path_1301" data-name="Path 1301" d="M882.738,715.134V595.649L850.245,576.89V696.375Z" fill="none"/>
      <path id="Path_1302" data-name="Path 1302" d="M918.23,616.141l-32.492-18.76V716.866l32.492,18.76Z" fill="none"/>
      <path id="Path_1303" data-name="Path 1303" d="M1131.184,781.8l-103.477,59.742v37.519l103.477-59.742Z" fill="none"/>
      <path id="Path_1304" data-name="Path 1304" d="M1060.2,575.157,1027.707,556.4V675.883l32.492,18.759Z" fill="none"/>
      <path id="Path_1305" data-name="Path 1305" d="M1450.615,431.717l-32.493-18.759V532.442l5.264,3.039,27.229,15.721Z" fill="none"/>
      <path id="Path_1306" data-name="Path 1306" d="M1344.138,740.821l-33.252,19.2h0l-35.49,20.49,0,0-34.729,20.051v37.519l103.477-59.742Z" fill="none"/>
      <path id="Path_1307" data-name="Path 1307" d="M1379.63,759.581l-32.493-18.76V860.306l32.493,18.76Z" fill="none"/>
      <path id="Path_1308" data-name="Path 1308" d="M1450.615,62.87,1418.122,44.11V163.6l5.264,3.039,27.229,15.72Z" fill="none"/>
      <path id="Path_1309" data-name="Path 1309" d="M1237.661,597.381l-103.477,59.742v37.519L1237.661,634.9Z" fill="none"/>
      <path id="Path_1310" data-name="Path 1310" d="M921.23,325.8l103.477-59.742V228.534L921.23,288.276Z" fill="none"/>
      <path id="Path_1311" data-name="Path 1311" d="M1131.184,740.821l-33.252,19.2h0l-35.49,20.491h0l-34.729,20.051v37.519l103.477-59.742Z" fill="none"/>
      <path id="Path_1312" data-name="Path 1312" d="M882.738-142.045,850.245-160.8V-41.32l32.493,18.759Z" fill="none"/>
      <path id="Path_1313" data-name="Path 1313" d="M987.714,574.292,884.238,514.549l-32.492,18.759,103.477,59.742Z" fill="none"/>
      <path id="Path_1314" data-name="Path 1314" d="M1204.407,575.6l-35.491,20.49h0l-34.73,20.052v37.519l103.477-59.742V556.4l-33.253,19.2Z" fill="none"/>
      <path id="Path_1315" data-name="Path 1315" d="M1168.176,350.617l-6.074,3.507-26.418,15.252,103.477,59.742,32.492-18.759Z" fill="none"/>
      <path id="Path_1316" data-name="Path 1316" d="M1240.661,141.372l103.477-59.743V44.11l-103.477,59.743Z" fill="none"/>
      <path id="Path_1317" data-name="Path 1317" d="M565.545-162.1h0l.539-.311h-6l-30.772,17.766-12.022-6.941v3.464l9.022,5.209-9.022,5.208v3.464l12.761-7.367h0Z" fill="#b83d3d" opacity="0.03"/>
      <path id="Path_1318" data-name="Path 1318" d="M708.276-121.554l34.731-20.052h0L778.5-162.1h0l.539-.311h-6l-30.771,17.765L711.5-162.409h-6l33.771,19.5-32.492,18.759-66.264-38.257h-6.221V-43.052L601.8-61.811v-100.6h-3v18.632L517.292-96.719v3.464L598.8-140.314v37.52L517.292-55.736v3.463L598.8-99.331v37.52L517.292-14.753v3.464l6.356-3.67,5.666-3.272L632.791,41.512,600.3,60.271,517.292,12.348v3.464l10.522,6.075V141.372L517.292,135.3v3.464L597.3,184.953l-32.492,18.759L517.292,176.28v3.464l44.515,25.7L529.314,224.2l-12.022-6.941v3.464l9.022,5.209-9.022,5.208v3.465l12.761-7.367h0l35.491-20.491h0l33.253-19.2V225.07l-81.507,47.058v3.464L598.8,228.534v37.519l-81.507,47.058v3.464L598.8,269.517v37.519l-81.507,47.058v3.464l6.356-3.67,5.666-3.271,103.477,59.742L600.3,429.119,517.292,381.2v3.464l10.522,6.075V510.219l-10.522-6.075v3.464L597.3,553.8l-32.492,18.759-47.515-27.432v3.464l44.515,25.7-32.493,18.76-12.022-6.941v3.464l9.022,5.209-9.022,5.209v3.464l12.761-7.367h0L565.545,575.6h0L598.8,556.4v37.519l-81.507,47.058v3.464L598.8,597.381V634.9l-81.507,47.058v3.464L598.8,638.364v37.519l-81.507,47.058v3.464l12.022-6.941,103.477,59.743L600.3,797.966l-83.007-47.924v3.464l10.522,6.075V879.066l-10.522-6.075v3.464L597.3,922.647l-32.493,18.76-47.514-27.433v3.464l44.515,25.7-28.5,16.453h6l26.232-15.145.007,0,33.25-19.2v34.346h3V925.245L634.291,944v15.587h3V945.736l24,13.855h6L603.3,922.647l32.492-18.76,96.481,55.7h6l-99.481-57.435,32.493-18.76,103.477,59.742-28.5,16.453h6L778.5,944.445l.007,0,33.25-19.2v34.346h3V925.245L847.245,944v15.587h3V945.736l24,13.855h6l-63.988-36.944,32.492-18.76,96.481,55.7h6l-99.482-57.435,32.493-18.76,103.478,59.742-28.5,16.453h6l26.232-15.145.007,0,33.25-19.2v34.346h3V925.245L1060.2,944v15.587h3V945.736l24,13.855h6l-63.988-36.944,32.492-18.76,96.482,55.7h6L1064.7,902.156l32.492-18.76,103.477,59.742-28.5,16.453h6l26.232-15.145.007,0,33.25-19.2v34.346h3V925.245L1273.153,944v15.587h3V945.736l24,13.855h6l-63.988-36.944,32.492-18.76,96.482,55.7h6l-99.481-57.435,32.492-18.76,103.477,59.743-28.5,16.452h6l26.232-15.146.007,0,33.25-19.2v34.346h3V925.245L1486.107,944v15.587h3V945.736l24,13.855h6l-63.988-36.944,32.492-18.76,96.482,55.7h6l-99.481-57.435L1523.1,883.4l103.477,59.742-28.5,16.453h6l26.232-15.145.007,0,8.973-5.181V935.8l-9.716,5.61L1526.1,881.664l32.493-18.76,80.7,46.593v-3.465l-8.215-4.743V781.8l8.215,4.743v-3.464l-77.7-44.86,32.492-18.76,45.208,26.1V742.1l-42.208-24.369,32.493-18.759,9.715,5.609v-3.464l-6.716-3.877,6.716-3.878V689.9l-79.2,45.727v-37.52l79.2-45.726v-3.464l-79.2,45.727v-37.52l79.2-45.726v-3.464l-79.2,45.726V616.141l34.731-20.052h0l35.491-20.491h0l8.976-5.182V566.95l-9.715,5.609L1526.1,512.817l32.492-18.759,80.7,46.592v-3.465l-2.952-1.7-5.263-3.039V412.958l8.215,4.743v-3.464l-77.7-44.861,27.229-15.72,5.263-3.039,45.208,26.1v-3.465l-42.208-24.368,32.493-18.759,9.715,5.609V332.27l-6.715-3.877,6.715-3.877v-3.464l-79.2,45.726V329.259l79.2-45.726v-3.464l-79.2,45.726V288.276l79.2-45.726v-3.464l-79.2,45.726V247.293l34.731-20.051h0l35.491-20.491h0l8.976-5.182V198.1l-9.715,5.609L1526.1,143.97l32.492-18.76,80.7,46.593v-3.465l-2.952-1.7-5.263-3.039V44.11l8.215,4.744V45.39L1561.592.529l27.229-15.72,5.263-3.04,45.208,26.1V4.406l-42.208-24.368,32.493-18.76,9.715,5.61v-3.465l-6.715-3.877,6.715-3.877v-3.464l-79.2,45.726V-39.588l79.2-45.726v-3.464l-79.2,45.726V-80.571l79.2-45.726v-3.464l-79.2,45.726v-37.519l34.731-20.052h0l35.491-20.491h0l.539-.311h-6l-30.771,17.765-30.771-17.765h-6l33.771,19.5-32.492,18.759-66.263-38.257h-6.222V-43.052l-32.492-18.759v-100.6h-3v18.632L1347.138-84.035v-37.519l34.731-20.052h0l35.491-20.491h0l.54-.311h-6l-30.771,17.765-30.771-17.765h-6l33.771,19.5-32.492,18.759-66.264-38.257h-6.221V-43.052l-32.492-18.759v-100.6h-3v18.632L1134.184-84.035v-37.519l34.73-20.052h0l35.491-20.491h0l.54-.311h-6l-30.771,17.765-30.771-17.765h-6l33.771,19.5-32.492,18.759-66.264-38.257H1060.2V-43.052l-32.492-18.759v-100.6h-3v18.632L921.23-84.035v-37.519l34.73-20.052h0L991.453-162.1h0l.54-.311h-6l-30.771,17.765-30.771-17.765h-6l33.771,19.5L919.73-124.152l-66.264-38.257h-6.221V-43.052L814.753-61.811v-100.6h-3v18.632L708.276-84.035ZM636.529,780.513l0,0,35.49-20.49h0l33.253-19.2v37.519L601.8,838.083V800.564ZM566.307,532.442V412.958L598.8,431.717V551.2l-26.827-15.489Zm70.222-120.777h0l35.491-20.49h0l33.253-19.2v37.518L601.8,469.236V431.717ZM566.307,163.6V44.11L598.8,62.87V182.355l-26.827-15.489ZM636.529,42.818h0l35.491-20.49h0l33.253-19.2V40.646L601.8,100.389V62.87ZM884.977,22.326l33.253-19.2V40.646L814.753,100.389V62.87l34.73-20.052h0l35.491-20.49Zm212.955,0,33.252-19.2V40.646l-103.477,59.743V62.87l34.73-20.052h0l35.491-20.49Zm212.954,0,33.252-19.2V40.646l-103.477,59.743V62.87l34.73-20.052h0l35.491-20.49Zm212.953,0,33.253-19.2V40.646l-103.477,59.743V62.87l34.731-20.052h0l35.491-20.49Zm33.253,837.98-103.477,59.743V882.53l103.477-59.743ZM736.6-14.959l5.666-3.272L845.745,41.512,813.253,60.271,709.776.529Zm212.955,0,5.665-3.272L1058.7,41.512l-32.492,18.759L922.73.529Zm212.545.236,6.074-3.508,103.477,59.743-32.492,18.759L1135.684.529Zm213.765-.468,5.263-3.04,103.477,59.743-32.492,18.759L1348.638.529Zm181.225,96.82-103.477,59.743V103.853L1557.092,44.11Zm-69.485,327L1384.13,348.885l32.492-18.759L1520.1,389.868Zm69.485,41.849-103.477,59.743V472.7l103.477-59.742ZM1523.1,756.983l-103.478-59.742,32.493-18.76,103.477,59.743Zm-35.493,20.492L1384.13,717.732l32.492-18.759L1520.1,758.715Zm69.485,41.849-103.477,59.742V841.547L1557.092,781.8Zm-104.977-21.358-103.477-59.742,32.492-18.76,103.477,59.743Zm-316.431-59.742,32.493-18.76,103.477,59.743-32.493,18.759Zm-212.954,0,32.492-18.76L1058.7,779.207l-32.493,18.759Zm-212.954,0,32.492-18.76,103.477,59.743-32.492,18.759Zm-4.5-122.083V735.626l-32.492-18.76V597.381Zm604.869,140.842-103.477-59.742,32.493-18.76,103.477,59.743Zm-35.492,20.492-103.477-59.743,32.492-18.759,103.478,59.742Zm-177.461-20.492L993.714,697.241l32.493-18.76,103.477,59.743ZM1061.7,777.475,958.222,717.732l32.492-18.759,103.478,59.742ZM884.238,756.983,780.76,697.241l32.493-18.76L916.73,738.224Zm-35.493,20.492L745.268,717.732l32.493-18.759,103.477,59.742ZM777.761,572.559,674.284,512.817l32.492-18.759L810.253,553.8ZM708.276,288.276l103.477-59.742v37.519L708.276,325.8Zm69.485-84.564L674.284,143.97l32.492-18.76,103.477,59.743ZM1381.13,224.2l-103.477-59.743,32.492-18.759,103.477,59.742Zm69.485,41.849L1347.138,325.8V288.276l103.477-59.742Zm-69.485,327-103.477-59.743,32.492-18.759,103.477,59.742Zm69.485,41.849-103.477,59.743v-37.52l103.477-59.742ZM779.261,532.442V412.958l32.492,18.759V551.2l-26.827-15.489Zm564.877,83.7V735.626l-32.493-18.76V597.381Zm-35.493,98.993-32.492-18.76V576.89l32.492,18.759Zm-35.492-20.492-32.492-18.759V556.4l32.492,18.76Zm-35.492-18.759-103.477,59.743v-37.52l103.477-59.742Zm-212.954,0L921.23,735.626v-37.52l103.477-59.742ZM884.238,388.136,780.761,328.393l32.492-18.759,76.65,44.254,26.827,15.488Zm-1.5-161.334V346.287l-32.493-18.76V208.042Zm72.484-2.6L851.745,164.461,884.238,145.7l103.476,59.742Zm.738,3.038h0l35.491-20.491h0l33.253-19.2V225.07L921.23,284.812V247.293Zm212.216-3.038L1064.7,164.461l32.493-18.759,103.476,59.742Zm.738,3.038h0l35.491-20.491h0l33.253-19.2V225.07l-103.477,59.742V247.293Zm173.724,142.134-32.493,18.76-103.476-59.743,32.492-18.759,76.248,44.022Zm-67.985,39.251-103.477-59.742,32.493-18.759,103.476,59.742Zm69.485,41.849-103.477,59.743V472.7l103.477-59.742ZM1029.207,553.8l32.492-18.76,103.477,59.743-32.492,18.759ZM921.23,657.123l103.477-59.742V634.9L921.23,694.643Zm103.477-63.206L921.23,653.659V616.141l34.73-20.052h0L991.453,575.6h0l33.253-19.2Zm178.961-21.358-103.476-59.742,32.492-18.759L1236.161,553.8Zm-35.492,20.492L1064.7,533.309l32.493-18.76,103.476,59.742ZM990.715,572.559,887.238,512.817l32.492-18.759L1023.207,553.8Zm-69.485-243.3,103.477-59.742v37.519L921.23,366.778Zm176.7,61.914,33.252-19.2v37.518l-103.477,59.743V431.717l34.73-20.052h0l35.491-20.49ZM992.215,532.442V412.958l32.492,18.759V551.2L997.88,535.713Zm138.969-81.966-103.477,59.743V472.7l103.477-59.742Zm-103.477,63.207,103.477-59.743v37.519L1027.707,551.2ZM1061.7,408.627,958.222,348.885l32.493-18.759,103.476,59.742ZM949.557,353.888l5.665-3.271L1058.7,410.359l-32.492,18.76L922.73,369.376Zm39.658,57.338V530.71l-32.493-18.759V392.466ZM1237.661,551.2l-26.418-15.253-6.075-3.507V412.958l32.493,18.759Zm-35.493-20.492-32.492-18.759V392.466l32.492,18.76Zm-35.492-20.491-32.492-18.76V371.975l32.492,18.759Zm70.985-203.183-103.477,59.742V329.259l103.477-59.742Zm0-40.983L1134.184,325.8V288.276l103.477-59.742ZM1129.684,369.376l-32.492,18.76L993.715,328.393l32.492-18.759,76.248,44.022ZM1024.707,266.053,921.23,325.8V288.276l103.477-59.742ZM953.722,390.734V510.219l-32.492-18.76V371.975ZM884.238,514.549l103.476,59.742-32.492,18.76L851.745,533.308Zm249.946,142.574,103.477-59.742V634.9l-103.477,59.743Zm103.477-63.206-103.477,59.742V616.141l34.73-20.052h0l35.491-20.491h0l33.253-19.2Zm1.5-164.8-103.477-59.743,26.418-15.252,6.074-3.507,103.477,59.742Zm-107.977-62.341-27.229-15.72-5.264-3.039V228.534l32.493,18.759Zm-35.493-20.491-32.492-18.76V208.042l32.492,18.76ZM1060.2,325.8l-32.492-18.759V187.551L1060.2,206.31ZM918.23,366.778,891.4,351.29l-5.665-3.271V228.534l32.492,18.759Zm0,83.7L814.753,510.219V472.7L918.23,412.958ZM814.753,513.683,918.23,453.94v37.519L814.753,551.2Zm33.992,21.357,103.477,59.743L919.73,613.542,816.253,553.8Zm33.993,60.609V715.134l-32.493-18.76V576.89Zm3,1.732,32.492,18.76V735.626l-32.492-18.76ZM1027.707,556.4l32.492,18.759V694.642l-32.492-18.759ZM1063.2,576.89l32.492,18.759V715.134l-32.492-18.76Zm35.492,20.491,32.493,18.76V735.626l-32.493-18.76Zm245.447-105.922L1240.661,551.2V513.683l103.477-59.743Zm0-81.966-103.477,59.743V431.717l34.73-20.052h0l35.491-20.49h0l33.252-19.2Zm0-42.715-27.229-15.72-5.264-3.039V228.534l32.493,18.759Zm-35.493-20.491-32.492-18.76V208.042l32.492,18.76ZM1273.153,325.8l-32.492-18.759V187.551l32.492,18.759Zm-69.485-122.083L1100.192,143.97l32.492-18.76,103.477,59.743ZM1061.7,166.193l103.477,59.743L1132.684,244.7l-103.477-59.742Zm-70.984,37.519L887.238,143.97l32.492-18.76,103.477,59.743Zm-141.97-37.519,103.477,59.743L919.73,244.7,816.253,184.953Zm-33.992,21.358,32.492,18.759V325.8l-32.492-18.759ZM777.761,330.126l103.477,59.742-32.493,18.759L745.268,348.885Zm71.722,81.539h0l35.491-20.49h0l33.253-19.2v37.518L814.753,469.236V431.717Zm-2.238,163.492V694.642l-32.492-18.759V556.4Zm498.393,38.385L1242.161,553.8l32.492-18.76,103.477,59.743Zm0-368.847-103.477-59.742,32.492-18.76,103.477,59.743ZM736.6,353.888l5.666-3.271,103.477,59.742-32.492,18.76L709.776,369.376Zm39.659,57.337V530.71l-32.493-18.759V392.466ZM811.753,634.9,708.276,694.643v-37.52l103.477-59.742ZM708.276,698.106l103.477-59.742v37.519L708.276,735.626Zm638.862,37.52v-37.52l103.477-59.742v37.519Zm103.477-141.709-103.477,59.742V616.141l34.731-20.052h0l35.491-20.491h0l33.253-19.2Zm-33.993-21.358-103.477-59.742,32.493-18.759L1449.115,553.8Zm-33.992-60.608V392.466l32.492,18.759V530.71Zm-3-1.732-32.492-18.76V371.975l32.492,18.759Zm-32.492-143.441V329.259l103.477-59.742v37.519ZM1450.615,225.07l-103.477,59.742V247.293l34.731-20.051h0l35.491-20.491h0l33.253-19.2Zm-33.993-21.358L1313.145,143.97l32.493-18.76,103.477,59.743ZM1382.63,143.1V23.619l32.492,18.759V161.863Zm-3-1.732-32.492-18.76V3.127l32.492,18.76Zm-35.492-18.76-103.477,59.743V144.836l103.477-59.743Zm-106.477,59.743L1211.243,167.1l-6.075-3.507V44.11l32.493,18.76Zm-35.493-20.492L1169.676,143.1V23.619l32.492,18.759Zm-35.492-20.491-32.492-18.76V3.127l32.492,18.76Zm-35.492-18.76-103.477,59.743V144.836l103.477-59.743Zm-106.477,59.743L997.88,166.866l-5.665-3.271V44.11l32.492,18.76Zm-35.492-20.492L956.722,143.1V23.619l32.493,18.759Zm-35.493-20.491-32.492-18.76V3.127l32.492,18.76Zm-35.492-18.76L814.753,182.355V144.836L918.23,85.093ZM811.753,182.355l-26.827-15.489-5.665-3.271V44.11l32.492,18.76Zm-35.492-20.492L743.768,143.1V23.619l32.493,18.759Zm-35.493-20.491-32.492-18.76V3.127l32.492,18.76Zm-69.484,4.33,103.477,59.742L742.268,224.2,638.791,164.461Zm71.723,81.54h0L778.5,206.75h0l33.253-19.2V225.07L708.276,284.812V247.293ZM708.276,329.259l103.477-59.742v37.519L708.276,366.778Zm32.492,61.475V510.219l-32.492-18.76V371.975ZM671.284,514.549l103.477,59.742-32.493,18.76L638.791,533.308Zm71.723,81.54h0L778.5,575.6h0l33.253-19.2v37.519L708.276,653.659V616.141ZM708.276,740.822l32.492,18.759V879.066l-32.492-18.76Zm106.477,59.742,34.73-20.051,0,0,35.49-20.49h0l33.253-19.2v37.519L814.753,838.083Zm0,40.983L918.23,781.8v37.52L814.753,879.066ZM921.23,740.822l32.492,18.759V879.066l-32.492-18.76Zm106.477,59.742,34.729-20.051,0,0,35.491-20.49h0l33.252-19.2v37.519l-103.477,59.742Zm0,40.983L1131.184,781.8v37.52l-103.477,59.742Zm106.477-100.725,32.492,18.759V879.066l-32.492-18.76Zm106.477,59.742,34.729-20.051,0,0,35.49-20.49h0l33.253-19.2v37.519l-103.477,59.742Zm0,40.983L1344.138,781.8v37.52l-103.477,59.742Zm106.477-100.725,32.492,18.759V879.066l-32.492-18.76Zm70.984-208.38V412.958l32.493,18.759V551.2l-27.229-15.721Zm33.993-103.323-103.477-59.743,27.229-15.72,5.263-3.039,103.477,59.742ZM1418.122,163.6V44.11l32.493,18.76V182.355l-27.229-15.721Zm-73.984-81.966-103.477,59.743V103.853L1344.138,44.11Zm-212.954,0-103.477,59.743V103.853L1131.184,44.11Zm-212.954,0L814.753,141.372V103.853L918.23,44.11Zm-212.954,0L601.8,141.372V103.853L705.276,44.11ZM601.8,144.836,705.276,85.093v37.519L601.8,182.355Zm33.992,21.357,103.477,59.743L706.776,244.7,603.3,184.953ZM669.784,226.8V346.287l-32.493-18.76V208.042Zm3,121.217V228.534l32.492,18.759V366.778l-27.229-15.72Zm32.492,102.457L601.8,510.219V472.7l103.477-59.742ZM601.8,513.683,705.276,453.94v37.519L601.8,551.2Zm33.992,21.357,103.477,59.743-32.492,18.759L603.3,553.8Zm33.993,60.609V715.134l-32.493-18.76V576.89Zm35.492,223.675L601.8,879.066V841.547L705.276,781.8ZM601.8,882.53l103.477-59.743v37.519L601.8,920.049ZM743.768,880.8V761.313l32.493,18.76V899.557ZM779.261,781.8l32.492,18.759V920.049l-32.492-18.76ZM814.753,882.53,918.23,822.787v37.519L814.753,920.049ZM956.722,880.8V761.313l32.493,18.76V899.557ZM992.215,781.8l32.492,18.759V920.049l-32.492-18.76Zm35.492,100.725,103.477-59.743v37.519l-103.477,59.743Zm141.969-1.732V761.313l32.492,18.76V899.557Zm35.492-98.993,32.493,18.759V920.049l-32.493-18.76Zm35.493,100.725,103.477-59.743v37.519l-103.477,59.743ZM1382.63,880.8V761.313l32.492,18.76V899.557Zm35.492-98.994,32.493,18.76V920.049l-32.493-18.76Zm138.97-3.463-103.477,59.742V800.564l34.73-20.051,0,0,35.491-20.49h0l33.253-19.2Zm-67.985-81.967V576.89l32.493,18.759V715.134Zm-3-1.732-32.492-18.759V556.4l32.492,18.76Zm-32.492-180.959,103.477-59.743v37.519L1453.615,551.2Zm103.477-104.19-103.477,59.743V431.717l34.731-20.052h0l35.491-20.49h0l33.253-19.2Zm-1.5-40.117-32.492,18.76-103.477-59.743,32.492-18.759,77.059,44.49Zm-66.485-41.849V208.042L1521.6,226.8V346.287Zm-3-1.732-32.492-18.759V187.551l32.492,18.759Zm-32.492-180.959,103.477-59.743v37.519l-103.477,59.743ZM1487.607,39.78,1384.13-19.962l32.492-18.76L1520.1,21.021Zm-212.954,0L1171.176-19.962l32.493-18.76L1307.145,21.02Zm-212.954,0L958.222-19.962l32.493-18.76L1094.191,21.02Zm-212.954,0L745.268-19.962l32.493-18.76L881.238,21.02ZM705.276-2.069,678.047-17.79l-5.263-3.038V-140.314l32.492,18.76ZM600.3-59.213l76.248,44.022L703.776.529l-32.492,18.76L567.807-40.454Zm1.5,246.764,32.492,18.759V325.8L601.8,307.036Zm-1.5,122.083,76.248,44.022,27.229,15.72-32.492,18.76L567.807,328.393Zm33.992,265.524V694.642L601.8,675.883V556.4ZM600.3,678.481l103.477,59.743-32.492,18.759L567.806,697.241ZM566.307,901.289V781.8L598.8,800.564V920.049Zm990.785-165.663-32.492-18.76V597.381l32.492,18.76Zm1.5-122.084L1455.115,553.8l32.492-18.76,103.477,59.743Zm1.5-122.083V371.975l32.492,18.759V510.219Zm-3-124.681-26.418-15.252-6.074-3.507V228.534l32.492,18.759Zm1.5-122.083-103.477-59.742,32.492-18.76,103.477,59.743Zm1.5-122.083V3.127l32.492,18.76V141.372Zm-3-124.681-26.418-15.252-6.074-3.507V-140.314l32.492,18.76Zm-1.5,2.6L1523.1,19.289,1419.623-40.454l32.492-18.759,77.059,44.49Zm-104.977-62.34L1347.138-2.069V-39.588l103.477-59.743ZM1344.138-2.069,1316.909-17.79l-5.264-3.038V-140.314l32.493,18.76Zm-1.5,2.6-32.493,18.76L1206.669-40.454l32.492-18.759,76.248,44.022Zm-104.977-62.34L1134.184-2.069V-39.588l103.477-59.743ZM1131.184-2.069,1103.955-17.79l-5.264-3.038V-140.314l32.493,18.76Zm-1.5,2.6-32.492,18.76L993.715-40.454l32.492-18.759,76.248,44.022Zm-104.977-62.34L921.23-2.069V-39.588l103.477-59.743ZM918.23-2.069,891.4-17.557l-5.665-3.271V-140.314l32.492,18.76Zm-1.5,2.6-32.492,18.76L780.761-40.454l32.492-18.759L889.9-14.959ZM811.753-61.811,708.276-2.069V-39.588L811.753-99.331ZM637.291-160.8l32.493,18.76V-22.561L637.291-41.32ZM532.314-19.962l32.493-18.76L668.284,21.021,635.791,39.78Zm-1.5,43.581,32.493,18.759V161.863L530.814,143.1Zm1.5,325.266,32.493-18.759,103.477,59.742-32.493,18.759Zm-1.5,43.581,32.493,18.76V530.71l-32.493-18.759Zm1.5,325.266,32.493-18.759,103.477,59.742-32.493,18.76Zm-1.5,43.581,32.493,18.76V899.557L530.814,880.8ZM777.76,941.407,674.283,881.664l32.493-18.76,103.477,59.743Zm212.954,0L887.237,881.664,919.73,862.9l103.477,59.743Zm212.954,0-103.477-59.743,32.493-18.76,103.477,59.743Zm212.954,0-103.477-59.743,32.493-18.76,103.477,59.743Zm211.455-41.85L1595.584,880.8V761.313l32.493,18.76Zm-35.493-139.976V879.066l-32.492-18.76V740.822Zm33.993-185.29-32.493,18.76-103.477-59.743,32.493-18.759Zm1.5-43.581-32.493-18.759V392.466l32.493,18.76Zm-1.5-325.266-32.493,18.76-103.477-59.743L1523.1,145.7Zm1.5-43.581L1595.584,143.1V23.619l32.493,18.759ZM1489.107-160.8l32.493,18.76V-22.561L1489.107-41.32Zm-38.492,20.491v37.52L1347.138-43.052V-80.571ZM1276.153-160.8l32.492,18.76V-22.561L1276.153-41.32Zm-38.492,20.491v37.52L1134.184-43.052V-80.571ZM1063.2-160.8l32.492,18.76V-22.561L1063.2-41.32Zm-38.492,20.491v37.52L921.23-43.052V-80.571ZM850.245-160.8l32.493,18.76V-22.561L850.245-41.32Zm-38.492,20.491v37.52L708.276-43.052V-80.571Z" fill="#fdf7f7"/>
      <path id="Path_1319" data-name="Path 1319" d="M517.292,958.421l2.027,1.17h6l-8.026-4.634Z" fill="#edeae4"/>
    </g>
    <g id="Group_228" data-name="Group 228" transform="translate(547.708 235.409)">
      <path id="Path_1078-2" data-name="Path 1078" d="M921.23,284.812l103.477-59.742V187.551l-33.252,19.2h0l-35.491,20.491h0l-34.73,20.052Z" fill="none"/>
      <path id="Path_1079-2" data-name="Path 1079" d="M1310.145,145.7l-32.492,18.759L1381.13,224.2l32.492-18.759Z" fill="none"/>
      <path id="Path_1080-2" data-name="Path 1080" d="M884.238,145.7l-32.492,18.759L955.222,224.2l32.492-18.759Z" fill="none"/>
      <path id="Path_1081-2" data-name="Path 1081" d="M1134.184,284.812l103.477-59.742V187.551l-33.253,19.2h0l-35.491,20.491h0l-34.73,20.052Z" fill="none"/>
      <path id="Path_1082-2" data-name="Path 1082" d="M1097.192,145.7,1064.7,164.461,1168.176,224.2l32.492-18.759Z" fill="none"/>
      <path id="Path_1083-2" data-name="Path 1083" d="M1203.669,330.125l-32.493,18.759,103.477,59.743,32.492-18.76Z" fill="none"/>
      <path id="Path_1084-2" data-name="Path 1084" d="M889.9,353.888l-76.65-44.254-32.492,18.759,103.477,59.742,32.492-18.759Z" fill="none"/>
      <path id="Path_1085-2" data-name="Path 1085" d="M1206.669,328.393l103.477,59.742,32.492-18.759-27.229-15.721-76.248-44.022Z" fill="none"/>
      <path id="Path_1086-2" data-name="Path 1086" d="M1276.153,696.375l32.492,18.759V595.649l-32.492-18.759Z" fill="none"/>
      <path id="Path_1087-2" data-name="Path 1087" d="M811.753,431.717l-32.492-18.759V532.442l5.665,3.271L811.753,551.2Z" fill="none"/>
      <path id="Path_1088-2" data-name="Path 1088" d="M1347.138,694.643,1450.615,634.9V597.381l-103.478,59.742Z" fill="none"/>
      <path id="Path_1089-2" data-name="Path 1089" d="M1310.145,514.549l-32.492,18.759,103.477,59.742,32.492-18.759Z" fill="none"/>
      <path id="Path_1090-2" data-name="Path 1090" d="M1347.138,325.8l103.478-59.742V228.534l-103.478,59.742Z" fill="none"/>
      <path id="Path_1091-2" data-name="Path 1091" d="M1240.661,510.219l103.477-59.743V412.957L1240.661,472.7Z" fill="none"/>
      <path id="Path_1092-2" data-name="Path 1092" d="M921.23,735.626l103.477-59.743V638.364L921.23,698.106Z" fill="none"/>
      <path id="Path_1093-2" data-name="Path 1093" d="M1134.184,735.626l103.477-59.743V638.364l-103.477,59.742Z" fill="none"/>
      <path id="Path_1094-2" data-name="Path 1094" d="M1240.661,675.883l32.492,18.759V575.158l-32.492-18.76Z" fill="none"/>
      <path id="Path_1095-2" data-name="Path 1095" d="M882.738,346.287V226.8l-32.493-18.759V327.527Z" fill="none"/>
      <path id="Path_1096-2" data-name="Path 1096" d="M989.215,530.71V411.226l-32.493-18.76V511.951Z" fill="none"/>
      <path id="Path_1097-2" data-name="Path 1097" d="M1058.7,410.359,955.222,350.617l-5.666,3.271L922.73,369.376l103.477,59.742Z" fill="none"/>
      <path id="Path_1098-2" data-name="Path 1098" d="M958.222,348.885,1061.7,408.627l32.492-18.76L990.715,330.125Z" fill="none"/>
      <path id="Path_1099-2" data-name="Path 1099" d="M1205.168,532.442l6.074,3.507,26.418,15.253V431.717l-32.493-18.759Z" fill="none"/>
      <path id="Path_1100-2" data-name="Path 1100" d="M1131.184,453.94l-103.477,59.743V551.2l103.477-59.742Z" fill="none"/>
      <path id="Path_1101-2" data-name="Path 1101" d="M1169.676,511.951l32.492,18.759V411.226l-32.492-18.76Z" fill="none"/>
      <path id="Path_1102-2" data-name="Path 1102" d="M1134.184,366.778l103.477-59.743V269.517l-103.477,59.742Z" fill="none"/>
      <path id="Path_1103-2" data-name="Path 1103" d="M1134.184,491.46l32.492,18.759V390.734l-32.492-18.759Z" fill="none"/>
      <path id="Path_1104-2" data-name="Path 1104" d="M991.453,575.6l-35.491,20.49h0l-34.73,20.052v37.519l103.477-59.742V556.4l-33.252,19.2Z" fill="none"/>
      <path id="Path_1105-2" data-name="Path 1105" d="M1132.684,494.058l-32.492,18.759,103.477,59.742,32.493-18.759Z" fill="none"/>
      <path id="Path_1106-2" data-name="Path 1106" d="M1165.176,594.783,1061.7,535.041,1029.207,553.8l103.477,59.742Z" fill="none"/>
      <path id="Path_1107-2" data-name="Path 1107" d="M1024.707,597.381,921.23,657.123v37.519L1024.707,634.9Z" fill="none"/>
      <path id="Path_1108-2" data-name="Path 1108" d="M1097.192,514.549l-32.493,18.76,103.477,59.742,32.492-18.759Z" fill="none"/>
      <path id="Path_1109-2" data-name="Path 1109" d="M1024.707,269.517,921.23,329.259v37.519l103.477-59.743Z" fill="none"/>
      <path id="Path_1110-2" data-name="Path 1110" d="M1027.707,510.219l103.477-59.743V412.957L1027.707,472.7Z" fill="none"/>
      <path id="Path_1111-2" data-name="Path 1111" d="M1024.707,431.717l-32.492-18.759V532.442l5.665,3.271,26.827,15.489Z" fill="none"/>
      <path id="Path_1112-2" data-name="Path 1112" d="M1062.437,411.665l-34.73,20.052v37.519l103.477-59.743V371.975l-33.252,19.2h0l-35.491,20.491Z" fill="none"/>
      <path id="Path_1113-2" data-name="Path 1113" d="M1344.138,735.625V616.141l-32.492-18.76V716.866Z" fill="none"/>
      <path id="Path_1114-2" data-name="Path 1114" d="M845.745,41.512,742.268-18.23,736.6-14.959,709.776.529,813.253,60.271Z" fill="none"/>
      <path id="Path_1115-2" data-name="Path 1115" d="M1062.437,42.818l-34.73,20.052v37.519l103.477-59.743V3.127l-33.252,19.2h0l-35.491,20.491Z" fill="none"/>
      <path id="Path_1116-2" data-name="Path 1116" d="M1453.615,920.049l103.477-59.743V822.787L1453.615,882.53Z" fill="none"/>
      <path id="Path_1117-2" data-name="Path 1117" d="M1275.391,42.818l-34.73,20.051v37.519l103.477-59.743V3.127l-33.252,19.2h0l-35.49,20.49Z" fill="none"/>
      <path id="Path_1118-2" data-name="Path 1118" d="M1488.346,42.818l-34.73,20.052v37.519l103.477-59.743V3.127l-33.252,19.2h0l-35.491,20.491Z" fill="none"/>
      <path id="Path_1119-2" data-name="Path 1119" d="M1484.607,41.512,1381.13-18.23l-5.264,3.039L1348.638.529l103.478,59.742Z" fill="none"/>
      <path id="Path_1120-2" data-name="Path 1120" d="M1453.615,141.372l103.477-59.743V44.11l-103.477,59.743Z" fill="none"/>
      <path id="Path_1121-2" data-name="Path 1121" d="M1271.653,41.512,1168.176-18.23l-6.074,3.507L1135.684.529l103.477,59.742Z" fill="none"/>
      <path id="Path_1122-2" data-name="Path 1122" d="M1058.7,41.512,955.222-18.23l-5.666,3.271L922.73.529l103.477,59.742Z" fill="none"/>
      <path id="Path_1123-2" data-name="Path 1123" d="M601.8,100.389,705.276,40.646V3.127l-33.253,19.2h0L636.531,42.817h0L601.8,62.87Z" fill="none"/>
      <path id="Path_1124-2" data-name="Path 1124" d="M598.8,431.717l-32.492-18.759V532.442l5.665,3.271L598.8,551.2Z" fill="none"/>
      <path id="Path_1125-2" data-name="Path 1125" d="M601.8,838.083l103.477-59.742V740.821l-33.253,19.2h0l-35.49,20.49,0,0L601.8,800.564Z" fill="none"/>
      <path id="Path_1126-2" data-name="Path 1126" d="M849.483,42.818,814.753,62.87v37.519L918.23,40.646V3.127l-33.253,19.2h0L849.485,42.817Z" fill="none"/>
      <path id="Path_1127-2" data-name="Path 1127" d="M1134.184,325.8l103.477-59.742V228.534l-103.477,59.742Z" fill="none"/>
      <path id="Path_1128-2" data-name="Path 1128" d="M1416.622,330.125l-32.492,18.759,103.477,59.743,32.492-18.76Z" fill="none"/>
      <path id="Path_1129-2" data-name="Path 1129" d="M598.8,62.87,566.307,44.11V163.6l5.665,3.271L598.8,182.355Z" fill="none"/>
      <path id="Path_1130-2" data-name="Path 1130" d="M601.8,469.236l103.477-59.743V371.975l-33.253,19.2h0l-35.491,20.491h0L601.8,431.717Z" fill="none"/>
      <path id="Path_1131-2" data-name="Path 1131" d="M1453.615,879.066l103.477-59.742V781.8l-103.477,59.742Z" fill="none"/>
      <path id="Path_1132-2" data-name="Path 1132" d="M1453.615,510.219l103.477-59.743V412.957L1453.615,472.7Z" fill="none"/>
      <path id="Path_1133-2" data-name="Path 1133" d="M1239.161,678.481l-32.493,18.76,103.478,59.742,32.492-18.76Z" fill="none"/>
      <path id="Path_1134-2" data-name="Path 1134" d="M1203.668,698.973l-32.492,18.76,103.477,59.742,32.493-18.76Z" fill="none"/>
      <path id="Path_1135-2" data-name="Path 1135" d="M813.253,678.481l-32.493,18.76,103.478,59.742,32.492-18.76Z" fill="none"/>
      <path id="Path_1136-2" data-name="Path 1136" d="M1026.207,678.481l-32.493,18.76,103.478,59.742,32.492-18.76Z" fill="none"/>
      <path id="Path_1137-2" data-name="Path 1137" d="M777.761,698.973l-32.493,18.76,103.477,59.742,32.493-18.76Z" fill="none"/>
      <path id="Path_1138-2" data-name="Path 1138" d="M811.753,228.534,708.276,288.276V325.8l103.477-59.742Z" fill="none"/>
      <path id="Path_1139-2" data-name="Path 1139" d="M706.776,494.058l-32.492,18.759L777.761,572.56l32.492-18.76Z" fill="none"/>
      <path id="Path_1140-2" data-name="Path 1140" d="M990.714,698.973l-32.492,18.76L1061.7,777.475l32.493-18.76Z" fill="none"/>
      <path id="Path_1141-2" data-name="Path 1141" d="M706.776,125.21,674.284,143.97l103.477,59.743,32.492-18.76Z" fill="none"/>
      <path id="Path_1142-2" data-name="Path 1142" d="M1416.622,698.973l-32.492,18.76,103.477,59.742,32.493-18.76Z" fill="none"/>
      <path id="Path_1143-2" data-name="Path 1143" d="M1381.13,719.464l-32.493,18.76,103.478,59.743,32.492-18.76Z" fill="none"/>
      <path id="Path_1144-2" data-name="Path 1144" d="M1452.115,678.481l-32.493,18.76L1523.1,756.983l32.492-18.76Z" fill="none"/>
      <path id="Path_1145-2" data-name="Path 1145" d="M845.745,779.206,742.268,719.464l-32.493,18.76,103.477,59.743Z" fill="none"/>
      <path id="Path_1146-2" data-name="Path 1146" d="M705.276,735.625V616.141l-32.492-18.76V716.866Z" fill="none"/>
      <path id="Path_1147-2" data-name="Path 1147" d="M1058.7,779.206,955.222,719.464l-32.493,18.76,103.477,59.743Z" fill="none"/>
      <path id="Path_1148-2" data-name="Path 1148" d="M1271.654,779.206l-103.477-59.743-32.493,18.76,103.477,59.743Z" fill="none"/>
      <path id="Path_1149-2" data-name="Path 1149" d="M919.73,494.058l-32.492,18.759,103.477,59.742,32.492-18.759Z" fill="none"/>
      <path id="Path_1150-2" data-name="Path 1150" d="M1453.615,675.883l32.492,18.759V575.158l-32.492-18.76Z" fill="none"/>
      <path id="Path_1151-2" data-name="Path 1151" d="M1557.092,453.94l-103.477,59.743V551.2l103.477-59.742Z" fill="none"/>
      <path id="Path_1152-2" data-name="Path 1152" d="M1419.623,328.393,1523.1,388.136l32.492-18.759-26.418-15.252-77.059-44.49Z" fill="none"/>
      <path id="Path_1153-2" data-name="Path 1153" d="M1027.707,141.372l103.477-59.743V44.11l-103.477,59.743Z" fill="none"/>
      <path id="Path_1154-2" data-name="Path 1154" d="M1489.107,208.042V327.527l32.492,18.759V226.8Z" fill="none"/>
      <path id="Path_1155-2" data-name="Path 1155" d="M1489.107,576.89V696.375l32.492,18.759V595.649Z" fill="none"/>
      <path id="Path_1156-2" data-name="Path 1156" d="M1382.63,761.313V880.8l32.492,18.759V780.073Z" fill="none"/>
      <path id="Path_1157-2" data-name="Path 1157" d="M1523.838,760.021l-35.49,20.49,0,0-34.729,20.051v37.519l103.477-59.742V740.821l-33.252,19.2Z" fill="none"/>
      <path id="Path_1158-2" data-name="Path 1158" d="M1344.138,822.787,1240.661,882.53v37.519l103.477-59.743Z" fill="none"/>
      <path id="Path_1159-2" data-name="Path 1159" d="M1450.615,800.564l-32.493-18.76V901.289l32.493,18.76Z" fill="none"/>
      <path id="Path_1160-2" data-name="Path 1160" d="M703.776.529,676.547-15.191,600.3-59.213,567.807-40.454,671.284,19.289Z" fill="none"/>
      <path id="Path_1161-2" data-name="Path 1161" d="M745.268-19.962,848.745,39.78l32.493-18.76L777.761-38.722Z" fill="none"/>
      <path id="Path_1162-2" data-name="Path 1162" d="M1237.661,800.564,1205.168,781.8V901.289l32.493,18.76Z" fill="none"/>
      <path id="Path_1163-2" data-name="Path 1163" d="M672.784-20.828l5.263,3.038L705.276-2.069V-121.554l-32.492-18.76Z" fill="none"/>
      <path id="Path_1164-2" data-name="Path 1164" d="M703.776,369.376l-27.229-15.721L600.3,309.634l-32.492,18.759,103.477,59.742Z" fill="none"/>
      <path id="Path_1165-2" data-name="Path 1165" d="M634.291,206.311,601.8,187.551V307.036l32.492,18.76Z" fill="none"/>
      <path id="Path_1166-2" data-name="Path 1166" d="M1453.615,307.036l32.492,18.76V206.311l-32.492-18.76Z" fill="none"/>
      <path id="Path_1167-2" data-name="Path 1167" d="M1384.13-19.962,1487.607,39.78,1520.1,21.021,1416.622-38.722Z" fill="none"/>
      <path id="Path_1168-2" data-name="Path 1168" d="M1557.092,85.093l-103.477,59.743v37.519l103.477-59.742Z" fill="none"/>
      <path id="Path_1169-2" data-name="Path 1169" d="M1171.176-19.962,1274.653,39.78l32.492-18.76L1203.669-38.722Z" fill="none"/>
      <path id="Path_1170-2" data-name="Path 1170" d="M958.222-19.962,1061.7,39.78l32.492-18.76L990.715-38.722Z" fill="none"/>
      <path id="Path_1171-2" data-name="Path 1171" d="M1131.184,822.787,1027.707,882.53v37.519l103.477-59.743Z" fill="none"/>
      <path id="Path_1172-2" data-name="Path 1172" d="M669.784,346.287V226.8l-32.493-18.759V327.527Z" fill="none"/>
      <path id="Path_1173-2" data-name="Path 1173" d="M739.268,225.936,635.791,166.193,603.3,184.953,706.776,244.7Z" fill="none"/>
      <path id="Path_1174-2" data-name="Path 1174" d="M1169.676,761.313V880.8l32.492,18.759V780.073Z" fill="none"/>
      <path id="Path_1175-2" data-name="Path 1175" d="M601.8,510.219l103.477-59.743V412.957L601.8,472.7Z" fill="none"/>
      <path id="Path_1176-2" data-name="Path 1176" d="M705.276,453.94,601.8,513.683V551.2L705.276,491.46Z" fill="none"/>
      <path id="Path_1177-2" data-name="Path 1177" d="M705.276,85.093,601.8,144.836v37.519l103.477-59.742Z" fill="none"/>
      <path id="Path_1178-2" data-name="Path 1178" d="M993.715,328.393l103.477,59.742,32.492-18.759-27.229-15.721-76.248-44.022Z" fill="none"/>
      <path id="Path_1179-2" data-name="Path 1179" d="M811.753-102.795v-37.519L708.276-80.571v37.519Z" fill="none"/>
      <path id="Path_1180-2" data-name="Path 1180" d="M601.8,141.372,705.276,81.629V44.11L601.8,103.853Z" fill="none"/>
      <path id="Path_1181-2" data-name="Path 1181" d="M814.753,141.372,918.23,81.629V44.11L814.753,103.853Z" fill="none"/>
      <path id="Path_1182-2" data-name="Path 1182" d="M705.276,247.293l-32.492-18.759V348.019l5.263,3.039,27.229,15.721Z" fill="none"/>
      <path id="Path_1183-2" data-name="Path 1183" d="M739.268,594.783,635.791,535.041,603.3,553.8l103.477,59.742Z" fill="none"/>
      <path id="Path_1184-2" data-name="Path 1184" d="M811.753,800.564,779.261,781.8V901.289l32.492,18.76Z" fill="none"/>
      <path id="Path_1185-2" data-name="Path 1185" d="M956.722,761.313V880.8l32.493,18.759V780.073Z" fill="none"/>
      <path id="Path_1186-2" data-name="Path 1186" d="M634.291,694.642V575.158L601.8,556.4V675.883Z" fill="none"/>
      <path id="Path_1187-2" data-name="Path 1187" d="M1024.707,800.564,992.215,781.8V901.289l32.492,18.76Z" fill="none"/>
      <path id="Path_1188-2" data-name="Path 1188" d="M918.23,822.787,814.753,882.53v37.519L918.23,860.306Z" fill="none"/>
      <path id="Path_1189-2" data-name="Path 1189" d="M743.768,761.313V880.8l32.493,18.759V780.073Z" fill="none"/>
      <path id="Path_1190-2" data-name="Path 1190" d="M669.784,715.134V595.649L637.291,576.89V696.375Z" fill="none"/>
      <path id="Path_1191-2" data-name="Path 1191" d="M601.8,879.066l103.477-59.742V781.8L601.8,841.547Z" fill="none"/>
      <path id="Path_1192-2" data-name="Path 1192" d="M705.276,822.787,601.8,882.53v37.519l103.477-59.743Z" fill="none"/>
      <path id="Path_1193-2" data-name="Path 1193" d="M1523.838,391.174l-35.491,20.491h0l-34.73,20.051v37.519l103.477-59.743V371.975l-33.252,19.2Z" fill="none"/>
      <path id="Path_1194-2" data-name="Path 1194" d="M887.237,881.664l103.477,59.743,32.493-18.76L919.73,862.9Z" fill="none"/>
      <path id="Path_1195-2" data-name="Path 1195" d="M1100.191,881.664l103.477,59.743,32.493-18.76L1132.684,862.9Z" fill="none"/>
      <path id="Path_1196-2" data-name="Path 1196" d="M674.283,881.664,777.76,941.407l32.493-18.76L706.776,862.9Z" fill="none"/>
      <path id="Path_1197-2" data-name="Path 1197" d="M1560.092,860.306l32.492,18.76V759.581l-32.492-18.76Z" fill="none"/>
      <path id="Path_1198-2" data-name="Path 1198" d="M1313.145,881.664l103.477,59.743,32.493-18.76L1345.638,862.9Z" fill="none"/>
      <path id="Path_1199-2" data-name="Path 1199" d="M1595.584,880.8l32.493,18.759V780.073l-32.493-18.76Z" fill="none"/>
      <path id="Path_1200-2" data-name="Path 1200" d="M563.307,411.226l-32.492-18.76V511.951l32.492,18.759Z" fill="none"/>
      <path id="Path_1201-2" data-name="Path 1201" d="M564.807,330.125l-32.492,18.759,103.477,59.743,32.492-18.76Z" fill="none"/>
      <path id="Path_1202-2" data-name="Path 1202" d="M563.307,42.378l-32.492-18.76V143.1l32.492,18.76Z" fill="none"/>
      <path id="Path_1203-2" data-name="Path 1203" d="M563.307,780.073l-32.492-18.76V880.8l32.492,18.759Z" fill="none"/>
      <path id="Path_1204-2" data-name="Path 1204" d="M564.807,698.973l-32.493,18.76,103.477,59.742,32.493-18.76Z" fill="none"/>
      <path id="Path_1205-2" data-name="Path 1205" d="M1308.645-142.045,1276.153-160.8V-41.32l32.492,18.759Z" fill="none"/>
      <path id="Path_1206-2" data-name="Path 1206" d="M703.776,738.224,600.3,678.481l-32.493,18.76,103.478,59.742Z" fill="none"/>
      <path id="Path_1207-2" data-name="Path 1207" d="M1237.661-102.795v-37.519L1134.184-80.571v37.519Z" fill="none"/>
      <path id="Path_1208-2" data-name="Path 1208" d="M1024.707-102.795v-37.519L921.23-80.571v37.519Z" fill="none"/>
      <path id="Path_1209-2" data-name="Path 1209" d="M1594.084,593.051l32.493-18.759L1523.1,514.549l-32.492,18.759Z" fill="none"/>
      <path id="Path_1210-2" data-name="Path 1210" d="M1095.691-142.045,1063.2-160.8V-41.32l32.492,18.759Z" fill="none"/>
      <path id="Path_1211-2" data-name="Path 1211" d="M1595.584,511.951l32.493,18.759V411.226l-32.493-18.76Z" fill="none"/>
      <path id="Path_1212-2" data-name="Path 1212" d="M1594.084,224.2l32.493-18.759L1523.1,145.7l-32.492,18.759Z" fill="none"/>
      <path id="Path_1213-2" data-name="Path 1213" d="M1521.6-142.045,1489.107-160.8V-41.32L1521.6-22.561Z" fill="none"/>
      <path id="Path_1214-2" data-name="Path 1214" d="M1595.584,143.1l32.493,18.76V42.378l-32.493-18.76Z" fill="none"/>
      <path id="Path_1215-2" data-name="Path 1215" d="M1450.615-102.795v-37.519L1347.138-80.571v37.519Z" fill="none"/>
      <path id="Path_1216-2" data-name="Path 1216" d="M1560.092,3.127V122.612l32.492,18.759V21.887Z" fill="none"/>
      <path id="Path_1217-2" data-name="Path 1217" d="M1487.607,166.193l-32.492,18.76L1558.592,244.7l32.492-18.759Z" fill="none"/>
      <path id="Path_1218-2" data-name="Path 1218" d="M1347.138-2.069l103.478-59.743V-99.331L1347.138-39.588Z" fill="none"/>
      <path id="Path_1219-2" data-name="Path 1219" d="M1524.6,348.019l6.074,3.507,26.418,15.252V247.293L1524.6,228.534Z" fill="none"/>
      <path id="Path_1220-2" data-name="Path 1220" d="M1524.6-20.828l6.074,3.507,26.418,15.252V-121.554l-32.492-18.76Z" fill="none"/>
      <path id="Path_1221-2" data-name="Path 1221" d="M1419.623-40.454,1523.1,19.289,1555.592.529l-26.418-15.252-77.059-44.49Z" fill="none"/>
      <path id="Path_1222-2" data-name="Path 1222" d="M1524.6,716.866l32.492,18.76V616.141l-32.492-18.76Z" fill="none"/>
      <path id="Path_1223-2" data-name="Path 1223" d="M566.307,781.8V901.289l32.492,18.76V800.564Z" fill="none"/>
      <path id="Path_1224-2" data-name="Path 1224" d="M1487.607,535.041,1455.115,553.8l103.477,59.742,32.492-18.759Z" fill="none"/>
      <path id="Path_1225-2" data-name="Path 1225" d="M1560.092,371.975V491.46l32.492,18.759V390.734Z" fill="none"/>
      <path id="Path_1226-2" data-name="Path 1226" d="M669.784-142.045,637.291-160.8V-41.32l32.493,18.759Z" fill="none"/>
      <path id="Path_1227-2" data-name="Path 1227" d="M885.738-20.828l5.666,3.271L918.23-2.069V-121.554l-32.492-18.76Z" fill="none"/>
      <path id="Path_1228-2" data-name="Path 1228" d="M780.761-40.454,884.238,19.289,916.73.529,889.9-14.959l-76.65-44.254Z" fill="none"/>
      <path id="Path_1229-2" data-name="Path 1229" d="M564.807-38.722,532.314-19.962,635.791,39.78l32.492-18.759Z" fill="none"/>
      <path id="Path_1230-2" data-name="Path 1230" d="M708.276-2.069,811.753-61.812V-99.331L708.276-39.588Z" fill="none"/>
      <path id="Path_1231-2" data-name="Path 1231" d="M921.23-2.069l103.477-59.743V-99.331L921.23-39.588Z" fill="none"/>
      <path id="Path_1232-2" data-name="Path 1232" d="M1134.184-2.069l103.477-59.743V-99.331L1134.184-39.588Z" fill="none"/>
      <path id="Path_1233-2" data-name="Path 1233" d="M1311.645-20.828l5.264,3.038,27.229,15.721V-121.554l-32.492-18.76Z" fill="none"/>
      <path id="Path_1234-2" data-name="Path 1234" d="M993.715-40.454l103.477,59.742L1129.684.529l-27.229-15.721-76.248-44.021Z" fill="none"/>
      <path id="Path_1235-2" data-name="Path 1235" d="M1206.669-40.454l103.477,59.742L1342.638.529l-27.229-15.721-76.248-44.021Z" fill="none"/>
      <path id="Path_1236-2" data-name="Path 1236" d="M1098.691-20.828l5.264,3.038,27.229,15.721V-121.554l-32.493-18.76Z" fill="none"/>
      <path id="Path_1237-2" data-name="Path 1237" d="M953.722,510.219V390.734L921.23,371.975V491.46Z" fill="none"/>
      <path id="Path_1238-2" data-name="Path 1238" d="M887.238,143.97l103.477,59.742,32.492-18.759L919.73,125.21Z" fill="none"/>
      <path id="Path_1239-2" data-name="Path 1239" d="M1165.176,225.936,1061.7,166.193l-32.492,18.76L1132.684,244.7Z" fill="none"/>
      <path id="Path_1240-2" data-name="Path 1240" d="M952.222,225.936,848.745,166.193l-32.492,18.76L919.73,244.7Z" fill="none"/>
      <path id="Path_1241-2" data-name="Path 1241" d="M708.276,284.812,811.753,225.07V187.551l-33.253,19.2h0l-35.491,20.491h0l-34.731,20.052Z" fill="none"/>
      <path id="Path_1242-2" data-name="Path 1242" d="M1100.192,143.97l103.477,59.742,32.493-18.759L1132.684,125.21Z" fill="none"/>
      <path id="Path_1243-2" data-name="Path 1243" d="M1276.153,327.527l32.492,18.759V226.8l-32.492-18.759Z" fill="none"/>
      <path id="Path_1244-2" data-name="Path 1244" d="M1240.661,307.036l32.492,18.76V206.311l-32.492-18.76Z" fill="none"/>
      <path id="Path_1245-2" data-name="Path 1245" d="M814.753,182.355,918.23,122.612V85.093L814.753,144.836Z" fill="none"/>
      <path id="Path_1246-2" data-name="Path 1246" d="M779.261,163.6l5.665,3.271,26.827,15.489V62.87L779.261,44.11Z" fill="none"/>
      <path id="Path_1247-2" data-name="Path 1247" d="M774.761,205.444,671.284,145.7l-32.492,18.759L742.268,224.2Z" fill="none"/>
      <path id="Path_1248-2" data-name="Path 1248" d="M921.23,122.612l32.492,18.759V21.887L921.23,3.127Z" fill="none"/>
      <path id="Path_1249-2" data-name="Path 1249" d="M847.245,206.31l-32.492-18.759V307.036l32.492,18.76Z" fill="none"/>
      <path id="Path_1250-2" data-name="Path 1250" d="M743.768,143.1l32.493,18.76V42.378l-32.493-18.76Z" fill="none"/>
      <path id="Path_1251-2" data-name="Path 1251" d="M918.23,740.821l-33.253,19.2h0l-35.49,20.49,0,0-34.73,20.051v37.519L918.23,778.341Z" fill="none"/>
      <path id="Path_1252-2" data-name="Path 1252" d="M1311.645,348.019l5.264,3.039,27.229,15.721V247.293l-32.492-18.759Z" fill="none"/>
      <path id="Path_1253-2" data-name="Path 1253" d="M1131.184,616.141l-32.493-18.76V716.866l32.493,18.76Z" fill="none"/>
      <path id="Path_1254-2" data-name="Path 1254" d="M953.722,759.581l-32.492-18.76V860.306l32.492,18.76Z" fill="none"/>
      <path id="Path_1255-2" data-name="Path 1255" d="M956.722,143.1l32.493,18.76V42.378l-32.493-18.76Z" fill="none"/>
      <path id="Path_1256-2" data-name="Path 1256" d="M1095.691,595.649,1063.2,576.89V696.375l32.492,18.759Z" fill="none"/>
      <path id="Path_1257-2" data-name="Path 1257" d="M918.23,781.8,814.753,841.547v37.519L918.23,819.324Z" fill="none"/>
      <path id="Path_1258-2" data-name="Path 1258" d="M1310.884,391.174l-35.49,20.49h0l-34.73,20.051v37.519l103.477-59.743V371.975l-33.252,19.2Z" fill="none"/>
      <path id="Path_1259-2" data-name="Path 1259" d="M811.753,269.517,708.276,329.259v37.519l103.477-59.743Z" fill="none"/>
      <path id="Path_1260-2" data-name="Path 1260" d="M740.768,510.219V390.734l-32.492-18.759V491.46Z" fill="none"/>
      <path id="Path_1261-2" data-name="Path 1261" d="M708.276,653.659l103.477-59.742V556.4L778.5,575.6h0l-35.491,20.491h0l-34.731,20.052Z" fill="none"/>
      <path id="Path_1262-2" data-name="Path 1262" d="M774.761,574.292,671.284,514.549l-32.492,18.759,103.477,59.742Z" fill="none"/>
      <path id="Path_1263-2" data-name="Path 1263" d="M740.768,759.581l-32.492-18.76V860.306l32.492,18.76Z" fill="none"/>
      <path id="Path_1264-2" data-name="Path 1264" d="M1240.661,551.2l103.477-59.742V453.94l-103.477,59.743Z" fill="none"/>
      <path id="Path_1265-2" data-name="Path 1265" d="M992.215,163.6l5.665,3.271,26.827,15.489V62.87L992.215,44.11Z" fill="none"/>
      <path id="Path_1266-2" data-name="Path 1266" d="M776.261,530.71V411.225l-32.493-18.759V511.951Z" fill="none"/>
      <path id="Path_1267-2" data-name="Path 1267" d="M811.753,638.364,708.276,698.106v37.519l103.477-59.743Z" fill="none"/>
      <path id="Path_1268-2" data-name="Path 1268" d="M1347.138,698.106v37.519l103.478-59.743V638.364Z" fill="none"/>
      <path id="Path_1269-2" data-name="Path 1269" d="M845.745,410.359,742.268,350.617l-5.666,3.271-26.827,15.488,103.477,59.742Z" fill="none"/>
      <path id="Path_1270-2" data-name="Path 1270" d="M1417.361,575.6l-35.491,20.491h0l-34.731,20.052v37.519l103.478-59.742V556.4l-33.253,19.2Z" fill="none"/>
      <path id="Path_1271-2" data-name="Path 1271" d="M847.245,694.642V575.157L814.753,556.4V675.883Z" fill="none"/>
      <path id="Path_1272-2" data-name="Path 1272" d="M881.238,389.868,777.761,330.125l-32.492,18.759,103.477,59.743Z" fill="none"/>
      <path id="Path_1273-2" data-name="Path 1273" d="M814.753,469.236,918.23,409.493V371.975l-33.253,19.2h0l-35.491,20.491h0l-34.73,20.052Z" fill="none"/>
      <path id="Path_1274-2" data-name="Path 1274" d="M1274.653,166.193l-32.492,18.76L1345.638,244.7l32.493-18.759Z" fill="none"/>
      <path id="Path_1275-2" data-name="Path 1275" d="M1313.145,512.817l103.477,59.743,32.493-18.76-103.478-59.742Z" fill="none"/>
      <path id="Path_1276-2" data-name="Path 1276" d="M1274.653,535.041,1242.161,553.8l103.477,59.742,32.493-18.759Z" fill="none"/>
      <path id="Path_1277-2" data-name="Path 1277" d="M708.276,694.643,811.753,634.9V597.381L708.276,657.123Z" fill="none"/>
      <path id="Path_1278-2" data-name="Path 1278" d="M1347.138,122.612l32.493,18.759V21.887L1347.138,3.127Z" fill="none"/>
      <path id="Path_1279-2" data-name="Path 1279" d="M1382.63,392.466V511.951l32.492,18.759V411.225Z" fill="none"/>
      <path id="Path_1280-2" data-name="Path 1280" d="M1169.676,143.1l32.492,18.76V42.378l-32.492-18.76Z" fill="none"/>
      <path id="Path_1281-2" data-name="Path 1281" d="M1205.168,163.6l6.074,3.507,26.418,15.252V62.87L1205.168,44.11Z" fill="none"/>
      <path id="Path_1282-2" data-name="Path 1282" d="M1134.184,122.612l32.492,18.759V21.887L1134.184,3.127Z" fill="none"/>
      <path id="Path_1283-2" data-name="Path 1283" d="M1027.707,182.355l103.477-59.742V85.093l-103.477,59.743Z" fill="none"/>
      <path id="Path_1284-2" data-name="Path 1284" d="M1240.661,182.355l103.477-59.742V85.093l-103.477,59.743Z" fill="none"/>
      <path id="Path_1285-2" data-name="Path 1285" d="M1347.138,491.46l32.493,18.759V390.734l-32.493-18.759Z" fill="none"/>
      <path id="Path_1286-2" data-name="Path 1286" d="M1347.138,329.259v37.519l103.478-59.743V269.517Z" fill="none"/>
      <path id="Path_1287-2" data-name="Path 1287" d="M1417.361,206.75l-35.491,20.491h0l-34.731,20.052v37.519l103.478-59.742V187.551l-33.253,19.2Z" fill="none"/>
      <path id="Path_1288-2" data-name="Path 1288" d="M1313.145,143.97l103.477,59.743,32.493-18.76L1345.638,125.21Z" fill="none"/>
      <path id="Path_1289-2" data-name="Path 1289" d="M1382.63,23.619V143.1l32.492,18.76V42.378Z" fill="none"/>
      <path id="Path_1290-2" data-name="Path 1290" d="M708.276,122.612l32.492,18.759V21.887L708.276,3.127Z" fill="none"/>
      <path id="Path_1291-2" data-name="Path 1291" d="M918.23,453.94,814.753,513.683V551.2L918.23,491.46Z" fill="none"/>
      <path id="Path_1292-2" data-name="Path 1292" d="M814.753,510.219,918.23,450.476V412.957L814.753,472.7Z" fill="none"/>
      <path id="Path_1293-2" data-name="Path 1293" d="M885.738,348.019l5.666,3.271,26.827,15.488V247.293l-32.492-18.759Z" fill="none"/>
      <path id="Path_1294-2" data-name="Path 1294" d="M952.222,594.783,848.745,535.041,816.253,553.8,919.73,613.542Z" fill="none"/>
      <path id="Path_1295-2" data-name="Path 1295" d="M1027.707,307.036,1060.2,325.8V206.31l-32.492-18.759Z" fill="none"/>
      <path id="Path_1296-2" data-name="Path 1296" d="M1381.13,350.617l-5.264,3.039-27.229,15.721,103.478,59.742,32.492-18.759Z" fill="none"/>
      <path id="Path_1297-2" data-name="Path 1297" d="M1098.691,348.019l5.264,3.039,27.229,15.721V247.293l-32.493-18.759Z" fill="none"/>
      <path id="Path_1298-2" data-name="Path 1298" d="M1063.2,327.527l32.492,18.759V226.8L1063.2,208.042Z" fill="none"/>
      <path id="Path_1299-2" data-name="Path 1299" d="M1344.138,781.8l-103.477,59.742v37.519l103.477-59.742Z" fill="none"/>
      <path id="Path_1300-2" data-name="Path 1300" d="M1166.676,759.581l-32.492-18.76V860.306l32.492,18.76Z" fill="none"/>
      <path id="Path_1301-2" data-name="Path 1301" d="M882.738,715.134V595.649L850.245,576.89V696.375Z" fill="none"/>
      <path id="Path_1302-2" data-name="Path 1302" d="M918.23,616.141l-32.492-18.76V716.866l32.492,18.76Z" fill="none"/>
      <path id="Path_1303-2" data-name="Path 1303" d="M1131.184,781.8l-103.477,59.742v37.519l103.477-59.742Z" fill="none"/>
      <path id="Path_1304-2" data-name="Path 1304" d="M1060.2,575.157,1027.707,556.4V675.883l32.492,18.759Z" fill="none"/>
      <path id="Path_1305-2" data-name="Path 1305" d="M1450.615,431.717l-32.493-18.759V532.442l5.264,3.039,27.229,15.721Z" fill="none"/>
      <path id="Path_1306-2" data-name="Path 1306" d="M1344.138,740.821l-33.252,19.2h0l-35.49,20.49,0,0-34.729,20.051v37.519l103.477-59.742Z" fill="none"/>
      <path id="Path_1307-2" data-name="Path 1307" d="M1379.63,759.581l-32.493-18.76V860.306l32.493,18.76Z" fill="none"/>
      <path id="Path_1308-2" data-name="Path 1308" d="M1450.615,62.87,1418.122,44.11V163.6l5.264,3.039,27.229,15.72Z" fill="none"/>
      <path id="Path_1309-2" data-name="Path 1309" d="M1237.661,597.381l-103.477,59.742v37.519L1237.661,634.9Z" fill="none"/>
      <path id="Path_1310-2" data-name="Path 1310" d="M921.23,325.8l103.477-59.742V228.534L921.23,288.276Z" fill="none"/>
      <path id="Path_1311-2" data-name="Path 1311" d="M1131.184,740.821l-33.252,19.2h0l-35.49,20.491h0l-34.729,20.051v37.519l103.477-59.742Z" fill="none"/>
      <path id="Path_1312-2" data-name="Path 1312" d="M882.738-142.045,850.245-160.8V-41.32l32.493,18.759Z" fill="none"/>
      <path id="Path_1313-2" data-name="Path 1313" d="M987.714,574.292,884.238,514.549l-32.492,18.759,103.477,59.742Z" fill="none"/>
      <path id="Path_1314-2" data-name="Path 1314" d="M1204.407,575.6l-35.491,20.49h0l-34.73,20.052v37.519l103.477-59.742V556.4l-33.253,19.2Z" fill="none"/>
      <path id="Path_1315-2" data-name="Path 1315" d="M1168.176,350.617l-6.074,3.507-26.418,15.252,103.477,59.742,32.492-18.759Z" fill="none"/>
      <path id="Path_1316-2" data-name="Path 1316" d="M1240.661,141.372l103.477-59.743V44.11l-103.477,59.743Z" fill="none"/>
      <path id="Path_1317-2" data-name="Path 1317" d="M565.545-162.1h0l.539-.311h-6l-30.772,17.766-12.022-6.941v3.464l9.022,5.209-9.022,5.208v3.464l12.761-7.367h0Z" fill="#b83d3d" opacity="0.03"/>
      <path id="Path_1318-2" data-name="Path 1318" d="M708.276-121.554l34.731-20.052h0L778.5-162.1h0l.539-.311h-6l-30.771,17.765L711.5-162.409h-6l33.771,19.5-32.492,18.759-66.264-38.257h-6.221V-43.052L601.8-61.811v-100.6h-3v18.632L517.292-96.719v3.464L598.8-140.314v37.52L517.292-55.736v3.463L598.8-99.331v37.52L517.292-14.753v3.464l6.356-3.67,5.666-3.272L632.791,41.512,600.3,60.271,517.292,12.348v3.464l10.522,6.075V141.372L517.292,135.3v3.464L597.3,184.953l-32.492,18.759L517.292,176.28v3.464l44.515,25.7L529.314,224.2l-12.022-6.941v3.464l9.022,5.209-9.022,5.208v3.465l12.761-7.367h0l35.491-20.491h0l33.253-19.2V225.07l-81.507,47.058v3.464L598.8,228.534v37.519l-81.507,47.058v3.464L598.8,269.517v37.519l-81.507,47.058v3.464l6.356-3.67,5.666-3.271,103.477,59.742L600.3,429.119,517.292,381.2v3.464l10.522,6.075V510.219l-10.522-6.075v3.464L597.3,553.8l-32.492,18.759-47.515-27.432v3.464l44.515,25.7-32.493,18.76-12.022-6.941v3.464l9.022,5.209-9.022,5.209v3.464l12.761-7.367h0L565.545,575.6h0L598.8,556.4v37.519l-81.507,47.058v3.464L598.8,597.381V634.9l-81.507,47.058v3.464L598.8,638.364v37.519l-81.507,47.058v3.464l12.022-6.941,103.477,59.743L600.3,797.966l-83.007-47.924v3.464l10.522,6.075V879.066l-10.522-6.075v3.464L597.3,922.647l-32.493,18.76-47.514-27.433v3.464l44.515,25.7-28.5,16.453h6l26.232-15.145.007,0,33.25-19.2v34.346h3V925.245L634.291,944v15.587h3V945.736l24,13.855h6L603.3,922.647l32.492-18.76,96.481,55.7h6l-99.481-57.435,32.493-18.76,103.477,59.742-28.5,16.453h6L778.5,944.445l.007,0,33.25-19.2v34.346h3V925.245L847.245,944v15.587h3V945.736l24,13.855h6l-63.988-36.944,32.492-18.76,96.481,55.7h6l-99.482-57.435,32.493-18.76,103.478,59.742-28.5,16.453h6l26.232-15.145.007,0,33.25-19.2v34.346h3V925.245L1060.2,944v15.587h3V945.736l24,13.855h6l-63.988-36.944,32.492-18.76,96.482,55.7h6L1064.7,902.156l32.492-18.76,103.477,59.742-28.5,16.453h6l26.232-15.145.007,0,33.25-19.2v34.346h3V925.245L1273.153,944v15.587h3V945.736l24,13.855h6l-63.988-36.944,32.492-18.76,96.482,55.7h6l-99.481-57.435,32.492-18.76,103.477,59.743-28.5,16.452h6l26.232-15.146.007,0,33.25-19.2v34.346h3V925.245L1486.107,944v15.587h3V945.736l24,13.855h6l-63.988-36.944,32.492-18.76,96.482,55.7h6l-99.481-57.435L1523.1,883.4l103.477,59.742-28.5,16.453h6l26.232-15.145.007,0,8.973-5.181V935.8l-9.716,5.61L1526.1,881.664l32.493-18.76,80.7,46.593v-3.465l-8.215-4.743V781.8l8.215,4.743v-3.464l-77.7-44.86,32.492-18.76,45.208,26.1V742.1l-42.208-24.369,32.493-18.759,9.715,5.609v-3.464l-6.716-3.877,6.716-3.878V689.9l-79.2,45.727v-37.52l79.2-45.726v-3.464l-79.2,45.727v-37.52l79.2-45.726v-3.464l-79.2,45.726V616.141l34.731-20.052h0l35.491-20.491h0l8.976-5.182V566.95l-9.715,5.609L1526.1,512.817l32.492-18.759,80.7,46.592v-3.465l-2.952-1.7-5.263-3.039V412.958l8.215,4.743v-3.464l-77.7-44.861,27.229-15.72,5.263-3.039,45.208,26.1v-3.465l-42.208-24.368,32.493-18.759,9.715,5.609V332.27l-6.715-3.877,6.715-3.877v-3.464l-79.2,45.726V329.259l79.2-45.726v-3.464l-79.2,45.726V288.276l79.2-45.726v-3.464l-79.2,45.726V247.293l34.731-20.051h0l35.491-20.491h0l8.976-5.182V198.1l-9.715,5.609L1526.1,143.97l32.492-18.76,80.7,46.593v-3.465l-2.952-1.7-5.263-3.039V44.11l8.215,4.744V45.39L1561.592.529l27.229-15.72,5.263-3.04,45.208,26.1V4.406l-42.208-24.368,32.493-18.76,9.715,5.61v-3.465l-6.715-3.877,6.715-3.877v-3.464l-79.2,45.726V-39.588l79.2-45.726v-3.464l-79.2,45.726V-80.571l79.2-45.726v-3.464l-79.2,45.726v-37.519l34.731-20.052h0l35.491-20.491h0l.539-.311h-6l-30.771,17.765-30.771-17.765h-6l33.771,19.5-32.492,18.759-66.263-38.257h-6.222V-43.052l-32.492-18.759v-100.6h-3v18.632L1347.138-84.035v-37.519l34.731-20.052h0l35.491-20.491h0l.54-.311h-6l-30.771,17.765-30.771-17.765h-6l33.771,19.5-32.492,18.759-66.264-38.257h-6.221V-43.052l-32.492-18.759v-100.6h-3v18.632L1134.184-84.035v-37.519l34.73-20.052h0l35.491-20.491h0l.54-.311h-6l-30.771,17.765-30.771-17.765h-6l33.771,19.5-32.492,18.759-66.264-38.257H1060.2V-43.052l-32.492-18.759v-100.6h-3v18.632L921.23-84.035v-37.519l34.73-20.052h0L991.453-162.1h0l.54-.311h-6l-30.771,17.765-30.771-17.765h-6l33.771,19.5L919.73-124.152l-66.264-38.257h-6.221V-43.052L814.753-61.811v-100.6h-3v18.632L708.276-84.035ZM636.529,780.513l0,0,35.49-20.49h0l33.253-19.2v37.519L601.8,838.083V800.564ZM566.307,532.442V412.958L598.8,431.717V551.2l-26.827-15.489Zm70.222-120.777h0l35.491-20.49h0l33.253-19.2v37.518L601.8,469.236V431.717ZM566.307,163.6V44.11L598.8,62.87V182.355l-26.827-15.489ZM636.529,42.818h0l35.491-20.49h0l33.253-19.2V40.646L601.8,100.389V62.87ZM884.977,22.326l33.253-19.2V40.646L814.753,100.389V62.87l34.73-20.052h0l35.491-20.49Zm212.955,0,33.252-19.2V40.646l-103.477,59.743V62.87l34.73-20.052h0l35.491-20.49Zm212.954,0,33.252-19.2V40.646l-103.477,59.743V62.87l34.73-20.052h0l35.491-20.49Zm212.953,0,33.253-19.2V40.646l-103.477,59.743V62.87l34.731-20.052h0l35.491-20.49Zm33.253,837.98-103.477,59.743V882.53l103.477-59.743ZM736.6-14.959l5.666-3.272L845.745,41.512,813.253,60.271,709.776.529Zm212.955,0,5.665-3.272L1058.7,41.512l-32.492,18.759L922.73.529Zm212.545.236,6.074-3.508,103.477,59.743-32.492,18.759L1135.684.529Zm213.765-.468,5.263-3.04,103.477,59.743-32.492,18.759L1348.638.529Zm181.225,96.82-103.477,59.743V103.853L1557.092,44.11Zm-69.485,327L1384.13,348.885l32.492-18.759L1520.1,389.868Zm69.485,41.849-103.477,59.743V472.7l103.477-59.742ZM1523.1,756.983l-103.478-59.742,32.493-18.76,103.477,59.743Zm-35.493,20.492L1384.13,717.732l32.492-18.759L1520.1,758.715Zm69.485,41.849-103.477,59.742V841.547L1557.092,781.8Zm-104.977-21.358-103.477-59.742,32.492-18.76,103.477,59.743Zm-316.431-59.742,32.493-18.76,103.477,59.743-32.493,18.759Zm-212.954,0,32.492-18.76L1058.7,779.207l-32.493,18.759Zm-212.954,0,32.492-18.76,103.477,59.743-32.492,18.759Zm-4.5-122.083V735.626l-32.492-18.76V597.381Zm604.869,140.842-103.477-59.742,32.493-18.76,103.477,59.743Zm-35.492,20.492-103.477-59.743,32.492-18.759,103.478,59.742Zm-177.461-20.492L993.714,697.241l32.493-18.76,103.477,59.743ZM1061.7,777.475,958.222,717.732l32.492-18.759,103.478,59.742ZM884.238,756.983,780.76,697.241l32.493-18.76L916.73,738.224Zm-35.493,20.492L745.268,717.732l32.493-18.759,103.477,59.742ZM777.761,572.559,674.284,512.817l32.492-18.759L810.253,553.8ZM708.276,288.276l103.477-59.742v37.519L708.276,325.8Zm69.485-84.564L674.284,143.97l32.492-18.76,103.477,59.743ZM1381.13,224.2l-103.477-59.743,32.492-18.759,103.477,59.742Zm69.485,41.849L1347.138,325.8V288.276l103.477-59.742Zm-69.485,327-103.477-59.743,32.492-18.759,103.477,59.742Zm69.485,41.849-103.477,59.743v-37.52l103.477-59.742ZM779.261,532.442V412.958l32.492,18.759V551.2l-26.827-15.489Zm564.877,83.7V735.626l-32.493-18.76V597.381Zm-35.493,98.993-32.492-18.76V576.89l32.492,18.759Zm-35.492-20.492-32.492-18.759V556.4l32.492,18.76Zm-35.492-18.759-103.477,59.743v-37.52l103.477-59.742Zm-212.954,0L921.23,735.626v-37.52l103.477-59.742ZM884.238,388.136,780.761,328.393l32.492-18.759,76.65,44.254,26.827,15.488Zm-1.5-161.334V346.287l-32.493-18.76V208.042Zm72.484-2.6L851.745,164.461,884.238,145.7l103.476,59.742Zm.738,3.038h0l35.491-20.491h0l33.253-19.2V225.07L921.23,284.812V247.293Zm212.216-3.038L1064.7,164.461l32.493-18.759,103.476,59.742Zm.738,3.038h0l35.491-20.491h0l33.253-19.2V225.07l-103.477,59.742V247.293Zm173.724,142.134-32.493,18.76-103.476-59.743,32.492-18.759,76.248,44.022Zm-67.985,39.251-103.477-59.742,32.493-18.759,103.476,59.742Zm69.485,41.849-103.477,59.743V472.7l103.477-59.742ZM1029.207,553.8l32.492-18.76,103.477,59.743-32.492,18.759ZM921.23,657.123l103.477-59.742V634.9L921.23,694.643Zm103.477-63.206L921.23,653.659V616.141l34.73-20.052h0L991.453,575.6h0l33.253-19.2Zm178.961-21.358-103.476-59.742,32.492-18.759L1236.161,553.8Zm-35.492,20.492L1064.7,533.309l32.493-18.76,103.476,59.742ZM990.715,572.559,887.238,512.817l32.492-18.759L1023.207,553.8Zm-69.485-243.3,103.477-59.742v37.519L921.23,366.778Zm176.7,61.914,33.252-19.2v37.518l-103.477,59.743V431.717l34.73-20.052h0l35.491-20.49ZM992.215,532.442V412.958l32.492,18.759V551.2L997.88,535.713Zm138.969-81.966-103.477,59.743V472.7l103.477-59.742Zm-103.477,63.207,103.477-59.743v37.519L1027.707,551.2ZM1061.7,408.627,958.222,348.885l32.493-18.759,103.476,59.742ZM949.557,353.888l5.665-3.271L1058.7,410.359l-32.492,18.76L922.73,369.376Zm39.658,57.338V530.71l-32.493-18.759V392.466ZM1237.661,551.2l-26.418-15.253-6.075-3.507V412.958l32.493,18.759Zm-35.493-20.492-32.492-18.759V392.466l32.492,18.76Zm-35.492-20.491-32.492-18.76V371.975l32.492,18.759Zm70.985-203.183-103.477,59.742V329.259l103.477-59.742Zm0-40.983L1134.184,325.8V288.276l103.477-59.742ZM1129.684,369.376l-32.492,18.76L993.715,328.393l32.492-18.759,76.248,44.022ZM1024.707,266.053,921.23,325.8V288.276l103.477-59.742ZM953.722,390.734V510.219l-32.492-18.76V371.975ZM884.238,514.549l103.476,59.742-32.492,18.76L851.745,533.308Zm249.946,142.574,103.477-59.742V634.9l-103.477,59.743Zm103.477-63.206-103.477,59.742V616.141l34.73-20.052h0l35.491-20.491h0l33.253-19.2Zm1.5-164.8-103.477-59.743,26.418-15.252,6.074-3.507,103.477,59.742Zm-107.977-62.341-27.229-15.72-5.264-3.039V228.534l32.493,18.759Zm-35.493-20.491-32.492-18.76V208.042l32.492,18.76ZM1060.2,325.8l-32.492-18.759V187.551L1060.2,206.31ZM918.23,366.778,891.4,351.29l-5.665-3.271V228.534l32.492,18.759Zm0,83.7L814.753,510.219V472.7L918.23,412.958ZM814.753,513.683,918.23,453.94v37.519L814.753,551.2Zm33.992,21.357,103.477,59.743L919.73,613.542,816.253,553.8Zm33.993,60.609V715.134l-32.493-18.76V576.89Zm3,1.732,32.492,18.76V735.626l-32.492-18.76ZM1027.707,556.4l32.492,18.759V694.642l-32.492-18.759ZM1063.2,576.89l32.492,18.759V715.134l-32.492-18.76Zm35.492,20.491,32.493,18.76V735.626l-32.493-18.76Zm245.447-105.922L1240.661,551.2V513.683l103.477-59.743Zm0-81.966-103.477,59.743V431.717l34.73-20.052h0l35.491-20.49h0l33.252-19.2Zm0-42.715-27.229-15.72-5.264-3.039V228.534l32.493,18.759Zm-35.493-20.491-32.492-18.76V208.042l32.492,18.76ZM1273.153,325.8l-32.492-18.759V187.551l32.492,18.759Zm-69.485-122.083L1100.192,143.97l32.492-18.76,103.477,59.743ZM1061.7,166.193l103.477,59.743L1132.684,244.7l-103.477-59.742Zm-70.984,37.519L887.238,143.97l32.492-18.76,103.477,59.743Zm-141.97-37.519,103.477,59.743L919.73,244.7,816.253,184.953Zm-33.992,21.358,32.492,18.759V325.8l-32.492-18.759ZM777.761,330.126l103.477,59.742-32.493,18.759L745.268,348.885Zm71.722,81.539h0l35.491-20.49h0l33.253-19.2v37.518L814.753,469.236V431.717Zm-2.238,163.492V694.642l-32.492-18.759V556.4Zm498.393,38.385L1242.161,553.8l32.492-18.76,103.477,59.743Zm0-368.847-103.477-59.742,32.492-18.76,103.477,59.743ZM736.6,353.888l5.666-3.271,103.477,59.742-32.492,18.76L709.776,369.376Zm39.659,57.337V530.71l-32.493-18.759V392.466ZM811.753,634.9,708.276,694.643v-37.52l103.477-59.742ZM708.276,698.106l103.477-59.742v37.519L708.276,735.626Zm638.862,37.52v-37.52l103.477-59.742v37.519Zm103.477-141.709-103.477,59.742V616.141l34.731-20.052h0l35.491-20.491h0l33.253-19.2Zm-33.993-21.358-103.477-59.742,32.493-18.759L1449.115,553.8Zm-33.992-60.608V392.466l32.492,18.759V530.71Zm-3-1.732-32.492-18.76V371.975l32.492,18.759Zm-32.492-143.441V329.259l103.477-59.742v37.519ZM1450.615,225.07l-103.477,59.742V247.293l34.731-20.051h0l35.491-20.491h0l33.253-19.2Zm-33.993-21.358L1313.145,143.97l32.493-18.76,103.477,59.743ZM1382.63,143.1V23.619l32.492,18.759V161.863Zm-3-1.732-32.492-18.76V3.127l32.492,18.76Zm-35.492-18.76-103.477,59.743V144.836l103.477-59.743Zm-106.477,59.743L1211.243,167.1l-6.075-3.507V44.11l32.493,18.76Zm-35.493-20.492L1169.676,143.1V23.619l32.492,18.759Zm-35.492-20.491-32.492-18.76V3.127l32.492,18.76Zm-35.492-18.76-103.477,59.743V144.836l103.477-59.743Zm-106.477,59.743L997.88,166.866l-5.665-3.271V44.11l32.492,18.76Zm-35.492-20.492L956.722,143.1V23.619l32.493,18.759Zm-35.493-20.491-32.492-18.76V3.127l32.492,18.76Zm-35.492-18.76L814.753,182.355V144.836L918.23,85.093ZM811.753,182.355l-26.827-15.489-5.665-3.271V44.11l32.492,18.76Zm-35.492-20.492L743.768,143.1V23.619l32.493,18.759Zm-35.493-20.491-32.492-18.76V3.127l32.492,18.76Zm-69.484,4.33,103.477,59.742L742.268,224.2,638.791,164.461Zm71.723,81.54h0L778.5,206.75h0l33.253-19.2V225.07L708.276,284.812V247.293ZM708.276,329.259l103.477-59.742v37.519L708.276,366.778Zm32.492,61.475V510.219l-32.492-18.76V371.975ZM671.284,514.549l103.477,59.742-32.493,18.76L638.791,533.308Zm71.723,81.54h0L778.5,575.6h0l33.253-19.2v37.519L708.276,653.659V616.141ZM708.276,740.822l32.492,18.759V879.066l-32.492-18.76Zm106.477,59.742,34.73-20.051,0,0,35.49-20.49h0l33.253-19.2v37.519L814.753,838.083Zm0,40.983L918.23,781.8v37.52L814.753,879.066ZM921.23,740.822l32.492,18.759V879.066l-32.492-18.76Zm106.477,59.742,34.729-20.051,0,0,35.491-20.49h0l33.252-19.2v37.519l-103.477,59.742Zm0,40.983L1131.184,781.8v37.52l-103.477,59.742Zm106.477-100.725,32.492,18.759V879.066l-32.492-18.76Zm106.477,59.742,34.729-20.051,0,0,35.49-20.49h0l33.253-19.2v37.519l-103.477,59.742Zm0,40.983L1344.138,781.8v37.52l-103.477,59.742Zm106.477-100.725,32.492,18.759V879.066l-32.492-18.76Zm70.984-208.38V412.958l32.493,18.759V551.2l-27.229-15.721Zm33.993-103.323-103.477-59.743,27.229-15.72,5.263-3.039,103.477,59.742ZM1418.122,163.6V44.11l32.493,18.76V182.355l-27.229-15.721Zm-73.984-81.966-103.477,59.743V103.853L1344.138,44.11Zm-212.954,0-103.477,59.743V103.853L1131.184,44.11Zm-212.954,0L814.753,141.372V103.853L918.23,44.11Zm-212.954,0L601.8,141.372V103.853L705.276,44.11ZM601.8,144.836,705.276,85.093v37.519L601.8,182.355Zm33.992,21.357,103.477,59.743L706.776,244.7,603.3,184.953ZM669.784,226.8V346.287l-32.493-18.76V208.042Zm3,121.217V228.534l32.492,18.759V366.778l-27.229-15.72Zm32.492,102.457L601.8,510.219V472.7l103.477-59.742ZM601.8,513.683,705.276,453.94v37.519L601.8,551.2Zm33.992,21.357,103.477,59.743-32.492,18.759L603.3,553.8Zm33.993,60.609V715.134l-32.493-18.76V576.89Zm35.492,223.675L601.8,879.066V841.547L705.276,781.8ZM601.8,882.53l103.477-59.743v37.519L601.8,920.049ZM743.768,880.8V761.313l32.493,18.76V899.557ZM779.261,781.8l32.492,18.759V920.049l-32.492-18.76ZM814.753,882.53,918.23,822.787v37.519L814.753,920.049ZM956.722,880.8V761.313l32.493,18.76V899.557ZM992.215,781.8l32.492,18.759V920.049l-32.492-18.76Zm35.492,100.725,103.477-59.743v37.519l-103.477,59.743Zm141.969-1.732V761.313l32.492,18.76V899.557Zm35.492-98.993,32.493,18.759V920.049l-32.493-18.76Zm35.493,100.725,103.477-59.743v37.519l-103.477,59.743ZM1382.63,880.8V761.313l32.492,18.76V899.557Zm35.492-98.994,32.493,18.76V920.049l-32.493-18.76Zm138.97-3.463-103.477,59.742V800.564l34.73-20.051,0,0,35.491-20.49h0l33.253-19.2Zm-67.985-81.967V576.89l32.493,18.759V715.134Zm-3-1.732-32.492-18.759V556.4l32.492,18.76Zm-32.492-180.959,103.477-59.743v37.519L1453.615,551.2Zm103.477-104.19-103.477,59.743V431.717l34.731-20.052h0l35.491-20.49h0l33.253-19.2Zm-1.5-40.117-32.492,18.76-103.477-59.743,32.492-18.759,77.059,44.49Zm-66.485-41.849V208.042L1521.6,226.8V346.287Zm-3-1.732-32.492-18.759V187.551l32.492,18.759Zm-32.492-180.959,103.477-59.743v37.519l-103.477,59.743ZM1487.607,39.78,1384.13-19.962l32.492-18.76L1520.1,21.021Zm-212.954,0L1171.176-19.962l32.493-18.76L1307.145,21.02Zm-212.954,0L958.222-19.962l32.493-18.76L1094.191,21.02Zm-212.954,0L745.268-19.962l32.493-18.76L881.238,21.02ZM705.276-2.069,678.047-17.79l-5.263-3.038V-140.314l32.492,18.76ZM600.3-59.213l76.248,44.022L703.776.529l-32.492,18.76L567.807-40.454Zm1.5,246.764,32.492,18.759V325.8L601.8,307.036Zm-1.5,122.083,76.248,44.022,27.229,15.72-32.492,18.76L567.807,328.393Zm33.992,265.524V694.642L601.8,675.883V556.4ZM600.3,678.481l103.477,59.743-32.492,18.759L567.806,697.241ZM566.307,901.289V781.8L598.8,800.564V920.049Zm990.785-165.663-32.492-18.76V597.381l32.492,18.76Zm1.5-122.084L1455.115,553.8l32.492-18.76,103.477,59.743Zm1.5-122.083V371.975l32.492,18.759V510.219Zm-3-124.681-26.418-15.252-6.074-3.507V228.534l32.492,18.759Zm1.5-122.083-103.477-59.742,32.492-18.76,103.477,59.743Zm1.5-122.083V3.127l32.492,18.76V141.372Zm-3-124.681-26.418-15.252-6.074-3.507V-140.314l32.492,18.76Zm-1.5,2.6L1523.1,19.289,1419.623-40.454l32.492-18.759,77.059,44.49Zm-104.977-62.34L1347.138-2.069V-39.588l103.477-59.743ZM1344.138-2.069,1316.909-17.79l-5.264-3.038V-140.314l32.493,18.76Zm-1.5,2.6-32.493,18.76L1206.669-40.454l32.492-18.759,76.248,44.022Zm-104.977-62.34L1134.184-2.069V-39.588l103.477-59.743ZM1131.184-2.069,1103.955-17.79l-5.264-3.038V-140.314l32.493,18.76Zm-1.5,2.6-32.492,18.76L993.715-40.454l32.492-18.759,76.248,44.022Zm-104.977-62.34L921.23-2.069V-39.588l103.477-59.743ZM918.23-2.069,891.4-17.557l-5.665-3.271V-140.314l32.492,18.76Zm-1.5,2.6-32.492,18.76L780.761-40.454l32.492-18.759L889.9-14.959ZM811.753-61.811,708.276-2.069V-39.588L811.753-99.331ZM637.291-160.8l32.493,18.76V-22.561L637.291-41.32ZM532.314-19.962l32.493-18.76L668.284,21.021,635.791,39.78Zm-1.5,43.581,32.493,18.759V161.863L530.814,143.1Zm1.5,325.266,32.493-18.759,103.477,59.742-32.493,18.759Zm-1.5,43.581,32.493,18.76V530.71l-32.493-18.759Zm1.5,325.266,32.493-18.759,103.477,59.742-32.493,18.76Zm-1.5,43.581,32.493,18.76V899.557L530.814,880.8ZM777.76,941.407,674.283,881.664l32.493-18.76,103.477,59.743Zm212.954,0L887.237,881.664,919.73,862.9l103.477,59.743Zm212.954,0-103.477-59.743,32.493-18.76,103.477,59.743Zm212.954,0-103.477-59.743,32.493-18.76,103.477,59.743Zm211.455-41.85L1595.584,880.8V761.313l32.493,18.76Zm-35.493-139.976V879.066l-32.492-18.76V740.822Zm33.993-185.29-32.493,18.76-103.477-59.743,32.493-18.759Zm1.5-43.581-32.493-18.759V392.466l32.493,18.76Zm-1.5-325.266-32.493,18.76-103.477-59.743L1523.1,145.7Zm1.5-43.581L1595.584,143.1V23.619l32.493,18.759ZM1489.107-160.8l32.493,18.76V-22.561L1489.107-41.32Zm-38.492,20.491v37.52L1347.138-43.052V-80.571ZM1276.153-160.8l32.492,18.76V-22.561L1276.153-41.32Zm-38.492,20.491v37.52L1134.184-43.052V-80.571ZM1063.2-160.8l32.492,18.76V-22.561L1063.2-41.32Zm-38.492,20.491v37.52L921.23-43.052V-80.571ZM850.245-160.8l32.493,18.76V-22.561L850.245-41.32Zm-38.492,20.491v37.52L708.276-43.052V-80.571Z" fill="#fdf7f7"/>
      <path id="Path_1319-2" data-name="Path 1319" d="M517.292,958.421l2.027,1.17h6l-8.026-4.634Z" fill="#edeae4"/>
    </g>
  </g>
</svg>
