<svg xmlns="http://www.w3.org/2000/svg" xmlns:xlink="http://www.w3.org/1999/xlink" width="1366" height="639" viewBox="0 0 1366 639"><defs><clipPath id="a"><rect width="1366" height="639" transform="translate(0 73)" fill="#fff"/></clipPath></defs><g transform="translate(0 -73)" clip-path="url(#a)"><rect width="1366" height="639.062" transform="translate(0 73)" fill="#fff2f2" opacity="0.352"/><g transform="translate(-608.582 0.01)" opacity="0.05"><g transform="translate(-0.01 -0.01)"><path d="M0,0H1974.582V713.99H0Z" transform="translate(0.01 0.01)" fill="none"/><path d="M695.735,235.651Q416.525,117.883,137.11.015H47.845Q371.687,118.081,694.981,235.924A4.6,4.6,0,0,0,695.735,235.651Zm54.231-66.737Q646.2,84.5,542.23.015H492.661Q620.594,84.688,748.389,169.237C748.938,169.138,749.418,169.014,749.966,168.915ZM411.692,238.3Q206.012,193.011.059,147.669v16.064l410.879,74.992Zm306.257-27.667L334.631.015H267.168Q492.181,105.624,716.646,211.059C717.126,210.91,717.537,210.786,717.949,210.637Zm57.247-76.8Q714.726,66.938,654.257.015h-38.8q79.187,67.047,158.373,133.994C774.3,133.96,774.716,133.885,775.2,133.836Zm-347.8,53.994Q213.9,119.779.059,51.654V73.47Q213.451,130.96,426.432,188.3C426.775,188.127,427.118,187.979,427.392,187.83ZM292.6,358.688c-.069-.4-.069-.793-.137-1.19-15.974,0-31.949.174-47.923-.025q-118.986-1.413-237.9-3L.059,354.4v8.131l281.3-3.644C285.13,358.837,288.833,358.763,292.6,358.688Zm-1.577-24.345c14.6.3,29.275.545,43.878.793-8.3-.868-16.66-1.264-25.024-1.686q-91.013-4.5-182.026-9-63.864-3.161-127.864-6.3V328.32q71.268,1.487,142.6,2.95Q216.845,332.794,291.027,334.344Zm86.522-71.918q34.554,4.76,69.108,9.495l.411-.372Q223.6,233.21.059,194.871V210.34q86.18,11.9,172.291,23.774Q274.984,248.282,377.549,262.425ZM1237.358.015l-52.243,94.75c.48.05,1.028.1,1.508.124l75.9-94.9h-25.161Zm279.45,256.015q228.818-41.872,457.774-83.719V153.916q-229.436,50.908-458.8,101.791A8.188,8.188,0,0,1,1516.808,256.029Zm59.3,96.957q199.3.93,398.47,1.835V343.045q-199.406,4.834-398.47,9.668ZM1915.072.015q-278.49,113.492-556.226,226.712c.343.1.686.223,1.028.322Q1667.057,121.291,1974.582,15.41V.015ZM1669.079,187.334q152.717-35.959,305.5-71.968V99.55q-153.334,43.694-306.394,87.313C1668.462,187.012,1668.736,187.185,1669.079,187.334Zm-273.485-18.593Q1582.042,84.4,1768.491.015H1709.53Q1551.67,84.279,1394.154,168.369ZM221.3,424.582c-10.97.347-21.733,1.041-32.5,1.785Q94.4,432.875.059,439.382v7.041Q52.3,441.254,104.612,436.11,162.922,430.346,221.3,424.582ZM1353.567.015q-72.09,80.322-144.181,160.5c.48.074.96.124,1.44.2Q1302.97,80.387,1395.251.015Zm-518.244,0H817.566c1.44,2.281,2.811,4.586,4.251,6.867Q843,41.2,864.187,75.552c.754-.471.891-.917.685-1.339Q856.131,52.46,847.39,30.731,841.528,15.373,835.323.015ZM1386.75,121.167Q1491.646,60.628,1596.543.015h-35.034q-88.134,60.465-176.2,120.88C1385.79,120.994,1386.27,121.068,1386.75,121.167Zm342.182,124.177q122.79-17.217,245.65-34.41v-9.073q-123.1,21.531-246.13,43.086C1728.589,245.072,1728.795,245.2,1728.932,245.345ZM1415.613,515.54q238.074,99.176,476.354,198.45h82.615V713.4q-279.313-99.25-557.871-198.2C1416.367,515.317,1415.956,515.416,1415.613,515.54Zm-58.824,103.923q57.076,47.264,114.221,94.527h26.67q-69.828-47.375-139.588-94.7C1357.68,619.339,1357.2,619.388,1356.789,619.463Zm234.818-99.907Q1782.991,576.3,1974.582,633.1V616.884Q1783.3,567.947,1592.5,519.134C1592.223,519.283,1591.881,519.407,1591.607,519.556ZM1028.25,104.929c3.908-16.064,6.993-32.129,10.01-48.193Q1043.711,28.4,1049.024.015h-23.585Zm191.625,464.852q63.144,72.1,126.356,144.208h39.422q-82.272-72.253-164.406-144.382C1220.835,569.683,1220.355,569.732,1219.875,569.782Zm-121.557,46.681q11.827,48.751,23.722,97.527h22.351l-45.044-97.577C1099,616.438,1098.661,616.438,1098.318,616.463Zm687.244-192.4q94.51,9.445,189.02,18.94v-6.594q-94.3-6.433-188.677-12.891C1785.768,423.715,1785.7,423.888,1785.562,424.062Zm-8.09-133.1q98.52-7.363,197.109-14.7v-5.776q-98.829,10.04-197.521,20.081C1777.2,290.712,1777.335,290.836,1777.472,290.96Zm-24,165.256,221.105,32.649v-7.834q-110.347-12.643-220.557-25.262C1753.819,455.918,1753.682,456.066,1753.476,456.215Zm-83.369,48.937q152.2,37.075,304.474,74.149V565.369q-152-30.381-303.651-60.713C1670.656,504.805,1670.382,504.979,1670.108,505.152ZM712.6,713.99h27.7q34.76-52.1,69.451-104.146c-.343-.074-.686-.124-1.028-.2Q760.7,661.818,712.6,713.99ZM477.3,471.635Q238.715,518.043.059,564.5v19.263q239-55.891,477.862-111.732C477.715,471.908,477.509,471.759,477.3,471.635Zm20.842-28.956Q249.171,479.866.059,517.077v17.081Q249.548,488.6,498.694,443.1C498.488,442.952,498.351,442.828,498.146,442.679Zm-42.781,82.5Q227.883,588.325.059,651.567v24.32Q228.774,600.622,456.53,525.679C456.119,525.505,455.707,525.357,455.364,525.183ZM938.506,713.99H963.53q3.291-57.936,6.65-115.8c-.343,0-.686-.025-.96-.025Q953.794,656.066,938.506,713.99ZM297.4,389.33q63.041-3.533,126.081-7.164a23.388,23.388,0,0,0-4.525-.248q-78.981,1.971-158.03,3.917-71.165,1.785-142.33,3.545L.127,392.28v13.635q64.481-3.607,129.03-7.239Q213.28,393.99,297.4,389.33ZM560.467,713.99h29.961q60.881-55.816,121.762-111.559c-.48-.074-.891-.149-1.371-.223Q635.642,658.1,560.467,713.99ZM204.641,457.43q22.111-3.086,44.153-6.123c-4.319.074-8.364.471-12.409.892Q128.2,463.615,19.941,475.081c-6.65.694-13.3,1.413-19.882,2.107v8.7c.206-.025.343-.05.548-.074Q102.624,471.647,204.641,457.43Zm428.156,43.9Q330.14,607.613,27.14,713.99h96.738Q379.434,607.749,634.169,501.781C633.757,501.632,633.277,501.483,632.8,501.334Zm43.467,38.277Q503.9,626.739,331.134,713.99h53.614Q531.192,626.9,677.5,539.909C677.156,539.81,676.676,539.711,676.264,539.612Z" transform="translate(0.01 0.01)" fill="#933132"/></g></g></g></svg>