<svg xmlns="http://www.w3.org/2000/svg" xmlns:xlink="http://www.w3.org/1999/xlink" width="1366" height="768" viewBox="0 0 1366 768"><defs><clipPath id="a"><rect width="1366" height="768" fill="#fff" stroke="#707070" stroke-width="1"/></clipPath></defs><g clip-path="url(#a)"><rect width="1366" height="679" transform="translate(0 73)" fill="#fff"/><g transform="translate(0 -101.824)"><rect width="1366" height="837.68" transform="translate(0 73)" fill="#fff2f2" opacity="0.352"/><path d="M2749.672-49.927H2471.861a11.239,11.239,0,0,1-11.239-11.239h0A11.238,11.238,0,0,1,2471.861-72.4h56.747a29.361,29.361,0,0,0,29.361-29.361h0a29.361,29.361,0,0,0-29.361-29.361H2386.06a29.361,29.361,0,0,0-29.36,29.361h0A29.361,29.361,0,0,0,2386.06-72.4h21.665a11.239,11.239,0,0,1,11.239,11.238h0a11.239,11.239,0,0,1-11.239,11.239H2298.5a29.361,29.361,0,0,0-29.361,29.36h0A29.36,29.36,0,0,0,2298.5,8.794h242.257A11.239,11.239,0,0,1,2552,20.033h0a11.239,11.239,0,0,1-11.239,11.238h-83.114a29.361,29.361,0,0,0-29.361,29.361h0a29.361,29.361,0,0,0,29.361,29.361H2620.69a29.361,29.361,0,0,0,29.36-29.361h0a29.361,29.361,0,0,0-29.361-29.361H2604.9a11.238,11.238,0,0,1-11.238-11.238h0A11.239,11.239,0,0,1,2604.9,8.794h144.774a29.36,29.36,0,0,0,29.36-29.36h0A29.36,29.36,0,0,0,2749.672-49.927Z" transform="translate(-2298.032 197.922)" fill="none" stroke="#933132" stroke-miterlimit="10" stroke-width="4" opacity="0.05"/><path d="M3106.958-544.219h173.365a29.36,29.36,0,0,1,29.36,29.361h0a29.36,29.36,0,0,1-29.36,29.36h-21.665a11.239,11.239,0,0,0-11.238,11.239h0a11.238,11.238,0,0,0,11.238,11.238H3367.88a29.361,29.361,0,0,1,29.361,29.361h0A29.361,29.361,0,0,1,3367.88-404.3H3146.395a29.361,29.361,0,0,1-29.361-29.361h0a29.361,29.361,0,0,1,29.361-29.361h48.128a11.238,11.238,0,0,0,11.239-11.238h0a11.239,11.239,0,0,0-11.239-11.239h-87.564a29.36,29.36,0,0,1-29.361-29.36h0A29.36,29.36,0,0,1,3106.958-544.219Z" transform="translate(-3211.186 1286.917)" fill="none" stroke="#933132" stroke-miterlimit="10" stroke-width="4" opacity="0.05"/><path d="M3106.958-544.219h173.365a29.36,29.36,0,0,1,29.36,29.361h0a29.36,29.36,0,0,1-29.36,29.36h-21.665a11.239,11.239,0,0,0-11.238,11.239h0a11.238,11.238,0,0,0,11.238,11.238H3367.88a29.361,29.361,0,0,1,29.361,29.361h0A29.361,29.361,0,0,1,3367.88-404.3H3146.395a29.361,29.361,0,0,1-29.361-29.361h0a29.361,29.361,0,0,1,29.361-29.361h48.128a11.238,11.238,0,0,0,11.239-11.238h0a11.239,11.239,0,0,0-11.239-11.239h-87.564a29.36,29.36,0,0,1-29.361-29.36h0A29.36,29.36,0,0,1,3106.958-544.219Z" transform="translate(-2491.177 958.96)" fill="none" stroke="#933132" stroke-miterlimit="10" stroke-width="4" opacity="0.05"/><path d="M2749.672-49.927H2471.861a11.239,11.239,0,0,1-11.239-11.239h0A11.238,11.238,0,0,1,2471.861-72.4h56.747a29.361,29.361,0,0,0,29.361-29.361h0a29.361,29.361,0,0,0-29.361-29.361H2386.06a29.361,29.361,0,0,0-29.36,29.361h0A29.361,29.361,0,0,0,2386.06-72.4h21.665a11.239,11.239,0,0,1,11.239,11.238h0a11.239,11.239,0,0,1-11.239,11.239H2298.5a29.361,29.361,0,0,0-29.361,29.36h0A29.36,29.36,0,0,0,2298.5,8.794h242.257A11.239,11.239,0,0,1,2552,20.033h0a11.239,11.239,0,0,1-11.239,11.238h-83.114a29.361,29.361,0,0,0-29.361,29.361h0a29.361,29.361,0,0,0,29.361,29.361H2620.69a29.361,29.361,0,0,0,29.36-29.361h0a29.361,29.361,0,0,0-29.361-29.361H2604.9a11.238,11.238,0,0,1-11.238-11.238h0A11.239,11.239,0,0,1,2604.9,8.794h144.774a29.36,29.36,0,0,0,29.36-29.36h0A29.36,29.36,0,0,0,2749.672-49.927Z" transform="translate(-1148.74 780.076)" fill="none" stroke="#933132" stroke-miterlimit="10" stroke-width="4" opacity="0.05"/></g></g></svg>