<svg xmlns="http://www.w3.org/2000/svg" xmlns:xlink="http://www.w3.org/1999/xlink" width="1366" height="639" viewBox="0 0 1366 639"><defs><clipPath id="a"><rect width="1366" height="639" transform="translate(0 73)" fill="#fffdfd"/></clipPath></defs><g transform="translate(0 -73)"><rect width="1366" height="639" transform="translate(0 73)" fill="#fffdfd"/><g clip-path="url(#a)"><g transform="translate(-156 -965.64)"><path d="M634.18,505.832l41.273-71.486L634.18,362.86Z" transform="translate(350.936 200.796)" fill="none"/><path d="M460.591,506.022V362.77L419.24,434.4Z" transform="translate(231.995 200.746)" fill="none"/><path d="M494.345,432.449H577L453.01,360.87Z" transform="translate(250.682 199.695)" fill="none"/><path d="M537.546,677.02H455l123.819,71.5Z" transform="translate(251.783 374.643)" fill="none"/><path d="M402.11,677.02l-41.32,71.564L484.733,677.02Z" transform="translate(199.65 374.643)" fill="none"/><path d="M637.48,482.364,761.423,410.8H678.8Z" transform="translate(352.762 227.324)" fill="none"/><path d="M645.066,575.74,603.7,647.366l41.366,71.626Z" transform="translate(334.07 318.597)" fill="none"/><path d="M763.353,627.11,639.41,698.658h82.624Z" transform="translate(353.83 347.024)" fill="none"/><path d="M695.94,594.109,737.26,665.7V522.53Z" transform="translate(385.112 289.152)" fill="none"/><path d="M695.94,487.635l41.32,71.595V416.04Z" transform="translate(385.112 230.224)" fill="none"/><path d="M737.26,629.01,695.94,700.6,737.26,772.2Z" transform="translate(385.112 348.075)" fill="none"/><path d="M645.066,506.022V362.77L603.7,434.4Z" transform="translate(334.07 200.746)" fill="none"/><path d="M545.23,627.06l41.351,71.626h82.7Z" transform="translate(301.714 346.996)" fill="none"/><path d="M541.96,629.1V772.01L583.2,700.555Z" transform="translate(299.905 348.125)" fill="none"/><path d="M629.776,623.77H547.23l123.819,71.5Z" transform="translate(302.821 345.176)" fill="none"/><path d="M718.5,403.208l44.784,25.848L722.006,357.57H639.46Z" transform="translate(353.858 197.869)" fill="none"/><path d="M548.775,735.62l-95.765-55.3,41.335,71.595H577Z" transform="translate(250.682 376.469)" fill="none"/><path d="M552.805,452.734V309.56L511.47,381.139Z" transform="translate(283.032 171.301)" fill="none"/><path d="M737.26,452.734V309.56l-41.32,71.579Z" transform="translate(385.112 171.301)" fill="none"/><path d="M678.805,432.449h82.67l-92.86-53.607L637.47,360.87Z" transform="translate(352.757 199.695)" fill="none"/><path d="M678.8,517.29l-41.32,71.548L761.423,517.29Z" transform="translate(352.762 286.253)" fill="none"/><path d="M629.793,432.427l41.289-71.517L547.2,432.427Z" transform="translate(302.804 199.717)" fill="none"/><path d="M445.333,432.427l41.289-71.517L362.74,432.427Z" transform="translate(200.729 199.717)" fill="none"/><path d="M449.71,682.31V825.3l41.273-71.5Z" transform="translate(248.856 377.57)" fill="none"/><path d="M639.46,464.05,718.5,509.688l44.784,25.848L722.006,464.05Z" transform="translate(353.858 256.791)" fill="none"/><path d="M578.878,627.11,454.95,698.658h82.624Z" transform="translate(251.756 347.024)" fill="none"/><path d="M445.316,623.77H362.77l123.819,71.5Z" transform="translate(200.746 345.176)" fill="none"/><path d="M398.747,700.555,357.49,629.1V772.01Z" transform="translate(197.824 348.125)" fill="none"/><path d="M484.733,570.54H402.11l-41.32,71.548Z" transform="translate(199.65 315.72)" fill="none"/><path d="M552.805,629.01,511.47,700.6,552.805,772.2Z" transform="translate(283.032 348.075)" fill="none"/><path d="M545.25,535.614,568.3,522.3,669.193,464.05H586.57Z" transform="translate(301.725 256.791)" fill="none"/><path d="M634.18,575.83V718.8l41.273-71.486Z" transform="translate(350.936 318.647)" fill="none"/><path d="M541.678,407.62l37.141,21.437L537.546,357.57H455Z" transform="translate(251.783 197.869)" fill="none"/><path d="M541.96,559.04,583.2,487.585,541.96,416.13Z" transform="translate(299.905 230.274)" fill="none"/><path d="M537.574,485.688l41.3-71.548L454.95,485.688Z" transform="translate(251.756 229.173)" fill="none"/><path d="M484.822,592.206,360.77,520.58l41.351,71.626Z" transform="translate(199.639 288.073)" fill="none"/><path d="M586.57,570.54l-41.32,71.548L639.462,587.7l29.731-17.165Z" transform="translate(301.725 315.72)" fill="none"/><path d="M398.747,487.585,357.49,416.13V559.04Z" transform="translate(197.824 230.274)" fill="none"/><path d="M402.121,485.716h82.7L360.77,414.09Z" transform="translate(199.639 229.145)" fill="none"/><path d="M449.71,505.832l41.273-71.486L449.71,362.86Z" transform="translate(248.856 200.796)" fill="none"/><path d="M360.77,627.06l41.351,71.626h82.7Z" transform="translate(199.639 346.996)" fill="none"/><path d="M398.747,594.065,357.49,522.61V665.52Z" transform="translate(197.824 289.197)" fill="none"/><path d="M639.41,485.688h82.624l41.32-71.548Z" transform="translate(353.83 229.173)" fill="none"/><path d="M639.46,570.54l123.819,71.486L722.006,570.54Z" transform="translate(353.858 315.72)" fill="none"/><path d="M639.41,592.184h82.624l41.32-71.564Z" transform="translate(353.83 288.096)" fill="none"/><path d="M453.02,482.364,576.963,410.8H494.34Z" transform="translate(250.688 227.324)" fill="none"/><path d="M586.581,485.716h82.7L545.23,414.09Z" transform="translate(301.714 229.145)" fill="none"/><path d="M678.8,623.77l-41.32,71.564L761.423,623.77Z" transform="translate(352.762 345.176)" fill="none"/><path d="M722.006,677.02H639.46l123.819,71.5Z" transform="translate(353.858 374.643)" fill="none"/><path d="M552.805,735.5,511.47,807.079l41.335,71.595Z" transform="translate(283.032 407.004)" fill="none"/><path d="M645.066,682.22,603.7,753.846l41.366,71.626Z" transform="translate(334.07 377.52)" fill="none"/><path d="M771.041,592.206h82.7L729.69,520.58Z" transform="translate(403.789 288.073)" fill="none"/><path d="M578.878,733.59,454.95,805.154h82.624Z" transform="translate(251.756 405.947)" fill="none"/><path d="M771.041,698.686h82.7L729.69,627.06Z" transform="translate(403.789 346.996)" fill="none"/><path d="M353.119,485.688l41.3-71.548L270.48,485.688Z" transform="translate(149.676 229.173)" fill="none"/><path d="M353.119,698.658l41.3-71.548L270.48,698.658Z" transform="translate(149.676 347.024)" fill="none"/><path d="M445.316,730.26H362.77l123.819,71.486Z" transform="translate(200.746 404.104)" fill="none"/><path d="M368.345,559.23V416.04L327.01,487.635Z" transform="translate(180.958 230.224)" fill="none"/><path d="M270.48,805.154h82.639l41.3-71.564Z" transform="translate(149.676 405.947)" fill="none"/><path d="M368.345,735.5,327.01,807.079l41.335,71.595Z" transform="translate(180.958 407.004)" fill="none"/><path d="M678.8,730.26l-41.32,71.548L761.423,730.26Z" transform="translate(352.762 404.104)" fill="none"/><path d="M453.02,375.868,576.963,304.32H494.34Z" transform="translate(250.688 168.402)" fill="none"/><path d="M402.121,379.236h82.7L360.77,307.61Z" transform="translate(199.639 170.222)" fill="none"/><path d="M353.119,379.214l41.3-71.564L270.48,379.214Z" transform="translate(149.676 170.244)" fill="none"/><path d="M392.54,432.449,268.55,360.87l41.335,71.579Z" transform="translate(148.608 199.695)" fill="none"/><path d="M771.024,464.05l-41.3,71.564,31.471-18.174,92.457-53.389Z" transform="translate(403.805 256.791)" fill="none"/><path d="M392.5,410.8H309.864l-41.3,71.564Z" transform="translate(148.613 227.324)" fill="none"/><path d="M586.581,379.236h82.7L545.23,307.61Z" transform="translate(301.714 170.222)" fill="none"/><path d="M771.041,485.716h82.7L729.69,414.09Z" transform="translate(403.789 229.145)" fill="none"/><path d="M771.024,357.57l-41.3,71.548,31.471-18.174,92.457-53.374Z" transform="translate(403.805 197.869)" fill="none"/><path d="M637.48,375.868,761.423,304.32H678.8Z" transform="translate(352.762 168.402)" fill="none"/><path d="M771.041,379.236h82.7L729.69,307.61Z" transform="translate(403.789 170.222)" fill="none"/><path d="M353.119,592.184l41.3-71.564L270.48,592.184Z" transform="translate(149.676 288.096)" fill="none"/><path d="M586.57,677.02l-41.32,71.564,94.212-54.4,29.731-17.165Z" transform="translate(301.725 374.643)" fill="none"/><path d="M494.34,730.26l-41.32,71.548L576.963,730.26Z" transform="translate(250.688 404.104)" fill="none"/><path d="M726.42,772.01l41.257-71.455L726.42,629.1Z" transform="translate(401.979 348.125)" fill="none"/><path d="M736.87,737.7l-99.4-57.381,41.335,71.595h82.67Z" transform="translate(352.757 376.469)" fill="none"/><path d="M853.648,677.02H771.024l-41.3,71.564Z" transform="translate(403.805 374.643)" fill="none"/><path d="M367.647,413.631l26.718,15.425L353.092,357.57H270.53Z" transform="translate(149.703 197.869)" fill="none"/><path d="M368.345,665.7V522.53L327.01,594.109Z" transform="translate(180.958 289.152)" fill="none"/><path d="M460.591,682.22,419.24,753.846l41.351,71.626Z" transform="translate(231.995 377.52)" fill="none"/><path d="M394.365,642.026,353.092,570.54H270.53Z" transform="translate(149.703 315.72)" fill="none"/><path d="M368.345,772.2V629.01L327.01,700.6Z" transform="translate(180.958 348.075)" fill="none"/><path d="M394.365,748.522l-41.273-71.5H270.53Z" transform="translate(149.703 374.643)" fill="none"/><path d="M634.18,682.31V825.3l41.273-71.5Z" transform="translate(350.936 377.57)" fill="none"/><path d="M853.648,570.54H771.024l-41.3,71.548Z" transform="translate(403.805 315.72)" fill="none"/><path d="M360.79,429.118l26.827-15.487,97.117-56.061H402.11Z" transform="translate(199.65 197.869)" fill="none"/><path d="M541.96,452.55,583.2,381.1,541.96,309.64Z" transform="translate(299.905 171.346)" fill="none"/><path d="M368.345,452.734V309.56L327.01,381.139Z" transform="translate(180.958 171.301)" fill="none"/><path d="M357.49,452.55,398.747,381.1,357.49,309.64Z" transform="translate(197.824 171.346)" fill="none"/><path d="M537.574,379.214l41.3-71.564L454.95,379.214Z" transform="translate(251.756 170.244)" fill="none"/><path d="M545.25,429.118l23.052-13.3L669.193,357.57H586.57Z" transform="translate(301.725 197.869)" fill="none"/><path d="M726.42,665.52l41.257-71.455L726.42,522.61Z" transform="translate(401.979 289.197)" fill="none"/><path d="M726.42,416.13V559.04l41.257-71.455Z" transform="translate(401.979 230.274)" fill="none"/><path d="M722.034,379.214l41.32-71.564L639.41,379.214Z" transform="translate(353.83 170.244)" fill="none"/><path d="M726.42,309.64V452.55L767.677,381.1Z" transform="translate(401.979 171.346)" fill="none"/><path d="M634.18,469.34V612.328l41.273-71.5Z" transform="translate(350.936 259.719)" fill="none"/><path d="M634.18,43.4V186.388l41.273-71.5Z" transform="translate(350.936 24.016)" fill="none"/><path d="M547.2,964.857h82.593l41.289-71.517Z" transform="translate(302.804 494.348)" fill="none"/><path d="M449.71,43.4V186.388l41.273-71.5Z" transform="translate(248.856 24.016)" fill="none"/><path d="M168.616,357.57H86.07l86.694,50.05,37.126,21.437Z" transform="translate(47.629 197.869)" fill="none"/><path d="M168.616,889.99H86.07l86.694,50.05,37.126,21.452Z" transform="translate(47.629 492.494)" fill="none"/><path d="M302.119,162.836,260.846,91.35H178.3Z" transform="translate(98.666 50.55)" fill="none"/><path d="M168.616,464.05H86.07l86.694,50.05,37.126,21.437Z" transform="translate(47.629 256.791)" fill="none"/><path d="M1039.985,695.272l-41.273-71.5H916.15Z" transform="translate(506.97 345.176)" fill="none"/><path d="M1039.985,588.776,998.712,517.29H916.15Z" transform="translate(506.97 286.253)" fill="none"/><path d="M634.18,149.89V292.862l41.273-71.486Z" transform="translate(350.936 82.945)" fill="none"/><path d="M1039.985,1014.716,998.712,943.23H916.15Z" transform="translate(506.97 521.955)" fill="none"/><path d="M1039.985,908.242l-41.273-71.5H916.15Z" transform="translate(506.97 463.027)" fill="none"/><path d="M1039.985,482.3l-41.273-71.5H916.15Z" transform="translate(506.97 227.324)" fill="none"/><path d="M176.3,840.03l41.351,71.626h82.717Z" transform="translate(97.559 464.847)" fill="none"/><path d="M855.509,269.332l-41.273-71.5H731.69Z" transform="translate(404.895 109.473)" fill="none"/><path d="M823.92,889.99l92.457,53.389,31.363,18.112-41.273-71.5Z" transform="translate(455.933 492.494)" fill="none"/><path d="M449.71,149.89V292.862l41.273-71.486Z" transform="translate(248.856 82.945)" fill="none"/><path d="M302.119,269.332l-41.273-71.5H178.3Z" transform="translate(98.666 109.473)" fill="none"/><path d="M668.615,911.278,637.47,893.29l41.335,71.595h82.67Z" transform="translate(352.757 494.32)" fill="none"/><path d="M178.28,964.857h82.577l41.3-71.517Z" transform="translate(98.655 494.348)" fill="none"/><path d="M362.74,964.857h82.593l41.289-71.517Z" transform="translate(200.729 494.348)" fill="none"/><path d="M486.589,269.332l-41.273-71.5H362.77Z" transform="translate(200.746 109.473)" fill="none"/><path d="M671.049,269.332l-41.273-71.5H547.23Z" transform="translate(302.821 109.473)" fill="none"/><path d="M731.67,964.857h82.577l41.3-71.517Z" transform="translate(404.884 494.348)" fill="none"/><path d="M1039.985,801.746,998.712,730.26H916.15Z" transform="translate(506.97 404.104)" fill="none"/><path d="M669.193,38.11H586.57l-41.32,71.564Z" transform="translate(301.725 21.089)" fill="none"/><path d="M736.716,94.264,763.279,109.6,722.006,38.11H639.46Z" transform="translate(353.858 21.089)" fill="none"/><path d="M885.853,73.869,947.739,109.6,906.466,38.11H823.92Z" transform="translate(455.933 21.089)" fill="none"/><path d="M540.373,87.4l38.446,22.2L537.546,38.11H455Z" transform="translate(251.783 21.089)" fill="none"/><path d="M791.731,73.869,853.648,38.11H771.024l-41.3,71.564Z" transform="translate(403.805 21.089)" fill="none"/><path d="M484.733,38.11H402.11l-41.32,71.564Z" transform="translate(199.65 21.089)" fill="none"/><path d="M171.443,87.4l38.446,22.2L168.616,38.11H86.07Z" transform="translate(47.629 21.089)" fill="none"/><path d="M214.9,87.4,300.258,38.11H217.634l-41.3,71.564Z" transform="translate(97.576 21.089)" fill="none"/><path d="M394.365,109.6,353.092,38.11H270.53Z" transform="translate(149.703 21.089)" fill="none"/><path d="M976.19,73.869l61.933-35.759H955.484l-41.3,71.564Z" transform="translate(505.88 21.089)" fill="none"/><path d="M1039.985,375.806,998.712,304.32H916.15Z" transform="translate(506.97 168.402)" fill="none"/><path d="M855.509,162.836,814.236,91.35H731.69Z" transform="translate(404.895 50.55)" fill="none"/><path d="M671.049,162.836,629.776,91.35H547.23Z" transform="translate(302.821 50.55)" fill="none"/><path d="M1039.985,269.332l-41.273-71.5H916.15Z" transform="translate(506.97 109.473)" fill="none"/><path d="M486.589,162.836,445.316,91.35H362.77Z" transform="translate(200.746 50.55)" fill="none"/><path d="M1039.985,162.836,998.712,91.35H916.15Z" transform="translate(506.97 50.55)" fill="none"/><path d="M998.723,112.977l41.289-71.517-61.9,35.728-61.979,35.79Z" transform="translate(506.959 22.943)" fill="none"/><path d="M736.87,1057.161l-99.4-57.381,41.335,71.579h82.67Z" transform="translate(352.757 553.248)" fill="none"/><path d="M913.237,1052.486,821.93,999.78l41.335,71.579h82.67Z" transform="translate(454.832 553.248)" fill="none"/><path d="M548.775,1055.064,453.01,999.78l41.335,71.579H577Z" transform="translate(250.682 553.248)" fill="none"/><path d="M179.861,1055.064,84.08,999.78l41.335,71.579h82.67Z" transform="translate(46.527 553.248)" fill="none"/><path d="M354.312,1049.3,268.55,999.78l41.335,71.579H392.54Z" transform="translate(148.608 553.248)" fill="none"/><path d="M629.793,538.917,671.081,467.4,547.2,538.917Z" transform="translate(302.804 258.645)" fill="none"/><path d="M460.591,612.5V469.25L419.24,540.876Z" transform="translate(231.995 259.669)" fill="none"/><path d="M537.546,570.54H455l123.819,71.486Z" transform="translate(251.783 315.72)" fill="none"/><path d="M678.805,538.945h82.67l-92.86-53.607L637.47,467.35Z" transform="translate(352.757 258.618)" fill="none"/><path d="M454.95,592.184h82.624l41.3-71.564Z" transform="translate(251.756 288.096)" fill="none"/><path d="M449.71,469.34V612.328l41.273-71.5Z" transform="translate(248.856 259.719)" fill="none"/><path d="M511.47,594.109,552.805,665.7V522.53Z" transform="translate(283.032 289.152)" fill="none"/><path d="M678.805,645.419h82.67l-24.605-14.2-99.4-57.382Z" transform="translate(352.757 317.546)" fill="none"/><path d="M576.963,517.29H494.34l-41.32,71.548Z" transform="translate(250.688 286.253)" fill="none"/><path d="M400.968,623.339,362.74,645.4h82.593l41.289-71.517Z" transform="translate(200.729 317.568)" fill="none"/><path d="M645.066,612.5V469.26L603.7,540.87Z" transform="translate(334.07 259.674)" fill="none"/><path d="M545.23,520.58l41.351,71.626h82.7Z" transform="translate(301.714 288.073)" fill="none"/><path d="M494.345,538.945H577L453.01,467.35Z" transform="translate(250.682 258.618)" fill="none"/><path d="M449.71,575.83V718.8l41.273-71.486Z" transform="translate(248.856 318.647)" fill="none"/><path d="M486.621,467.4,362.74,538.917h82.593Z" transform="translate(200.729 258.645)" fill="none"/><path d="M486.589,588.776,445.316,517.29H362.77Z" transform="translate(200.746 286.253)" fill="none"/><path d="M494.34,623.77l-41.32,71.564L576.963,623.77Z" transform="translate(250.688 345.176)" fill="none"/><path d="M863.265,325.975h82.67l-61.979-35.79L821.93,254.38Z" transform="translate(454.832 140.766)" fill="none"/><path d="M460.591,575.74,419.24,647.366l41.351,71.626Z" transform="translate(231.995 318.597)" fill="none"/><path d="M548.775,629.124,453.01,573.84l41.335,71.579H577Z" transform="translate(250.682 317.546)" fill="none"/><path d="M541.678,514.1l37.141,21.437L537.546,464.05H455Z" transform="translate(251.783 256.791)" fill="none"/><path d="M629.776,517.29H547.23l123.819,71.486Z" transform="translate(302.821 286.253)" fill="none"/><path d="M552.805,559.23V416.04L511.47,487.635Z" transform="translate(283.032 230.224)" fill="none"/><path d="M392.54,538.945,268.55,467.35l41.335,71.595Z" transform="translate(148.608 258.618)" fill="none"/><path d="M541.96,522.61V665.52L583.2,594.065Z" transform="translate(299.905 289.197)" fill="none"/><path d="M302.161,680.37,206.5,735.592,178.28,751.887h82.577Z" transform="translate(98.655 376.496)" fill="none"/><path d="M302.161,573.88,206.5,629.1,178.28,645.4h82.577Z" transform="translate(98.655 317.568)" fill="none"/><path d="M302.161,254.43l-74.127,42.78L178.28,325.947h82.577Z" transform="translate(98.655 140.794)" fill="none"/><path d="M443.484,811.75,362.74,858.367h82.593l41.289-71.517Z" transform="translate(200.729 435.419)" fill="none"/><path d="M793.649,822.593,731.67,858.367h82.577l41.3-71.517Z" transform="translate(404.884 435.419)" fill="none"/><path d="M265.25,256.37V399.342l41.273-71.486Z" transform="translate(146.781 141.867)" fill="none"/><path d="M863.265,751.915h82.67l-32.7-18.873L821.93,680.32Z" transform="translate(454.832 376.469)" fill="none"/><path d="M863.265,645.419h82.67l-32.7-18.873L821.93,573.84Z" transform="translate(454.832 317.546)" fill="none"/><path d="M660.8,792.784,547.2,858.367h82.593l41.289-71.517Z" transform="translate(302.804 435.419)" fill="none"/><path d="M863.265,858.389h82.67l-61.979-35.774L821.93,786.81Z" transform="translate(454.832 435.397)" fill="none"/><path d="M302.161,786.85l-74.127,42.8L178.28,858.367h82.577Z" transform="translate(98.655 435.419)" fill="none"/><path d="M387.617,520.127l97.117-56.077H402.11l-41.32,71.564Z" transform="translate(199.65 256.791)" fill="none"/><path d="M486.589,482.3l-41.273-71.5H362.77Z" transform="translate(200.746 227.324)" fill="none"/><path d="M400.968,729.814,362.74,751.887h82.593l41.289-71.517Z" transform="translate(200.729 376.496)" fill="none"/><path d="M353.092,464.05H270.53l97.117,56.077,26.718,15.41Z" transform="translate(149.703 256.791)" fill="none"/><path d="M671.049,482.3l-41.273-71.5H547.23Z" transform="translate(302.821 227.324)" fill="none"/><path d="M486.589,375.806,445.316,304.32H362.77Z" transform="translate(200.746 168.402)" fill="none"/><path d="M592.76,619.1,547.2,645.4h82.593l41.289-71.517Z" transform="translate(302.804 317.568)" fill="none"/><path d="M855.509,375.806,814.236,304.32H731.69Z" transform="translate(404.895 168.402)" fill="none"/><path d="M671.049,375.806,629.776,304.32H547.23Z" transform="translate(302.821 168.402)" fill="none"/><path d="M449.71,256.37V399.342l41.273-71.486Z" transform="translate(248.856 141.867)" fill="none"/><path d="M634.18,256.37V399.358l41.273-71.5Z" transform="translate(350.936 141.867)" fill="none"/><path d="M592.76,725.589l-45.56,26.3h82.593l41.289-71.517Z" transform="translate(302.804 376.496)" fill="none"/><path d="M168.616,996.48H86.07l123.819,71.486Z" transform="translate(47.629 551.422)" fill="none"/><path d="M955.484,144.6l-41.3,71.548L1038.123,144.6Z" transform="translate(505.88 80.017)" fill="none"/><path d="M914.15,201.12,955.5,272.746h82.717Z" transform="translate(505.863 111.294)" fill="none"/><path d="M955.5,166.266h82.717L914.15,94.64Z" transform="translate(505.863 52.371)" fill="none"/><path d="M910.88,203.16V346.07l41.257-71.455Z" transform="translate(504.054 112.423)" fill="none"/><path d="M353.119,166.244l41.3-71.564L270.48,166.244Z" transform="translate(149.676 52.393)" fill="none"/><path d="M914.15,307.61,955.5,379.236h82.717Z" transform="translate(505.863 170.222)" fill="none"/><path d="M906.494,166.244l41.32-71.564L823.87,166.244Z" transform="translate(455.905 52.393)" fill="none"/><path d="M402.121,166.266h82.7L360.77,94.64Z" transform="translate(199.639 52.371)" fill="none"/><path d="M453.02,162.9,576.963,91.35H494.34Z" transform="translate(250.688 50.55)" fill="none"/><path d="M771.041,166.266h82.7L729.69,94.64Z" transform="translate(403.789 52.371)" fill="none"/><path d="M586.581,166.266h82.7L545.23,94.64Z" transform="translate(301.714 52.371)" fill="none"/><path d="M637.48,162.9,761.423,91.35H678.8Z" transform="translate(352.762 50.55)" fill="none"/><path d="M910.88,309.64V452.55L952.137,381.1Z" transform="translate(504.054 171.346)" fill="none"/><path d="M914.15,733.55,955.5,805.176h82.717Z" transform="translate(505.863 405.925)" fill="none"/><path d="M910.88,735.58V878.49l41.257-71.455Z" transform="translate(504.054 407.048)" fill="none"/><path d="M914.15,840.03,955.5,911.656h82.717Z" transform="translate(505.863 464.847)" fill="none"/><path d="M910.88,842.07V984.98l41.257-71.455Z" transform="translate(504.054 465.976)" fill="none"/><path d="M910.88,948.55v142.91L952.137,1020Z" transform="translate(504.054 524.899)" fill="none"/><path d="M910.88,416.13V559.04l41.257-71.455Z" transform="translate(504.054 230.274)" fill="none"/><path d="M955.484,677.02l-41.3,71.564,123.943-71.564Z" transform="translate(505.88 374.643)" fill="none"/><path d="M955.5,592.206h82.717L914.15,520.58Z" transform="translate(505.863 288.073)" fill="none"/><path d="M914.15,414.09,955.5,485.716h82.717Z" transform="translate(505.863 229.145)" fill="none"/><path d="M955.5,698.686h82.717L914.15,627.06Z" transform="translate(505.863 346.996)" fill="none"/><path d="M955.484,570.54l-41.3,71.548,123.943-71.548Z" transform="translate(505.88 315.72)" fill="none"/><path d="M168.644,698.658l41.32-71.548L86.02,698.658Z" transform="translate(47.601 347.024)" fill="none"/><path d="M173.03,948.55v142.91L214.287,1020Z" transform="translate(95.75 524.899)" fill="none"/><path d="M360.77,946.52l41.351,71.626h82.7Z" transform="translate(199.639 523.776)" fill="none"/><path d="M176.3,946.52l41.351,71.626h82.717Z" transform="translate(97.559 523.776)" fill="none"/><path d="M537.546,996.48H455l123.819,71.486Z" transform="translate(251.783 551.422)" fill="none"/><path d="M353.092,996.48H270.53l123.835,71.486Z" transform="translate(149.703 551.422)" fill="none"/><path d="M357.49,948.55v142.91L398.747,1020Z" transform="translate(197.824 524.899)" fill="none"/><path d="M729.69,946.52l41.351,71.626h82.7Z" transform="translate(403.789 523.776)" fill="none"/><path d="M906.466,996.48H823.92l123.819,71.486Z" transform="translate(455.933 551.422)" fill="none"/><path d="M722.006,996.48H639.46l123.819,71.486Z" transform="translate(353.858 551.422)" fill="none"/><path d="M629.776,943.23H547.23l123.819,71.486Z" transform="translate(302.821 521.955)" fill="none"/><path d="M726.42,948.55v142.91L767.677,1020Z" transform="translate(401.979 524.899)" fill="none"/><path d="M168.644,379.214l41.32-71.564L86.02,379.214Z" transform="translate(47.601 170.244)" fill="none"/><path d="M276.131,186.562V43.31L234.78,114.936Z" transform="translate(129.92 23.966)" fill="none"/><path d="M168.644,485.688l41.32-71.548L86.02,485.688Z" transform="translate(47.601 229.173)" fill="none"/><path d="M168.616,251.08H86.07l42.36,24.466,81.459,47.036Z" transform="translate(47.629 138.94)" fill="none"/><path d="M168.644,1018.124l41.32-71.564L86.02,1018.124Z" transform="translate(47.601 523.798)" fill="none"/><path d="M168.644,272.718l41.32-71.548L86.02,272.718Z" transform="translate(47.601 111.321)" fill="none"/><path d="M168.644,166.244l41.32-71.564L86.02,166.244Z" transform="translate(47.601 52.393)" fill="none"/><path d="M168.616,783.51H86.07l42.36,24.45L209.889,855Z" transform="translate(47.629 433.571)" fill="none"/><path d="M168.644,911.628l41.32-71.548L86.02,911.628Z" transform="translate(47.601 464.875)" fill="none"/><path d="M168.644,592.184l41.32-71.564L86.02,592.184Z" transform="translate(47.601 288.096)" fill="none"/><path d="M947.813,946.56,823.87,1018.124h82.624Z" transform="translate(455.905 523.798)" fill="none"/><path d="M168.644,805.154l41.32-71.564L86.02,805.154Z" transform="translate(47.601 405.947)" fill="none"/><path d="M921.735,948.47,880.4,1020.049l41.335,71.595Z" transform="translate(487.187 524.855)" fill="none"/><path d="M729.72,216.148,853.648,144.6H771.024Z" transform="translate(403.805 80.017)" fill="none"/><path d="M726.42,239.58l41.257-71.455L726.42,96.67Z" transform="translate(401.979 53.494)" fill="none"/><path d="M722.034,166.244l41.32-71.564L639.41,166.244Z" transform="translate(353.83 52.393)" fill="none"/><path d="M921.735,239.764V96.59L880.4,168.169Z" transform="translate(487.187 53.45)" fill="none"/><path d="M368.345,239.764V96.59L327.01,168.169Z" transform="translate(180.958 53.45)" fill="none"/><path d="M814.236,943.23H731.69l123.819,71.486Z" transform="translate(404.895 521.955)" fill="none"/><path d="M360.79,216.148,484.733,144.6H402.11Z" transform="translate(199.65 80.017)" fill="none"/><path d="M357.49,239.58l41.258-71.455L357.49,96.67Z" transform="translate(197.824 53.494)" fill="none"/><path d="M537.574,166.244l41.3-71.564L454.95,166.244Z" transform="translate(251.756 52.393)" fill="none"/><path d="M910.88,96.67V239.58l41.257-71.455Z" transform="translate(504.054 53.494)" fill="none"/><path d="M545.25,216.148,669.193,144.6H586.57Z" transform="translate(301.725 80.017)" fill="none"/><path d="M947.739,216.086,906.466,144.6H823.92Z" transform="translate(455.933 80.017)" fill="none"/><path d="M460.591,895.2,419.24,966.81l41.351,71.626Z" transform="translate(231.995 495.377)" fill="none"/><path d="M309.864,943.23l-41.3,71.548L392.5,943.23Z" transform="translate(148.613 521.955)" fill="none"/><path d="M276.131,895.2,234.78,966.81l41.351,71.626Z" transform="translate(129.92 495.377)" fill="none"/><path d="M494.34,943.23l-41.32,71.548L576.963,943.23Z" transform="translate(250.688 521.955)" fill="none"/><path d="M176.33,216.148,300.258,144.6H217.634Z" transform="translate(97.576 80.017)" fill="none"/><path d="M829.521,895.19,788.17,966.816l41.351,71.626Z" transform="translate(436.15 495.371)" fill="none"/><path d="M863.254,943.23l-41.3,71.548L945.878,943.23Z" transform="translate(454.843 521.955)" fill="none"/><path d="M910.88,629.1V772.01l41.257-71.455Z" transform="translate(504.054 348.125)" fill="none"/><path d="M910.88,522.61V665.52l41.257-71.455Z" transform="translate(504.054 289.197)" fill="none"/><path d="M634.18,895.28v142.988l41.273-71.5Z" transform="translate(350.936 495.421)" fill="none"/><path d="M678.8,943.23l-41.32,71.548L761.423,943.23Z" transform="translate(352.762 521.955)" fill="none"/><path d="M541.96,239.58,583.2,168.125,541.96,96.67Z" transform="translate(299.905 53.494)" fill="none"/><path d="M445.316,943.23H362.77l123.819,71.486Z" transform="translate(200.746 521.955)" fill="none"/><path d="M368.345,948.47l-41.335,71.579,41.335,71.595Z" transform="translate(180.958 524.855)" fill="none"/><path d="M394.423,946.56,270.48,1018.124h82.639Z" transform="translate(149.676 523.798)" fill="none"/><path d="M183.885,985.17V841.98L142.55,913.575Z" transform="translate(78.883 465.927)" fill="none"/><path d="M260.846,943.23H178.3l123.819,71.486Z" transform="translate(98.666 521.955)" fill="none"/><path d="M183.885,1091.644V948.47l-41.335,71.579Z" transform="translate(78.883 524.855)" fill="none"/><path d="M763.353,946.56,639.41,1018.124h82.624Z" transform="translate(353.83 523.798)" fill="none"/><path d="M737.26,948.47l-41.32,71.579,41.32,71.595Z" transform="translate(385.112 524.855)" fill="none"/><path d="M552.805,948.47l-41.335,71.579,41.335,71.595Z" transform="translate(283.032 524.855)" fill="none"/><path d="M645.066,895.2,603.7,966.81l41.366,71.626Z" transform="translate(334.07 495.377)" fill="none"/><path d="M578.878,946.56,454.95,1018.124h82.624Z" transform="translate(251.756 523.798)" fill="none"/><path d="M183.885,452.734V309.56L142.55,381.139Z" transform="translate(78.883 171.301)" fill="none"/><path d="M209.889,216.086,168.616,144.6H86.07Z" transform="translate(47.629 80.017)" fill="none"/><path d="M183.885,878.674V735.5L142.55,807.079Z" transform="translate(78.883 407.004)" fill="none"/><path d="M183.885,346.26V203.07L142.55,274.665Z" transform="translate(78.883 112.373)" fill="none"/><path d="M183.885,239.764V96.59L142.55,168.169Z" transform="translate(78.883 53.45)" fill="none"/><path d="M217.651,166.266h82.717L176.3,94.64Z" transform="translate(97.559 52.371)" fill="none"/><path d="M394.365,216.086,353.092,144.6H270.53Z" transform="translate(149.703 80.017)" fill="none"/><path d="M209.889,748.522l-41.273-71.5H86.07Z" transform="translate(47.629 374.643)" fill="none"/><path d="M183.885,772.2V629.01L142.55,700.6Z" transform="translate(78.883 348.075)" fill="none"/><path d="M183.885,665.7V522.53L142.55,594.109Z" transform="translate(78.883 289.152)" fill="none"/><path d="M183.885,559.23V416.04L142.55,487.635Z" transform="translate(78.883 230.224)" fill="none"/><path d="M209.889,642.026,168.616,570.54H86.07Z" transform="translate(47.629 315.72)" fill="none"/><path d="M173.03,239.58l41.258-71.455L173.03,96.67Z" transform="translate(95.75 53.494)" fill="none"/><path d="M80.79,149.89V292.862l41.273-71.486Z" transform="translate(44.707 82.945)" fill="none"/><path d="M80.79,256.37V399.342l41.273-71.486Z" transform="translate(44.707 141.867)" fill="none"/><path d="M80.79,362.86V505.832l41.273-71.486Z" transform="translate(44.707 200.796)" fill="none"/><path d="M309.885,113H392.54L353.053,90.2,268.55,41.41Z" transform="translate(148.608 22.915)" fill="none"/><path d="M80.79,43.4V186.388l41.273-71.5Z" transform="translate(44.707 24.016)" fill="none"/><path d="M445.333,112.977,486.621,41.46,402.227,90.174l-39.487,22.8Z" transform="translate(200.729 22.943)" fill="none"/><path d="M80.79,469.34V612.328l41.273-71.5Z" transform="translate(44.707 259.719)" fill="none"/><path d="M80.79,895.28v142.988l41.273-71.5Z" transform="translate(44.707 495.421)" fill="none"/><path d="M586.57,996.48l-41.32,71.548,94.212-54.384,29.731-17.165Z" transform="translate(301.725 551.422)" fill="none"/><path d="M80.79,682.31V825.3l41.273-71.5Z" transform="translate(44.707 377.57)" fill="none"/><path d="M80.79,575.83V718.8l41.273-71.486Z" transform="translate(44.707 318.647)" fill="none"/><path d="M80.79,788.8V931.772l41.273-71.486Z" transform="translate(44.707 436.498)" fill="none"/><path d="M972.63,327.906l41.351,71.626V256.28Z" transform="translate(538.224 141.818)" fill="none"/><path d="M916.13,325.947h82.593l41.289-71.517-61.9,35.727Z" transform="translate(506.959 140.794)" fill="none"/><path d="M1003.1,895.28v142.988l41.273-71.5Z" transform="translate(555.085 495.421)" fill="none"/><path d="M916.13,432.427h82.593l41.289-71.517Z" transform="translate(506.959 199.717)" fill="none"/><path d="M916.13,538.917h82.593l41.289-71.517Z" transform="translate(506.959 258.645)" fill="none"/><path d="M972.63,434.4l41.351,71.626V362.77Z" transform="translate(538.224 200.746)" fill="none"/><path d="M972.63,114.936l41.351,71.626V43.31Z" transform="translate(538.224 23.966)" fill="none"/><path d="M863.265,113h82.67l-61.979-35.79L821.93,41.41Z" transform="translate(454.832 22.915)" fill="none"/><path d="M972.63,221.426l41.351,71.626V149.8Z" transform="translate(538.224 82.895)" fill="none"/><path d="M814.247,112.977l41.3-71.517-61.9,35.728-61.979,35.79Z" transform="translate(404.884 22.943)" fill="none"/><path d="M916.13,219.457h82.593l41.289-71.517-61.9,35.743Z" transform="translate(506.959 81.866)" fill="none"/><path d="M629.793,112.977,671.081,41.46,575.3,96.76l-28.1,16.217Z" transform="translate(302.804 22.943)" fill="none"/><path d="M91.671,575.74,50.32,647.366l41.351,71.626Z" transform="translate(27.846 318.597)" fill="none"/><path d="M91.671,895.2,50.32,966.81l41.351,71.626Z" transform="translate(27.846 495.377)" fill="none"/><path d="M91.671,469.25,50.32,540.876,91.671,612.5Z" transform="translate(27.846 259.669)" fill="none"/><path d="M972.63,540.876l41.351,71.626V469.25Z" transform="translate(538.224 259.669)" fill="none"/><path d="M206.5,1055.042l-28.225,16.295h82.577l41.3-71.517Z" transform="translate(98.655 553.27)" fill="none"/><path d="M91.671,682.22,50.32,753.846l41.351,71.626Z" transform="translate(27.846 377.52)" fill="none"/><path d="M91.671,788.71,50.32,860.336l41.351,71.626Z" transform="translate(27.846 436.449)" fill="none"/><path d="M948.828,1052.464l-32.7,18.874h82.593l41.289-71.517Z" transform="translate(506.959 553.27)" fill="none"/><path d="M592.76,1045.039l-45.56,26.3h82.593l41.289-71.517Z" transform="translate(302.804 553.27)" fill="none"/><path d="M400.968,1049.279l-38.228,22.058h82.593l41.289-71.517Z" transform="translate(200.729 553.27)" fill="none"/><path d="M1003.1,788.8V931.772l41.273-71.486Z" transform="translate(555.085 436.498)" fill="none"/><path d="M764.353,1052.464l-32.683,18.874h82.577l41.3-71.517Z" transform="translate(404.884 553.27)" fill="none"/><path d="M1003.1,469.34V612.328l41.273-71.5Z" transform="translate(555.085 259.719)" fill="none"/><path d="M1003.1,362.86V505.832l41.273-71.486Z" transform="translate(555.085 200.796)" fill="none"/><path d="M1003.1,575.83V718.8l41.273-71.486Z" transform="translate(555.085 318.647)" fill="none"/><path d="M1003.1,682.31V825.282l41.273-71.486Z" transform="translate(555.085 377.57)" fill="none"/><path d="M1003.1,256.37V399.342l41.273-71.486Z" transform="translate(555.085 141.867)" fill="none"/><path d="M91.671,43.31,50.32,114.936l41.351,71.626Z" transform="translate(27.846 23.966)" fill="none"/><path d="M1003.1,149.89V292.862l41.273-71.486Z" transform="translate(555.085 82.945)" fill="none"/><path d="M91.671,149.8,50.32,221.426l41.351,71.626Z" transform="translate(27.846 82.895)" fill="none"/><path d="M91.671,256.28,50.32,327.906l41.351,71.626Z" transform="translate(27.846 141.818)" fill="none"/><path d="M91.671,362.77,50.32,434.4l41.351,71.626Z" transform="translate(27.846 200.746)" fill="none"/><path d="M1003.1,43.4V186.388l41.273-71.5Z" transform="translate(555.085 24.016)" fill="none"/><path d="M208.086,751.915,179.861,735.62,84.08,680.32l41.335,71.595Z" transform="translate(46.527 376.469)" fill="none"/><path d="M460.591,186.562V43.31L419.24,114.936Z" transform="translate(231.995 23.966)" fill="none"/><path d="M84.08,41.41,125.415,113h82.67Z" transform="translate(46.527 22.915)" fill="none"/><path d="M208.028,91.35H125.4L84.1,162.9Z" transform="translate(46.538 50.55)" fill="none"/><path d="M268.56,162.9,392.5,91.35H309.864Z" transform="translate(148.613 50.55)" fill="none"/><path d="M265.25,186.388l41.273-71.5L265.25,43.4Z" transform="translate(146.781 24.016)" fill="none"/><path d="M260.857,112.977l41.3-71.517L178.28,112.977Z" transform="translate(98.655 22.943)" fill="none"/><path d="M208.086,432.449,84.08,360.87l41.335,71.579Z" transform="translate(46.527 199.695)" fill="none"/><path d="M208.028,304.32H125.4L84.1,375.868Z" transform="translate(46.538 168.402)" fill="none"/><path d="M208.086,325.975l-49.754-28.737L84.08,254.38l41.335,71.595Z" transform="translate(46.527 140.766)" fill="none"/><path d="M208.086,219.479l-49.91-28.815L84.08,147.9l41.335,71.579Z" transform="translate(46.527 81.843)" fill="none"/><path d="M208.028,197.83H125.4L84.1,269.394Z" transform="translate(46.538 109.473)" fill="none"/><path d="M821.95,162.9,945.878,91.35H863.254Z" transform="translate(454.843 50.55)" fill="none"/><path d="M955.484,464.05l-41.3,71.564,31.487-18.174,92.456-53.389Z" transform="translate(505.88 256.791)" fill="none"/><path d="M494.345,113H577L453.01,41.41Z" transform="translate(250.682 22.915)" fill="none"/><path d="M955.484,251.08l-41.3,71.564,62.01-35.805,61.933-35.759Z" transform="translate(505.88 138.94)" fill="none"/><path d="M955.484,889.99l-41.3,71.564,31.487-18.174,92.456-53.389Z" transform="translate(505.88 492.494)" fill="none"/><path d="M955.484,783.51l-41.3,71.548,62.01-35.805,61.933-35.743Z" transform="translate(505.88 433.571)" fill="none"/><path d="M955.484,357.57l-41.3,71.548,31.487-18.174,92.456-53.374Z" transform="translate(505.88 197.869)" fill="none"/><path d="M208.028,410.8H125.4L84.1,482.364Z" transform="translate(46.538 227.324)" fill="none"/><path d="M678.805,113h82.67L637.47,41.41Z" transform="translate(352.757 22.915)" fill="none"/><path d="M645.066,186.562V43.31L603.7,114.936Z" transform="translate(334.07 23.966)" fill="none"/><path d="M818.64,186.388l41.273-71.5L818.64,43.4Z" transform="translate(453.011 24.016)" fill="none"/><path d="M829.521,186.562V43.31L788.17,114.936Z" transform="translate(436.15 23.966)" fill="none"/><path d="M916.13,751.887h82.593l41.289-71.517-91.183,52.644Z" transform="translate(506.959 376.496)" fill="none"/><path d="M916.13,964.857h82.593l41.289-71.517Z" transform="translate(506.959 494.348)" fill="none"/><path d="M955.484,996.48l-41.3,71.548,123.943-71.548Z" transform="translate(505.88 551.422)" fill="none"/><path d="M972.63,966.816l41.351,71.626V895.19Z" transform="translate(538.224 495.371)" fill="none"/><path d="M545.23,946.52l41.351,71.626h82.7Z" transform="translate(301.714 523.776)" fill="none"/><path d="M771.024,996.48l-41.3,71.548L853.648,996.48Z" transform="translate(403.805 551.422)" fill="none"/><path d="M916.13,858.367h82.593l41.289-71.517-61.9,35.743Z" transform="translate(506.959 435.419)" fill="none"/><path d="M972.63,860.336l41.351,71.626V788.71Z" transform="translate(538.224 436.449)" fill="none"/><path d="M972.63,647.366l41.351,71.626V575.74Z" transform="translate(538.224 318.597)" fill="none"/><path d="M916.13,645.4h82.593l41.289-71.517-91.183,52.644Z" transform="translate(506.959 317.568)" fill="none"/><path d="M541.96,948.55v142.91L583.2,1020Z" transform="translate(299.905 524.899)" fill="none"/><path d="M972.63,753.846l41.351,71.626V682.22Z" transform="translate(538.224 377.52)" fill="none"/><path d="M208.086,538.945,84.08,467.35l41.335,71.595Z" transform="translate(46.527 258.618)" fill="none"/><path d="M914.15,946.52l41.351,71.626h82.717Z" transform="translate(505.863 523.776)" fill="none"/><path d="M208.028,623.77H125.4L84.1,695.334Z" transform="translate(46.538 345.176)" fill="none"/><path d="M402.11,996.48l-41.32,71.548L484.733,996.48Z" transform="translate(199.65 551.422)" fill="none"/><path d="M208.028,517.29H125.4L84.1,588.838Z" transform="translate(46.538 286.253)" fill="none"/><path d="M208.028,730.26H125.4L84.1,801.808Z" transform="translate(46.538 404.104)" fill="none"/><path d="M208.086,645.419l-28.225-16.295L84.08,573.84l41.335,71.579Z" transform="translate(46.527 317.546)" fill="none"/><path d="M208.028,943.23H125.4l-41.3,71.548Z" transform="translate(46.538 521.955)" fill="none"/><path d="M208.086,858.389l-49.754-28.722L84.08,786.81l41.335,71.579Z" transform="translate(46.527 435.397)" fill="none"/><path d="M217.634,996.48l-41.3,71.548L300.258,996.48Z" transform="translate(97.576 551.422)" fill="none"/><path d="M208.028,836.74H125.4L84.1,908.3Z" transform="translate(46.538 463.027)" fill="none"/><path d="M208.086,964.885,84.08,893.29l41.335,71.595Z" transform="translate(46.527 494.32)" fill="none"/><path d="M302.161,360.91,178.28,432.427h82.577Z" transform="translate(98.655 199.717)" fill="none"/><path d="M300.368,379.236,176.3,307.61l41.351,71.626Z" transform="translate(97.559 170.222)" fill="none"/><path d="M788.17,647.366l41.351,71.626V575.74Z" transform="translate(436.15 318.597)" fill="none"/><path d="M257.913,275.546l42.36-24.466H217.634l-41.3,71.564Z" transform="translate(97.576 138.94)" fill="none"/><path d="M353.119,272.718l41.3-71.548L270.48,272.718Z" transform="translate(149.676 111.321)" fill="none"/><path d="M276.131,293.052V149.8L234.78,221.426Z" transform="translate(129.92 82.895)" fill="none"/><path d="M788.17,753.846l41.351,71.626V682.22Z" transform="translate(436.15 377.52)" fill="none"/><path d="M300.368,272.746,176.3,201.12l41.351,71.626Z" transform="translate(97.559 111.294)" fill="none"/><path d="M545.23,733.55l41.351,71.626h82.7Z" transform="translate(301.714 405.925)" fill="none"/><path d="M541.96,735.58V878.49L583.2,807.035Z" transform="translate(299.905 407.048)" fill="none"/><path d="M527.245,829.667,453.01,786.81l41.335,71.579H577Z" transform="translate(250.682 435.397)" fill="none"/><path d="M213.58,407.62l86.678-50.05H217.634l-41.3,71.548Z" transform="translate(97.576 197.869)" fill="none"/><path d="M722.006,783.51H639.46l8.093,4.676L763.279,855Z" transform="translate(353.858 433.571)" fill="none"/><path d="M771.024,783.51l-41.3,71.548,62.011-35.805,61.917-35.743Z" transform="translate(403.805 433.571)" fill="none"/><path d="M821.93,360.87l41.335,71.579h82.67Z" transform="translate(454.832 199.695)" fill="none"/><path d="M863.254,517.29l-41.3,71.548L945.878,517.29Z" transform="translate(454.843 286.253)" fill="none"/><path d="M863.254,410.8l-41.3,71.564L945.878,410.8Z" transform="translate(454.843 227.324)" fill="none"/><path d="M821.93,467.35l41.335,71.595h82.67Z" transform="translate(454.832 258.618)" fill="none"/><path d="M863.254,623.77l-41.3,71.564L945.878,623.77Z" transform="translate(454.843 345.176)" fill="none"/><path d="M863.254,836.74,821.95,908.3,945.878,836.74Z" transform="translate(454.843 463.027)" fill="none"/><path d="M863.254,730.26l-41.3,71.548L945.878,730.26Z" transform="translate(454.843 404.104)" fill="none"/><path d="M863.254,304.32l-41.3,71.548L945.878,304.32Z" transform="translate(454.843 168.402)" fill="none"/><path d="M586.581,272.746h82.7L545.23,201.12Z" transform="translate(301.714 111.294)" fill="none"/><path d="M453.02,269.394,576.963,197.83H494.34Z" transform="translate(250.688 109.473)" fill="none"/><path d="M637.48,269.394,761.423,197.83H678.8Z" transform="translate(352.762 109.473)" fill="none"/><path d="M449.71,788.8V931.772l41.273-71.486Z" transform="translate(248.856 436.498)" fill="none"/><path d="M402.121,272.746h82.7L360.77,201.12Z" transform="translate(199.639 111.294)" fill="none"/><path d="M771.041,272.746h82.7L729.69,201.12Z" transform="translate(403.789 111.294)" fill="none"/><path d="M823.87,911.628h82.624l41.32-71.548Z" transform="translate(455.905 464.875)" fill="none"/><path d="M311.8,811.773,268.55,786.81l41.335,71.579H392.54Z" transform="translate(148.608 435.397)" fill="none"/><path d="M265.25,788.8V931.772l41.273-71.486Z" transform="translate(146.781 436.498)" fill="none"/><path d="M300.368,485.716,176.3,414.09l41.351,71.626Z" transform="translate(97.559 229.145)" fill="none"/><path d="M729.69,840.03l41.351,71.626h82.7Z" transform="translate(403.789 464.847)" fill="none"/><path d="M726.42,842.07V984.98l41.257-71.455Z" transform="translate(401.979 465.976)" fill="none"/><path d="M737.26,841.98l-41.32,71.595,41.32,71.595Z" transform="translate(385.112 465.927)" fill="none"/><path d="M823.92,783.51l61.933,35.743L947.739,855,906.466,783.51Z" transform="translate(455.933 433.571)" fill="none"/><path d="M823.92,570.54l123.819,71.486L906.466,570.54Z" transform="translate(455.933 315.72)" fill="none"/><path d="M823.87,592.184h82.624l41.32-71.564Z" transform="translate(455.905 288.096)" fill="none"/><path d="M823.87,698.658h82.624l41.32-71.548Z" transform="translate(455.905 347.024)" fill="none"/><path d="M823.87,805.154h82.624l41.32-71.564Z" transform="translate(455.905 405.947)" fill="none"/><path d="M823.92,677.02l123.819,71.5-41.273-71.5Z" transform="translate(455.933 374.643)" fill="none"/><path d="M763.353,840.08,639.41,911.628h82.624Z" transform="translate(353.83 464.875)" fill="none"/><path d="M814.236,836.74H731.69l123.819,71.5Z" transform="translate(404.895 463.027)" fill="none"/><path d="M300.258,570.54H217.634l-41.3,71.548Z" transform="translate(97.576 315.72)" fill="none"/><path d="M300.368,698.686,176.3,627.06l41.351,71.626Z" transform="translate(97.559 346.996)" fill="none"/><path d="M629.776,836.74H547.23l123.819,71.5Z" transform="translate(302.821 463.027)" fill="none"/><path d="M213.58,514.1l86.678-50.05H217.634l-41.3,71.564Z" transform="translate(97.576 256.791)" fill="none"/><path d="M300.258,677.02H217.634l-41.3,71.564Z" transform="translate(97.576 374.643)" fill="none"/><path d="M300.368,592.206,176.3,520.58l41.351,71.626Z" transform="translate(97.559 288.073)" fill="none"/><path d="M402.11,783.51l-41.32,71.548,49.273-28.442,74.67-43.106Z" transform="translate(199.65 433.571)" fill="none"/><path d="M360.77,840.03l41.351,71.626h82.7Z" transform="translate(199.639 464.847)" fill="none"/><path d="M537.546,889.99H455l86.678,50.05,37.141,21.452Z" transform="translate(251.783 492.494)" fill="none"/><path d="M357.49,842.07V984.98l41.258-71.455Z" transform="translate(197.824 465.976)" fill="none"/><path d="M353.092,889.99H270.53l97.117,56.077,26.718,15.425Z" transform="translate(149.703 492.494)" fill="none"/><path d="M257.913,807.96l42.345-24.45H217.634l-41.3,71.548Z" transform="translate(97.576 433.571)" fill="none"/><path d="M300.368,805.176,176.3,733.55l41.351,71.626Z" transform="translate(97.559 405.925)" fill="none"/><path d="M818.64,362.86V505.832l41.273-71.486Z" transform="translate(453.011 200.796)" fill="none"/><path d="M818.64,682.31V825.282L859.913,753.8Z" transform="translate(453.011 377.57)" fill="none"/><path d="M552.805,346.26V203.07L511.47,274.665Z" transform="translate(283.032 112.373)" fill="none"/><path d="M818.64,575.83V718.8l41.273-71.486Z" transform="translate(453.011 318.647)" fill="none"/><path d="M818.64,469.34V612.328l41.273-71.5Z" transform="translate(453.011 259.719)" fill="none"/><path d="M722.034,272.718l41.32-71.548L639.41,272.718Z" transform="translate(353.83 111.321)" fill="none"/><path d="M818.64,788.8V931.772l41.273-71.486Z" transform="translate(453.011 436.498)" fill="none"/><path d="M720.373,834.669l-82.9-47.859,41.335,71.579h82.67Z" transform="translate(352.757 435.397)" fill="none"/><path d="M726.42,346.07l41.257-71.455L726.42,203.16Z" transform="translate(401.979 112.423)" fill="none"/><path d="M647.553,255.756l115.726,66.826-41.273-71.5H639.46Z" transform="translate(353.858 138.94)" fill="none"/><path d="M729.72,322.644l62.011-35.805,61.917-35.759H771.024Z" transform="translate(403.805 138.94)" fill="none"/><path d="M818.64,256.37V399.342l41.273-71.486Z" transform="translate(453.011 141.867)" fill="none"/><path d="M629.793,325.947l41.289-71.517L660.8,260.364,547.2,325.947Z" transform="translate(302.804 140.794)" fill="none"/><path d="M823.92,464.05l92.457,53.389,31.363,18.1L906.466,464.05Z" transform="translate(455.933 256.791)" fill="none"/><path d="M829.521,788.71,788.17,860.336l41.351,71.626Z" transform="translate(436.15 436.449)" fill="none"/><path d="M276.131,506.022V362.77L234.78,434.4Z" transform="translate(129.92 200.746)" fill="none"/><path d="M276.131,399.532V256.28L234.78,327.906Z" transform="translate(129.92 141.818)" fill="none"/><path d="M276.131,612.5V469.25L234.78,540.876Z" transform="translate(129.92 259.669)" fill="none"/><path d="M276.131,718.992V575.74L234.78,647.366Z" transform="translate(129.92 318.597)" fill="none"/><path d="M445.333,325.947l41.289-71.517-43.137,24.9L362.74,325.947Z" transform="translate(200.729 140.794)" fill="none"/><path d="M309.885,325.975H392.54L311.8,279.358,268.55,254.38Z" transform="translate(148.608 140.766)" fill="none"/><path d="M276.131,931.962V788.71L234.78,860.336Z" transform="translate(129.92 436.449)" fill="none"/><path d="M494.34,836.74,453.02,908.3,576.963,836.74Z" transform="translate(250.688 463.027)" fill="none"/><path d="M586.57,783.51l-41.32,71.548L585.5,831.82l83.7-48.31Z" transform="translate(301.725 433.571)" fill="none"/><path d="M460.591,788.71,419.24,860.336l41.351,71.626Z" transform="translate(231.995 436.449)" fill="none"/><path d="M634.18,788.8V931.772l41.273-71.486Z" transform="translate(350.936 436.498)" fill="none"/><path d="M309.864,836.74,268.56,908.3,392.5,836.74Z" transform="translate(148.613 463.027)" fill="none"/><path d="M276.131,825.472V682.22L234.78,753.846Z" transform="translate(129.92 377.52)" fill="none"/><path d="M788.17,434.4l41.351,71.626V362.77Z" transform="translate(436.15 200.746)" fill="none"/><path d="M302.119,801.746,260.846,730.26H178.3Z" transform="translate(98.666 404.104)" fill="none"/><path d="M394.423,840.08,270.48,911.628h82.639Z" transform="translate(149.676 464.875)" fill="none"/><path d="M302.119,695.272l-41.273-71.5H178.3Z" transform="translate(98.666 345.176)" fill="none"/><path d="M302.119,908.242l-41.273-71.5H178.3Z" transform="translate(98.666 463.027)" fill="none"/><path d="M302.119,588.776,260.846,517.29H178.3Z" transform="translate(98.666 286.253)" fill="none"/><path d="M302.161,467.4,178.28,538.917h82.577Z" transform="translate(98.655 258.645)" fill="none"/><path d="M788.17,540.876,829.521,612.5V469.25Z" transform="translate(436.15 259.669)" fill="none"/><path d="M368.345,841.98,327.01,913.575l41.335,71.595Z" transform="translate(180.958 465.927)" fill="none"/><path d="M302.119,482.3l-41.273-71.5H178.3Z" transform="translate(98.666 227.324)" fill="none"/><path d="M645.066,788.71,603.7,860.336l41.366,71.626Z" transform="translate(334.07 436.449)" fill="none"/><path d="M552.805,841.98,511.47,913.575l41.335,71.595Z" transform="translate(283.032 465.927)" fill="none"/><path d="M445.316,836.74H362.77l123.819,71.5Z" transform="translate(200.746 463.027)" fill="none"/><path d="M578.878,840.08,454.95,911.628h82.624Z" transform="translate(251.756 464.875)" fill="none"/><path d="M814.247,325.947l41.3-71.517-61.9,35.727-61.979,35.79Z" transform="translate(404.884 140.794)" fill="none"/><path d="M31.161,0H19.2l92.177,53.218h-82.7L0,3.557V15.518l23.5,40.7L0,96.915v11.961L28.675,59.214H111.3L0,123.462v6.912l29.871-17.258,84.395-48.729L72.977,135.92H0v5.98H72.977l41.273,71.486L0,147.415v6.912l111.377,64.31h-82.7L0,168.96v11.961l23.5,40.7L0,262.318v11.961l28.675-49.661H111.3L0,288.88v6.913l70.772-40.869,43.494-25.118L72.977,301.323H0v5.98H72.977l41.273,71.486L0,312.833v6.912l111.377,64.31h-82.7L0,334.378v11.961l23.5,40.7L0,427.736V439.7l28.675-49.661H111.3l-74.67,43.106L0,454.283V461.2l71.129-41.071,43.137-24.9L72.977,466.741H0v5.98H72.977l41.273,71.486L0,478.252v6.913l111.377,64.309h-82.7L0,499.781v11.961l23.5,40.7L0,593.139V605.1l28.675-49.661H111.3L14.182,611.515,0,619.7v6.913l114.266-65.972L72.977,632.159H0v5.98H72.977l41.273,71.486L0,643.654v6.913l111.377,64.31h-82.7L0,665.2v11.961l23.5,40.7L0,758.557v11.961l28.675-49.661H111.3L14.182,776.934,0,785.1v6.912l114.266-65.972L72.977,797.562H0v5.98H72.977l41.273,71.486L0,809.073v6.912l111.377,64.31h-82.7L0,830.6v11.961l23.5,40.7L0,923.96v11.961L28.675,886.26H111.3L0,950.523v6.913l28.613-16.528,85.653-49.459L72.977,962.965H0v5.98H72.977l41.273,71.486L0,974.476v6.912l111.377,64.31h-82.7L0,996.021v11.961l23.5,40.7L0,1089.378v11.961l28.675-49.661H111.3L0,1115.926v6.912l28.613-16.528,85.653-49.459-41.289,71.517H0v5.98H72.977l41.273,71.486L0,1139.894v6.912l111.377,64.31h-82.7L0,1161.424v11.961l23.5,40.7L0,1254.781v11.961l28.675-49.661H111.3l-74.67,43.106L0,1281.344v6.912l71.129-41.071,43.137-24.9L72.977,1293.8H0v5.98H72.977l41.273,71.486L0,1305.3v6.913l111.377,64.31h-82.7L0,1326.842V1338.8l23.5,40.7L0,1420.2v11.961L28.675,1382.5H111.3l-97.117,56.077L0,1446.747v6.912l114.266-65.972L72.977,1459.2H0v5.98H72.977l41.273,71.486L0,1470.715v6.913l111.377,64.31h-82.7L0,1492.245v11.961l23.5,40.7L0,1585.6v11.961L28.675,1547.9H111.3L0,1612.165v6.912l28.613-16.528,85.653-49.459-41.289,71.517H0v5.98H72.977l27.168,47.052h6.912l-28.893-50.034,41.351-71.626v121.66h5.98V1556.12l41.273,71.486-28.893,50.034h6.912l27.168-47.052h82.624l-81.49,47.052h11.961l72.511-41.863-24.17,41.863h6.912l22.462-38.912v38.912H268.8v-38.772l22.384,38.772h6.912L273.875,1635.7l72.636,41.941h11.961l-81.49-47.052h82.546L386.7,1677.64h6.913l-28.893-50.034,41.351-71.626v121.66h5.98V1556.12l41.273,71.486-28.893,50.034h6.913l27.168-47.052h82.624l-81.505,47.052h11.961l72.511-41.863-24.17,41.863h6.913l22.462-38.912v38.912h6.027v-38.772l22.384,38.772h6.912L560.409,1635.7l72.636,41.941h11.961l-81.49-47.052h82.546l27.168,47.052h6.913l-28.893-50.034L692.6,1555.98v121.66h5.98V1556.12l41.273,71.486-28.893,50.034h6.913l27.168-47.052h82.624l-81.505,47.052h11.961l72.511-41.863-24.171,41.863h6.913l22.462-38.912v38.912h6.027v-38.772l22.384,38.772h6.912L846.944,1635.7l72.636,41.941H931.54l-81.49-47.052H932.6l27.168,47.052h6.913l-28.893-50.034,41.351-71.626v121.66h5.98V1556.12l41.273,71.486L997.5,1677.64h6.913l27.168-47.052H1114.2l-81.49,47.052h11.961l72.511-41.863-24.17,41.863h6.912l22.462-38.912v38.912h6.027v-38.772l22.384,38.772h6.912l-24.217-41.941,72.636,41.941h11.961l-81.49-47.052h82.546l27.168,47.052h6.912l-28.893-50.034,41.351-71.626v121.66h5.98V1556.12l41.273,71.486-28.893,50.034h6.913l27.153-47.052h82.624l-81.49,47.052h11.961l72.511-41.863-24.171,41.863h6.912l22.462-38.912v38.912h6.027v-38.772l22.384,38.772h6.912l-24.217-41.941,72.636,41.941h11.961l-81.49-47.052h82.546l27.168,47.052h6.912l-28.893-50.034,41.351-71.626v121.66h5.98V1556.12l41.273,71.486-28.893,50.034h6.912l27.169-47.052h72.977v-5.98h-72.993l-41.335-71.595,91.307,52.721,23.021,13.3v-6.912L1566.4,1547.887h82.546l28.691,49.708v-11.961l-23.518-40.729,23.518-40.729v-11.961l-28.691,49.708h-82.624l111.314-64.278v-6.913l-114.312,66,41.32-71.564h72.993v-5.98h-72.993l-41.335-71.595,114.328,66v-6.912l-18.8-10.843-92.457-53.374h82.546l28.691,49.708v-11.961l-23.518-40.729,23.518-40.729V1326.8l-28.691,49.708H1566.31l111.314-64.278v-6.913l-114.312,66,41.32-71.564h73.008v-5.98h-72.993l-41.335-71.595,62.01,35.805,52.318,30.228V1281.3l-49.32-28.473-61.917-35.743h82.546l28.691,49.708v-11.961l-23.518-40.729,23.518-40.729v-11.961l-28.691,49.708h-82.624l111.314-64.278v-6.913l-114.312,66,41.32-71.564h72.993v-5.98h-72.993l-41.335-71.595,91.307,52.721,23.021,13.3v-6.912L1566.4,1051.662h82.546l28.691,49.708v-11.961l-23.518-40.729,23.518-40.729V995.99l-28.691,49.708h-82.624l111.314-64.279v-6.912l-114.312,66,41.32-71.564h72.993v-5.98h-72.993l-41.335-71.595,91.307,52.721,23.021,13.3v-6.913L1566.4,886.244h82.546l28.691,49.708V923.991l-23.518-40.729,23.518-40.729V830.571l-28.691,49.708h-82.624L1677.64,816v-6.913l-114.312,66,41.32-71.564h72.993v-5.98h-72.993l-41.335-71.595,114.328,66v-6.912l-18.8-10.843-92.457-53.374h82.546l28.691,49.708V758.573l-23.518-40.729,23.518-40.729V665.153l-28.691,49.708H1566.31l111.314-64.278V643.67l-114.312,66,41.32-71.564h73.008v-5.98h-72.993l-41.335-71.595,114.328,66v-6.913l-18.8-10.843-92.457-53.374h82.546l28.691,49.708V593.154l-23.518-40.729,23.518-40.729V499.734l-28.691,49.708H1566.31l111.314-64.278v-6.913l-114.312,66,41.32-71.564h73.008v-5.98h-72.993l-41.335-71.595,62.01,35.805,52.318,30.2v-6.913l-49.319-28.473L1566.4,389.989h82.546L1677.64,439.7V427.736l-23.518-40.729,23.518-40.729V334.316l-28.691,49.708h-82.624l111.314-64.278v-6.912l-114.312,66,41.32-71.564h72.993v-5.98h-72.993L1563.312,229.7l62.026,35.805,52.318,30.2v-6.912l-111.237-64.232h82.546l28.691,49.708V262.3l-23.518-40.729,23.518-40.729V168.882l-28.691,49.708h-82.624l111.3-64.232v-6.912l-114.312,66,41.32-71.548h72.993v-5.98h-72.993l-41.335-71.595,62.026,35.805,52.3,30.213v-6.912l-49.32-28.473L1566.4,59.214h82.546l28.691,49.708V96.961l-23.518-40.729,23.518-40.745V3.526l-28.691,49.708h-82.624L1658.5,0h-11.961l-83.214,48.046L1591.07,0h-6.912l-25.972,44.986V0h-5.98V45.125L1526.155,0h-6.912l27.7,47.968L1463.849,0h-11.961l92.193,53.218h-82.7L1430.638,0h-6.912l32.45,56.216-41.258,71.455V0h-6.027V127.811l-41.3-71.595L1400.037,0h-6.913L1362.4,53.218h-82.624L1371.967,0h-11.961l-83.214,48.046L1304.52,0h-6.913l-25.972,44.986V0h-5.98V45.125L1239.62,0h-6.912l27.7,47.968L1177.315,0h-11.961l92.193,53.218h-82.7L1144.1,0h-6.912l32.45,56.216-41.258,71.455V0h-6.027V127.811l-41.335-71.595L1113.5,0h-6.912l-30.726,53.218H993.24L1085.433,0h-11.961L990.258,48.046,1017.986,0h-6.913L985.1,44.986V0h-5.98V45.125L953.07,0h-6.912l27.7,47.968L890.78,0H878.819l92.192,53.218h-82.7L857.569,0h-6.912l32.45,56.216-41.258,71.455V0h-6.027V127.811L794.487,56.216,826.968,0h-6.913L789.329,53.218H706.706L798.883,0H786.922L703.708,48.046,731.451,0h-6.913L698.566,44.986V0h-5.98V45.125L666.536,0h-6.913l27.7,47.968L604.23,0H592.269l92.193,53.218h-82.7L571.019,0h-6.912l32.45,56.216L555.3,127.671V0h-6.027V127.811L507.936,56.216,540.417,0H533.5L502.779,53.218H420.155L512.348,0H500.387L417.173,48.046,444.916,0H438L412.031,44.986V0h-5.98V45.125L380,0h-6.913l27.7,47.968L317.7,0H305.734l92.193,53.218h-82.7L284.484,0h-6.913l32.45,56.216-41.258,71.455V0h-6.027V127.811L221.4,56.216,253.883,0H246.97L216.245,53.218H133.621L225.813,0H213.852L130.638,48.046,158.366,0h-6.913L125.5,44.986V0h-5.98V45.125L93.466,0H86.554l27.7,47.968ZM216.245,59.2l41.273,71.486-38.446-22.2L133.7,59.2Zm98.965,0h82.624L312.46,108.487l-38.57,22.26Zm187.585,0,41.273,71.486L420.249,59.2h82.546Zm98.965,0h82.624L560.44,130.763Zm187.569,0L830.6,130.685l-38.446-22.2L706.783,59.2Zm98.965,0h82.624L846.975,130.763Zm187.569,0,41.273,71.486-26.563-15.332L993.318,59.2Zm98.965,0h82.624l-61.917,35.743-62.026,35.805Zm187.569,0,41.273,71.486-61.9-35.743L1279.853,59.2Zm98.965,0h82.624L1482.07,94.958l-62.026,35.805ZM1318.1,1624.608l-41.335-71.595,91.307,52.721,32.7,18.874Zm-286.535,0-41.335-71.595,99.385,57.381,24.605,14.213Zm-286.535,0-41.335-71.595,95.781,55.3,28.225,16.295Zm-286.535,0-41.335-71.595,85.777,49.521,38.228,22.073h-82.67Zm-286.55,0-41.335-71.595,95.781,55.3,28.225,16.295ZM1546.97,64.4l-41.289,71.517h-82.593l61.979-35.79ZM646.062,141.9l41.273,71.486L563.516,141.9h82.546Zm286.535,0,41.273,71.486L850.051,141.9H932.6Zm286.535,0,41.273,71.486L1136.585,141.9h82.546Zm286.55,0,41.273,71.486L1423.135,141.9h82.546Zm0,165.4,41.273,71.486L1423.135,307.3Zm0,165.418,41.273,71.486-123.819-71.486Zm0,165.4,41.273,71.486-123.819-71.486Zm0,165.418,41.273,71.486-123.819-71.486Zm0,165.4,41.273,71.486-123.819-71.486Zm0,165.418,41.273,71.486-123.819-71.486Zm0,165.4,41.273,71.486-123.819-71.486Zm0,165.418,41.273,71.486-123.819-71.486ZM359.512,141.9l41.273,71.486L276.966,141.9ZM698.566,67.416,739.839,138.9l-41.273,71.486Zm286.55,0,41.273,71.486-41.273,71.486ZM932.6,1459.2H850l123.881-71.517Zm-798.9-76.721h82.546l41.273,71.486-37.126-21.437Zm0-661.642h82.546l41.273,71.486-37.126-21.436Zm0-165.4h82.546l41.273,71.486-37.126-21.437ZM1219.131,1459.2h-82.593l123.881-71.517Zm-573.069,0H563.469l123.881-71.517Zm-286.55,0H276.919L400.8,1387.688Zm672.05,0-41.335-71.595,31.145,17.973,92.861,53.607h-82.67ZM646.062,307.3l41.273,71.486L563.516,307.3Zm286.535,0,41.273,71.486L850.051,307.3Zm286.535,0,41.273,71.486L1136.585,307.3Zm153.178,1128.57-92.457-53.374H1362.4l41.273,71.486ZM315.21,1376.5l-41.351-71.626L397.911,1376.5Zm44.3-1069.2,41.273,71.486L276.966,307.3Zm339.054-74.469,41.273,71.486-41.273,71.486Zm286.55,0,41.273,71.486-41.273,71.486Zm415.651,233.906H1318.1l-41.335-71.595,62.026,35.805Zm0,496.224H1318.1l-41.335-71.595,91.307,52.721Zm0,165.418H1318.1l-41.335-71.595,91.307,52.721Zm0,165.4H1318.1l-41.335-71.595L1338.788,1258Zm-468.17,0H850L963.6,1228.2l10.283-5.934Zm-605.908-28.722,74.127-42.8-41.289,71.517H276.935Zm-21.53-152.976,95.657-55.222-41.289,71.517H276.935Zm0-165.418,95.657-55.222-41.289,71.517H276.935ZM326.689,438l74.127-42.8-41.289,71.517H276.935Zm892.442,855.783h-82.593l61.979-35.79,61.9-35.743Zm-573.069,0H563.469l80.744-46.617,43.137-24.9ZM412.031,398.237,453.3,469.724,412.031,541.21Zm234.031,74.484,41.273,71.486L563.516,472.722Zm286.535,0,41.273,71.486L850.051,472.722Zm286.535,0,41.273,71.486-123.819-71.486ZM698.566,398.237l41.273,71.486L698.566,541.21Zm286.55,0,41.273,71.486L985.116,541.21ZM932.6,1128.383H850l45.56-26.3,78.321-45.219Zm-286.535,0H563.469L601.7,1106.31l85.653-49.459ZM420.233,720.841h82.546l41.273,71.486L517.35,776.9Zm225.829-82.717,41.273,71.486L563.516,638.124Zm286.535,0L973.87,709.61,850.051,638.124Zm0,324.841H850l45.56-26.3,78.321-45.219ZM601.76,720.841h82.624l-97.117,56.077L560.44,792.405Zm512.472,76.721h-82.67l-41.335-71.595,31.145,17.973Zm0,165.4h-82.67L990.227,891.37l99.385,57.381Zm-468.17,0H563.469L601.7,940.892l85.653-49.459Zm333.074-90.794-41.351-71.626,41.351-71.626ZM932.6,797.562H850l123.881-71.517Zm-187.569,5.98h82.624L703.708,875.107Zm44.3,76.737H706.706l123.943-71.564Zm0,5.98L830.6,957.746,706.783,886.26Zm5.173-3,41.335-71.595V954.841Zm-49.475-85.7-41.335-71.595,123.99,71.595Zm-46.461-68.5,41.273,71.486-41.273,71.486Zm-5.98,143.112-41.351-71.626,41.351-71.626Zm5.98,22.306,41.273,71.486-41.273,71.486Zm46.461,68.488L703.692,891.37l95.781,55.3L827.7,962.965h-82.67ZM932.6,803.543l41.273,71.486L850.051,803.543Zm52.519-74.484,41.273,71.486-41.273,71.486Zm-149.279,60.4L794.5,717.859l41.335-71.595Zm-46.508-68.612L830.6,792.327l-37.125-21.436-86.694-50.05Zm-101.979,5.2-41.289,71.517H563.469Zm-41.289,77.5,41.273,71.486L563.516,803.543Zm46.523,90.794v143.252l-41.351-71.626Zm52.442,74.608h82.624l-123.943,71.564Zm96.837-157.139,41.258,71.455-41.258,71.455Zm46.43,68.473-41.351-71.626L971,880.279Zm143.267-76.737h82.624L990.242,875.107Zm-161.535-24.45-23.052,13.312,41.32-71.564h82.624Zm-28.163,10.221V646.4l41.258,71.455Zm-52.535-74.453H706.706L830.649,643.3ZM684.461,880.279h-82.7l-41.351-71.626Zm-82.7,5.98h82.624L560.44,957.823Zm44.3,82.686,41.273,71.486L563.516,968.946Zm184.571,5.188-41.32,71.548H706.69Zm5.2,2.951v143.174L794.5,1048.665Zm11.138-19.277,41.32-71.564h82.624l-29.732,17.165Zm138.141-63.331,41.273,71.486-41.273,71.486Zm46.446,74.469h82.624l-123.943,71.564ZM993.318,886.26h82.546l41.273,71.486Zm82.546-5.98H993.24l123.943-71.564Zm-3.51-113.8-79.036-45.638h82.546l41.273,71.486Zm3.51-51.618H993.24L1117.184,643.3Zm-187.569,0-41.351-71.626L971,714.861Zm-184.587-5.173,41.32-71.564h82.624Zm-5.142-3.06V563.656l41.273,71.486Zm-96.806,8.233-41.351-71.626,124.052,71.626Zm-5.188,3-41.258,71.455V646.4Zm0,165.4-41.258,71.455V811.807Zm5.188,162.42-41.351-71.626,124.052,71.626Zm-5.188,3-41.258,71.455V977.225Zm192.758,2.983,41.273,71.486-123.819-71.486ZM979.136,894.337v143.252l-41.351-71.626Zm138.048,79.8-41.32,71.548H993.24Zm5.188,2.951v143.174l-41.335-71.595Zm-41.32-93.824,41.335-71.595V954.841Zm0-165.4,41.335-71.595V789.438Zm-90.81-8.171,41.32-71.564h82.624Zm-5.126-3.06V563.656l41.273,71.486Zm-5.98.14-41.351-71.626,41.351-71.626ZM745.027,632.144l-41.335-71.595,123.99,71.595Zm-52.442,74.624-41.351-71.626,41.351-71.626ZM601.76,1051.663h82.624L560.44,1123.211ZM932.6,968.946l41.273,71.486L850.051,968.946Zm143.267,82.717,41.273,71.486-123.819-71.486Zm38.368-419.519h-82.67l-41.335-71.595,31.145,17.972Zm-181.636,0H850l123.881-71.517Zm-286.535,0H563.469l123.881-71.517Zm52.5,427.736,41.273,71.486-41.273,71.486Zm46.461,68.5-41.335-71.595,95.781,55.3,28.225,16.295Zm96.837-151.158,41.258,71.455-41.258,71.455Zm46.43,68.457-41.351-71.626L971,1045.682Zm234.077-421.647-41.335-71.595,41.335-71.595Zm-46.508-68.6,41.273,71.486-44.784-25.848-79.035-45.638Zm-240.027,68.6L794.5,552.441l41.335-71.595Zm-46.508-68.6L830.6,626.925l-37.125-21.437-86.694-50.05ZM549.3,789.454l-41.335-71.595L549.3,646.264Zm0,165.4-41.335-71.595L549.3,811.667Zm-46.508-68.6,41.273,71.486L420.249,886.26ZM549.3,1120.275l-41.335-71.595L549.3,977.085Zm-46.508-68.612,41.273,71.486-123.819-71.486Zm189.791,8.077v143.252l-41.351-71.626Zm52.442,74.624h82.624l-123.943,71.564Zm101.948-11.138,41.32-71.548h82.624l-29.732,17.165Zm138.141-63.346,41.273,71.486-41.273,71.486Zm46.446,68.5-41.335-71.595,99.385,57.381,24.605,14.213Zm143.267-76.721h82.624l-123.943,71.548Zm-46.43,68.472V977.225l41.257,71.455Zm46.43-233.875h82.624L1133.51,957.823Zm-46.43,68.457V811.807l41.257,71.455Zm0-308.313,41.257,71.455L1128.4,789.314Zm0-165.418,41.257,71.455L1128.4,623.9Zm-52.535,68.473H993.24l123.943-71.564ZM870.027,613.69,846.975,627l41.32-71.564h82.624ZM841.864,623.9V480.986l41.258,71.455Zm-52.535-74.438H706.706l123.943-71.564ZM587.267,611.5,560.44,626.987l41.32-71.564h82.624Zm-31.953,12.4V480.986l41.258,71.455Zm-6.012.14-41.335-71.595L549.3,480.846Zm-46.508-68.6,41.273,71.486-26.7-15.425-97.117-56.077h82.546Zm0,159.422H420.171L544.114,643.3Zm0,165.418H420.171l123.943-71.564Zm0,165.4H420.171l123.943-71.548Zm0,165.418H420.171l123.943-71.564Zm46.508-68.6v143.174l-41.335-71.595Zm96.759-8.14,41.273,71.486-123.819-71.486Zm184.571,5.173-41.32,71.564H706.69Zm5.2,2.967v143.174L794.5,1214.083Zm143.3-82.764v143.252l-41.351-71.626Zm52.426,74.624h82.624l-123.943,71.564Zm143.267-88.682-41.351-71.626,124.052,71.626Zm0-165.4-41.351-71.626,124.052,71.626Zm-41.3-87.874,41.32-71.564h82.624l-92.457,53.374Zm41.3-77.544-41.351-71.626,124.052,71.626Zm-41.3-87.874,41.32-71.564h82.624L1165.012,608.8Zm41.3-77.529-41.351-71.626,124.052,71.626ZM990.242,544.27l41.32-71.564h82.624Zm-101.948,5.188-41.351-71.626L971,549.458ZM703.708,544.27l41.32-71.564h82.624ZM601.76,549.458l-41.351-71.626,124.052,71.626Zm-98.965,0H420.171l123.943-71.564Zm38.353,82.686h-82.67l-41.335-71.595Zm-82.67,5.98H541.1L417.158,709.688Zm82.67,159.438h-82.67l-41.335-71.595Zm-82.67,5.98H541.1L417.158,875.107Zm44.442,137.365,38.228,22.073h-82.67l-41.335-71.595Zm-44.442,28.038H541.1l-123.943,71.564Zm44.442,137.365,38.228,22.073h-82.67l-41.335-71.595Zm-44.442,28.054H541.1l-123.943,71.564Zm-38.244,82.717h82.546l41.273,71.486-49.164-28.38Zm135.081-74.453,41.258,71.455-41.258,71.455ZM601.76,1211.1l-41.351-71.626L684.461,1211.1Zm105.023,5.98h82.546l41.273,71.486-81.459-47.036ZM932.6,1134.364l41.273,71.486-123.819-71.486Zm184.587,5.173-41.32,71.564H993.24Zm5.188,2.967v143.174l-41.335-71.595Zm6.027.124,41.257,71.455-41.257,71.455Zm46.43,68.473-41.351-71.626,124.052,71.626Zm-38.244-76.736h82.546l41.273,71.486Zm82.546-5.981h-82.593l32.7-18.873,91.183-52.644Zm-82.546-159.438h82.546l41.273,71.486Zm82.546-5.981h-82.593l32.7-18.873,91.183-52.644Zm-82.546-159.422h82.546l41.273,71.486Zm82.546-5.98h-82.593l123.881-71.517Zm-82.546-159.438h82.546L1260.4,709.61Zm82.546-5.98h-82.593l123.881-71.517Zm-104.9-165.4h-82.67l-41.335-71.595,82.9,47.859Zm-135.1,74.608-41.351-71.626L979.136,398.1ZM827.682,466.741h-82.67l-41.335-71.595L777.912,438Zm-135.1,74.608-41.351-71.626L692.586,398.1Zm-275.412,2.92,41.32-71.564h82.624Zm-5.142,19.386L453.3,635.142l-41.273,71.486Zm0,165.4L453.3,800.545l-41.273,71.486Zm0,165.418L453.3,965.963l-41.273,71.486Zm0,165.4,41.273,71.486-41.273,71.486Zm0,165.418,41.273,71.486-41.273,71.486Zm46.461,68.488-41.335-71.595,43.261,24.978,80.744,46.617Zm101.948-5.157,41.32-71.564h82.624l-74.655,43.106ZM698.566,1225.3l41.273,71.486-41.273,71.486Zm46.461,68.488-41.335-71.595,74.236,42.858,49.754,28.722H745.027Zm96.837-151.158,41.258,71.455-41.258,71.455Zm46.43,68.473-41.351-71.626L971,1211.1Zm105.023,5.98h82.546l41.273,71.486-115.726-66.81Zm140.207,71.548,41.32-71.564h82.624l-61.917,35.743Zm90.794-157.263,41.351-71.626v143.252Zm0-165.4,41.351-71.626v143.252Zm0-165.418,41.351-71.626V872.171Zm0-165.4,41.351-71.626V706.768Zm0-165.418L1265.67,398.1V541.349Zm36.116-74.5-41.289,71.517h-82.593l61.979-35.79Zm-138.063,63.409-41.335-71.595,41.335-71.595Zm-46.508-68.612,41.273,71.486L1001.411,394.7l-8.093-4.676h82.546Zm-101.979,5.2L932.6,466.741H850l113.6-65.583ZM835.837,458.633,794.5,387.038l41.335-71.595ZM789.329,390.02,830.6,461.506,749.144,414.47l-42.36-24.45Zm-101.979,5.2-41.289,71.517H563.469l80.744-46.617Zm-146.2,71.517h-82.67l-41.335-71.595L460.4,420.124Zm-135.1,74.608L364.7,469.724,406.051,398.1Zm0,165.418L364.7,635.142l41.351-71.626Zm0,165.4L364.7,800.545l41.351-71.626Zm0,165.419L364.7,965.963l41.351-71.626Zm0,165.4L364.7,1131.366l41.351-71.626Zm0,165.418L364.7,1296.784l41.351-71.626Zm52.426-68.643H541.1l-123.943,71.564Zm234.108-74.608V1368.41l-41.351-71.626Zm52.442,74.608h82.624l-123.943,71.564Zm101.948-11.138,41.32-71.564h82.624l-83.7,48.325ZM985.116,1225.3l41.273,71.486-41.273,71.486Zm46.446,68.488-41.335-71.595,82.9,47.859,41.1,23.736Zm234.108-68.628V1368.41l-41.351-71.626Zm5.981.14,41.273,71.486-41.273,71.486Zm0-165.418,41.273,71.486-41.273,71.486Zm0-165.4,41.273,71.486-41.273,71.486Zm0-165.418,41.273,71.486-41.273,71.486Zm0-165.4,41.273,71.486-41.273,71.486Zm0-165.418,41.273,71.486-41.273,71.486Zm-76.115,27.541-62.026,35.805,41.32-71.564h82.624ZM1128.4,458.493V315.583l41.257,71.455Zm-52.535-74.453H993.24l123.943-71.564ZM887.223,438.345l-40.248,23.238,41.32-71.564h82.624Zm-45.358,20.147V315.583l41.258,71.455ZM789.329,384.04H706.706l123.943-71.564ZM609.713,433.126,560.44,461.568,601.76,390h82.624Zm-54.4,25.367V315.583l41.258,71.455Zm-6.012.14-41.335-71.595L549.3,315.443ZM502.795,390.02l41.273,71.486L494.9,433.126,420.233,390.02h82.562Zm-143.283,82.7,41.273,71.486L276.966,472.722Zm41.3,87.905-41.289,71.517H276.935Zm-41.3,77.5,41.273,71.486L276.966,638.124Zm41.3,87.921-41.289,71.517H276.935Zm-41.3,77.5,41.273,71.486L276.966,803.543Zm0,165.4,41.273,71.486L276.966,968.946Zm0,165.418,41.273,71.486-123.819-71.486Zm0,165.4,41.273,71.486-123.819-71.486Zm184.587,5.188-41.32,71.564H420.155Zm5.2,2.951v143.174l-41.335-71.595Zm96.759-8.14,41.273,71.486-123.819-71.486Zm184.571,5.188-41.32,71.548H706.69Zm5.2,2.951v143.174L794.5,1379.486Zm143.3-82.748V1368.41l-41.351-71.626Zm52.426,74.608h82.624l-123.943,71.564Zm187.569,0,41.273,71.486-123.819-71.486Zm98.965,0h82.624l-123.943,71.564Zm0-165.4h82.624l-123.943,71.564Zm0-165.418h82.624l-123.943,71.564Zm0-165.4h82.624l-123.943,71.564Zm0-5.98-41.335-71.595,124.006,71.595Zm0-159.438h82.624l-123.943,71.564Zm0-5.98-41.335-71.595,124.006,71.595Zm0-159.422h82.624l-123.943,71.564ZM1174.829,384.04l-41.351-71.626,124.052,71.626Zm-184.587-5.173,41.32-71.564h82.624ZM888.295,384.04l-41.351-71.626L971,384.04Zm-184.587-5.173,41.32-71.564h82.624ZM601.76,384.04l-41.351-71.626L684.461,384.04Zm-98.965,0H420.171l123.943-71.564Zm-96.744-8.093L364.7,304.321l41.351-71.626Zm-8.124,8.093h-82.7l-41.351-71.626Zm-82.717,5.98h82.624l-42.36,24.45-81.583,47.1Zm82.717,159.438h-82.7l-41.351-71.626Zm-82.717,5.981h82.624l-86.694,50.05-37.25,21.5Zm82.717,159.422h-82.7l-41.351-71.626Zm-82.717,5.98h82.624l-86.694,50.05-37.25,21.514Zm82.717,159.438h-82.7l-41.351-71.626Zm-82.717,5.98h82.624L273.89,957.823Zm82.717,159.422h-82.7l-41.351-71.626Zm-82.717,5.981h82.624L273.89,1123.211ZM397.927,1211.1h-82.7l-41.351-71.626Zm-82.717,5.98h82.624l-42.36,24.45-81.583,47.1Zm105.023,165.4h82.546l41.273,71.486-26.7-15.425Zm135.081-74.437,41.258,71.455-41.258,71.455ZM601.76,1376.5l-41.351-71.626L684.461,1376.5Zm105.023,5.98h82.546L830.6,1453.97l-37.125-21.437ZM932.6,1299.767l41.273,71.486-123.819-71.486Zm184.587,5.188-41.32,71.548H993.24Zm5.188,2.951v143.174l-41.335-71.595Zm6.027.14,41.257,71.455-41.257,71.455Zm46.43,68.457-41.351-71.626,124.052,71.626Zm187.569,0h-82.624l123.943-71.548Zm-20.613-123.679-61.917-35.743h82.546l41.273,71.486ZM1362.4,1211.1h-82.624l123.943-71.564Zm-82.546-159.438H1362.4l41.273,71.486Zm82.546-5.981h-82.624l123.943-71.548ZM1279.853,886.26H1362.4l41.273,71.486Zm82.546-5.98h-82.624l123.943-71.564Zm9.911-106.049-92.457-53.374H1362.4l41.273,71.486Zm-9.911-59.37h-82.624L1403.718,643.3Zm9.911-106.049-92.457-53.374H1362.4l41.273,71.486Zm-9.911-59.354h-82.624l123.943-71.564Zm-20.613-123.679-61.917-35.743h82.546l41.273,71.486ZM1362.4,384.04h-82.624l123.943-71.564Zm-85.606-5.173,41.32-71.564h82.624Zm-5.142-3.06V232.835l41.273,71.486Zm-5.981.14-41.351-71.626,41.351-71.626Zm-151.438-74.624h-82.67l-41.335-71.595,82.67,47.735Zm-135.1,74.624-41.351-71.626,41.351-71.626ZM827.682,301.323h-82.67l-41.335-71.595,74.08,42.78Zm-135.1,74.624-41.351-71.626,41.351-71.626Zm-275.412,2.92,41.32-71.564h82.624Zm-5.142-3.06V232.835L453.3,304.321Zm-11.215-146-41.289,71.517H276.935l49.91-28.815ZM310.037,387.038,268.78,458.493V315.583Zm0,165.4L268.78,623.9V480.986Zm0,165.418L268.78,789.314V646.4Zm0,165.4L268.78,954.717V811.807Zm0,165.418-41.258,71.455V977.225Zm0,165.4-41.258,71.455v-142.91Zm0,165.418-41.258,71.455v-142.91Zm-36.131,74.546,41.32-71.548h82.624l-86.694,50.05Zm286.535,0,41.32-71.548h82.624l-97.117,56.077Zm281.424-146,41.258,71.455-41.258,71.455Zm46.43,68.457-41.351-71.626L971,1376.5Zm105.023,5.98h82.546l41.273,71.486-44.784-25.848Zm140.207,71.564,41.32-71.548h82.624l-92.457,53.374Zm234.062-74.546,41.335-71.595v143.174Zm0-165.418,41.335-71.595v143.174Zm0-165.4,41.335-71.595v143.174Zm0-165.418,41.335-71.595V954.841Zm0-165.4,41.335-71.595V789.438Zm0-165.418,41.335-71.595V624.02Zm0-165.4,41.335-71.595V458.617Zm33.18-85.715H1318.1l-41.335-71.595,62.026,35.805Zm-140.332-71.517-41.289,71.517h-82.593l61.979-35.79Zm-286.55,0L932.6,301.323H850l112.262-64.807Zm-286.535,0-41.289,71.517H563.469l80.387-46.415Zm-146.2,71.517h-82.67l-41.335-71.595,43.619,25.18ZM412.031,1390.7l41.273,71.486-41.273,71.486Zm46.461,68.5-41.335-71.595,123.99,71.595Zm240.073-68.5,41.273,71.486-41.273,71.486Zm46.461,68.5-41.335-71.595,123.99,71.595Zm101.948-5.157,41.32-71.548h82.624l-100.891,58.251ZM1318.1,1459.2l-41.335-71.595,124.006,71.595Zm-5.173,2.982-41.273,71.486V1390.7ZM1122.372,293.214l-41.335-71.595,41.335-71.595Zm-46.508-68.6,41.273,71.486L993.318,224.617Zm-240.027,68.6L794.5,221.619l41.335-71.595Zm-46.508-68.6L830.6,296.1,706.783,224.617ZM273.906,296.166l41.32-71.564h82.624Zm-5.126-3.091V150.164l41.258,71.455Zm137.271,1097.5v143.252L364.7,1462.2Zm52.426,74.608H541.1l-123.943,71.564Zm234.108-74.608v143.252L651.235,1462.2Zm52.442,74.608h82.624l-123.943,71.564ZM985.116,1390.7l41.273,71.486-41.273,71.486Zm46.446,74.484h82.624l-123.943,71.564Zm234.108-74.624v143.252l-41.351-71.626Zm52.426,74.624h82.624l-123.943,71.564Zm96.837-487.96,41.257,71.455-41.257,71.455Zm0-165.418,41.257,71.455-41.257,71.455Zm0-661.642,41.257,71.455-41.257,71.455Zm-6.012,143.05-41.335-71.595,41.335-71.595Zm-46.523-68.6,41.273,71.486-123.819-71.486Zm-228.874,71.548,41.32-71.564h82.624Zm-5.126-3.091V150.164l41.257,71.455Zm-52.535-74.437H993.24l123.943-71.564ZM846.975,296.166l41.32-71.564h82.624Zm-5.111-3.091V150.164l41.258,71.455Zm-52.535-74.437H706.706l123.943-71.564ZM560.44,296.166,601.76,224.6h82.624Zm-5.126-3.091V150.164l41.258,71.455Zm-6.012.14-41.335-71.595L549.3,150.024Zm-46.508-68.6L544.068,296.1,420.249,224.617Zm-187.585-5.98-41.351-71.626,124.052,71.626Zm-52.442,74.577-41.335-71.595,41.335-71.595Zm-46.523-68.6L257.518,296.1,133.7,224.617Zm46.523,234.015-41.335-71.595,41.335-71.595Zm0,165.4-41.335-71.595,41.335-71.595Zm0,165.418-41.335-71.595,41.335-71.595Zm0,165.4-41.335-71.595,41.335-71.595Zm-46.523-68.6,41.273,71.486L133.7,886.26Zm46.523,234.015-41.335-71.595,41.335-71.595Zm-46.523-68.612,41.273,71.486L133.7,1051.663Zm46.523,234.015-41.335-71.595,41.335-71.595Zm0,165.418L221.433,1379.5l41.335-71.595Zm0,165.4L221.433,1544.9l41.335-71.595Zm96.744-151.314,41.273,71.486-123.819-71.486Zm184.587,5.173-41.32,71.564H420.155Zm5.2,2.967V1616.5L507.968,1544.9Zm96.759-8.14,41.273,71.486-123.819-71.486Zm184.571,5.173-41.32,71.564H706.69Zm5.2,2.967V1616.5L794.5,1544.9Zm143.3-82.748v143.252l-41.366-71.641Zm138.048,79.781-41.32,71.564H993.24Zm5.188,2.967V1616.5l-41.335-71.595Zm96.759-8.14,41.273,71.486-123.819-71.486Zm184.587,5.173-41.32,71.564h-82.624Zm5.2,2.967V1616.5l-41.335-71.595Zm6.012-165.279,41.257,71.455-41.257,71.455Zm46.43,68.457-41.351-71.626,124.052,71.626Zm-46.43-233.875,41.257,71.455-41.257,71.455Zm46.43,68.473-41.351-71.626,124.052,71.626Zm0-159.438h82.624l-123.943,71.548Zm0-5.981-41.351-71.626,124.052,71.626Zm0-159.422h82.624l-123.943,71.564Zm0-5.98-41.351-71.626,124.052,71.626ZM1414.934,646.4l41.257,71.455-41.257,71.455Zm46.43,68.457-41.351-71.626,124.052,71.626Zm-46.43-233.875,41.257,71.455L1414.934,623.9Zm46.43,68.473-41.351-71.626,124.052,71.626Zm-46.43-233.875,41.257,71.455-41.257,71.455Zm46.43,68.457-41.351-71.626,124.052,71.626Zm0-159.422h82.624l-123.943,71.564Zm0-5.98-41.351-71.626,124.052,71.626Zm-98.965,0h-82.624l123.943-71.564Zm-187.569,0-41.351-71.626,124.052,71.626Zm-184.587-5.188,41.32-71.548h82.624Zm-101.948,5.188-41.351-71.626L971,218.637Zm-184.587-5.188,41.32-71.548h82.624ZM601.76,218.637l-41.351-71.626,124.052,71.626Zm-98.965,0H420.171l123.943-71.564Zm-96.744-8.109L364.7,138.9l41.351-71.626Zm-189.806,8.109H133.621l123.943-71.564Zm0,165.4H133.621l123.943-71.564ZM133.7,390.02h82.546l41.273,71.486L176.059,414.47Zm82.546,159.438H133.621l123.943-71.564Zm0,165.4H133.621L257.564,643.3Zm0,165.418H133.621l123.943-71.564Zm0,165.4H133.621l123.943-71.548Zm0,165.418H133.621l123.943-71.564Zm-82.546,5.98h82.546l41.273,71.486-81.459-47.036ZM216.245,1376.5H133.621l123.943-71.548Zm0,165.418H133.621l123.943-71.564Zm0,5.98,41.273,71.486L133.7,1547.9Zm52.535-74.453,41.258,71.455-41.258,71.455Zm46.43,68.473L273.859,1470.3l124.052,71.626Zm187.585,5.98,41.273,71.486L420.249,1547.9Zm52.519-74.453,41.258,71.455-41.258,71.455Zm46.446,68.473L560.409,1470.3l124.052,71.626Zm187.569,5.98,41.273,71.486L706.783,1547.9ZM932.6,1465.185l41.273,71.486-123.819-71.486Zm143.267,82.717,41.273,71.486L993.318,1547.9Zm52.535-74.453,41.257,71.455-41.257,71.455Zm46.43,68.473-41.351-71.626,124.052,71.626Zm187.569,5.98,41.273,71.486L1279.853,1547.9Zm52.535-74.453,41.257,71.455-41.257,71.455Zm46.43,68.473-41.351-71.626,124.052,71.626Zm-41.3-87.874,41.32-71.548H1544l-92.457,53.374Zm0-165.418,41.32-71.564H1544l-61.917,35.743Zm0-496.224,41.32-71.564H1544l-92.457,53.374Zm0-165.418,41.32-71.564H1544L1451.547,608.8Zm0-165.4,41.32-71.564H1544l-61.933,35.759ZM1276.792,213.449l41.32-71.548h82.624Zm-5.142-3.045V67.416l41.273,71.486Zm-5.981.124L1224.32,138.9l41.351-71.626ZM1031.562,135.92,990.227,64.325l124.005,71.595Zm-52.426,74.608L937.769,138.9,979.12,67.276V210.528ZM745.027,135.92,703.692,64.325l123.99,71.595Zm-52.442,74.608L651.235,138.9l41.351-71.626Zm-275.412,2.92,41.32-71.548h82.624Zm-5.142-3.045V67.416L453.3,138.9ZM359.512,135.92H276.919L400.8,64.4Zm-187.569,0L130.607,64.325,254.613,135.92Zm0,5.98h82.624L130.638,213.449ZM204.7,272.508l49.91,28.815h-82.67l-41.335-71.579Zm-32.761,34.8h82.624L130.638,378.867ZM204.858,438l49.754,28.722h-82.67l-41.335-71.595Zm-32.916,34.718h82.624L130.638,544.27Zm82.67,159.422h-82.67l-41.335-71.595Zm-82.67,5.98h82.624L130.638,709.688Zm82.67,159.438h-82.67l-41.335-71.595Zm-82.67,5.98h82.624L130.638,875.091ZM226.388,946.67l28.225,16.295h-82.67L130.607,891.37Zm-54.446,22.275h82.624l-123.928,71.564Zm54.446,143.143,28.225,16.295h-82.67l-41.335-71.595Zm-54.446,22.275h82.624l-123.928,71.548Zm32.916,130.7,49.754,28.722h-82.67l-41.335-71.595Zm-32.916,34.7h82.624l-123.928,71.564Zm82.67,159.438h-82.67l-41.335-71.595Zm-82.67,5.98h82.624l-123.928,71.548ZM315.21,1547.9h82.624L273.89,1619.466Zm286.55,0h82.624L560.44,1619.466Zm240.1-74.453,41.258,71.455-41.258,71.455Zm46.43,68.473L846.944,1470.3,971,1541.922Zm286.535,5.98h82.624l-123.943,71.564Zm286.535,0h82.624l-123.943,71.564Zm49.49-85.715,41.351-71.626v143.252Zm-5.173-2.982h-82.593l123.881-71.517Zm5.173-162.42,41.351-71.626V1368.41Zm-5.173-3h-82.593l61.979-35.79,61.9-35.743Zm5.173-162.42,41.351-71.626v143.252Zm-5.173-2.983h-82.593l32.7-18.873,91.183-52.644Zm5.173-162.42,41.351-71.626v143.252Zm-5.173-3h-82.593l32.7-18.873,91.183-52.644Zm5.173-162.42,41.351-71.626V872.171Zm-5.173-2.982h-82.593l123.881-71.517Zm5.173-162.42,41.351-71.626V706.768Zm-5.173-3h-82.593l123.881-71.517Zm5.173-162.42L1552.2,398.1V541.349Zm-5.173-2.982h-82.593l61.979-35.79,61.9-35.743Zm5.173-162.42,41.351-71.626V375.947Zm-5.173-3h-82.593l61.979-35.79,61.9-35.743Zm5.173-162.42L1552.2,67.276V210.528Zm-110.087-2.982H1318.1l-41.335-71.595,62.026,35.805ZM1260.435,64.4l-41.3,71.517h-82.593l61.979-35.79Zm-286.55,0L932.6,135.92H850L878.089,119.7Zm-286.535,0L646.062,135.92H563.469l39.487-22.8Zm-146.2,71.517h-82.67L417.142,64.325l84.519,48.791ZM125.5,67.416,166.77,138.9,125.5,210.388Zm0,165.418,41.273,71.486L125.5,375.807Zm0,165.4,41.273,71.486L125.5,541.21Zm0,165.418,41.273,71.486L125.5,706.628Zm0,165.4,41.273,71.486L125.5,872.031Zm0,165.418,41.273,71.486L125.5,1037.449Zm0,165.4,41.273,71.486L125.5,1202.852Zm0,165.418,41.273,71.486L125.5,1368.271Zm0,165.4,41.273,71.486L125.5,1533.673ZM846.975,1619.45l41.32-71.564h82.624l-29.732,17.165Zm711.21-228.749,41.273,71.486-41.273,71.486V1390.7Zm0-165.4,41.273,71.486-41.273,71.486V1225.3Zm0-165.418,41.273,71.486-41.273,71.486V1059.88Zm0-165.4,41.273,71.486-41.273,71.486V894.477Zm0-165.418,41.273,71.486-41.273,71.486V729.059Zm0-165.4,41.273,71.486-41.273,71.486V563.656Zm0-165.418,41.273,71.486-41.273,71.486V398.237Zm0-165.4,41.273,71.486-41.273,71.486V232.835Zm0-165.418,41.273,71.486-41.273,71.486V67.416Zm-1438.669-.14V210.528L78.166,138.9Zm0,165.418V375.947L78.166,304.321Zm0,165.4V541.349L78.166,469.724Zm0,165.418V706.768L78.166,635.142Zm0,165.4V872.171L78.166,800.545Zm0,165.418v143.252L78.166,965.963Zm0,165.4v143.252l-41.351-71.626Zm0,165.418V1368.41l-41.351-71.626Zm0,165.418v143.252l-41.351-71.641Zm240,234.031H276.919l28.225-16.295L400.8,1553.09Zm286.55,0H563.469l38.228-22.073,85.653-49.459Zm286.535,0H850l45.56-26.3,78.321-45.219Zm286.535,0h-82.593l32.7-18.874,91.183-52.644Zm286.55,0h-82.593l32.7-18.874,91.183-52.644Z" fill="#933033" opacity="0.026"/><path d="M392.5,517.29H309.864l-41.3,71.548Z" transform="translate(148.613 286.253)" fill="none"/><path d="M537.574,272.718l41.3-71.548L454.95,272.718Z" transform="translate(251.756 111.321)" fill="none"/><path d="M788.17,327.906l41.351,71.626V256.28Z" transform="translate(436.15 141.818)" fill="none"/><path d="M545.25,322.644,585.5,299.405l83.7-48.325H586.57Z" transform="translate(301.725 138.94)" fill="none"/><path d="M737.26,346.26V203.07l-41.32,71.595Z" transform="translate(385.112 112.373)" fill="none"/><path d="M541.96,346.07,583.2,274.615,541.96,203.16Z" transform="translate(299.905 112.423)" fill="none"/><path d="M360.79,322.644l49.273-28.458,74.67-43.106H402.11Z" transform="translate(199.65 138.94)" fill="none"/><path d="M302.119,375.806,260.846,304.32H178.3Z" transform="translate(98.666 168.402)" fill="none"/><path d="M678.8,836.74,637.48,908.3,761.423,836.74Z" transform="translate(352.762 463.027)" fill="none"/><path d="M357.49,346.07l41.258-71.455L357.49,203.16Z" transform="translate(197.824 112.423)" fill="none"/><path d="M345.2,294.186l49.164,28.4-41.273-71.5H270.53Z" transform="translate(149.703 138.94)" fill="none"/><path d="M368.345,346.26V203.07L327.01,274.665Z" transform="translate(180.958 112.373)" fill="none"/><path d="M880.4,594.109,921.735,665.7V522.53Z" transform="translate(487.187 289.152)" fill="none"/><path d="M771.024,889.99l-41.3,71.564,31.471-18.174,92.457-53.389Z" transform="translate(403.805 492.494)" fill="none"/><path d="M541.96,842.07V984.98L583.2,913.525Z" transform="translate(299.905 465.976)" fill="none"/><path d="M357.49,735.58V878.49l41.258-71.455Z" transform="translate(197.824 407.048)" fill="none"/><path d="M722.006,889.99H639.46L718.5,935.628l44.784,25.864Z" transform="translate(353.858 492.494)" fill="none"/><path d="M880.4,807.079l41.335,71.595V735.5Z" transform="translate(487.187 407.004)" fill="none"/><path d="M880.4,913.575l41.335,71.595V841.98Z" transform="translate(487.187 465.927)" fill="none"/><path d="M880.4,381.139l41.335,71.595V309.56Z" transform="translate(487.187 171.301)" fill="none"/><path d="M880.4,700.6,921.735,772.2V629.01Z" transform="translate(487.187 348.075)" fill="none"/><path d="M731.67,538.917h82.577l41.3-71.517Z" transform="translate(404.884 258.645)" fill="none"/><path d="M880.4,487.635l41.335,71.595V416.04Z" transform="translate(487.187 230.224)" fill="none"/><path d="M497.36,275.546l81.459,47.036-41.273-71.5H455Z" transform="translate(251.783 138.94)" fill="none"/><path d="M545.23,840.03l41.351,71.626h82.7Z" transform="translate(301.714 464.847)" fill="none"/><path d="M586.57,889.99l-41.32,71.564L568.3,948.241,669.193,889.99Z" transform="translate(301.725 492.494)" fill="none"/><path d="M214.287,594.065,173.03,522.61V665.52Z" transform="translate(95.75 289.197)" fill="none"/><path d="M214.287,700.555,173.03,629.1V772.01Z" transform="translate(95.75 348.125)" fill="none"/><path d="M214.287,381.1,173.03,309.64V452.55Z" transform="translate(95.75 171.346)" fill="none"/><path d="M214.287,274.615,173.03,203.16V346.07Z" transform="translate(95.75 112.423)" fill="none"/><path d="M217.634,889.99l-41.3,71.564,37.25-21.514,86.678-50.05Z" transform="translate(97.576 492.494)" fill="none"/><path d="M402.11,889.99l-41.32,71.564,26.827-15.487,97.117-56.077Z" transform="translate(199.65 492.494)" fill="none"/><path d="M214.287,807.035,173.03,735.58V878.49Z" transform="translate(95.75 407.048)" fill="none"/><path d="M353.092,783.51H270.53L345.2,826.616,394.365,855Z" transform="translate(149.703 433.571)" fill="none"/><path d="M392.5,730.26H309.864l-41.3,71.548Z" transform="translate(148.613 404.104)" fill="none"/><path d="M214.287,913.525,173.03,842.07V984.98Z" transform="translate(95.75 465.976)" fill="none"/><path d="M214.287,487.585,173.03,416.13V559.04Z" transform="translate(95.75 230.274)" fill="none"/><path d="M629.793,219.457l41.289-71.517-11.619,6.711L547.2,219.457Z" transform="translate(302.804 81.866)" fill="none"/><path d="M445.333,219.457l41.289-71.517-43.494,25.118-80.387,46.4Z" transform="translate(200.729 81.866)" fill="none"/><path d="M537.546,783.51H455l42.36,24.45L578.819,855Z" transform="translate(251.783 433.571)" fill="none"/><path d="M629.776,730.26H547.23l123.819,71.486Z" transform="translate(302.821 404.104)" fill="none"/><path d="M360.77,733.55l41.351,71.626h82.7Z" transform="translate(199.639 405.925)" fill="none"/><path d="M453.01,893.29l41.335,71.595H577Z" transform="translate(250.682 494.32)" fill="none"/><path d="M309.885,219.479H392.54l-80.387-46.4-43.6-25.18Z" transform="translate(148.608 81.843)" fill="none"/><path d="M823.87,485.688h82.624l41.32-71.548Z" transform="translate(455.905 229.173)" fill="none"/><path d="M449.71,895.28v142.988l41.273-71.5Z" transform="translate(248.856 495.421)" fill="none"/><path d="M814.247,219.457l41.3-71.517-61.9,35.743L731.67,219.457Z" transform="translate(404.884 81.866)" fill="none"/><path d="M268.55,893.29l41.335,71.595H392.54Z" transform="translate(148.608 494.32)" fill="none"/><path d="M731.69,623.77l123.819,71.5-41.273-71.5Z" transform="translate(404.895 345.176)" fill="none"/><path d="M880.4,274.665l41.335,71.595V203.07Z" transform="translate(487.187 112.373)" fill="none"/><path d="M764.353,733.014,731.67,751.887h82.577l41.3-71.517Z" transform="translate(404.884 376.496)" fill="none"/><path d="M764.353,626.524,731.67,645.4h82.577l41.3-71.517Z" transform="translate(404.884 317.568)" fill="none"/><path d="M731.69,517.29l123.819,71.486L814.236,517.29Z" transform="translate(404.895 286.253)" fill="none"/><path d="M265.25,895.28v142.988l41.273-71.5Z" transform="translate(146.781 495.421)" fill="none"/><path d="M863.265,219.479h82.67l-61.979-35.774L821.93,147.9Z" transform="translate(454.832 81.843)" fill="none"/><path d="M726.42,735.58V878.49l41.257-71.455Z" transform="translate(401.979 407.048)" fill="none"/><path d="M737.26,735.5l-41.32,71.579,41.32,71.595Z" transform="translate(385.112 407.004)" fill="none"/><path d="M763.353,733.59,639.41,805.154h82.624Z" transform="translate(353.83 405.947)" fill="none"/><path d="M729.69,733.55l41.351,71.626h82.7Z" transform="translate(403.789 405.925)" fill="none"/><path d="M731.69,730.26l123.819,71.486L814.236,730.26Z" transform="translate(404.895 404.104)" fill="none"/><path d="M678.805,219.479h82.67l-41.32-23.844L637.47,147.9Z" transform="translate(352.757 81.843)" fill="none"/><path d="M645.066,293.052V149.8L603.7,221.426Z" transform="translate(334.07 82.895)" fill="none"/><path d="M494.345,219.479H577l-49.91-28.815L453.01,147.9Z" transform="translate(250.682 81.843)" fill="none"/><path d="M460.591,399.532V256.28L419.24,327.906Z" transform="translate(231.995 141.818)" fill="none"/><path d="M268.56,375.868,392.5,304.32H309.864Z" transform="translate(148.613 168.402)" fill="none"/><path d="M494.345,325.975H577l-49.755-28.737L453.01,254.38Z" transform="translate(250.682 140.766)" fill="none"/><path d="M678.805,325.975h82.67l-41.1-23.735-82.9-47.859Z" transform="translate(352.757 140.766)" fill="none"/><path d="M645.066,399.532V256.28L603.7,327.906Z" transform="translate(334.07 141.818)" fill="none"/><path d="M460.591,293.052V149.8L419.24,221.426Z" transform="translate(231.995 82.895)" fill="none"/><path d="M265.25,362.86V505.832l41.273-71.486Z" transform="translate(146.781 200.796)" fill="none"/><path d="M823.87,379.214h82.624l41.32-71.564Z" transform="translate(455.905 170.244)" fill="none"/><path d="M265.25,682.31V825.3l41.273-71.5Z" transform="translate(146.781 377.57)" fill="none"/><path d="M265.25,469.34V612.328l41.273-71.5Z" transform="translate(146.781 259.719)" fill="none"/><path d="M823.92,251.08l61.933,35.759,61.886,35.743-41.273-71.5Z" transform="translate(455.933 138.94)" fill="none"/><path d="M823.92,357.57l92.457,53.374,31.363,18.112L906.466,357.57Z" transform="translate(455.933 197.869)" fill="none"/><path d="M731.67,432.427h82.577l41.3-71.517Z" transform="translate(404.884 199.717)" fill="none"/><path d="M821.95,269.394,945.878,197.83H863.254Z" transform="translate(454.843 109.473)" fill="none"/><path d="M829.521,293.052V149.8L788.17,221.426Z" transform="translate(436.15 82.895)" fill="none"/><path d="M265.25,575.83V718.8l41.273-71.486Z" transform="translate(146.781 318.647)" fill="none"/><path d="M818.64,292.862l41.273-71.486L818.64,149.89Z" transform="translate(453.011 82.945)" fill="none"/><path d="M823.87,272.718h82.624l41.32-71.548Z" transform="translate(455.905 111.321)" fill="none"/><path d="M821.93,893.29l41.335,71.595h82.67Z" transform="translate(454.832 494.32)" fill="none"/><path d="M265.25,292.862l41.273-71.486L265.25,149.89Z" transform="translate(146.781 82.945)" fill="none"/><path d="M737.26,239.764V96.59l-41.32,71.579Z" transform="translate(385.112 53.45)" fill="none"/><path d="M392.54,645.419l-38.228-22.058L268.55,573.84l41.335,71.579Z" transform="translate(148.608 317.546)" fill="none"/><path d="M260.857,219.457l41.3-71.517-73.971,42.7-49.91,28.815Z" transform="translate(98.655 81.866)" fill="none"/><path d="M392.54,751.915l-38.228-22.073L268.55,680.32l41.335,71.595Z" transform="translate(148.608 376.469)" fill="none"/><path d="M392.5,623.77H309.864l-41.3,71.564Z" transform="translate(148.613 345.176)" fill="none"/><path d="M859.913,966.766,818.64,895.28v142.988Z" transform="translate(453.011 495.421)" fill="none"/><path d="M731.69,410.8l123.819,71.5-41.273-71.5Z" transform="translate(404.895 227.324)" fill="none"/><path d="M552.805,239.764V96.59L511.47,168.169Z" transform="translate(283.032 53.45)" fill="none"/><path d="M268.56,269.394,392.5,197.83H309.864Z" transform="translate(148.613 109.473)" fill="none"/><path d="M578.819,216.086,537.546,144.6H455Z" transform="translate(251.783 80.017)" fill="none"/><path d="M763.279,216.086,722.006,144.6H639.46Z" transform="translate(353.858 80.017)" fill="none"/><path d="M0,1060.182l59.96,34.609H71.921L0,1053.27Z" transform="translate(0 582.848)" fill="#eeeae4"/><path d="M0,1079.1l4.629,8.016h6.912L0,1067.14Z" transform="translate(0 590.523)" fill="#eeeae4"/><path d="M1045.7,1094.781l59.9-34.578v-6.912l-71.859,41.49Z" transform="translate(572.041 582.859)" fill="#eeeae4"/><path d="M1079.472,1087.127l4.645-8.047V1067.12l-11.557,20.008Z" transform="translate(593.523 590.512)" fill="#eeeae4"/><rect width="707.125" height="707.125" transform="translate(485.257 489.047)" fill="none"/></g></g></g></svg>