<svg xmlns="http://www.w3.org/2000/svg" width="825.599" height="723.567" viewBox="0 0 825.599 723.567"><g transform="translate(-41.33 -39.866)" opacity="0.05"><g transform="translate(41.33 39.866)"><path d="M145.415,53.186a186.825,186.825,0,0,1-18.627,27.367c8.941,19.357,10.618,39.661,10.618,60.881,0,25.69-2.049,50.635-10.618,62a20.187,20.187,0,0,1-11.735,7.451C107.8,212.56,100,212.73,91.225,212.358a45.394,45.394,0,0,0-5.945-21.22,116.9,116.9,0,0,0,19.73.186,7.766,7.766,0,0,0,5.774-3.353c3.71-4.657,5.216-20.661,5.573-40.39-7.435,8.926-15.259,17.122-22.694,23.082-3.539-5.029-9.5-12.48-14.716-16.206,12.837-8.181,27.367-23.641,36.106-38.341a108.807,108.807,0,0,0-3.9-18.053,181.622,181.622,0,0,1-16.935,14.886c-3.353-4.471-10.431-10.975-15.274-14.514a161.1,161.1,0,0,0,23.1-20.863C97,69.579,90.123,61.941,81.368,54.49l15.259-11.72a107.3,107.3,0,0,1,18.426,18.612A190.588,190.588,0,0,0,126.042,43.5ZM233.647,213.1c-.916-4.082-2.406-8.926-3.9-13.955-31.853,3.725-64.793,7.451-88.62,10.059l-3.726-23.455c12.837-1.133,29.416-2.437,47.283-4.113v-33.5H146.719V73.863h37.969v-33.9h22.337v33.9h38.73V148.14h-38.73v31.279l15.088-1.49c-2.608-7.265-5.573-14.157-8.01-20.661l20.49-5.774c7.824,17.308,17.308,40.018,21.22,54.346Zm-48.959-83.948V92.847H168.5v36.308Zm22.337-36.308v36.308h15.461V92.847Z" transform="translate(504.962 -38.486)" fill="#d2002d"/><path d="M245.021,178.082H173.352v24.759c0,11.549-2.437,17.324-11.549,20.49-8.755,3.151-20.288,3.539-36.122,3.539-1.475-6.349-5.774-15.647-9.112-21.608,11.906.559,25.69.559,29.4.373,3.912,0,4.859-.745,4.859-3.353v-24.2H79.33V157.608h71.5V145.5h10.6a122.485,122.485,0,0,0,14.328-10.23h-63.1V116.084h83.575l4.859-1.118,13.955,10.8a177.754,177.754,0,0,1-40.033,31.837h70.008ZM102.6,127.447H81.736V82.2h25.333A157.738,157.738,0,0,0,94.216,63.027l18.814-8.382c6.5,7.265,13.955,17.137,16.936,24.4L123.26,82.2h29.229a131.327,131.327,0,0,0-11.72-23.269l19.543-7.063c5.961,7.994,12.092,19.357,14.514,26.808L165.9,82.2h28.112c6.131-8.739,12.465-19.543,16-28.283l24.014,7.249C229.017,68.429,223.615,75.694,218.4,82.2h24.759v45.249H221.364v-25.69H102.6Z" transform="translate(510.538 134.408)" fill="#d2002d"/><path d="M97.349,74.546c15.088-1.118,44.877-3.912,77.832-6.706,18.612-1.676,38.341-2.608,51.008-2.98l.171,23.082c-9.686,0-25.131.186-34.988,2.422-21.608,5.775-37.984,28.671-37.984,50.077,0,29.618,27.739,40.406,58.273,41.9l-8.382,24.945c-37.783-2.422-73.532-22.9-73.532-61.983,0-26.078,14.514-46.181,26.622-55.122-15.632,1.677-53.616,5.775-74.463,10.059L79.653,75.478C86.731,75.291,93.624,74.919,97.349,74.546Zm118.222,55.292-13.784,6.147a168.579,168.579,0,0,0-14.157-25.318l13.427-5.588A235.528,235.528,0,0,1,215.571,129.839Zm21.22-8.941-13.6,6.52a155.721,155.721,0,0,0-15.073-24.573l13.412-5.961A243.941,243.941,0,0,1,236.791,120.9Z" transform="translate(515.229 323.118)" fill="#d2002d"/><path d="M190.915,40.645v160.1H167.072v-11.72H84.413V201.12h-22.9V40.645ZM84.413,62.982v40.033h82.659V62.982Zm82.659,103.693V124.981H84.413v41.694Z" transform="translate(251.843 -28.553)" fill="#d2002d"/><path d="M173.86,110.2c14.514,27.941,38.341,53.631,64.979,67.586-5.588,4.471-13.225,13.784-17.137,20.1a151.61,151.61,0,0,1-30.332-24.945v21.235H160.448v31.449H137.179V194.174H105.156V174.615a164.7,164.7,0,0,1-29.043,23.828c-3.9-5.573-10.975-14.141-16.19-18.426,26.249-14.328,49.72-41.136,64.047-69.822H67.187V87.858h69.993V51.938h23.269v35.92h70.567V110.2Zm-36.68,61.439V131.058a217.394,217.394,0,0,1-29.214,40.577Zm52.886,0a207.381,207.381,0,0,1-29.618-40.949v40.949Z" transform="translate(228.679 135.454)" fill="#d2002d"/><path d="M129.115,108H60.054V90.51h69.061Zm-5.386,117.477H86.862v7.265H68.25V169.258h55.479Zm-1.3-91.787H68.809V117.132h53.616Zm-53.616,9.314h53.616v16.765H68.809Zm53.616-61.44H69.911V64.82h52.514ZM86.862,186.752v21.235h17.882V186.752ZM234.5,134.067V153.44H128.013V134.067h22.9c1.118-5.759,2.235-12.279,3.353-18.984H137.87v-18.8h19.357c.574-4.47,1.3-8.755,1.878-13.039H134.89V64.261h93.277V83.245H180.7l-1.863,13.039h40.018v37.783Zm-93.091,29.245h81.542v68.875H201.172v-6.52H162.256v7.265H141.409Zm20.847,19.73v23.082h38.916V183.042Zm13.412-67.959c-1.118,6.706-2.235,13.225-3.353,18.984h25.131V115.083Z" transform="translate(230.596 314.419)" fill="#d2002d"/><path d="M138.812,197.746c.559-5.4.745-13.769.931-21.592-13.6,7.435-20.676,14.514-20.676,23.455,0,9.873,8.569,12.651,26.078,12.651a307.349,307.349,0,0,0,51.381-5.014l-.745,23.269a487.715,487.715,0,0,1-51.194,2.965c-28.112,0-49.347-6.876-49.347-30.145,0-22.9,21.965-37.612,42.269-48.23-2.794-4.455-7.637-6.132-12.48-6.132-10.416,0-21.22,5.945-28.283,12.651-5.417,5.4-10.431,11.922-16.765,19.745L60.81,166.84c18.8-17.494,31.449-33.514,39.459-49.518H98.22c-7.265,0-20.475-.373-30.533-1.3V94.984C77,96.459,90.226,97.018,99.524,97.018h8.755a95.4,95.4,0,0,0,3.539-20.661l23.827,2.049c-.931,4.284-2.235,10.618-4.47,17.882,17.122-.931,35.19-2.437,51.008-5.417L182,112.106c-17.308,2.421-39.459,3.912-58.645,4.657A130.9,130.9,0,0,1,112.936,135c4.657-2.235,14.328-3.539,20.288-3.539,10.99,0,20.118,4.843,24.2,13.971,9.314-4.284,16.765-7.451,24.2-10.8,7.078-2.98,13.412-6.147,20.118-9.314l8.926,21.049c-5.588,1.677-15.259,5.216-21.406,7.622-8.01,2.98-18.441,7.078-29.416,12.294.186,10.059.559,23.082.745,31.465Z" transform="translate(241.575 490.087)" fill="#d2002d"/><path d="M207.021,166.082H135.352v24.759c0,11.549-2.437,17.324-11.549,20.49-8.755,3.151-20.3,3.539-36.122,3.539-1.49-6.349-5.775-15.647-9.112-21.608,11.906.559,25.69.559,29.416.373,3.9,0,4.843-.745,4.843-3.353v-24.2H41.33V145.608h71.5V133.5h10.6a123.793,123.793,0,0,0,14.328-10.23h-63.1V104.084h83.591l4.828-1.118,13.971,10.8a178,178,0,0,1-40.018,31.837h69.993ZM64.6,115.447H43.752V70.2H69.069A157.734,157.734,0,0,0,56.216,51.027l18.8-8.382c6.52,7.265,13.971,17.137,16.951,24.4L85.26,70.2h29.229a130.28,130.28,0,0,0-11.72-23.269l19.543-7.063c5.961,7.994,12.108,19.357,14.514,26.808L127.9,70.2h28.112c6.147-8.739,12.465-19.543,16-28.283l24.014,7.249C191.017,56.429,185.615,63.694,180.4,70.2h24.759v45.249H183.38V89.756H64.6Z" transform="translate(-41.33 -39.866)" fill="#d2002d"/><path d="M75.678,67.629c-1.3,3.539-3.524,12.853-4.284,16.206-2.779,11.906-8.367,51.753-8.367,69.806a92.612,92.612,0,0,0,.745,12.294c2.608-6.52,5.4-13.024,8.01-19.171l11.347,9.112c-5.216,14.716-10.8,33.141-13.039,43.014a47.388,47.388,0,0,0-.916,8.2c0,2.049,0,5.2.186,7.622l-20.661,1.3c-3.726-12.465-7.094-32.955-7.094-57.528,0-27.18,5.045-61.61,7.094-75.208a174.577,174.577,0,0,0,1.847-17.882ZM190,133.725c-8.755,1.118-19.186,1.863-30.363,2.422.2,9.686.745,18.8,1.3,26.994,17.7,6.52,29.99,16.578,37.053,22.71L186.092,205.6a125.731,125.731,0,0,0-24.2-19.559v1.676c0,16.206-10.059,26.808-33.514,26.808-21.049,0-37.8-9.112-37.8-28.671,0-15.818,12.667-28.484,37.037-28.484a83.493,83.493,0,0,1,11.922.745c-.373-6.877-.745-14.141-.931-21.22-13.21.186-26.994.186-40.763-.559l-.186-20.847c13.955,1.118,27.739,1.3,40.763,1.118V93.893c-11.347.373-24.014.186-38.155-.388V73.217a389.14,389.14,0,0,0,71.855-.745c-1.49-3.912-2.98-7.622-4.471-10.788l12.294-3.725a171.076,171.076,0,0,1,9.686,24.759l-10.618,3.539v5.4c-6.147.559-12.48,1.118-19.559,1.475v22.539c10.8-.745,21.049-1.676,30.549-2.794Zm-49.72,42.641a49.355,49.355,0,0,0-13.4-1.863c-10.059,0-15.833,3.912-15.833,9.857,0,6.52,5.775,10.059,14.343,10.059,10.788,0,14.886-5.4,14.886-13.971Zm56.037-95.512a248.185,248.185,0,0,0-9.857-24.945L198.743,52A265.959,265.959,0,0,1,208.8,76.756Z" transform="translate(-37.336 136.311)" fill="#d2002d"/><path d="M113.829,129.441c-19.931,0-37.8,6.147-46.926,8.941-5.216,1.49-12.279,4.471-17.494,6.147l-6.892-25.706c6.147-.559,13.971-2.033,19.745-3.167,13.21-2.965,33.5-8.181,54.547-8.181,28.655,0,48.586,16.206,48.586,44.488,0,38.73-35.749,62.743-85.826,69.635L66.531,199.061c44.877-5.2,73.361-19.73,73.361-48.028C139.892,139.127,130.951,129.441,113.829,129.441Zm36.479-56.969-3.539,22.151c-21.22-1.3-60.508-4.843-81.169-8.553l3.539-21.592C90.172,68.747,131.137,72.472,150.308,72.472Z" transform="translate(-24.091 317.57)" fill="#d2002d"/><path d="M45.408,198.726c0-10.618,8.367-18.441,19.357-18.441,10.975,0,19.357,7.823,19.357,18.441,0,10.788-8.382,18.239-19.357,18.239C53.775,216.965,45.408,209.514,45.408,198.726Zm3.151-94.953-.745-27.739H81.887l-.931,27.739-6.52,63.659H55.265Z" transform="translate(17.894 485.382)" fill="#d2002d"/></g><g transform="translate(827.764 89.042)"><path d="M119.7,53.978a33.1,33.1,0,0,1-3.1,1.785c-3.477,1.832-9.469,4.641-14.421,7.948-4.874,3.213-7.637,6.675-7.637,10.54,0,4.377,4.191,7.28,12.434,7.28A72.75,72.75,0,0,0,122.6,79.963V82.8a95.1,95.1,0,0,1-15.476,1.226c-8.817,0-15.135-2.794-15.135-9.516,0-4.75,2.965-8.864,8.662-12.682a169.283,169.283,0,0,1-7.28-15.383l2.592-1.071a107.926,107.926,0,0,0,6.783,15.073c4.734-2.9,9.81-5.247,12.729-6.877a19.556,19.556,0,0,0,2.841-1.94Zm1.071-9.05a62.231,62.231,0,0,1,4.222,6.815l-1.987.916a52.665,52.665,0,0,0-4.067-6.923Zm5.293-1.894a69.051,69.051,0,0,1,4.284,6.83l-1.94.916a41.207,41.207,0,0,0-4.238-6.877Z" transform="translate(-91.993 -43.034)" fill="#d2002d"/><path d="M115.063,48.447c-.714.605-2.142,1.878-2.794,2.437-3.524,3.213-10.9,9.065-14.716,12.232-3.213,2.7-3.26,3.508.186,6.3,4.952,3.927,13.815,11.409,18.6,16.159l-2.3,2.018c-.761-.962-1.925-2.08-2.81-3-2.623-2.9-11.347-10.136-15.973-13.893-4.533-3.679-3.881-5.666.248-9.127,3.617-3.058,11.518-9.112,14.871-12.573a17.9,17.9,0,0,0,2.235-2.748Z" transform="translate(-90.102 3.788)" fill="#d2002d"/></g><g transform="translate(822.502 267.074)"><path d="M108.17,57.716c-.155.714-.311,1.428-.466,2.189-.2,1.335-.761,4.983-1.428,8.149,2.654-.264,5.045-.4,6.318-.4,3.927,0,7.529,1.32,7.529,7.73,0,5.914-.9,13.6-2.949,17.618-1.521,3.167-3.756,3.819-6.675,3.819a28.508,28.508,0,0,1-5.743-.7l-.4-2.763a23.7,23.7,0,0,0,6.1,1.024c1.878,0,3.524-.31,4.641-2.7,1.723-3.663,2.437-10.338,2.437-15.988,0-4.843-2.235-5.712-5.386-5.712-1.428,0-3.819.155-6.427.419-1.676,6.923-4.843,17.51-10.493,26.482l-2.592-1.071c5.091-6.768,9.019-18.845,10.587-25.209-3.058.31-5.945.605-7.435.714-1.025.155-2.639.295-3.819.512l-.311-2.965c1.49.062,2.5.062,3.881,0,1.677-.047,4.936-.295,8.2-.605a55.724,55.724,0,0,0,1.335-10.8Zm16.858,6.069c3.151,3.8,7.466,12.62,9.252,17.106l-2.5,1.211c-1.506-4.781-5.635-13.288-9.065-17.215Zm3.71.357a48.961,48.961,0,0,0-4.129-6.939l1.925-.854a75.079,75.079,0,0,1,4.191,6.861Zm5.4-1.94a58.638,58.638,0,0,0-4.176-6.877l1.77-.823a58.893,58.893,0,0,1,4.346,6.83Z" transform="translate(-91.654 -54.503)" fill="#d2002d"/><path d="M115.062,60c-.714.605-2.142,1.878-2.794,2.437-3.524,3.2-10.9,9.065-14.716,12.216-3.213,2.7-3.26,3.524.186,6.318,4.952,3.927,13.815,11.409,18.6,16.144l-2.3,2.033c-.761-.962-1.925-2.08-2.794-3-2.639-2.9-11.363-10.136-15.988-13.908-4.533-3.663-3.881-5.65.248-9.112,3.617-3.058,11.518-9.112,14.871-12.573a18.662,18.662,0,0,0,2.235-2.748Z" transform="translate(-84.855 -6.432)" fill="#d2002d"/></g><g transform="translate(529.912 117.232)"><path d="M78.455,45.1a22.14,22.14,0,0,0-.745,2.654c-1.087,5.34-2.468,13.489-2.468,19.4A66.274,66.274,0,0,0,75.816,76c.869-2.592,2.189-6.163,3.058-8.336L80.4,68.833A94.256,94.256,0,0,0,77,79.264a7.644,7.644,0,0,0-.217,2.1,13.56,13.56,0,0,0,.155,1.521l-2.344.2A60.265,60.265,0,0,1,72.8,67.4c0-7.125,1.739-15.678,2.359-19.854a21.22,21.22,0,0,0,.248-2.7Zm11.1,23.579a18.068,18.068,0,0,0-.714,4.734c0,2.235,1.273,4.936,9.065,4.936a52.816,52.816,0,0,0,12.03-1.257l.109,2.748a63.421,63.421,0,0,1-11.984,1.009c-8.181,0-11.658-2.592-11.658-6.97a28.891,28.891,0,0,1,.776-5.449Zm18.907-19.5V51.82a104.06,104.06,0,0,1-19.667,0V49.181C93.7,50.1,103.773,49.942,108.461,49.181Z" transform="translate(-72.805 -44.85)" fill="#d2002d"/></g><g transform="translate(232.199 90.207)"><path d="M85.357,80.954A35.472,35.472,0,0,0,72.333,73.27c.047,1.568.093,2.841.093,3.663,0,2.949-1.63,6.675-8.087,6.675-6.628,0-10.338-2.3-10.338-6.783,0-4.176,4.129-6.97,10.99-6.97a30.288,30.288,0,0,1,4.8.4c-.109-2.592-.2-5.449-.264-7.886-1.025.047-1.987.047-2.965.047-3.6,0-9-.31-12.667-.714v-2.5a97.428,97.428,0,0,0,12.729.869c.916,0,1.878,0,2.794-.047V51.817c-.869.062-1.661.062-2.53.062-3.57,0-9.174-.357-12.077-.714V48.62a80.35,80.35,0,0,0,12.015.962h2.592V45.763c0-.761-.047-2.142-.093-2.654h2.81a17.3,17.3,0,0,0-.264,3.12c0,.605-.062,1.77-.062,3.26a104.475,104.475,0,0,0,13.148-1.273V50.7c-4.269.419-8.615.869-13.148,1.071v8.2A124.688,124.688,0,0,0,85.885,58.6v2.5a138.63,138.63,0,0,1-14.017,1.211c.047,2.965.2,5.961.31,8.507A40.963,40.963,0,0,1,86.831,78.61Zm-15.476-8.3a24.822,24.822,0,0,0-5.2-.559c-5.433,0-8.243,2.1-8.243,4.641,0,2.5,1.987,4.424,7.73,4.424,2.965,0,5.759-.807,5.759-4.579C69.927,75.552,69.881,74.186,69.881,72.649Z" transform="translate(-49.763 -43.109)" fill="#d2002d"/><path d="M76.382,54.814a70.071,70.071,0,0,1-9.112,1.832c-2.391,6.97-6.52,15.181-10.525,20.366l-2.608-1.366c4.176-4.734,8.3-12.636,10.447-18.689-1.739.14-3.524.248-5.247.248-1.8,0-3.865-.248-5.557-.357l-.155-2.654a30.587,30.587,0,0,0,5.712.621,48.823,48.823,0,0,0,6.054-.311,31.73,31.73,0,0,0,1.63-8.2l3,.31c-.5,1.832-1.164,4.828-1.987,7.575a46.588,46.588,0,0,0,8.258-1.878Zm5.355,6.411a36.8,36.8,0,0,0,0,4.734c.047,2.1.217,5.712.357,9.019a32.575,32.575,0,0,1,10.09,6.054l-1.382,2.2a32.378,32.378,0,0,0-8.615-5.712c.062,1.024.062,1.878.062,2.654,0,3.555-2.654,6.566-8.149,6.566-5.029,0-9.221-1.94-9.221-6.473,0-4.377,4.486-6.721,9.221-6.721a24.085,24.085,0,0,1,5.542.668c-.155-4.176-.45-9.221-.559-12.993ZM79.751,76.608A20.285,20.285,0,0,0,74.1,75.8c-4.083,0-6.83,1.723-6.83,4.315,0,2.546,2.033,4.238,6.566,4.238,4.346,0,5.961-2.453,5.961-4.734C79.8,78.75,79.8,77.772,79.751,76.608ZM82.716,53.23A67.908,67.908,0,0,1,93.8,59.7L92.34,61.845c-2.515-2.251-7.684-5.107-10.944-6.628Z" transform="translate(-53.626 3.335)" fill="#d2002d"/></g><g transform="translate(531.666 482.485)"><path d="M76.643,95.328a19.626,19.626,0,0,0-1.071,5.914c0,4,4.176,6.814,12.48,6.814,6.861,0,13.194-.761,16.594-1.925l.046,2.794A72.564,72.564,0,0,1,88.1,110.6c-9.267,0-15.181-3-15.181-8.8a30.954,30.954,0,0,1,1.024-6.783Zm-.869-19.295a107.363,107.363,0,0,0,12.837.652,124.07,124.07,0,0,0,12.635-.714v2.7c-3.26.2-8.212.559-12.635.559-4.828,0-8.972-.2-12.837-.512Zm31.278,1.056-1.94.869a55.607,55.607,0,0,0-4.129-6.877l1.878-.854A58.362,58.362,0,0,1,107.053,77.088Zm5.34-1.925-1.894.916a50.2,50.2,0,0,0-4.222-6.877l1.832-.823A53.985,53.985,0,0,1,112.393,75.164Z" transform="translate(-72.918 -68.38)" fill="#d2002d"/></g><g transform="translate(527.521 271.964)"><path d="M78.4,55.082a14.44,14.44,0,0,0-.714,2.639c-1.133,5.355-2.5,14.064-2.5,19.916a64.17,64.17,0,0,0,.621,8.91c.854-2.592,2.22-6.256,3.089-8.507l1.49,1.226C79.3,82.278,77.42,87.369,76.97,89.6a7.791,7.791,0,0,0-.264,2.142c.047.4.155,1.071.2,1.521l-2.328.155a57.775,57.775,0,0,1-1.8-15.476c0-7.078,1.692-16.252,2.359-20.428a20.738,20.738,0,0,0,.248-2.7Zm32.784,15.383c-2.7.295-6.007.559-9.624.714.109,3.26.31,6.923.466,10.074a28.758,28.758,0,0,1,10.7,6.426l-1.475,2.282a26.969,26.969,0,0,0-9.128-6.256c.062,1.273.109,2.344.109,3.151,0,3.819-2.9,5.914-7.544,5.914-5.293,0-8.957-2.189-8.957-6.426,0-2.9,2.639-6.209,9-6.209a25.115,25.115,0,0,1,4.952.512c-.155-2.9-.357-6.426-.419-9.376-4,.155-8.243.155-12.263-.047v-2.5a97.6,97.6,0,0,0,12.217.2V59.77c-3.865.14-7.932.14-11.456,0V57.364a119.3,119.3,0,0,0,22.26-.7v2.328c-2.251.264-5.247.512-8.46.667v9.174c3.508-.2,6.83-.512,9.624-.869ZM99.789,82.93a19.68,19.68,0,0,0-5.107-.714c-3.958,0-6.613,1.692-6.613,4.036,0,2.841,2.5,4.176,6.566,4.176,4.331,0,5.231-2.189,5.231-4.952C99.866,84.87,99.82,84,99.789,82.93Z" transform="translate(-70.792 -54.818)" fill="#d2002d"/><path d="M93.234,61.534C91.2,64.9,85.8,74.635,83.144,79.571c2.763-2.7,5.557-3.819,8.2-3.819,3.074,0,5.511,2.08,5.619,5.806.093,3.306.046,7.032.186,9.624.109,2.748,1.94,3.927,4.347,3.927,6.256,0,9.779-7.451,10.99-12.185l2.189,1.692c-2.686,7.637-6.566,13.039-13.489,13.039-5.154,0-6.364-3.368-6.519-5.868-.155-3,0-6.675-.155-9.826a3.647,3.647,0,0,0-4.02-3.772c-4.331,0-8.553,4.331-10.494,8.165a75.932,75.932,0,0,0-4.579,11.239l-2.763-.962c3.632-9.981,15.135-30.813,17.836-35.594C91,59.966,91.5,59,91.915,57.917l2.9,1.242A18.7,18.7,0,0,0,93.234,61.534Z" transform="translate(-72.651 -9.812)" fill="#d2002d"/></g></g></svg>