<svg xmlns="http://www.w3.org/2000/svg" width="304" height="300.336" viewBox="0 0 304 300.336"><g transform="translate(-867 -334.664)"><g transform="translate(900.396 334.664)"><g transform="translate(45.884 11.106)"><path d="M280.665,116.578A71.461,71.461,0,0,0,266.4,86.358a70.016,70.016,0,0,0-25.606-19.827,79.709,79.709,0,0,0-33.449-7.044c-23.019,0-46.426,8.818-65.91,24.83-19.393,15.934-32.8,37.269-37.748,60.072a83.827,83.827,0,0,0-.33,35.468,71.4,71.4,0,0,0,14.264,30.225,70.064,70.064,0,0,0,25.606,19.827,79.694,79.694,0,0,0,33.449,7.044c23.019,0,46.426-8.818,65.91-24.83,19.393-15.934,32.8-37.269,37.743-60.072a83.779,83.779,0,0,0,.334-35.472ZM262.68,148.217c-8.453,38.972-47.036,70.673-86,70.673s-63.792-31.7-55.34-70.673,47.04-70.669,86.007-70.669,63.792,31.7,55.335,70.669Z" transform="translate(-101.619 -59.487)" fill="#c15b5b"/></g><g transform="translate(35.297 0)"><ellipse cx="78.753" cy="63.419" rx="78.753" ry="63.419" transform="matrix(0.744, -0.668, 0.668, 0.744, 0, 105.214)" fill="#f9f5f3"/></g><g transform="translate(0 6.589)"><path d="M254,110.15a75.868,75.868,0,0,0-15.147-32.089l-.057-.07a4.515,4.515,0,0,0-7.056,5.637l.064.078a66.96,66.96,0,0,1,13.364,28.332,79.3,79.3,0,0,1-.329,33.568c-4.733,21.816-17.589,42.251-36.2,57.542-18.68,15.349-41.07,23.8-63.045,23.8a75.228,75.228,0,0,1-31.568-6.632A65.558,65.558,0,0,1,90.056,201.76a66.859,66.859,0,0,1-13.2-27.6h9.248a57.886,57.886,0,0,0,10.98,21.934c11.349,14.075,28.576,21.827,48.509,21.827.9,0,1.8-.021,2.705-.053a4.538,4.538,0,0,0,.654.054,4.481,4.481,0,0,0,1.075-.133c18.458-1.054,37.076-8.632,52.877-21.617,17.045-14.006,28.8-32.643,33.106-52.48,0-.008,0-.015,0-.023s.007-.033.01-.049c4.426-20.489.431-39.751-11.255-54.245C213.438,75.317,196.24,67.568,176.34,67.548h-.078c-19.889,0-40.243,7.724-57.311,21.749-17.045,14.006-28.8,32.643-33.106,52.479l-.005.028-.008.041a73,73,0,0,0-1.366,23.284H75.41a81.673,81.673,0,0,1,1.61-25.267c4.733-21.815,17.588-42.251,36.2-57.542,18.68-15.349,41.069-23.8,63.044-23.8a77.023,77.023,0,0,1,25.353,4.143,4.515,4.515,0,0,0,2.965-8.53,86.039,86.039,0,0,0-28.318-4.644c-22.663,0-45.648,8.149-65.2,23.028H54.906a4.515,4.515,0,0,0,0,9.031h45.6C84.093,97.274,72.738,117,68.2,137.945a90.872,90.872,0,0,0-1.848,27.182H49.464a4.515,4.515,0,1,0,0,9.031H67.63c.077.386.149.773.231,1.158a75.906,75.906,0,0,0,15.166,32.113,74.511,74.511,0,0,0,27.239,21.1A84.188,84.188,0,0,0,145.6,235.98c24.061,0,48.487-9.182,68.778-25.856,20.174-16.577,34.127-38.81,39.29-62.6A88.265,88.265,0,0,0,254,110.15Zm-160,37.1h5.078a4.515,4.515,0,1,0,0-9.031h-2.99c4.709-15.8,14.714-30.532,28.6-41.944,13.825-11.36,29.939-18.151,45.927-19.459l-.674,3.1a4.515,4.515,0,1,0,8.825,1.914l1.118-5.154c15.6.861,28.943,7.3,37.861,18.362,9.285,11.516,12.825,26.736,10.122,43.176h-5.078a4.515,4.515,0,1,0,0,9.031h2.99c-4.709,15.8-14.713,30.532-28.6,41.944-12.836,10.547-27.644,17.155-42.493,19.094l.595-2.74a4.515,4.515,0,1,0-8.825-1.915l-1.14,5.254c-17.025-.073-31.647-6.62-41.194-18.461A48.629,48.629,0,0,1,95.5,174.158h19.26a4.515,4.515,0,1,0,0-9.031h-21.2A62.143,62.143,0,0,1,93.994,147.248Z" transform="translate(-24.653 -49.485)" fill="#623b3b"/><path d="M256.479,219.1a4.5,4.5,0,0,0,2.864-1.027l17.993-14.785a4.517,4.517,0,0,0,1.546-2.531L287.941,159a4.515,4.515,0,1,0-8.825-1.915l-8.726,40.219-16.78,13.788a4.516,4.516,0,0,0,2.869,8Z" transform="translate(-138.193 -106.549)" fill="#623b3b"/><path d="M4.515,195.628H35.341a4.515,4.515,0,0,0,0-9.031H4.515a4.515,4.515,0,0,0,0,9.031Z" transform="translate(0 -124.687)" fill="#623b3b"/><path d="M54.336,396.6h-23.5a4.515,4.515,0,1,0,0,9.031h23.5a4.515,4.515,0,1,0,0-9.031Z" transform="translate(-14.434 -239.866)" fill="#623b3b"/><path d="M8.692,308.462a4.547,4.547,0,0,0-8.416.205,4.554,4.554,0,0,0,1.471,5.081,4.557,4.557,0,0,0,5.116.3,4.554,4.554,0,0,0,1.828-5.587Z" transform="translate(-0.009 -190.032)" fill="#623b3b"/><path d="M425.766,86.25a4.513,4.513,0,1,0,2.443-5.9A4.557,4.557,0,0,0,425.766,86.25Z" transform="translate(-233.337 -66.231)" fill="#623b3b"/></g></g><g transform="translate(867 536.264)"><path d="M10.254,428.395l44.164-55.488a421.567,421.567,0,0,0,48.443-12.928c44.939-14.617,53.453,13.893,53.453,13.893s8.516-28.51,53.455-13.893a421.424,421.424,0,0,0,48.443,12.928l44.162,55.488Zm0,0" transform="translate(-4.314 -349.856)" fill="#f9f5f3"/><path d="M290.712,435.642l-3.386-3.9s-25.895-4.783-62.283-16.62c-57.778-18.794-68.729,17.863-68.729,17.863s-10.948-36.657-68.727-17.863c-36.388,11.837-62.283,16.62-62.283,16.62l-1.269,1.241L10.258,450.3H302.375Zm0,0" transform="translate(-4.316 -371.758)" fill="#f2afaf"/><path d="M261.016,467.17l-7.426,7.426a11.9,11.9,0,0,1-16.833,0l-7.426-7.426,15.842-15.842Zm0,0" transform="translate(-93.249 -388.632)" fill="#f2afaf"/><path d="M383.941,468a5.946,5.946,0,1,0,4.2,1.74A5.988,5.988,0,0,0,383.941,468Zm0,0" transform="translate(-153.601 -395.398)" fill="#623b3b"/><path d="M302.963,420.628,258.8,365.137A5.945,5.945,0,0,0,255.232,363a421.3,421.3,0,0,1-47.684-12.735c-18.455-6-33.691-5.966-45.282.114a33.63,33.63,0,0,0-10.011,7.962,33.587,33.587,0,0,0-10.008-7.962c-11.591-6.08-26.825-6.117-45.285-.114A420.515,420.515,0,0,1,49.28,363a5.942,5.942,0,0,0-3.569,2.142L1.549,420.628A5.938,5.938,0,0,0,6.2,430.267H132.876a20.209,20.209,0,0,0,38.625,0h35.135a5.94,5.94,0,1,0,0-11.881H170.483l-11.674-11.677a29.144,29.144,0,0,1,12.624-12.649c11.542-6.052,27.6-5.8,47.714.74a565.324,565.324,0,0,0,61.171,16.45L286,418.386H254.752a5.94,5.94,0,1,0,0,11.881h43.563a5.94,5.94,0,0,0,4.648-9.639ZM53.647,374.245a446.572,446.572,0,0,0,46.99-12.684c16.2-5.27,29.283-5.145,37.848.357a20.645,20.645,0,0,1,7.832,8.96v17.859a42.1,42.1,0,0,0-7.718-5.2c-14.482-7.6-33.629-7.607-56.908-.037-18.727,6.091-34.726,10.31-45.714,12.946ZM24.2,411.25A565.657,565.657,0,0,0,85.366,394.8c19.963-6.5,35.931-6.787,47.457-.875A28.956,28.956,0,0,1,145.66,406.6l-11.781,11.784H18.517Zm127.992,21.393a8.332,8.332,0,0,1-8.28-7.484l8.273-8.273,8.289,8.289A8.333,8.333,0,0,1,152.188,432.643ZM222.822,383.5c-23.279-7.572-42.426-7.56-56.906.035a42.057,42.057,0,0,0-7.718,5.2V370.864a20.952,20.952,0,0,1,9.586-9.967c8.528-4.472,21.008-4.242,36.091.664a446.574,446.574,0,0,0,46.99,12.684l17.673,22.207C257.56,393.819,241.569,389.6,222.822,383.5Zm0,0" transform="translate(-0.256 -345.788)" fill="#623b3b"/></g></g></svg>