<svg xmlns="http://www.w3.org/2000/svg" width="322.751" height="273.472" viewBox="0 0 322.751 273.472"><g transform="translate(-847.555 -317.293)"><g transform="translate(1048.057 317.293)"><g transform="translate(2.402 2.402)"><path d="M69.431,19.608a48.907,48.907,0,1,1-23.49,91.814l-3.393-1.862-18.236,4.929,4.972-17.742-2.068-3.523A48.916,48.916,0,0,1,69.431,19.608ZM41.318,119.844A58.509,58.509,0,1,0,18.931,98.086L10.5,128.173Zm0,0" transform="translate(-10.5 -10)" fill="#fff" fill-rule="evenodd"/><path d="M150.045,98.908a48.907,48.907,0,1,0-91.12,24.708l2.067,3.523L56.02,144.88l18.236-4.929,3.394,1.862a48.921,48.921,0,0,0,72.4-42.907Zm-62.86-2.495a41.055,41.055,0,0,0,9.592,10.843c4.289,3.32,11.016,7.683,13.2,5.749,1.032-.913,3.872-5.028,4.25-5.322a3.437,3.437,0,0,1,4.614-.957c2.974,1.443,10.4,5.125,10.4,5.125s1.608.649,1.54,3.169a29.394,29.394,0,0,1-.177,3.165s-1.078,8.64-12.872,8.985c-5.339.156-11.521-2.021-17-4.815-9.35-4.767-15.189-10.036-21.434-18.232-4.241-5.565-8.477-12.876-7.728-19.376,1.3-11.277,8.47-12.316,8.47-12.316a29.816,29.816,0,0,1,3.17-.026c2.52.052,3.091,1.689,3.091,1.689s3.482,7.952,4.781,10.991-.1,4.365-.416,4.729-2.182,2.573-3.144,3.56A2.6,2.6,0,0,0,87.185,96.413Zm0,0" transform="translate(-42.207 -40.392)" fill="#a5dd97" fill-rule="evenodd"/><path d="M151.982,155.9c-1.3-3.04-4.78-10.991-4.78-10.991s-.571-1.637-3.092-1.689a29.828,29.828,0,0,0-3.17.026s-7.171,1.04-8.47,12.316c-.749,6.5,3.487,13.81,7.728,19.376,6.246,8.2,12.085,13.465,21.434,18.232,5.478,2.793,11.66,4.971,17,4.815C190.423,197.642,191.5,189,191.5,189a29.817,29.817,0,0,0,.177-3.166c.069-2.519-1.54-3.168-1.54-3.168s-7.421-3.682-10.4-5.125a3.435,3.435,0,0,0-4.613.956c-.378.295-3.219,4.41-4.251,5.323-2.186,1.935-8.914-2.428-13.2-5.749a41.071,41.071,0,0,1-9.591-10.843,2.6,2.6,0,0,1,.338-3.041c.962-.987,2.833-3.2,3.144-3.559S153.281,158.942,151.982,155.9Zm0,0" transform="translate(-103.107 -111.21)" fill="#fff" fill-rule="evenodd"/></g><path d="M104.907,17.842a60.924,60.924,0,0,0-78.5-6.488,2.4,2.4,0,1,0,2.8,3.906,56.109,56.109,0,1,1,5.669,94.88,2.408,2.408,0,0,0-1.783-.213L6.355,117.153l7.29-26.017a2.4,2.4,0,0,0-.241-1.863,56.14,56.14,0,0,1,2.771-60.981,2.4,2.4,0,0,0-3.906-2.8A60.946,60.946,0,0,0,8.748,90.811L.589,119.927a2.4,2.4,0,0,0,2.94,2.967l29.9-8.079a60.922,60.922,0,0,0,71.484-96.973Zm0,0" transform="translate(-0.499 0)" fill="#623b3b"/><path d="M132.911,120.425a2.4,2.4,0,0,0,3.332-.664,51.308,51.308,0,1,0-86.988-2.528l1.55,2.642-4.7,16.759a2.4,2.4,0,0,0,2.939,2.967l17.3-4.676,2.545,1.4a51.354,51.354,0,0,0,53.1-2.31,2.4,2.4,0,0,0-2.667-4,46.552,46.552,0,0,1-48.119,2.094l-3.393-1.863a2.407,2.407,0,0,0-1.783-.213l-14.156,3.826,3.832-13.673a2.4,2.4,0,0,0-.241-1.863L53.4,114.8a46.506,46.506,0,1,1,78.85,2.293A2.4,2.4,0,0,0,132.911,120.425Zm0,0" transform="translate(-32.207 -30.392)" fill="#623b3b"/><path d="M145.664,154.748l.159-.185c2.151-2.415,1.608-5.251.773-7.2-1.234-2.885-4.461-10.26-4.767-10.958a5.542,5.542,0,0,0-5.265-3.18,30.315,30.315,0,0,0-3.505.043l-.058.008c-.368.053-9.018,1.453-10.512,14.419-.687,5.961,2.074,13.061,8.2,21.107,6.787,8.907,13.027,14.211,22.253,18.915,4.595,2.343,11.306,5.085,17.553,5.085.2,0,.405,0,.606-.009,7.017-.2,10.764-3.121,12.672-5.531a12.126,12.126,0,0,0,2.509-5.517,33.736,33.736,0,0,0,.2-3.437,5.544,5.544,0,0,0-2.925-5.412c-.667-.331-7.544-3.741-10.364-5.108a5.724,5.724,0,0,0-7.222,1.282l-.037.04a15.282,15.282,0,0,0-1.7,2.111c-.631.843-1.889,2.527-2.423,3.089-1.13.08-4.907-1.584-10.262-5.73a38.769,38.769,0,0,1-8.972-10.13.468.468,0,0,1-.026-.183C143.378,157.412,144.724,155.85,145.664,154.748Zm2.945,17.626a53.334,53.334,0,0,0,7.773,5.088c1.435.727,5.8,2.942,8.492.56a31.6,31.6,0,0,0,3.208-3.929c.406-.543.905-1.21,1.1-1.441.126-.115.23-.227.325-.33.432-.469.63-.683,1.593-.216,2.894,1.4,10.112,4.984,10.371,5.112a1.4,1.4,0,0,1,.212.956c-.053,1.991-.131,2.711-.147,2.846a.344.344,0,0,0-.011.074,7.653,7.653,0,0,1-1.654,3.354c-1.867,2.231-4.863,3.422-8.9,3.539-5.4.16-11.594-2.389-15.838-4.553-8.636-4.4-14.223-9.16-20.615-17.548-5.277-6.924-7.785-13.026-7.253-17.645,1-8.7,5.768-10.063,6.407-10.207.225-.014.987-.046,2.8-.008a1.406,1.406,0,0,1,.945.258c.119.272,3.505,8.007,4.769,10.964.631,1.478.244,1.913.057,2.122l-.088.1-.138.162c-1.388,1.626-2.364,2.732-2.9,3.285a4.968,4.968,0,0,0-.7,5.917A43.356,43.356,0,0,0,148.609,172.373Zm0,0" transform="translate(-93.109 -101.209)" fill="#623b3b"/><path d="M75.987,76.156a2.4,2.4,0,1,0-1.616-4.179h0a2.4,2.4,0,0,0,1.617,4.178Zm0,0" transform="translate(-56.031 -54.214)" fill="#623b3b"/><path d="M390.456,388.385v0a2.4,2.4,0,1,0,3.394-.163A2.4,2.4,0,0,0,390.455,388.387Zm0,0" transform="translate(-296.318 -294.502)" fill="#623b3b"/></g><g transform="matrix(0.996, 0.087, -0.087, 0.996, 865.212, 371.392)"><g transform="translate(0)"><g transform="translate(39.13 3.957)"><path d="M100.456,48.068H135.54a5.725,5.725,0,0,1,5.709,5.709v5.462l14.525,9.624L141.249,78.5v5.451a5.727,5.727,0,0,1-5.709,5.72H100.456l.011,94.048H226.579V149.025H188.467a5.735,5.735,0,0,1-5.709-5.72v-5.462l-14.525-9.624,14.525-9.624v-5.462a5.735,5.735,0,0,1,5.709-5.72h38.112V18.446A8.473,8.473,0,0,0,218.134,10H193.055V20.229a10.26,10.26,0,0,1-10.229,10.229h-40.68a10.261,10.261,0,0,1-10.229-10.229V10H108.9a8.473,8.473,0,0,0-8.446,8.446Zm36.239,59.345a11.709,11.709,0,0,1,7.8,20.436,12.908,12.908,0,0,1,10.924,12.708v8.468H117.975v-8.468A12.9,12.9,0,0,1,128.9,127.849a11.7,11.7,0,0,1,7.8-20.436Zm31.9-26.212a12.888,12.888,0,0,1,10.924-12.7,11.709,11.709,0,1,1,15.59,0,12.878,12.878,0,0,1,10.924,12.7v8.468H168.593Z" transform="translate(-100.456 -10)" fill="#f3ffef" fill-rule="evenodd"/></g><g transform="translate(70.591 3.957)"><path d="M190.193,30.458h40.68A10.261,10.261,0,0,0,241.1,20.229V10H179.964V20.229a10.261,10.261,0,0,0,10.229,10.229Z" transform="translate(-179.964 -10)" fill="#b5b5b5" fill-rule="evenodd"/></g><g transform="translate(3.957 42.025)"><path d="M46.738,147.808H81.822a5.727,5.727,0,0,0,5.709-5.72v-5.451L102.056,127l-14.525-9.624v-5.462a5.725,5.725,0,0,0-5.709-5.709H17.274a5.725,5.725,0,0,0-5.709,5.709v30.172a5.727,5.727,0,0,0,5.709,5.72H46.738Z" transform="translate(-11.565 -106.207)" fill="#fff" fill-rule="evenodd"/></g><g transform="translate(114.289 42.025)"><path d="M302.1,129.614a11.693,11.693,0,1,0-7.8-2.972A11.7,11.7,0,0,0,302.1,129.614Z" transform="translate(-290.397 -106.206)" fill="#fff5f5" fill-rule="evenodd"/></g><g transform="translate(63.66 101.37)"><path d="M174.156,279.592a11.711,11.711,0,1,0-7.8-2.972A11.662,11.662,0,0,0,174.156,279.592Z" transform="translate(-162.447 -256.184)" fill="#fff5f5" fill-rule="evenodd"/></g><g transform="translate(56.65 121.806)"><path d="M144.731,329.007H182.17v-8.468a12.908,12.908,0,0,0-10.924-12.708,11.708,11.708,0,0,1-15.59,0,12.9,12.9,0,0,0-10.924,12.708Z" transform="translate(-144.731 -307.831)" fill="#c15b5b" fill-rule="evenodd"/></g><g transform="translate(107.267 62.461)"><path d="M272.653,179.017h37.439v-8.468a12.878,12.878,0,0,0-10.924-12.7,11.707,11.707,0,0,1-15.59,0,12.888,12.888,0,0,0-10.924,12.7Z" transform="translate(-272.653 -157.852)" fill="#ffd8d8" fill-rule="evenodd"/></g><g transform="translate(39.13 177.675)"><path d="M108.9,469.985H218.134a8.473,8.473,0,0,0,8.446-8.446V449.022H100.467l-.011,12.517A8.473,8.473,0,0,0,108.9,469.985Z" transform="translate(-100.456 -449.022)" fill="#b5b5b5" fill-rule="evenodd"/></g><g transform="translate(106.908 101.371)"><path d="M291.979,297.8h64.548a5.735,5.735,0,0,0,5.709-5.72V261.906a5.735,5.735,0,0,0-5.709-5.72H291.979a5.735,5.735,0,0,0-5.709,5.72v5.462l-14.525,9.624,14.525,9.624v5.462A5.735,5.735,0,0,0,291.979,297.8Z" transform="translate(-271.745 -256.186)" fill="#fff" fill-rule="evenodd"/></g><g transform="translate(0 0)"><path d="M266.61,145.721h37.439a3.957,3.957,0,0,0,3.957-3.957V133.3a16.918,16.918,0,0,0-8.57-14.624,15.66,15.66,0,1,0-28.2,0,16.919,16.919,0,0,0-8.578,14.628v8.468a3.957,3.957,0,0,0,3.957,3.957Zm18.72-41.6a7.747,7.747,0,1,1-7.741,7.742A7.756,7.756,0,0,1,285.329,104.12ZM270.566,133.3a8.953,8.953,0,0,1,6.061-8.418,15.62,15.62,0,0,0,17.407,0,8.951,8.951,0,0,1,6.056,8.417v4.511H270.566V133.3Z" transform="translate(-159.342 -58.138)" fill="#623b3b"/><path d="M193.255,97.413H170.776V12.4A12.416,12.416,0,0,0,158.374,0H49.141a12.417,12.417,0,0,0-12.4,12.4V38.068H11.231a9.677,9.677,0,0,0-9.666,9.666V77.905a9.682,9.682,0,0,0,9.666,9.677H36.738V190.191a12.417,12.417,0,0,0,12.4,12.4H158.374a12.417,12.417,0,0,0,12.4-12.4V146.94h22.479a9.682,9.682,0,0,0,9.666-9.677V107.091a9.683,9.683,0,0,0-9.666-9.677Zm-63.917-89.5v6.273a6.279,6.279,0,0,1-6.272,6.273H82.385a6.279,6.279,0,0,1-6.272-6.273V7.914ZM9.479,77.906V47.734a1.775,1.775,0,0,1,1.752-1.752H75.779a1.776,1.776,0,0,1,1.752,1.752V53.2a3.956,3.956,0,0,0,1.772,3.3l9.549,6.327L79.3,69.157a3.957,3.957,0,0,0-1.77,3.3v5.451a1.781,1.781,0,0,1-1.752,1.763H11.231a1.781,1.781,0,0,1-1.752-1.763Zm153.383,95.811H121.529a3.957,3.957,0,1,0,0,7.914h41.333v8.56a4.494,4.494,0,0,1-4.489,4.489H49.141a4.494,4.494,0,0,1-4.489-4.489v-8.56H86a3.957,3.957,0,1,0,0-7.914H44.652V87.583H75.779a9.682,9.682,0,0,0,9.666-9.677V74.578L98.2,66.117a3.957,3.957,0,0,0,0-6.6l-12.753-8.45V47.734a9.677,9.677,0,0,0-9.666-9.666H44.652V12.4a4.494,4.494,0,0,1,4.489-4.489H68.2v6.273A14.2,14.2,0,0,0,82.385,28.373h40.681a14.2,14.2,0,0,0,14.186-14.186V7.914h21.122a4.494,4.494,0,0,1,4.489,4.489V97.413H128.707a9.682,9.682,0,0,0-9.666,9.677v3.338l-12.753,8.45a3.957,3.957,0,0,0,0,6.6l12.753,8.45v3.337a9.683,9.683,0,0,0,9.666,9.677h34.155Zm32.145-36.455a1.781,1.781,0,0,1-1.752,1.764H128.707a1.781,1.781,0,0,1-1.752-1.764V131.8a3.956,3.956,0,0,0-1.772-3.3l-9.546-6.325,9.546-6.325a3.957,3.957,0,0,0,1.772-3.3v-5.463a1.781,1.781,0,0,1,1.752-1.764h64.548a1.781,1.781,0,0,1,1.752,1.764Z" transform="translate(-1.565 0)" fill="#623b3b"/><path d="M171.507,268.654a15.661,15.661,0,1,0-28.2,0,16.936,16.936,0,0,0-8.57,14.628v8.468a3.957,3.957,0,0,0,3.957,3.957h37.439a3.957,3.957,0,0,0,3.957-3.957v-8.468A16.94,16.94,0,0,0,171.507,268.654Zm-14.1-14.556a7.747,7.747,0,1,1-7.752,7.753A7.756,7.756,0,0,1,157.409,254.1Zm14.763,33.7H142.646v-4.511a8.972,8.972,0,0,1,6.058-8.425,15.629,15.629,0,0,0,17.4,0,8.973,8.973,0,0,1,6.063,8.426V287.8Z" transform="translate(-82.039 -148.771)" fill="#623b3b"/><path d="M253.8,439.021a3.957,3.957,0,1,0,0,7.914h.023a3.957,3.957,0,1,0-.023-7.914Z" transform="translate(-151.6 -265.304)" fill="#623b3b"/></g></g><text transform="translate(21.415 71.305)" fill="#623b3b" font-size="27" font-family="GlacialIndifference-Bold, Glacial Indifference" font-weight="700"><tspan x="0" y="0">Q?</tspan></text><text transform="translate(142.521 130.381)" fill="#623b3b" font-size="27" font-family="GlacialIndifference-Bold, Glacial Indifference" font-weight="700"><tspan x="0" y="0">A!</tspan></text></g></g></svg>