<svg id="Layer_1" data-name="Layer 1" xmlns="http://www.w3.org/2000/svg" viewBox="0 0 140 44"><defs><style>.cls-1{fill:#943034;}.cls-2{fill:#933033;}.cls-3{fill:#fff;}</style></defs><path class="cls-1" d="M64.54422,34.90417h-2a.2002.2002,0,1,1,0-.40039h2a.2002.2002,0,0,1,0,.40039Zm-4,0h-2a.2002.2002,0,1,1,0-.40039h2a.2002.2002,0,0,1,0,.40039Zm-4,0h-2a.2002.2002,0,1,1,0-.40039h2a.2002.2002,0,0,1,0,.40039Zm-4,0h-2a.2002.2002,0,1,1,0-.40039h2a.2002.2002,0,0,1,0,.40039Zm-4,0h-2a.2002.2002,0,1,1,0-.40039h2a.2002.2002,0,0,1,0,.40039Zm-4,0h-2a.2002.2002,0,1,1,0-.40039h2a.2002.2002,0,0,1,0,.40039Zm-4,0h-2a.2002.2002,0,1,1,0-.40039h2a.2002.2002,0,0,1,0,.40039Zm-4,0h-2a.2002.2002,0,1,1,0-.40039h2a.2002.2002,0,0,1,0,.40039Zm-4,0h-2a.2002.2002,0,1,1,0-.40039h2a.2002.2002,0,0,1,0,.40039Zm-4,0h-2a.2002.2002,0,1,1,0-.40039h2a.2002.2002,0,0,1,0,.40039Zm-4,0h-2a.2002.2002,0,1,1,0-.40039h2a.2002.2002,0,0,1,0,.40039Zm-4,0h-2a.2002.2002,0,1,1,0-.40039h2a.2002.2002,0,0,1,0,.40039Zm-4,0h-2a.2002.2002,0,1,1,0-.40039h2a.2002.2002,0,0,1,0,.40039Zm-4,0h-2a.2002.2002,0,1,1,0-.40039h2a.2002.2002,0,0,1,0,.40039Zm-4,0h-2a.2002.2002,0,1,1,0-.40039h2a.2002.2002,0,0,1,0,.40039Zm-4,0H3.18875a2.94153,2.94153,0,0,1-.68457-.08106.19994.19994,0,0,1-.14746-.24121.197.197,0,0,1,.24121-.14746,2.558,2.558,0,0,0,.59082.06934H4.54422a.2002.2002,0,0,1,0,.40039Zm61.23242-.294a.20027.20027,0,0,1-.09082-.3789,2.51816,2.51816,0,0,0,1.21387-1.34473.19968.19968,0,0,1,.373.14258,2.92243,2.92243,0,0,1-1.40527,1.55957A.20314.20314,0,0,1,65.77664,34.61022Zm-64.835-.8916a.2.2,0,0,1-.165-.08691A2.90933,2.90933,0,0,1,.2659,31.98034v-.36523a.2002.2002,0,1,1,.40039,0v.36523a2.50867,2.50867,0,0,0,.44043,1.42481.20041.20041,0,0,1-.05176.27832A.20362.20362,0,0,1,.94165,33.71862Zm66.32522-2.53808a.20047.20047,0,0,1-.20019-.2002v-2a.2002.2002,0,0,1,.40039,0v2A.20048.20048,0,0,1,67.26687,31.18054ZM.46609,29.8153a.20046.20046,0,0,1-.20019-.20019v-2a.2002.2002,0,1,1,.40039,0v2A.20047.20047,0,0,1,.46609,29.8153Zm66.80078-2.63476a.20047.20047,0,0,1-.20019-.2002v-2a.2002.2002,0,0,1,.40039,0v2A.20048.20048,0,0,1,67.26687,27.18054ZM.46609,25.8153a.20046.20046,0,0,1-.20019-.20019v-2a.2002.2002,0,1,1,.40039,0v2A.20047.20047,0,0,1,.46609,25.8153Zm66.80078-2.63476a.20047.20047,0,0,1-.20019-.2002v-2a.2002.2002,0,0,1,.40039,0v2A.20048.20048,0,0,1,67.26687,23.18054ZM.46609,21.8153a.20046.20046,0,0,1-.20019-.20019v-2a.2002.2002,0,1,1,.40039,0v2A.20047.20047,0,0,1,.46609,21.8153Zm66.80078-2.63476a.20047.20047,0,0,1-.20019-.2002v-2a.2002.2002,0,0,1,.40039,0v2A.20048.20048,0,0,1,67.26687,19.18054ZM.46609,17.8153a.20046.20046,0,0,1-.20019-.20019V16.25475A2.9423,2.9423,0,0,1,.346,15.57409a.19729.19729,0,0,1,.24122-.14746.19994.19994,0,0,1,.14746.24121,2.50569,2.50569,0,0,0-.06836.58691v1.36036A.20047.20047,0,0,1,.46609,17.8153Zm66.50977-2.58789a.2.2,0,0,1-.17871-.10937,2.52479,2.52479,0,0,0-1.34278-1.21778.2.2,0,0,1,.14453-.373,2.93275,2.93275,0,0,1,1.55567,1.40918.2.2,0,0,1-.17871.291ZM1.64676,14.20983a.20019.20019,0,0,1-.11329-.36523,2.90742,2.90742,0,0,1,1.65528-.51367H3.5491a.2002.2002,0,0,1,0,.40039H3.18875A2.509,2.509,0,0,0,1.76,14.17468.20126.20126,0,0,1,1.64676,14.20983Zm61.90234-.47851h-2a.2002.2002,0,1,1,0-.40039h2a.2002.2002,0,0,1,0,.40039Zm-4,0h-2a.2002.2002,0,1,1,0-.40039h2a.2002.2002,0,0,1,0,.40039Zm-4,0h-2a.2002.2002,0,1,1,0-.40039h2a.2002.2002,0,0,1,0,.40039Zm-4,0h-2a.2002.2002,0,1,1,0-.40039h2a.2002.2002,0,0,1,0,.40039Zm-4,0h-2a.2002.2002,0,1,1,0-.40039h2a.2002.2002,0,0,1,0,.40039Zm-4,0h-2a.2002.2002,0,1,1,0-.40039h2a.2002.2002,0,0,1,0,.40039Zm-4,0h-2a.2002.2002,0,1,1,0-.40039h2a.2002.2002,0,0,1,0,.40039Zm-4,0h-2a.2002.2002,0,1,1,0-.40039h2a.2002.2002,0,0,1,0,.40039Zm-4,0h-2a.2002.2002,0,1,1,0-.40039h2a.2002.2002,0,0,1,0,.40039Zm-4,0h-2a.2002.2002,0,1,1,0-.40039h2a.2002.2002,0,0,1,0,.40039Zm-4,0h-2a.2002.2002,0,1,1,0-.40039h2a.2002.2002,0,0,1,0,.40039Zm-4,0h-2a.2002.2002,0,1,1,0-.40039h2a.2002.2002,0,0,1,0,.40039Zm-4,0h-2a.2002.2002,0,1,1,0-.40039h2a.2002.2002,0,0,1,0,.40039Zm-4,0h-2a.2002.2002,0,1,1,0-.40039h2a.2002.2002,0,0,1,0,.40039Zm-4,0h-2a.2002.2002,0,1,1,0-.40039h2a.2002.2002,0,0,1,0,.40039Z"/><circle class="cls-2" cx="93.95144" cy="5.30554" r="4.21484"/><path class="cls-3" d="M94.90652,5.70837a.148.148,0,0,1,0,.2124.15384.15384,0,0,1-.10937.04248h-.35547v.98828a.15323.15323,0,0,1-.04785.11426.16663.16663,0,0,1-.11719.04492.14673.14673,0,0,1-.11133-.04492.16107.16107,0,0,1-.043-.11426V5.96325H92.56082a.14966.14966,0,0,1-.11133-.05029.16053.16053,0,0,1-.04785-.11426.15786.15786,0,0,1,.03711-.10645l1.71094-2.23632a.14806.14806,0,0,1,.13281-.064.155.155,0,0,1,.11426.04541.15848.15848,0,0,1,.04492.11426V5.66589h.35547A.15384.15384,0,0,1,94.90652,5.70837Zm-2.06933-.04248h1.28515V3.96569Z"/><path class="cls-2" d="M103.82547,4.0111a.18067.18067,0,0,1-.03321.09571.13555.13555,0,0,1-.11035.05273.14642.14642,0,0,1-.07715-.02393,1.4912,1.4912,0,0,0-.83984-.25439,1.3776,1.3776,0,0,0-.70313.18262,1.29682,1.29682,0,0,0-.49414.51123,1.5264,1.5264,0,0,0-.17968.74609,1.538,1.538,0,0,0,.18164.75635,1.301,1.301,0,0,0,.49707.50879,1.38478,1.38478,0,0,0,.69824.17969,1.48452,1.48452,0,0,0,.835-.24952.15248.15248,0,0,1,.082-.02392.13115.13115,0,0,1,.11035.05762.13328.13328,0,0,1,.03321.0913.1257.1257,0,0,1-.06641.11524,1.75565,1.75565,0,0,1-.46094.20849,1.80888,1.80888,0,0,1-.5332.084,1.68041,1.68041,0,0,1-.8418-.21826,1.62655,1.62655,0,0,1-.61523-.61182,1.766,1.766,0,0,1-.22754-.89795,1.74831,1.74831,0,0,1,.22559-.88086,1.64522,1.64522,0,0,1,.60937-.61914,1.66272,1.66272,0,0,1,.84961-.22314,1.81725,1.81725,0,0,1,.52539.07715,1.67119,1.67119,0,0,1,.46387.21582A.13338.13338,0,0,1,103.82547,4.0111Z"/><path class="cls-2" d="M106.471,6.42517a1.1676,1.1676,0,0,1-.43652.45849,1.24066,1.24066,0,0,1-1.23828,0,1.17694,1.17694,0,0,1-.4375-.45849,1.42611,1.42611,0,0,1,0-1.30567,1.19572,1.19572,0,0,1,.4375-.46045,1.22506,1.22506,0,0,1,1.23828,0,1.18613,1.18613,0,0,1,.43652.46045,1.426,1.426,0,0,1,0,1.30567Zm-.25-1.1709a.9008.9008,0,0,0-.333-.36231.87845.87845,0,0,0-.47266-.13232.867.867,0,0,0-.4707.13232.93852.93852,0,0,0-.334.36231,1.151,1.151,0,0,0,0,1.03173.93852.93852,0,0,0,.334.36231.867.867,0,0,0,.4707.13232.89321.89321,0,0,0,.80566-.48974,1.1783,1.1783,0,0,0,0-1.03662Z"/><path class="cls-2" d="M109.03152,4.75231a1.084,1.084,0,0,1,.209.69385V6.85729a.134.134,0,0,1-.04395.103.14215.14215,0,0,1-.24414-.103v-1.397a.78851.78851,0,0,0-.15625-.50635.5825.5825,0,0,0-.48242-.19433.86134.86134,0,0,0-.69141.353.58894.58894,0,0,0-.11523.34765v1.397a.14406.14406,0,1,1-.28809,0V4.7069a.14406.14406,0,1,1,.28809,0v.26416a1.02651,1.02651,0,0,1,.37207-.34326.99945.99945,0,0,1,.49707-.13672A.78843.78843,0,0,1,109.03152,4.75231Z"/><path class="cls-2" d="M110.4739,4.827V6.43493a.34231.34231,0,0,0,.06739.24707.24122.24122,0,0,0,.17675.06494.26483.26483,0,0,0,.07227-.0122.28426.28426,0,0,1,.06738-.01172.09284.09284,0,0,1,.07422.03613.12517.12517,0,0,1,.03125.084.13253.13253,0,0,1-.07617.1128.35441.35441,0,0,1-.18262.04541.99218.99218,0,0,1-.23047-.02393.36558.36558,0,0,1-.19433-.144.62626.62626,0,0,1-.09375-.38379V4.827h-.35059a.1387.1387,0,0,1-.09863-.03857.135.135,0,0,1,0-.1919.14082.14082,0,0,1,.09863-.03857h.35059V4.02526a.13946.13946,0,0,1,.041-.103.13759.13759,0,0,1,.10254-.041.14024.14024,0,0,1,.14453.144V4.558h.4795a.12638.12638,0,0,1,.09375.04345.13583.13583,0,0,1,.041.09571.12291.12291,0,0,1-.03808.09375.13721.13721,0,0,1-.09668.03613Z"/><path class="cls-2" d="M113.70437,6.42517a1.16767,1.16767,0,0,1-.43652.45849,1.24066,1.24066,0,0,1-1.23828,0,1.17687,1.17687,0,0,1-.4375-.45849,1.42611,1.42611,0,0,1,0-1.30567,1.19564,1.19564,0,0,1,.4375-.46045,1.22506,1.22506,0,0,1,1.23828,0,1.1862,1.1862,0,0,1,.43652.46045,1.426,1.426,0,0,1,0,1.30567Zm-.25-1.1709a.9008.9008,0,0,0-.333-.36231.87845.87845,0,0,0-.47266-.13232.867.867,0,0,0-.4707.13232.93852.93852,0,0,0-.334.36231,1.151,1.151,0,0,0,0,1.03173.93852.93852,0,0,0,.334.36231.867.867,0,0,0,.4707.13232.89321.89321,0,0,0,.80566-.48974,1.1783,1.1783,0,0,0,0-1.03662Z"/><path class="cls-2" d="M116.21414,4.80065a1.104,1.104,0,0,1,.21094.69825V6.85729a.14181.14181,0,0,1-.04.103.15112.15112,0,0,1-.207,0,.13792.13792,0,0,1-.04-.103V5.4989a.80748.80748,0,0,0-.14942-.50635.54834.54834,0,0,0-.46582-.19434.79858.79858,0,0,0-.38086.09571.81868.81868,0,0,0-.291.25683.60583.60583,0,0,0-.11035.34815V6.85729a.14406.14406,0,1,1-.28809,0V3.59313a.13948.13948,0,0,1,.14453-.14355.13719.13719,0,0,1,.10254.04053.13946.13946,0,0,1,.041.103V4.99987a1.01106,1.01106,0,0,1,.36035-.33838.93726.93726,0,0,1,.4707-.13232A.76476.76476,0,0,1,116.21414,4.80065Z"/><path class="cls-2" d="M120.47683,6.85729a.12714.12714,0,0,1-.0498.103.15589.15589,0,0,1-.09375.041.13039.13039,0,0,1-.10547-.05274l-1.06152-1.123-.35938.30712v.72461a.14406.14406,0,1,1-.28808,0V3.59313a.13946.13946,0,0,1,.041-.103.13721.13721,0,0,1,.10254-.04053.13946.13946,0,0,1,.14453.14355v2.189l1.38672-1.19531a.12765.12765,0,0,1,.19727-.00245.14409.14409,0,0,1,.043.09864.15568.15568,0,0,1-.05274.11035l-.98926.83984,1.042,1.11377A.16266.16266,0,0,1,120.47683,6.85729Z"/><path class="cls-2" d="M123.05887,6.42517a1.1677,1.1677,0,0,1-.43653.45849,1.24066,1.24066,0,0,1-1.23828,0,1.17694,1.17694,0,0,1-.4375-.45849,1.42611,1.42611,0,0,1,0-1.30567,1.19572,1.19572,0,0,1,.4375-.46045,1.22506,1.22506,0,0,1,1.23828,0,1.18622,1.18622,0,0,1,.43653.46045,1.42611,1.42611,0,0,1,0,1.30567Zm-.25-1.1709a.90083.90083,0,0,0-.333-.36231.87845.87845,0,0,0-.47266-.13232.867.867,0,0,0-.4707.13232.93852.93852,0,0,0-.334.36231,1.151,1.151,0,0,0,0,1.03173.93852.93852,0,0,0,.334.36231.867.867,0,0,0,.4707.13232.89324.89324,0,0,0,.80567-.48974,1.17838,1.17838,0,0,0,0-1.03662Z"/><path class="cls-2" d="M123.63015,6.50671a.1577.1577,0,0,1,.13965-.12451.14827.14827,0,0,1,.10547.04785.89876.89876,0,0,0,.75391.37451.733.733,0,0,0,.40039-.10791.351.351,0,0,0,.1709-.31445.33435.33435,0,0,0-.15821-.30225,1.54374,1.54374,0,0,0-.44238-.17285,1.86962,1.86962,0,0,1-.624-.26172.5436.5436,0,0,1-.22559-.47266.59875.59875,0,0,1,.11035-.353.7309.7309,0,0,1,.30078-.24219,1.02182,1.02182,0,0,1,.42872-.08643,1.17125,1.17125,0,0,1,.416.0791.88.88,0,0,1,.35742.252.11617.11617,0,0,1,.043.09619.12936.12936,0,0,1-.13476.12939.11841.11841,0,0,1-.08594-.03857.76249.76249,0,0,0-.27344-.19678.87133.87133,0,0,0-.34082-.06689.69033.69033,0,0,0-.38672.10547.35323.35323,0,0,0-.16113.31689.34552.34552,0,0,0,.17578.29248,1.81816,1.81816,0,0,0,.4873.18262,2.2646,2.2646,0,0,1,.41211.13916.68622.68622,0,0,1,.26661.21582.6043.6043,0,0,1,.10351.36963.58591.58591,0,0,1-.25.49707,1.01038,1.01038,0,0,1-.61914.18457,1.12452,1.12452,0,0,1-.93066-.43652A.20882.20882,0,0,1,123.63015,6.50671Z"/><path class="cls-2" d="M128.19265,4.59167a.14747.14747,0,0,1,.041.10547V6.85729a.14642.14642,0,0,1-.248.103.14181.14181,0,0,1-.04-.103V6.53552a1.00623,1.00623,0,0,1-.36035.36523.97408.97408,0,0,1-.52344.14844,1.03055,1.03055,0,0,1-.57812-.168,1.1579,1.1579,0,0,1-.40332-.46045,1.45019,1.45019,0,0,1-.14648-.65771,1.41226,1.41226,0,0,1,.14941-.65528,1.13651,1.13651,0,0,1,.40527-.45361,1.07217,1.07217,0,0,1,1.09668-.02393.917.917,0,0,1,.36035.36475V4.69714a.151.151,0,0,1,.04-.10547.14617.14617,0,0,1,.207,0Zm-.65332,2.05664a.89379.89379,0,0,0,.3125-.36475,1.17631,1.17631,0,0,0,.11231-.5205,1.14037,1.14037,0,0,0-.11231-.50879.89614.89614,0,0,0-.3125-.36231.79077.79077,0,0,0-.44824-.13232.805.805,0,0,0-.44922.12988.883.883,0,0,0-.31152.35742,1.14873,1.14873,0,0,0-.11328.51612,1.20317,1.20317,0,0,0,.11035.5205.88042.88042,0,0,0,.30957.36475.80068.80068,0,0,0,.4541.13232A.79077.79077,0,0,0,127.53933,6.64831Z"/><path class="cls-2" d="M130.9739,6.85729a.12714.12714,0,0,1-.0498.103.15589.15589,0,0,1-.09375.041.13039.13039,0,0,1-.10547-.05274l-1.06152-1.123-.35938.30712v.72461a.14406.14406,0,1,1-.28808,0V3.59313a.13946.13946,0,0,1,.041-.103.13721.13721,0,0,1,.10254-.04053.13946.13946,0,0,1,.14453.14355v2.189l1.38672-1.19531a.12765.12765,0,0,1,.19727-.00245.14409.14409,0,0,1,.043.09864.15568.15568,0,0,1-.05274.11035l-.98926.83984,1.042,1.11377A.16266.16266,0,0,1,130.9739,6.85729Z"/><path class="cls-2" d="M133.63113,4.59167a.14752.14752,0,0,1,.041.10547V6.85729a.14642.14642,0,0,1-.248.103.14177.14177,0,0,1-.04-.103V6.53552a1.00631,1.00631,0,0,1-.36035.36523.97413.97413,0,0,1-.52344.14844,1.0305,1.0305,0,0,1-.57812-.168,1.15783,1.15783,0,0,1-.40332-.46045,1.4502,1.4502,0,0,1-.14649-.65771,1.41227,1.41227,0,0,1,.14942-.65528,1.13651,1.13651,0,0,1,.40527-.45361,1.07217,1.07217,0,0,1,1.09668-.02393.917.917,0,0,1,.36035.36475V4.69714a.15091.15091,0,0,1,.04-.10547.14617.14617,0,0,1,.207,0Zm-.65332,2.05664a.89387.89387,0,0,0,.3125-.36475,1.17631,1.17631,0,0,0,.11231-.5205,1.14037,1.14037,0,0,0-.11231-.50879.89621.89621,0,0,0-.3125-.36231.79079.79079,0,0,0-.44824-.13232.805.805,0,0,0-.44922.12988.883.883,0,0,0-.31152.35742,1.14873,1.14873,0,0,0-.11329.51612,1.203,1.203,0,0,0,.11036.5205.88034.88034,0,0,0,.30957.36475.80068.80068,0,0,0,.4541.13232A.79079.79079,0,0,0,132.97781,6.64831Z"/><path class="cls-2" d="M134.90554,4.827V6.43493a.34231.34231,0,0,0,.06739.24707.24123.24123,0,0,0,.17676.06494.26482.26482,0,0,0,.07226-.0122.28426.28426,0,0,1,.06738-.01172.09284.09284,0,0,1,.07422.03613.12517.12517,0,0,1,.03125.084.13253.13253,0,0,1-.07617.1128.35441.35441,0,0,1-.18262.04541.99218.99218,0,0,1-.23047-.02393.36558.36558,0,0,1-.19433-.144.62626.62626,0,0,1-.09375-.38379V4.827h-.35059a.1387.1387,0,0,1-.09863-.03857.135.135,0,0,1,0-.1919.14082.14082,0,0,1,.09863-.03857h.35059V4.02526a.13946.13946,0,0,1,.041-.103.13759.13759,0,0,1,.10254-.041.14024.14024,0,0,1,.14453.144V4.558h.4795a.12638.12638,0,0,1,.09375.04345.13583.13583,0,0,1,.041.09571.12291.12291,0,0,1-.03808.09375.13721.13721,0,0,1-.09668.03613Z"/><path class="cls-2" d="M138.14773,4.59167a.14747.14747,0,0,1,.041.10547V6.85729a.14642.14642,0,0,1-.24805.103.14177.14177,0,0,1-.04-.103V6.53552a1.00631,1.00631,0,0,1-.36035.36523.97411.97411,0,0,1-.52344.14844,1.03055,1.03055,0,0,1-.57812-.168,1.15783,1.15783,0,0,1-.40332-.46045,1.4502,1.4502,0,0,1-.14649-.65771,1.41227,1.41227,0,0,1,.14942-.65528,1.13651,1.13651,0,0,1,.40527-.45361,1.07217,1.07217,0,0,1,1.09668-.02393.917.917,0,0,1,.36035.36475V4.69714a.15091.15091,0,0,1,.04-.10547.14617.14617,0,0,1,.207,0Zm-.65332,2.05664a.89387.89387,0,0,0,.3125-.36475,1.17631,1.17631,0,0,0,.11231-.5205,1.14037,1.14037,0,0,0-.11231-.50879.89621.89621,0,0,0-.3125-.36231.79077.79077,0,0,0-.44824-.13232.805.805,0,0,0-.44922.12988.883.883,0,0,0-.31152.35742,1.14873,1.14873,0,0,0-.11328.51612,1.20317,1.20317,0,0,0,.11035.5205.88042.88042,0,0,0,.30957.36475.80068.80068,0,0,0,.4541.13232A.79077.79077,0,0,0,137.49441,6.64831Z"/><path class="cls-2" d="M103.56668,11.26354a.97724.97724,0,0,1-.1084,1.26465,1.11487,1.11487,0,0,1-.72168.23242h-1.292a.13912.13912,0,0,1-.10254-.041.13757.13757,0,0,1-.041-.10254V9.54528a.13945.13945,0,0,1,.14356-.144h1.27246a.86874.86874,0,0,1,.63086.2207.80128.80128,0,0,1,.22851.605.85019.85019,0,0,1-.125.45557.70842.70842,0,0,1-.35547.293A.8741.8741,0,0,1,103.56668,11.26354Zm-.45313-1.42822a.60017.60017,0,0,0-.43457-.15088h-1.07031v1.19922H102.679a.59264.59264,0,0,0,.42481-.168.622.622,0,0,0,.165-.46484A.5535.5535,0,0,0,103.11355,9.83532Zm.12891,2.479a.59445.59445,0,0,0,.19922-.48926.58342.58342,0,0,0-.2041-.49414.82544.82544,0,0,0-.52539-.15918h-1.10352v1.30566H102.722A.79256.79256,0,0,0,103.24246,12.31433Z"/><path class="cls-2" d="M106.44949,10.35143a.14753.14753,0,0,1,.041.10547v2.16016a.13761.13761,0,0,1-.041.10254.14359.14359,0,0,1-.24707-.10254v-.32227a.9989.9989,0,0,1-.36035.36524.96988.96988,0,0,1-.52344.14844,1.0305,1.0305,0,0,1-.57812-.168,1.15639,1.15639,0,0,1-.40332-.46,1.45233,1.45233,0,0,1-.14649-.65821,1.41368,1.41368,0,0,1,.14942-.65527,1.13512,1.13512,0,0,1,.40527-.45313,1.0722,1.0722,0,0,1,1.09668-.02392.917.917,0,0,1,.36035.36474V10.4569a.15093.15093,0,0,1,.04-.10547.14619.14619,0,0,1,.207,0Zm-.65332,2.05665a.89552.89552,0,0,0,.3125-.36524,1.17335,1.17335,0,0,0,.1123-.52051,1.1404,1.1404,0,0,0-.1123-.50879.89948.89948,0,0,0-.3125-.3623.83477.83477,0,0,0-.89746-.00195.87653.87653,0,0,0-.31152.35742,1.1466,1.1466,0,0,0-.11329.51562,1.2,1.2,0,0,0,.11036.52051.88183.88183,0,0,0,.30957.36524.8041.8041,0,0,0,.4541.13183A.79417.79417,0,0,0,105.79617,12.40808Z"/><path class="cls-2" d="M109.00515,10.56042a1.103,1.103,0,0,1,.21094.69824v1.3584a.14573.14573,0,0,1-.24707.10254.13686.13686,0,0,1-.04-.10254v-1.3584a.80989.80989,0,0,0-.14941-.50683.54969.54969,0,0,0-.46582-.19434.80436.80436,0,0,0-.38086.0957.82337.82337,0,0,0-.291.25684.6073.6073,0,0,0-.11035.34863v1.3584a.14016.14016,0,0,1-.14355.14355.13981.13981,0,0,1-.10352-.041.1376.1376,0,0,1-.041-.10254V9.3529a.13947.13947,0,0,1,.14453-.14356.13724.13724,0,0,1,.10254.04053.1395.1395,0,0,1,.041.103v1.40674a1.01105,1.01105,0,0,1,.36035-.33838.93731.93731,0,0,1,.47071-.13233A.76471.76471,0,0,1,109.00515,10.56042Z"/><path class="cls-2" d="M112.06472,10.35143a.14749.14749,0,0,1,.041.10547v2.16016a.13757.13757,0,0,1-.041.10254.14359.14359,0,0,1-.24707-.10254v-.32227a.99874.99874,0,0,1-.36035.36524.96983.96983,0,0,1-.52343.14844,1.03055,1.03055,0,0,1-.57813-.168,1.15646,1.15646,0,0,1-.40332-.46,1.45232,1.45232,0,0,1-.14648-.65821,1.41368,1.41368,0,0,1,.14941-.65527,1.13512,1.13512,0,0,1,.40527-.45313A1.0722,1.0722,0,0,1,111.4573,10.39a.91688.91688,0,0,1,.36035.36474V10.4569a.151.151,0,0,1,.04-.10547.14619.14619,0,0,1,.207,0Zm-.65332,2.05665a.89537.89537,0,0,0,.3125-.36524,1.17336,1.17336,0,0,0,.11231-.52051,1.1404,1.1404,0,0,0-.11231-.50879.89933.89933,0,0,0-.3125-.3623.83477.83477,0,0,0-.89746-.00195.8766.8766,0,0,0-.31152.35742,1.1466,1.1466,0,0,0-.11328.51562,1.20013,1.20013,0,0,0,.11035.52051.882.882,0,0,0,.30957.36524.8041.8041,0,0,0,.4541.13183A.79415.79415,0,0,0,111.4114,12.40808Z"/><path class="cls-2" d="M112.68094,12.26647a.105.105,0,0,1,.0625-.0957.10379.10379,0,0,1,.07714-.0293.15026.15026,0,0,1,.10547.04786.898.898,0,0,0,.75391.375.72919.72919,0,0,0,.40039-.1084.351.351,0,0,0,.1709-.31446.33353.33353,0,0,0-.15821-.30175,1.5436,1.5436,0,0,0-.44238-.17286,1.86963,1.86963,0,0,1-.624-.26171.54361.54361,0,0,1-.22559-.47266.60027.60027,0,0,1,.11035-.35352.73381.73381,0,0,1,.30079-.2417,1.02189,1.02189,0,0,1,.42871-.08642,1.17125,1.17125,0,0,1,.416.0791.88.88,0,0,1,.35742.25195.11585.11585,0,0,1,.043.09571.13031.13031,0,0,1-.04785.10058.12826.12826,0,0,1-.08691.0293.11717.11717,0,0,1-.08594-.03906.76712.76712,0,0,0-.27344-.19629.86259.86259,0,0,0-.34082-.0669.6902.6902,0,0,0-.38672.105.35353.35353,0,0,0-.16113.31739.34414.34414,0,0,0,.17578.292,1.80188,1.80188,0,0,0,.48731.18262,2.26316,2.26316,0,0,1,.41211.13964.682.682,0,0,1,.2666.21582.6018.6018,0,0,1,.10351.36915.58592.58592,0,0,1-.25.49707,1.01045,1.01045,0,0,1-.61914.18457,1.1245,1.1245,0,0,1-.93066-.43653A.20736.20736,0,0,1,112.68094,12.26647Z"/><path class="cls-2" d="M117.24441,10.35143a.14749.14749,0,0,1,.041.10547v2.16016a.13757.13757,0,0,1-.041.10254.14359.14359,0,0,1-.24707-.10254v-.32227a.99882.99882,0,0,1-.36035.36524.96986.96986,0,0,1-.52344.14844,1.03055,1.03055,0,0,1-.57812-.168,1.15639,1.15639,0,0,1-.40332-.46,1.45233,1.45233,0,0,1-.14649-.65821,1.41368,1.41368,0,0,1,.14942-.65527,1.13512,1.13512,0,0,1,.40527-.45313A1.0722,1.0722,0,0,1,116.637,10.39a.91694.91694,0,0,1,.36035.36474V10.4569a.15093.15093,0,0,1,.04-.10547.14619.14619,0,0,1,.207,0Zm-.65332,2.05665a.89544.89544,0,0,0,.3125-.36524,1.17336,1.17336,0,0,0,.11231-.52051,1.1404,1.1404,0,0,0-.11231-.50879.8994.8994,0,0,0-.3125-.3623.83477.83477,0,0,0-.89746-.00195.87653.87653,0,0,0-.31152.35742,1.1466,1.1466,0,0,0-.11328.51562,1.20013,1.20013,0,0,0,.11035.52051.882.882,0,0,0,.30957.36524.8041.8041,0,0,0,.4541.13183A.79415.79415,0,0,0,116.59109,12.40808Z"/><path class="cls-2" d="M119.679,12.64343a1.08493,1.08493,0,0,1-.36914-.44434.14588.14588,0,0,1-.02441-.07617.12117.12117,0,0,1,.0459-.09668.15106.15106,0,0,1,.09863-.03809.16427.16427,0,0,1,.13379.08106.7828.7828,0,0,0,.26465.3291.65188.65188,0,0,0,.38867.12207.72989.72989,0,0,0,.53711-.20313.72034.72034,0,0,0,.207-.53515V9.54528a.13846.13846,0,0,1,.043-.10351.1561.1561,0,0,1,.11035-.04053.14817.14817,0,0,1,.1084.04053.14376.14376,0,0,1,.04.10351V11.7821a1.04066,1.04066,0,0,1-.13379.52734.9538.9538,0,0,1-.37207.36719,1.09491,1.09491,0,0,1-.54.13184A.92694.92694,0,0,1,119.679,12.64343Z"/><path class="cls-2" d="M124.12429,11.49108a.13937.13937,0,0,1-.10058.041h-1.81445a1.0964,1.0964,0,0,0,.11816.51562.88518.88518,0,0,0,.33594.36036.97816.97816,0,0,0,.51562.13183.88228.88228,0,0,0,.41309-.0957.8629.8629,0,0,0,.293-.24512.16351.16351,0,0,1,.10058-.043.13236.13236,0,0,1,.125.125.14515.14515,0,0,1-.04785.10059,1.20948,1.20948,0,0,1-.38672.30762,1.07027,1.07027,0,0,1-.49218.11914,1.31417,1.31417,0,0,1-.65235-.15821,1.12317,1.12317,0,0,1-.44238-.44336,1.34186,1.34186,0,0,1-.1582-.66015,1.4507,1.4507,0,0,1,.15625-.68946,1.12273,1.12273,0,0,1,.415-.45068,1.05166,1.05166,0,0,1,.55176-.15576,1.132,1.132,0,0,1,.54.13428,1.07083,1.07083,0,0,1,.41113.39306,1.19589,1.19589,0,0,1,.16309.61426A.12915.12915,0,0,1,124.12429,11.49108Zm-1.58593-.7705a.892.892,0,0,0-.30469.55273h1.63672v-.03906a.76564.76564,0,0,0-.14453-.377.77568.77568,0,0,0-.29981-.24414.86184.86184,0,0,0-.37207-.084A.80274.80274,0,0,0,122.53836,10.72058Z"/><path class="cls-2" d="M126.50613,10.45007a1.10791,1.10791,0,0,1,.40527.44629,1.4847,1.4847,0,0,1,0,1.28613,1.1383,1.1383,0,0,1-.40332.44922,1.04906,1.04906,0,0,1-.57324.16308,1.01256,1.01256,0,0,1-.51172-.13281,1.0318,1.0318,0,0,1-.37207-.35254V13.577a.13866.13866,0,0,1-.14355.14356.143.143,0,0,1-.10352-.04.14138.14138,0,0,1-.041-.10352V10.44763a.14867.14867,0,0,1,.041-.106.136.136,0,0,1,.10352-.043.13386.13386,0,0,1,.10254.043.14867.14867,0,0,1,.041.106v.32568a.89045.89045,0,0,1,.36035-.35449,1.05346,1.05346,0,0,1,.51856-.12989A1.0705,1.0705,0,0,1,126.50613,10.45007Zm-.15137,1.94824a.86887.86887,0,0,0,.31153-.35254,1.12327,1.12327,0,0,0,.11328-.50879,1.10008,1.10008,0,0,0-.11328-.50195.876.876,0,0,0-.31153-.35059.82515.82515,0,0,0-.44922-.127.85067.85067,0,0,0-.45605.125.83487.83487,0,0,0-.31152.34766,1.12353,1.12353,0,0,0-.11035.50683,1.13491,1.13491,0,0,0,.11035.50879.84823.84823,0,0,0,.31152.35254.83528.83528,0,0,0,.45605.12695A.81694.81694,0,0,0,126.35476,12.39831Z"/><path class="cls-2" d="M129.74832,10.35143a.14752.14752,0,0,1,.041.10547v2.16016a.1376.1376,0,0,1-.041.10254.14359.14359,0,0,1-.24707-.10254v-.32227a.9989.9989,0,0,1-.36035.36524.96988.96988,0,0,1-.52344.14844,1.03055,1.03055,0,0,1-.57813-.168,1.15654,1.15654,0,0,1-.40332-.46,1.45245,1.45245,0,0,1-.14648-.65821,1.41368,1.41368,0,0,1,.14941-.65527,1.13522,1.13522,0,0,1,.40528-.45313A1.0722,1.0722,0,0,1,129.1409,10.39a.917.917,0,0,1,.36035.36474V10.4569a.15093.15093,0,0,1,.04-.10547.14619.14619,0,0,1,.207,0Zm-.65332,2.05665a.89552.89552,0,0,0,.3125-.36524,1.17349,1.17349,0,0,0,.1123-.52051,1.14053,1.14053,0,0,0-.1123-.50879.89948.89948,0,0,0-.3125-.3623.83477.83477,0,0,0-.89746-.00195.87655.87655,0,0,0-.31153.35742,1.14673,1.14673,0,0,0-.11328.51562,1.20013,1.20013,0,0,0,.11035.52051.882.882,0,0,0,.30957.36524.80413.80413,0,0,0,.45411.13183A.79417.79417,0,0,0,129.095,12.40808Z"/><path class="cls-2" d="M132.35476,10.51208a1.083,1.083,0,0,1,.209.69385v1.41113a.133.133,0,0,1-.04395.10254.14214.14214,0,0,1-.24414-.10254V11.2196a.788.788,0,0,0-.15625-.50586.58107.58107,0,0,0-.48242-.19434.85916.85916,0,0,0-.69141.35254.59117.59117,0,0,0-.11523.34766v1.39746a.14018.14018,0,0,1-.14356.14355.1398.1398,0,0,1-.10351-.041.13761.13761,0,0,1-.041-.10254V10.46667a.14406.14406,0,1,1,.28809,0v.26367a1.02545,1.02545,0,0,1,.37207-.34277.99945.99945,0,0,1,.49707-.13672A.78839.78839,0,0,1,132.35476,10.51208Z"/><path class="cls-2" d="M135.49246,10.349a.14618.14618,0,0,1,.041.10791V12.535a1.23819,1.23819,0,0,1-.15625.64062,1.03,1.03,0,0,1-.42675.40625,1.34164,1.34164,0,0,1-.62207.13868,1.52376,1.52376,0,0,1-.35254-.043,1.37286,1.37286,0,0,1-.31641-.11036c-.08789-.04492-.13867-.09082-.15137-.13964a.10459.10459,0,0,1-.0332-.07618.08771.08771,0,0,1,.043-.07714.0755.0755,0,0,1,.04785-.01465.37735.37735,0,0,1,.11035.03418l.10059.043a1.539,1.539,0,0,0,.55664.11523.90766.90766,0,0,0,.66992-.24219.88776.88776,0,0,0,.24219-.65527v-.29785a.879.879,0,0,1-.37891.40527,1.08738,1.08738,0,0,1-.543.14649,1.10391,1.10391,0,0,1-.59668-.165,1.16651,1.16651,0,0,1-.42089-.459,1.47484,1.47484,0,0,1,0-1.30957,1.1618,1.1618,0,0,1,.42089-.45849,1.098,1.098,0,0,1,.59278-.16553,1.05766,1.05766,0,0,1,.55371.15088,1.01057,1.01057,0,0,1,.37207.36279V10.4569a.14752.14752,0,0,1,.041-.10547.136.136,0,0,1,.10352-.043A.14065.14065,0,0,1,135.49246,10.349Zm-.67188,2.064a.86581.86581,0,0,0,.32618-.36035,1.2228,1.2228,0,0,0,0-1.04883.86977.86977,0,0,0-.32618-.35742.88767.88767,0,0,0-.47265-.127.85625.85625,0,0,0-.46778.13184.90185.90185,0,0,0-.32617.3623,1.18624,1.18624,0,0,0,0,1.03223.90194.90194,0,0,0,.32617.36231.85624.85624,0,0,0,.46778.13183A.88767.88767,0,0,0,134.82058,12.413Z"/><path class="cls-2" d="M104.64871,16.3153a1.12213,1.12213,0,0,1,.2041.70313v1.3584a.13977.13977,0,0,1-.041.10351.13758.13758,0,0,1-.10253.041.14028.14028,0,0,1-.14454-.14453V17.03308a.83082.83082,0,0,0-.15039-.51563.55135.55135,0,0,0-.46875-.19922.79036.79036,0,0,0-.38086.0957.8.8,0,0,0-.291.26172.63458.63458,0,0,0-.11035.35743v1.34375a.14407.14407,0,1,1-.28809,0v-1.3584a.82829.82829,0,0,0-.14355-.50586.52525.52525,0,0,0-.45118-.19434.75441.75441,0,0,0-.37207.0957.79752.79752,0,0,0-.2832.25684.60949.60949,0,0,0-.1084.34766v1.3584a.1398.1398,0,0,1-.041.10351.13762.13762,0,0,1-.10254.041.14026.14026,0,0,1-.14453-.14453v-2.1504a.13758.13758,0,0,1,.041-.10253.13981.13981,0,0,1,.10352-.041.14018.14018,0,0,1,.14355.14355v.27832a1.05458,1.05458,0,0,1,.35059-.32617.91248.91248,0,0,1,.46582-.12988.84045.84045,0,0,1,.47949.13477.73265.73265,0,0,1,.28809.39355.88857.88857,0,0,1,.37011-.36914,1.04849,1.04849,0,0,1,.542-.15918A.74889.74889,0,0,1,104.64871,16.3153Z"/><path class="cls-2" d="M107.637,17.25183a.1385.1385,0,0,1-.10059.04H105.722a1.10314,1.10314,0,0,0,.11817.51661.8826.8826,0,0,0,.33593.35937.96962.96962,0,0,0,.51563.13281.87092.87092,0,0,0,.41308-.09668.86016.86016,0,0,0,.293-.24414.15986.15986,0,0,1,.10059-.04394.11925.11925,0,0,1,.08594.03906.11717.11717,0,0,1,.03906.08594.14337.14337,0,0,1-.04785.10058,1.20959,1.20959,0,0,1-.38672.30762,1.05925,1.05925,0,0,1-.49219.12012,1.31413,1.31413,0,0,1-.65234-.15821,1.12557,1.12557,0,0,1-.44239-.44433,1.33936,1.33936,0,0,1-.1582-.66016,1.44676,1.44676,0,0,1,.15625-.68847,1.11484,1.11484,0,0,1,.415-.45118,1.04769,1.04769,0,0,1,.55176-.15625,1.12694,1.12694,0,0,1,.54.13477,1.07223,1.07223,0,0,1,.41113.39355,1.19331,1.19331,0,0,1,.16309.61426A.13066.13066,0,0,1,107.637,17.25183Zm-1.58594-.77051a.88954.88954,0,0,0-.30468.55176h1.63671V16.995a.762.762,0,0,0-.14453-.377.77793.77793,0,0,0-.2998-.24512.87609.87609,0,0,0-.37207-.084A.80391.80391,0,0,0,106.05105,16.48132Z"/><path class="cls-2" d="M110.08719,16.27233a1.08253,1.08253,0,0,1,.209.69336v1.41114a.135.135,0,0,1-.044.10351.14743.14743,0,0,1-.2041,0,.143.143,0,0,1-.04-.10351V16.98034a.789.789,0,0,0-.15625-.50684.58393.58393,0,0,0-.48242-.19433.86359.86359,0,0,0-.6914.35351.58676.58676,0,0,0-.11524.34766v1.39649a.1398.1398,0,0,1-.041.10351.13762.13762,0,0,1-.10254.041.14026.14026,0,0,1-.14453-.14453v-2.1504a.13758.13758,0,0,1,.041-.10253.13978.13978,0,0,1,.10352-.041.14018.14018,0,0,1,.14355.14355v.26465a1.032,1.032,0,0,1,.37207-.34375,1.00455,1.00455,0,0,1,.49707-.13672A.78726.78726,0,0,1,110.08719,16.27233Z"/><path class="cls-2" d="M113.22586,16.10925a.14577.14577,0,0,1,.041.10742v2.0791a1.24319,1.24319,0,0,1-.15625.64063,1.02777,1.02777,0,0,1-.42675.40527,1.34207,1.34207,0,0,1-.62208.13965,1.57836,1.57836,0,0,1-.35253-.043,1.47241,1.47241,0,0,1-.31641-.11035c-.08789-.04492-.13867-.0918-.15137-.13965a.1051.1051,0,0,1-.0332-.07715.08617.08617,0,0,1,.043-.07617.0755.0755,0,0,1,.04785-.01465.36493.36493,0,0,1,.11035.0332l.10059.04395a1.55977,1.55977,0,0,0,.55664.11523.9043.9043,0,0,0,.66992-.24316.88623.88623,0,0,0,.24219-.65527v-.29688a.88357.88357,0,0,1-.37891.40527,1.08738,1.08738,0,0,1-.543.14649,1.10466,1.10466,0,0,1-.59668-.166,1.16377,1.16377,0,0,1-.4209-.458,1.47692,1.47692,0,0,1,0-1.31054,1.16384,1.16384,0,0,1,.4209-.458,1.0985,1.0985,0,0,1,.59278-.166,1.05818,1.05818,0,0,1,.55371.15137,1.01328,1.01328,0,0,1,.37207.36231v-.30762a.14915.14915,0,0,1,.041-.10547.13773.13773,0,0,1,.10352-.043A.13912.13912,0,0,1,113.22586,16.10925Zm-.67188,2.06347a.8572.8572,0,0,0,.32617-.35937,1.14243,1.14243,0,0,0,.11817-.52539,1.12578,1.12578,0,0,0-.11817-.52344.86367.86367,0,0,0-.32617-.35742.88834.88834,0,0,0-.47265-.12793.84881.84881,0,0,0-.46778.13281.89547.89547,0,0,0-.32617.36231,1.1841,1.1841,0,0,0,0,1.03125.8955.8955,0,0,0,.32617.3623.84881.84881,0,0,0,.46778.13281A.88834.88834,0,0,0,112.554,18.17272Z"/><path class="cls-2" d="M116.20242,16.10925a.14578.14578,0,0,1,.041.10742v2.0791a1.24329,1.24329,0,0,1-.15625.64063,1.02786,1.02786,0,0,1-.42676.40527,1.34206,1.34206,0,0,1-.62207.13965,1.57845,1.57845,0,0,1-.35254-.043,1.47241,1.47241,0,0,1-.31641-.11035c-.08789-.04492-.13867-.0918-.15137-.13965a.1051.1051,0,0,1-.0332-.07715.08617.08617,0,0,1,.043-.07617.07552.07552,0,0,1,.04785-.01465.36485.36485,0,0,1,.11035.0332l.10059.04395a1.55977,1.55977,0,0,0,.55664.11523.90428.90428,0,0,0,.66992-.24316.88623.88623,0,0,0,.24219-.65527v-.29688a.88357.88357,0,0,1-.37891.40527,1.08738,1.08738,0,0,1-.543.14649,1.10466,1.10466,0,0,1-.59668-.166,1.16374,1.16374,0,0,1-.42089-.458,1.47692,1.47692,0,0,1,0-1.31054,1.16381,1.16381,0,0,1,.42089-.458,1.0985,1.0985,0,0,1,.59278-.166,1.05818,1.05818,0,0,1,.55371.15137,1.01328,1.01328,0,0,1,.37207.36231v-.30762a.14912.14912,0,0,1,.041-.10547.1377.1377,0,0,1,.10351-.043A.13909.13909,0,0,1,116.20242,16.10925Zm-.67188,2.06347a.85729.85729,0,0,0,.32618-.35937,1.14255,1.14255,0,0,0,.11816-.52539,1.1259,1.1259,0,0,0-.11816-.52344.86376.86376,0,0,0-.32618-.35742.88834.88834,0,0,0-.47265-.12793.8488.8488,0,0,0-.46777.13281.89549.89549,0,0,0-.32618.36231,1.1841,1.1841,0,0,0,0,1.03125.89553.89553,0,0,0,.32618.3623.8488.8488,0,0,0,.46777.13281A.88834.88834,0,0,0,115.53054,18.17272Z"/><path class="cls-2" d="M118.90066,16.1239a.14061.14061,0,0,1,.04.10253V17.58a.95162.95162,0,0,1-.26367.72266,1.01273,1.01273,0,0,1-.72949.25195.99868.99868,0,0,1-.72266-.25195.95811.95811,0,0,1-.26172-.72266V16.22643a.13755.13755,0,0,1,.041-.10253.13977.13977,0,0,1,.10351-.041.14019.14019,0,0,1,.14356.14355V17.58a.63278.63278,0,0,0,.69629.70605.71841.71841,0,0,0,.5205-.17968.70356.70356,0,0,0,.18458-.52637V16.22643a.13758.13758,0,0,1,.041-.10253.13978.13978,0,0,1,.10352-.041A.14133.14133,0,0,1,118.90066,16.1239Z"/><path class="cls-2" d="M121.50711,16.27233a1.08253,1.08253,0,0,1,.209.69336v1.41114a.13506.13506,0,0,1-.04394.10351.14744.14744,0,0,1-.20411,0,.143.143,0,0,1-.04-.10351V16.98034a.78906.78906,0,0,0-.15625-.50684.584.584,0,0,0-.48243-.19433.86359.86359,0,0,0-.6914.35351.58683.58683,0,0,0-.11524.34766v1.39649a.1398.1398,0,0,1-.041.10351.13762.13762,0,0,1-.10254.041.14026.14026,0,0,1-.14453-.14453v-2.1504a.13758.13758,0,0,1,.041-.10253.13981.13981,0,0,1,.10352-.041.14018.14018,0,0,1,.14355.14355v.26465a1.032,1.032,0,0,1,.37207-.34375,1.00455,1.00455,0,0,1,.49707-.13672A.78724.78724,0,0,1,121.50711,16.27233Z"/><path class="cls-2" d="M124.56375,16.1112a.14915.14915,0,0,1,.041.10547v2.16016a.14641.14641,0,0,1-.248.10351.14292.14292,0,0,1-.04-.10351v-.32129a1.01394,1.01394,0,0,1-.36035.36523.97842.97842,0,0,1-.52344.14844,1.03055,1.03055,0,0,1-.57813-.168,1.15943,1.15943,0,0,1-.40332-.46094,1.44824,1.44824,0,0,1-.14648-.65722,1.41084,1.41084,0,0,1,.14941-.65528,1.13809,1.13809,0,0,1,.40528-.4541,1.0706,1.0706,0,0,1,1.09668-.02344.916.916,0,0,1,.36035.36426v-.29785a.15263.15263,0,0,1,.04-.10547.14617.14617,0,0,1,.207,0Zm-.65332,2.05664a.8925.8925,0,0,0,.3125-.36426,1.17945,1.17945,0,0,0,.1123-.5205,1.1405,1.1405,0,0,0-.1123-.50879.89309.89309,0,0,0-.3125-.36231.78745.78745,0,0,0-.44824-.13281.8089.8089,0,0,0-.44922.12988.88942.88942,0,0,0-.31153.35742,1.151,1.151,0,0,0-.11328.51661,1.20628,1.20628,0,0,0,.11035.5205.879.879,0,0,0,.30957.36426.79733.79733,0,0,0,.45411.13281A.78745.78745,0,0,0,123.91043,18.16784Z"/><path class="cls-2" d="M127.345,18.37683a.128.128,0,0,1-.04981.10351.156.156,0,0,1-.09375.041.13039.13039,0,0,1-.10547-.05274l-1.06152-1.123-.35937.30664v.72461a.14028.14028,0,0,1-.14454.14453.13758.13758,0,0,1-.10253-.041.13977.13977,0,0,1-.041-.10351V15.11315a.13977.13977,0,0,1,.041-.10351.1368.1368,0,0,1,.10253-.04.13874.13874,0,0,1,.14454.14355v2.18848l1.38671-1.19531a.13511.13511,0,0,1,.10059-.04785.13312.13312,0,0,1,.09668.04589.14319.14319,0,0,1,.043.09864.15654.15654,0,0,1-.05274.11035l-.98925.83984,1.042,1.11328A.16358.16358,0,0,1,127.345,18.37683Z"/><path class="cls-2" d="M130.00222,16.1112a.14912.14912,0,0,1,.041.10547v2.16016a.14642.14642,0,0,1-.24805.10351.143.143,0,0,1-.04-.10351v-.32129a1.01378,1.01378,0,0,1-.36035.36523.97836.97836,0,0,1-.52343.14844,1.03055,1.03055,0,0,1-.57813-.168,1.15935,1.15935,0,0,1-.40332-.46094,1.44811,1.44811,0,0,1-.14648-.65722,1.41084,1.41084,0,0,1,.14941-.65528,1.138,1.138,0,0,1,.40527-.4541,1.0706,1.0706,0,0,1,1.09668-.02344.91583.91583,0,0,1,.36035.36426v-.29785a.15267.15267,0,0,1,.04-.10547.14617.14617,0,0,1,.207,0Zm-.65332,2.05664a.89235.89235,0,0,0,.3125-.36426,1.17931,1.17931,0,0,0,.11231-.5205,1.14037,1.14037,0,0,0-.11231-.50879.89294.89294,0,0,0-.3125-.36231.78743.78743,0,0,0-.44824-.13281.809.809,0,0,0-.44922.12988.88948.88948,0,0,0-.31152.35742,1.15084,1.15084,0,0,0-.11328.51661,1.20628,1.20628,0,0,0,.11035.5205.879.879,0,0,0,.30957.36426.7973.7973,0,0,0,.4541.13281A.78743.78743,0,0,0,129.3489,18.16784Z"/><path class="cls-2" d="M132.60867,16.27233a1.08253,1.08253,0,0,1,.209.69336v1.41114a.135.135,0,0,1-.04394.10351.14743.14743,0,0,1-.2041,0,.14292.14292,0,0,1-.04-.10351V16.98034a.78906.78906,0,0,0-.15625-.50684.58394.58394,0,0,0-.48242-.19433.86359.86359,0,0,0-.69141.35351.58682.58682,0,0,0-.11523.34766v1.39649a.13981.13981,0,0,1-.041.10351.13761.13761,0,0,1-.10254.041.14028.14028,0,0,1-.14453-.14453v-2.1504a.13755.13755,0,0,1,.041-.10253.13977.13977,0,0,1,.10351-.041.14019.14019,0,0,1,.14356.14355v.26465a1.03188,1.03188,0,0,1,.37207-.34375,1.00452,1.00452,0,0,1,.49707-.13672A.78724.78724,0,0,1,132.60867,16.27233Z"/><path class="cls-2" d="M103.21609,24.13659a.12809.12809,0,0,1-.0498.10352.15593.15593,0,0,1-.09375.041.13039.13039,0,0,1-.10547-.05273l-1.06153-1.123-.35937.30664v.72461a.14026.14026,0,0,1-.14453.14453.1376.1376,0,0,1-.10254-.041.13985.13985,0,0,1-.041-.10352V20.87292a.13985.13985,0,0,1,.041-.10352.13686.13686,0,0,1,.10254-.04.13874.13874,0,0,1,.14453.14356V23.0614l1.38672-1.19532a.1351.1351,0,0,1,.10058-.04785.13311.13311,0,0,1,.09668.0459.14317.14317,0,0,1,.043.09863.15653.15653,0,0,1-.05273.11035l-.98926.83985,1.042,1.11328A.16357.16357,0,0,1,103.21609,24.13659Z"/><path class="cls-2" d="M105.87332,21.871a.14913.14913,0,0,1,.041.10546v2.16016a.14642.14642,0,0,1-.248.10352.143.143,0,0,1-.04-.10352V23.8153a1.01388,1.01388,0,0,1-.36035.36524.97841.97841,0,0,1-.52344.14843,1.03048,1.03048,0,0,1-.57813-.168,1.15933,1.15933,0,0,1-.40332-.46093,1.44831,1.44831,0,0,1-.14648-.65723,1.41083,1.41083,0,0,1,.14941-.65527,1.138,1.138,0,0,1,.40528-.4541A1.0706,1.0706,0,0,1,105.2659,21.91a.9159.9159,0,0,1,.36035.36426v-.29786a.1526.1526,0,0,1,.04-.10546.14617.14617,0,0,1,.207,0ZM105.22,23.92761a.89256.89256,0,0,0,.3125-.36426,1.17946,1.17946,0,0,0,.1123-.52051,1.1405,1.1405,0,0,0-.1123-.50879.89306.89306,0,0,0-.3125-.3623.78746.78746,0,0,0-.44824-.13282.80891.80891,0,0,0-.44922.12989.88929.88929,0,0,0-.31153.35742,1.15093,1.15093,0,0,0-.11328.5166,1.20629,1.20629,0,0,0,.11035.52051.879.879,0,0,0,.30957.36426.79741.79741,0,0,0,.45411.13281A.78752.78752,0,0,0,105.22,23.92761Z"/><path class="cls-2" d="M108.47976,22.0321a1.08243,1.08243,0,0,1,.209.69336v1.41113a.13507.13507,0,0,1-.04395.10352.14746.14746,0,0,1-.2041,0,.143.143,0,0,1-.04-.10352V22.74011a.789.789,0,0,0-.15625-.50684.58392.58392,0,0,0-.48242-.19434.86361.86361,0,0,0-.69141.35352.58682.58682,0,0,0-.11523.34766v1.39648a.13981.13981,0,0,1-.041.10352.13758.13758,0,0,1-.10254.041.14026.14026,0,0,1-.14453-.14453V21.9862a.13761.13761,0,0,1,.041-.10254.1398.1398,0,0,1,.10351-.041.14018.14018,0,0,1,.14356.14355v.26465a1.03187,1.03187,0,0,1,.37207-.34375,1.00455,1.00455,0,0,1,.49707-.13672A.78719.78719,0,0,1,108.47976,22.0321Z"/><path class="cls-2" d="M109.00515,25.19323a.13255.13255,0,0,1-.03808-.09668V25.078a.124.124,0,0,1,.0332-.08887.15586.15586,0,0,1,.09082-.0459.53617.53617,0,0,0,.2959-.15625.45442.45442,0,0,0,.11719-.32812V21.98132a.14405.14405,0,1,1,.28808,0v2.52051a.71485.71485,0,0,1-.36718.64062.66019.66019,0,0,1-.32422.08887A.13031.13031,0,0,1,109.00515,25.19323Zm.49414-3.78027a.16449.16449,0,0,1-.05273-.13184v-.04785a.1636.1636,0,0,1,.05566-.13281.22942.22942,0,0,1,.15137-.04492c.12793,0,.19141.05859.19141.17773v.04785a.16939.16939,0,0,1-.04981.13184.214.214,0,0,1-.14648.0459A.2223.2223,0,0,1,109.49929,21.413Z"/><path class="cls-2" d="M110.58426,21.41784a.162.162,0,0,1-.05372-.13184v-.04785a.16359.16359,0,0,1,.05567-.13281.23124.23124,0,0,1,.15137-.04492c.12793,0,.1914.05859.1914.17773V21.286a.16941.16941,0,0,1-.0498.13184.21406.21406,0,0,1-.14649.0459A.21948.21948,0,0,1,110.58426,21.41784Zm.25195,2.82227a.14136.14136,0,0,1-.10352.041.14026.14026,0,0,1-.14453-.14453v-2.208a.14022.14022,0,0,1,.14453-.14355.13866.13866,0,0,1,.14356.14355v2.208A.143.143,0,0,1,110.83621,24.24011Z"/><path class="cls-2" d="M113.41629,22.10632v1.6084a.34312.34312,0,0,0,.06738.24707.243.243,0,0,0,.17676.06445.28172.28172,0,0,0,.07226-.01172.28477.28477,0,0,1,.06739-.01172.09282.09282,0,0,1,.07421.03613.12428.12428,0,0,1,.03125.084.13186.13186,0,0,1-.07617.1123.35445.35445,0,0,1-.18261.0459.96471.96471,0,0,1-.23047-.02441.3619.3619,0,0,1-.19434-.14356.62622.62622,0,0,1-.09375-.38379v-1.623h-.35058a.14042.14042,0,0,1-.09864-.03809.12474.12474,0,0,1-.04-.0957.12684.12684,0,0,1,.04-.09668.14042.14042,0,0,1,.09864-.03809h.35058v-.5332a.13909.13909,0,0,1,.041-.10254.13759.13759,0,0,1,.10254-.041.14024.14024,0,0,1,.14453.14356v.5332h.47949a.12754.12754,0,0,1,.09375.043.13667.13667,0,0,1,.041.0957.12143.12143,0,0,1-.03808.09375.135.135,0,0,1-.09668.03614Z"/><path class="cls-2" d="M116.56961,23.01159a.13852.13852,0,0,1-.10059.04h-1.81445a1.10322,1.10322,0,0,0,.11816.5166.88265.88265,0,0,0,.33594.35938.96967.96967,0,0,0,.51562.13281.87105.87105,0,0,0,.41309-.09668.86048.86048,0,0,0,.293-.24414.15982.15982,0,0,1,.10059-.04395.11924.11924,0,0,1,.08593.03907.11713.11713,0,0,1,.03907.08593.14338.14338,0,0,1-.04786.10059,1.20955,1.20955,0,0,1-.38671.30762,1.05936,1.05936,0,0,1-.49219.12011,1.31416,1.31416,0,0,1-.65235-.1582,1.1257,1.1257,0,0,1-.44238-.44434,1.33921,1.33921,0,0,1-.1582-.66015,1.4468,1.4468,0,0,1,.15625-.68848,1.11481,1.11481,0,0,1,.415-.45117,1.04765,1.04765,0,0,1,.55175-.15625,1.12677,1.12677,0,0,1,.54.13477,1.07225,1.07225,0,0,1,.41114.39355,1.19316,1.19316,0,0,1,.16308.61426A.13067.13067,0,0,1,116.56961,23.01159Zm-1.58594-.77051a.88958.88958,0,0,0-.30469.55176h1.63672v-.03809a.762.762,0,0,0-.14453-.377.77818.77818,0,0,0-.2998-.24512.87627.87627,0,0,0-.37208-.084A.80387.80387,0,0,0,114.98367,22.24108Z"/><path class="cls-2" d="M118.52762,21.80847a.12518.12518,0,0,1,.07714.11523.15352.15352,0,0,1-.03906.1084.11978.11978,0,0,1-.09082.041.34777.34777,0,0,1-.09375-.02441.41351.41351,0,0,0-.13184-.02344.56642.56642,0,0,0-.35253.13672,1.06056,1.06056,0,0,0-.28809.35254.93523.93523,0,0,0-.11328.43652v1.18555a.13981.13981,0,0,1-.041.10352.13758.13758,0,0,1-.10254.041.14026.14026,0,0,1-.14453-.14453V21.9862a.13757.13757,0,0,1,.041-.10254.1398.1398,0,0,1,.10351-.041.14018.14018,0,0,1,.14356.14355v.42285a1.10343,1.10343,0,0,1,.334-.4541.83113.83113,0,0,1,.52539-.18457A.38132.38132,0,0,1,118.52762,21.80847Z"/><path class="cls-2" d="M118.8782,23.786a.10608.10608,0,0,1,.0625-.0957.10716.10716,0,0,1,.07715-.02832.14638.14638,0,0,1,.10547.04785.89954.89954,0,0,0,.7539.374.737.737,0,0,0,.4004-.10743.351.351,0,0,0,.17089-.31445.33514.33514,0,0,0-.1582-.30273,1.54345,1.54345,0,0,0-.44238-.17285,1.8698,1.8698,0,0,1-.624-.26172.54361.54361,0,0,1-.22558-.47266.5973.5973,0,0,1,.11035-.35254.72713.72713,0,0,1,.30078-.24219,1.022,1.022,0,0,1,.42871-.08691,1.17126,1.17126,0,0,1,.416.0791.88006.88006,0,0,1,.35742.252.11651.11651,0,0,1,.043.09668.12852.12852,0,0,1-.13477.12891.11969.11969,0,0,1-.08593-.03809.758.758,0,0,0-.27344-.19726.87975.87975,0,0,0-.34082-.06641.69041.69041,0,0,0-.38672.10547.353.353,0,0,0-.16113.31641.347.347,0,0,0,.17578.293,1.83473,1.83473,0,0,0,.4873.18261,2.26763,2.26763,0,0,1,.41211.13868.69039.69039,0,0,1,.2666.21582.60675.60675,0,0,1,.10352.37011.58589.58589,0,0,1-.25.49707,1.0104,1.0104,0,0,1-.61914.18457,1.1245,1.1245,0,0,1-.93067-.43652A.21025.21025,0,0,1,118.8782,23.786Z"/><path class="cls-2" d="M123.33719,23.01159a.13852.13852,0,0,1-.10059.04h-1.81445a1.10322,1.10322,0,0,0,.11816.5166.88265.88265,0,0,0,.33594.35938.96967.96967,0,0,0,.51562.13281.87108.87108,0,0,0,.41309-.09668.86048.86048,0,0,0,.293-.24414.1598.1598,0,0,1,.10058-.04395.11925.11925,0,0,1,.08594.03907.11712.11712,0,0,1,.03906.08593.14337.14337,0,0,1-.04785.10059,1.20948,1.20948,0,0,1-.38672.30762,1.05929,1.05929,0,0,1-.49218.12011,1.31416,1.31416,0,0,1-.65235-.1582,1.12563,1.12563,0,0,1-.44238-.44434,1.33921,1.33921,0,0,1-.1582-.66015,1.44668,1.44668,0,0,1,.15625-.68848,1.11474,1.11474,0,0,1,.415-.45117,1.04765,1.04765,0,0,1,.55175-.15625,1.1268,1.1268,0,0,1,.54.13477,1.07216,1.07216,0,0,1,.41113.39355,1.19326,1.19326,0,0,1,.16309.61426A.13067.13067,0,0,1,123.33719,23.01159Zm-1.58594-.77051a.88953.88953,0,0,0-.30469.55176h1.63672v-.03809a.762.762,0,0,0-.14453-.377.77814.77814,0,0,0-.29981-.24512.87619.87619,0,0,0-.37207-.084A.80387.80387,0,0,0,121.75125,22.24108Z"/><path class="cls-2" d="M125.719,21.93347a1.12361,1.12361,0,0,1,.40527.4541,1.43406,1.43406,0,0,1,.14649.65527,1.4574,1.4574,0,0,1-.14649.65527,1.15838,1.15838,0,0,1-.40332.46289,1.0214,1.0214,0,0,1-.57324.168.98655.98655,0,0,1-.50683-.13672,1.11526,1.11526,0,0,1-.377-.3623v.31641a.14593.14593,0,0,1-.041.10547.1322.1322,0,0,1-.10254.043.13429.13429,0,0,1-.10352-.043.14593.14593,0,0,1-.041-.10547V20.8778a.14026.14026,0,0,1,.14453-.14453.13759.13759,0,0,1,.10254.041.1398.1398,0,0,1,.041.10351v1.416a1.00676,1.00676,0,0,1,.36524-.37891.95867.95867,0,0,1,.51367-.14453A1.06369,1.06369,0,0,1,125.719,21.93347Zm-.15137,1.99218a.91179.91179,0,0,0,.31153-.36718,1.16767,1.16767,0,0,0,.11328-.51563,1.15093,1.15093,0,0,0-.11328-.5166.88929.88929,0,0,0-.31153-.35742.81123.81123,0,0,0-.44921-.12989.828.828,0,0,0-.76758.48536,1.26795,1.26795,0,0,0,.002,1.03906.89256.89256,0,0,0,.3125.36426.79424.79424,0,0,0,.45313.13281A.78477.78477,0,0,0,125.56765,23.92565Z"/><path class="cls-2" d="M128.803,21.88366a.14067.14067,0,0,1,.04.10254v1.35352a.9516.9516,0,0,1-.26367.72265,1.01271,1.01271,0,0,1-.72949.252.99869.99869,0,0,1-.72266-.252.95812.95812,0,0,1-.26171-.72265V21.9862a.1376.1376,0,0,1,.041-.10254.13983.13983,0,0,1,.10352-.041.14016.14016,0,0,1,.14355.14355v1.35352a.63279.63279,0,0,0,.69629.70605.71846.71846,0,0,0,.52051-.17969.70353.70353,0,0,0,.18457-.52636V21.9862a.1376.1376,0,0,1,.041-.10254.13984.13984,0,0,1,.10352-.041A.14138.14138,0,0,1,128.803,21.88366Z"/><path class="cls-2" d="M130.07644,22.10632v1.6084a.34307.34307,0,0,0,.06739.24707.243.243,0,0,0,.17675.06445.28172.28172,0,0,0,.07227-.01172.28478.28478,0,0,1,.06738-.01172.09284.09284,0,0,1,.07422.03613.12428.12428,0,0,1,.03125.084.13186.13186,0,0,1-.07617.1123.35452.35452,0,0,1-.18262.0459.96482.96482,0,0,1-.23047-.02441.36192.36192,0,0,1-.19433-.14356.62622.62622,0,0,1-.09375-.38379v-1.623h-.35059a.14039.14039,0,0,1-.09863-.03809.12471.12471,0,0,1-.04-.0957.12681.12681,0,0,1,.04-.09668.14039.14039,0,0,1,.09863-.03809h.35059v-.5332a.13912.13912,0,0,1,.041-.10254.13762.13762,0,0,1,.10254-.041.14022.14022,0,0,1,.14453.14356v.5332h.4795a.12758.12758,0,0,1,.09375.043.13667.13667,0,0,1,.041.0957.12143.12143,0,0,1-.03808.09375.135.135,0,0,1-.09668.03614Z"/><path class="cls-2" d="M131.52469,24.538a.72975.72975,0,0,1-.17579.22558.32644.32644,0,0,1-.206.08887.14533.14533,0,0,1-.08887-.02637.09076.09076,0,0,1-.03613-.0791.07987.07987,0,0,1,.02441-.06738.21122.21122,0,0,1,.07422-.03418.34878.34878,0,0,0,.07422-.02832.2405.2405,0,0,0,.10352-.09863.29277.29277,0,0,0,.03515-.1416.12346.12346,0,0,0-.02832-.08594.0972.0972,0,0,0-.07715-.03418.19923.19923,0,0,0-.1289.043.14238.14238,0,0,1-.05762-.11524.18458.18458,0,0,1,.08594-.15039.30235.30235,0,0,1,.1875-.06543.27673.27673,0,0,1,.2041.0791.29617.29617,0,0,1,.0791.21875A.60258.60258,0,0,1,131.52469,24.538Z"/><path class="cls-2" d="M103.32449,26.53015a.13912.13912,0,0,1,.041.10253v3.26465a.13761.13761,0,0,1-.041.10254.14359.14359,0,0,1-.24707-.10254V29.5614a1.03742,1.03742,0,0,1-.3584.374.94466.94466,0,0,1-.52539.15332,1.03462,1.03462,0,0,1-.57324-.165,1.15217,1.15217,0,0,1-.40527-.459,1.50938,1.50938,0,0,1,0-1.30957,1.15214,1.15214,0,0,1,.40527-.459,1.02552,1.02552,0,0,1,.56836-.165,1.00777,1.00777,0,0,1,.52344.1416.96893.96893,0,0,1,.36523.36719V26.63268a.14221.14221,0,0,1,.04-.10253.15112.15112,0,0,1,.207,0Zm-.65332,3.16015a.87449.87449,0,0,0,.3125-.3623,1.17638,1.17638,0,0,0,.1123-.52051,1.15252,1.15252,0,0,0-.1123-.51367.89951.89951,0,0,0-.3125-.36231.82962.82962,0,0,0-.89746,0,.89725.89725,0,0,0-.31152.36231,1.23223,1.23223,0,0,0,0,1.03222.89725.89725,0,0,0,.31152.36231.83483.83483,0,0,0,.89746.002Z"/><path class="cls-2" d="M104.10476,27.17761a.162.162,0,0,1-.05371-.13184v-.04785a.16028.16028,0,0,1,.05567-.13184.23145.23145,0,0,1,.15136-.0459c.12793,0,.19141.05957.19141.17774v.04785a.16942.16942,0,0,1-.0498.13184.20927.20927,0,0,1-.14649.04589A.21459.21459,0,0,1,104.10476,27.17761Zm.252,2.82226a.14135.14135,0,0,1-.10352.041.13977.13977,0,0,1-.10351-.041.13757.13757,0,0,1-.041-.10254v-2.208a.14028.14028,0,0,1,.14453-.14454.14139.14139,0,0,1,.10352.041.143.143,0,0,1,.04.10352v2.208A.14068.14068,0,0,1,104.35672,29.99987Z"/><path class="cls-2" d="M104.968,29.54675a.10506.10506,0,0,1,.0625-.09571.10383.10383,0,0,1,.07715-.02929.15025.15025,0,0,1,.10547.04785.898.898,0,0,0,.75391.375.72911.72911,0,0,0,.40039-.1084.351.351,0,0,0,.1709-.31445.33356.33356,0,0,0-.15821-.30176,1.54374,1.54374,0,0,0-.44238-.17285,1.86983,1.86983,0,0,1-.624-.26172.5436.5436,0,0,1-.22559-.47266.60024.60024,0,0,1,.11035-.35351.73479.73479,0,0,1,.30078-.24219,1.02173,1.02173,0,0,1,.42872-.08594,1.17125,1.17125,0,0,1,.416.0791.88.88,0,0,1,.35742.252.11583.11583,0,0,1,.043.0957.13031.13031,0,0,1-.04785.10059.12825.12825,0,0,1-.08691.02929.11714.11714,0,0,1-.08594-.03906.76712.76712,0,0,0-.27344-.19629.86292.86292,0,0,0-.34082-.06738.69033.69033,0,0,0-.38672.10547.35352.35352,0,0,0-.16113.31738.34412.34412,0,0,0,.17578.292,1.80155,1.80155,0,0,0,.48731.18262,2.26194,2.26194,0,0,1,.4121.13965.68182.68182,0,0,1,.26661.21582.60177.60177,0,0,1,.10351.36914.58591.58591,0,0,1-.25.49707,1.01038,1.01038,0,0,1-.61914.18457,1.12452,1.12452,0,0,1-.93066-.43652A.20742.20742,0,0,1,104.968,29.54675Z"/><path class="cls-2" d="M109.427,28.77136a.13941.13941,0,0,1-.10059.041H107.512a1.09647,1.09647,0,0,0,.11816.51563.88522.88522,0,0,0,.33594.36035.97818.97818,0,0,0,.51563.13183.88212.88212,0,0,0,.41308-.0957.86269.86269,0,0,0,.293-.24512.16351.16351,0,0,1,.10059-.043.13236.13236,0,0,1,.125.125.14515.14515,0,0,1-.04785.10058,1.20959,1.20959,0,0,1-.38672.30762,1.07034,1.07034,0,0,1-.49219.11914,1.31423,1.31423,0,0,1-.65234-.1582,1.1232,1.1232,0,0,1-.44239-.44336,1.3419,1.3419,0,0,1-.1582-.66016,1.45077,1.45077,0,0,1,.15625-.68945,1.12742,1.12742,0,0,1,.415-.45117,1.05551,1.05551,0,0,1,.55176-.15528,1.13719,1.13719,0,0,1,.54.13379,1.07225,1.07225,0,0,1,.41113.39356,1.19578,1.19578,0,0,1,.16308.61425A.12917.12917,0,0,1,109.427,28.77136Zm-1.58594-.77051a.89212.89212,0,0,0-.30469.55273h1.63672v-.03906a.76561.76561,0,0,0-.14453-.377.77555.77555,0,0,0-.2998-.24414.86188.86188,0,0,0-.37207-.084A.80275.80275,0,0,0,107.84109,28.00085Z"/><path class="cls-2" d="M111.386,27.56921a.12423.12423,0,0,1,.07715.11523.14941.14941,0,0,1-.03906.10742.11975.11975,0,0,1-.09082.041.37333.37333,0,0,1-.09375-.02344.39043.39043,0,0,0-.13184-.02441.57223.57223,0,0,0-.35254.13672,1.07023,1.07023,0,0,0-.28808.35254.939.939,0,0,0-.11328.4375v1.18554a.14019.14019,0,0,1-.14356.14356.13977.13977,0,0,1-.10351-.041.13757.13757,0,0,1-.041-.10254V27.74694a.14028.14028,0,0,1,.14453-.14453.13757.13757,0,0,1,.10254.041.13977.13977,0,0,1,.041.10351v.42188a1.10675,1.10675,0,0,1,.334-.45313.83119.83119,0,0,1,.52539-.18457A.38125.38125,0,0,1,111.386,27.56921Z"/><path class="cls-2" d="M112.39383,27.86706v1.60742a.34152.34152,0,0,0,.06738.24707.23956.23956,0,0,0,.17676.06543.25.25,0,0,0,.07226-.01269.28425.28425,0,0,1,.06739-.01172.09282.09282,0,0,1,.07421.03613.12607.12607,0,0,1,.03125.084.13321.13321,0,0,1-.07617.11329.35424.35424,0,0,1-.18262.04492,1.0205,1.0205,0,0,1-.23046-.02344.36935.36935,0,0,1-.19434-.14453.62626.62626,0,0,1-.09375-.38379V27.86706h-.35059a.13715.13715,0,0,1-.09863-.03906.1344.1344,0,0,1,0-.19141.14129.14129,0,0,1,.09863-.03906h.35059V27.0653a.13977.13977,0,0,1,.041-.10351.13755.13755,0,0,1,.10253-.041.14028.14028,0,0,1,.14454.14453v.53223h.47949a.12521.12521,0,0,1,.09375.04394.135.135,0,0,1,.041.09571.12439.12439,0,0,1-.03808.09375.13941.13941,0,0,1-.09668.03613Z"/><path class="cls-2" d="M115.636,27.63171a.14586.14586,0,0,1,.041.10547v2.16015a.13757.13757,0,0,1-.041.10254.14359.14359,0,0,1-.24707-.10254v-.32226a.99879.99879,0,0,1-.36035.36523.96984.96984,0,0,1-.52344.14844,1.03047,1.03047,0,0,1-.57812-.168,1.1564,1.1564,0,0,1-.40332-.46,1.45228,1.45228,0,0,1-.14649-.6582,1.41369,1.41369,0,0,1,.14942-.65528,1.13509,1.13509,0,0,1,.40527-.45312,1.07374,1.07374,0,0,1,1.09668-.02442.9181.9181,0,0,1,.36035.36524v-.29785a.14928.14928,0,0,1,.04-.10547.14617.14617,0,0,1,.207,0Zm-.65332,2.05664a.89524.89524,0,0,0,.3125-.36524,1.17331,1.17331,0,0,0,.11231-.5205,1.14037,1.14037,0,0,0-.11231-.50879.89936.89936,0,0,0-.3125-.36231.83482.83482,0,0,0-.89746-.002.87666.87666,0,0,0-.31152.35742,1.14661,1.14661,0,0,0-.11328.51563,1.20008,1.20008,0,0,0,.11035.5205.88185.88185,0,0,0,.30957.36524.8041.8041,0,0,0,.4541.13183A.79415.79415,0,0,0,114.98269,29.68835Z"/><path class="cls-2" d="M116.41629,27.17761a.162.162,0,0,1-.05371-.13184v-.04785a.16028.16028,0,0,1,.05566-.13184.23146.23146,0,0,1,.15137-.0459c.12793,0,.1914.05957.1914.17774v.04785a.16942.16942,0,0,1-.0498.13184.20927.20927,0,0,1-.14649.04589A.21455.21455,0,0,1,116.41629,27.17761Zm.25195,2.82226a.14133.14133,0,0,1-.10352.041.13977.13977,0,0,1-.10351-.041.13761.13761,0,0,1-.041-.10254v-2.208a.14028.14028,0,0,1,.14453-.14454.14137.14137,0,0,1,.10352.041.14292.14292,0,0,1,.04.10352v2.208A.14063.14063,0,0,1,116.66824,29.99987Z"/><path class="cls-2" d="M120.86355,27.63171a.14586.14586,0,0,1,.041.10547v2.16015a.13757.13757,0,0,1-.041.10254.14359.14359,0,0,1-.24707-.10254v-.32226a.99887.99887,0,0,1-.36035.36523.96986.96986,0,0,1-.52344.14844,1.03047,1.03047,0,0,1-.57812-.168,1.15632,1.15632,0,0,1-.40332-.46,1.45228,1.45228,0,0,1-.14649-.6582,1.41369,1.41369,0,0,1,.14942-.65528,1.13509,1.13509,0,0,1,.40527-.45312,1.07374,1.07374,0,0,1,1.09668-.02442.91816.91816,0,0,1,.36035.36524v-.29785a.14923.14923,0,0,1,.04-.10547.14617.14617,0,0,1,.207,0Zm-.65332,2.05664a.89531.89531,0,0,0,.3125-.36524,1.17331,1.17331,0,0,0,.11231-.5205,1.14037,1.14037,0,0,0-.11231-.50879.89943.89943,0,0,0-.3125-.36231.83482.83482,0,0,0-.89746-.002.87666.87666,0,0,0-.31152.35742,1.14661,1.14661,0,0,0-.11328.51563,1.20008,1.20008,0,0,0,.11035.5205.88185.88185,0,0,0,.30957.36524.8041.8041,0,0,0,.4541.13183A.79415.79415,0,0,0,120.21023,29.68835Z"/><path class="cls-2" d="M122.97781,27.56921a.12423.12423,0,0,1,.07715.11523.14941.14941,0,0,1-.03906.10742.11977.11977,0,0,1-.09082.041.37323.37323,0,0,1-.09375-.02344.39043.39043,0,0,0-.13184-.02441.57221.57221,0,0,0-.35254.13672,1.0701,1.0701,0,0,0-.28808.35254.939.939,0,0,0-.11329.4375v1.18554a.14018.14018,0,0,1-.14355.14356.13981.13981,0,0,1-.10352-.041.1376.1376,0,0,1-.041-.10254V27.74694a.14026.14026,0,0,1,.14453-.14453.13759.13759,0,0,1,.10254.041.1398.1398,0,0,1,.041.10351v.42188a1.10668,1.10668,0,0,1,.334-.45313.83119.83119,0,0,1,.52539-.18457A.38128.38128,0,0,1,122.97781,27.56921Z"/><path class="cls-2" d="M123.98562,27.86706v1.60742a.34146.34146,0,0,0,.06739.24707.23955.23955,0,0,0,.17675.06543.25009.25009,0,0,0,.07227-.01269.28426.28426,0,0,1,.06738-.01172.09284.09284,0,0,1,.07422.03613.12607.12607,0,0,1,.03125.084.13321.13321,0,0,1-.07617.11329.35426.35426,0,0,1-.18262.04492,1.02066,1.02066,0,0,1-.23047-.02344.36937.36937,0,0,1-.19433-.14453.62626.62626,0,0,1-.09375-.38379V27.86706H123.347a.13713.13713,0,0,1-.09863-.03906.1344.1344,0,0,1,0-.19141.14127.14127,0,0,1,.09863-.03906h.35059V27.0653a.1398.1398,0,0,1,.041-.10351.13759.13759,0,0,1,.10254-.041.14026.14026,0,0,1,.14453.14453v.53223h.4795a.12521.12521,0,0,1,.09375.04394.135.135,0,0,1,.041.09571.12436.12436,0,0,1-.03809.09375.13937.13937,0,0,1-.09667.03613Z"/><path class="cls-2" d="M125.11844,27.17761a.162.162,0,0,1-.05372-.13184v-.04785a.16028.16028,0,0,1,.05567-.13184.23146.23146,0,0,1,.15137-.0459c.12793,0,.1914.05957.1914.17774v.04785a.16942.16942,0,0,1-.0498.13184.20927.20927,0,0,1-.14649.04589A.21455.21455,0,0,1,125.11844,27.17761Zm.25195,2.82226a.14135.14135,0,0,1-.10352.041.13977.13977,0,0,1-.10351-.041.13757.13757,0,0,1-.041-.10254v-2.208a.14028.14028,0,0,1,.14453-.14454.14139.14139,0,0,1,.10352.041.14292.14292,0,0,1,.04.10352v2.208A.14063.14063,0,0,1,125.37039,29.99987Z"/><path class="cls-2" d="M103.32449,32.28991a.13913.13913,0,0,1,.041.10254V35.6571a.13762.13762,0,0,1-.041.10254.14359.14359,0,0,1-.24707-.10254v-.33594a1.03726,1.03726,0,0,1-.3584.374.94466.94466,0,0,1-.52539.15332,1.03461,1.03461,0,0,1-.57324-.165,1.15227,1.15227,0,0,1-.40527-.459,1.50938,1.50938,0,0,1,0-1.30957,1.15217,1.15217,0,0,1,.40527-.459,1.02552,1.02552,0,0,1,.56836-.165,1.00767,1.00767,0,0,1,.52344.1416.96893.96893,0,0,1,.36523.36719V32.39245a.14222.14222,0,0,1,.04-.10254.15115.15115,0,0,1,.207,0Zm-.65332,3.16016a.87446.87446,0,0,0,.3125-.36231,1.17632,1.17632,0,0,0,.1123-.52051,1.15255,1.15255,0,0,0-.1123-.51367.89948.89948,0,0,0-.3125-.3623.82957.82957,0,0,0-.89746,0,.89722.89722,0,0,0-.31152.3623,1.23225,1.23225,0,0,0,0,1.03223.89722.89722,0,0,0,.31152.3623.83481.83481,0,0,0,.89746.002Z"/><path class="cls-2" d="M106.21414,33.39147a.14591.14591,0,0,1,.041.10547V35.6571a.13762.13762,0,0,1-.041.10254.14359.14359,0,0,1-.24707-.10254v-.32227a.999.999,0,0,1-.36035.36524.96987.96987,0,0,1-.52344.14843,1.03055,1.03055,0,0,1-.57813-.168,1.15654,1.15654,0,0,1-.40332-.46,1.45245,1.45245,0,0,1-.14648-.65821,1.41365,1.41365,0,0,1,.14941-.65527A1.13522,1.13522,0,0,1,104.51,33.454a1.07377,1.07377,0,0,1,1.09668-.02441.91814.91814,0,0,1,.36035.36523v-.29785a.14925.14925,0,0,1,.04-.10547.14617.14617,0,0,1,.207,0Zm-.65332,2.05664a.89542.89542,0,0,0,.3125-.36523,1.17352,1.17352,0,0,0,.1123-.52051,1.14053,1.14053,0,0,0-.1123-.50879.89948.89948,0,0,0-.3125-.3623.83477.83477,0,0,0-.89746-.002.87655.87655,0,0,0-.31153.35742,1.1467,1.1467,0,0,0-.11328.51562,1.20016,1.20016,0,0,0,.11035.52051.88188.88188,0,0,0,.30957.36523.80414.80414,0,0,0,.45411.13184A.79418.79418,0,0,0,105.56082,35.44811Z"/><path class="cls-2" d="M108.82058,33.55163a1.08533,1.08533,0,0,1,.209.69434V35.6571a.133.133,0,0,1-.044.10254.14214.14214,0,0,1-.24414-.10254V34.25964a.788.788,0,0,0-.15625-.50586.58107.58107,0,0,0-.48242-.19434.85916.85916,0,0,0-.69141.35254.59114.59114,0,0,0-.11523.34766V35.6571a.14018.14018,0,0,1-.14355.14355.13981.13981,0,0,1-.10352-.041.13762.13762,0,0,1-.041-.10254V33.50671a.14026.14026,0,0,1,.14454-.14453.13758.13758,0,0,1,.10253.041.13981.13981,0,0,1,.041.10352v.26367a1.02117,1.02117,0,0,1,.37207-.34277.99441.99441,0,0,1,.49707-.13672A.78959.78959,0,0,1,108.82058,33.55163Z"/><path class="cls-2" d="M111.71023,32.62292a.42455.42455,0,0,0-.084.27832v.49512h.53711a.13392.13392,0,0,1,.09375.03808.12559.12559,0,0,1,.041.09571.12768.12768,0,0,1-.041.09668.13392.13392,0,0,1-.09375.03808h-.53711V35.6571a.13759.13759,0,0,1-.041.10254.14991.14991,0,0,1-.206,0,.13759.13759,0,0,1-.041-.10254V33.66491h-.35058a.12559.12559,0,0,1-.09571-.041.13392.13392,0,0,1-.03808-.09375.12726.12726,0,0,1,.03808-.09766.13274.13274,0,0,1,.09571-.03613h.35058v-.49512a.615.615,0,0,1,.17481-.46777.65557.65557,0,0,1,.46875-.165.76076.76076,0,0,1,.249.04c.07715.02734.11523.07128.11523.13281a.1303.1303,0,0,1-.03808.0957.12023.12023,0,0,1-.08692.03809.31485.31485,0,0,1-.10546-.02344.66436.66436,0,0,0-.168-.0293A.293.293,0,0,0,111.71023,32.62292Z"/><path class="cls-2" d="M114.72488,33.40319a.143.143,0,0,1,.04.10352v1.35351a.95308.95308,0,0,1-.26367.72266,1.01273,1.01273,0,0,1-.72949.25195.99867.99867,0,0,1-.72266-.25195.95958.95958,0,0,1-.26172-.72266V33.50671a.14026.14026,0,0,1,.14453-.14453.1376.1376,0,0,1,.10254.041.13985.13985,0,0,1,.041.10352v1.35351a.63263.63263,0,0,0,.69629.70508.71426.71426,0,0,0,.5205-.17969.70115.70115,0,0,0,.18457-.52539V33.50671a.14026.14026,0,0,1,.14454-.14453A.14136.14136,0,0,1,114.72488,33.40319Z"/><path class="cls-2" d="M116.83816,33.329a.12424.12424,0,0,1,.07715.11524.14942.14942,0,0,1-.03906.10742.1198.1198,0,0,1-.09082.041.37379.37379,0,0,1-.09375-.02344.39045.39045,0,0,0-.13184-.02442.57221.57221,0,0,0-.35254.13672,1.07043,1.07043,0,0,0-.28808.35254.939.939,0,0,0-.11328.4375V35.6571a.14018.14018,0,0,1-.14356.14355.1398.1398,0,0,1-.10351-.041.13759.13759,0,0,1-.041-.10254V33.50671a.14026.14026,0,0,1,.14453-.14453.1376.1376,0,0,1,.10254.041.13985.13985,0,0,1,.041.10352v.42187a1.10663,1.10663,0,0,1,.334-.45312.83113.83113,0,0,1,.52539-.18457A.38128.38128,0,0,1,116.83816,33.329Z"/><path class="cls-2" d="M117.35281,32.93737a.162.162,0,0,1-.05371-.13183v-.04786a.16026.16026,0,0,1,.05566-.13183.23148.23148,0,0,1,.15137-.0459c.12793,0,.19141.05957.19141.17773v.04786a.16937.16937,0,0,1-.04981.13183.20926.20926,0,0,1-.14648.0459A.21458.21458,0,0,1,117.35281,32.93737Zm.25195,2.82227a.14136.14136,0,0,1-.10351.041.13984.13984,0,0,1-.10352-.041.13762.13762,0,0,1-.041-.10254v-2.208a.14026.14026,0,0,1,.14453-.14453.14133.14133,0,0,1,.10351.041.14292.14292,0,0,1,.04.10351v2.208A.14065.14065,0,0,1,117.60476,35.75964Z"/><path class="cls-2" d="M120.56961,33.38854a.14657.14657,0,0,1,.041.1084v2.07813a1.23821,1.23821,0,0,1-.15625.64062,1.03,1.03,0,0,1-.42675.40625,1.34165,1.34165,0,0,1-.62208.13867,1.52371,1.52371,0,0,1-.35253-.043,1.37286,1.37286,0,0,1-.31641-.11036c-.08789-.04492-.13867-.09082-.15137-.13964a.1046.1046,0,0,1-.0332-.07618.08771.08771,0,0,1,.043-.07714.0755.0755,0,0,1,.04785-.01465.37744.37744,0,0,1,.11035.03418l.10059.043a1.539,1.539,0,0,0,.55664.11523.90772.90772,0,0,0,.66992-.24219.88776.88776,0,0,0,.24219-.65527v-.29785a.879.879,0,0,1-.37891.40527,1.08737,1.08737,0,0,1-.543.14648,1.1039,1.1039,0,0,1-.59668-.165,1.16668,1.16668,0,0,1-.4209-.459,1.47484,1.47484,0,0,1,0-1.30957,1.16658,1.16658,0,0,1,.4209-.459,1.09771,1.09771,0,0,1,.59278-.165,1.05724,1.05724,0,0,1,.55371.15039,1.0154,1.0154,0,0,1,.37207.36328v-.30762a.14591.14591,0,0,1,.041-.10547.1343.1343,0,0,1,.10352-.043A.14229.14229,0,0,1,120.56961,33.38854Zm-.67188,2.06446a.86572.86572,0,0,0,.32617-.36035,1.22271,1.22271,0,0,0,0-1.04883.86968.86968,0,0,0-.32617-.35742.88758.88758,0,0,0-.47265-.127.8562.8562,0,0,0-.46778.13184.90177.90177,0,0,0-.32617.3623,1.18624,1.18624,0,0,0,0,1.03223.90177.90177,0,0,0,.32617.3623.8562.8562,0,0,0,.46778.13184A.88767.88767,0,0,0,119.89773,35.453Z"/><path class="cls-2" d="M123.4407,33.39147a.14592.14592,0,0,1,.041.10547V35.6571a.13762.13762,0,0,1-.041.10254.14359.14359,0,0,1-.24707-.10254v-.32227a.999.999,0,0,1-.36035.36524.96987.96987,0,0,1-.52344.14843,1.03051,1.03051,0,0,1-.57812-.168,1.15639,1.15639,0,0,1-.40332-.46,1.45233,1.45233,0,0,1-.14649-.65821,1.41365,1.41365,0,0,1,.14942-.65527,1.13512,1.13512,0,0,1,.40527-.45313,1.07377,1.07377,0,0,1,1.09668-.02441.91808.91808,0,0,1,.36035.36523v-.29785a.14925.14925,0,0,1,.04-.10547.14617.14617,0,0,1,.207,0Zm-.65332,2.05664a.89535.89535,0,0,0,.3125-.36523,1.17339,1.17339,0,0,0,.11231-.52051,1.1404,1.1404,0,0,0-.11231-.50879.8994.8994,0,0,0-.3125-.3623.83477.83477,0,0,0-.89746-.002.87653.87653,0,0,0-.31152.35742,1.14657,1.14657,0,0,0-.11328.51562,1.2,1.2,0,0,0,.11035.52051.88181.88181,0,0,0,.30957.36523.80411.80411,0,0,0,.4541.13184A.79418.79418,0,0,0,122.78738,35.44811Z"/><path class="cls-2" d="M126.04715,33.55163a1.08538,1.08538,0,0,1,.209.69434V35.6571a.133.133,0,0,1-.04394.10254.14214.14214,0,0,1-.24415-.10254V34.25964a.788.788,0,0,0-.15625-.50586.58106.58106,0,0,0-.48242-.19434.85912.85912,0,0,0-.6914.35254.59109.59109,0,0,0-.11524.34766V35.6571a.14016.14016,0,0,1-.14355.14355.13984.13984,0,0,1-.10352-.041.13762.13762,0,0,1-.041-.10254V33.50671a.14025.14025,0,0,1,.14453-.14453.13762.13762,0,0,1,.10254.041.13984.13984,0,0,1,.041.10352v.26367a1.02125,1.02125,0,0,1,.37207-.34277.99441.99441,0,0,1,.49707-.13672A.78962.78962,0,0,1,126.04715,33.55163Z"/><path class="cls-2" d="M129.10476,33.39147a.14588.14588,0,0,1,.041.10547V35.6571a.13759.13759,0,0,1-.041.10254.14359.14359,0,0,1-.24707-.10254v-.32227a.99889.99889,0,0,1-.36035.36524.96983.96983,0,0,1-.52344.14843,1.03054,1.03054,0,0,1-.57812-.168,1.15646,1.15646,0,0,1-.40332-.46,1.45233,1.45233,0,0,1-.14649-.65821,1.41365,1.41365,0,0,1,.14942-.65527,1.13512,1.13512,0,0,1,.40527-.45313,1.07377,1.07377,0,0,1,1.09668-.02441.918.918,0,0,1,.36035.36523v-.29785a.14929.14929,0,0,1,.04-.10547.14617.14617,0,0,1,.207,0Zm-.65332,2.05664a.89528.89528,0,0,0,.3125-.36523,1.17339,1.17339,0,0,0,.11231-.52051,1.1404,1.1404,0,0,0-.11231-.50879.89933.89933,0,0,0-.3125-.3623.83477.83477,0,0,0-.89746-.002.87653.87653,0,0,0-.31152.35742,1.14657,1.14657,0,0,0-.11328.51562,1.20016,1.20016,0,0,0,.11035.52051.88188.88188,0,0,0,.30957.36523.80411.80411,0,0,0,.4541.13184A.79415.79415,0,0,0,128.45144,35.44811Z"/><path class="cls-2" d="M102.31863,42.46374a2.06907,2.06907,0,0,1-.90039-.876,2.60246,2.60246,0,0,1-.31348-1.25976,2.44944,2.44944,0,0,1,1.21875-2.13672.13514.13514,0,0,1,.06739-.01856.11664.11664,0,0,1,.08886.04.13648.13648,0,0,1,.03614.08887.13237.13237,0,0,1-.05762.11035,2.04137,2.04137,0,0,0-.7832.81152,2.28991,2.28991,0,0,0-.28321,1.1045,2.36556,2.36556,0,0,0,.27832,1.11816,1.89232,1.89232,0,0,0,.78809.80176.10644.10644,0,0,1,.05762.10547.13291.13291,0,0,1-.03418.09082.11516.11516,0,0,1-.09082.03808A.16208.16208,0,0,1,102.31863,42.46374Z"/><path class="cls-2" d="M104.50515,39.10143a.9047.9047,0,0,1,.31153.13672.24035.24035,0,0,1,.11816.18653.15038.15038,0,0,1-.03613.09668.11327.11327,0,0,1-.08887.043.1482.1482,0,0,1-.0791-.01954.36571.36571,0,0,1-.07031-.05761.48869.48869,0,0,0-.11914-.09082.81518.81518,0,0,0-.19043-.05567,1.45965,1.45965,0,0,0-.252-.02148.90107.90107,0,0,0-.48242.13476.94934.94934,0,0,0-.34277.36524,1.05247,1.05247,0,0,0-.125.50879,1.102,1.102,0,0,0,.12012.51758.9067.9067,0,0,0,.334.3623.89755.89755,0,0,0,.48633.13281,1.04629,1.04629,0,0,0,.27637-.02929,1.058,1.058,0,0,0,.2041-.08106,1.03891,1.03891,0,0,0,.11523-.08691.39077.39077,0,0,1,.06738-.04981.11619.11619,0,0,1,.0625-.01758.12052.12052,0,0,1,.09082.03614.13269.13269,0,0,1,.03321.09375.24709.24709,0,0,1-.11426.1748,1.0109,1.0109,0,0,1-.31738.16113,1.4031,1.4031,0,0,1-.44629.06739,1.183,1.183,0,0,1-.624-.166,1.12515,1.12515,0,0,1-.4248-.458,1.41343,1.41343,0,0,1-.15137-.65722,1.36186,1.36186,0,0,1,.15332-.6416,1.18224,1.18224,0,0,1,1.07129-.63575A1.64408,1.64408,0,0,1,104.50515,39.10143Z"/><path class="cls-2" d="M107.58719,39.15124a.14915.14915,0,0,1,.041.10547v2.16015a.14642.14642,0,0,1-.24805.10352.143.143,0,0,1-.04-.10352v-.32128a1.01389,1.01389,0,0,1-.36036.36523.97836.97836,0,0,1-.52343.14844,1.03055,1.03055,0,0,1-.57813-.168,1.15935,1.15935,0,0,1-.40332-.46094,1.44812,1.44812,0,0,1-.14648-.65723,1.41083,1.41083,0,0,1,.14941-.65527,1.13794,1.13794,0,0,1,.40527-.4541,1.0706,1.0706,0,0,1,1.09668-.02344.91592.91592,0,0,1,.36036.36426v-.29785a.15266.15266,0,0,1,.04-.10547.14618.14618,0,0,1,.207,0Zm-.65332,2.05664a.8925.8925,0,0,0,.3125-.36426,1.17946,1.17946,0,0,0,.1123-.52051,1.14049,1.14049,0,0,0-.1123-.50878.89309.89309,0,0,0-.3125-.36231.78748.78748,0,0,0-.44825-.13281.809.809,0,0,0-.44922.12988.88941.88941,0,0,0-.31152.35742,1.151,1.151,0,0,0-.11328.5166,1.20629,1.20629,0,0,0,.11035.52051.879.879,0,0,0,.30957.36426.7973.7973,0,0,0,.4541.13281A.78748.78748,0,0,0,106.93387,41.20788Z"/><path class="cls-2" d="M109.70144,39.08874a.1252.1252,0,0,1,.07715.11523.15349.15349,0,0,1-.03906.1084.11975.11975,0,0,1-.09082.041.34744.34744,0,0,1-.09375-.02442.41349.41349,0,0,0-.13184-.02343.56649.56649,0,0,0-.35254.13671,1.06063,1.06063,0,0,0-.28808.35254.93524.93524,0,0,0-.11328.43653v1.18554a.13982.13982,0,0,1-.041.10352.13761.13761,0,0,1-.10254.041.14028.14028,0,0,1-.14453-.14454V39.26647a.13759.13759,0,0,1,.041-.10254.1398.1398,0,0,1,.10351-.041.14018.14018,0,0,1,.14356.14355v.42286a1.10346,1.10346,0,0,1,.334-.45411.83119.83119,0,0,1,.52539-.18457A.38128.38128,0,0,1,109.70144,39.08874Z"/><path class="cls-2" d="M112.26687,39.15124a.14912.14912,0,0,1,.041.10547v2.16015a.14642.14642,0,0,1-.24805.10352.14292.14292,0,0,1-.04-.10352v-.32128a1.01386,1.01386,0,0,1-.36035.36523.97839.97839,0,0,1-.52344.14844,1.03055,1.03055,0,0,1-.57812-.168,1.15927,1.15927,0,0,1-.40332-.46094,1.44813,1.44813,0,0,1-.14649-.65723,1.41083,1.41083,0,0,1,.14942-.65527,1.13787,1.13787,0,0,1,.40527-.4541,1.0706,1.0706,0,0,1,1.09668-.02344.9159.9159,0,0,1,.36035.36426v-.29785a.15263.15263,0,0,1,.04-.10547.14617.14617,0,0,1,.207,0Zm-.65332,2.05664a.89235.89235,0,0,0,.3125-.36426,1.17933,1.17933,0,0,0,.11231-.52051,1.14036,1.14036,0,0,0-.11231-.50878.89294.89294,0,0,0-.3125-.36231.78743.78743,0,0,0-.44824-.13281.80893.80893,0,0,0-.44922.12988.88934.88934,0,0,0-.31152.35742,1.15083,1.15083,0,0,0-.11328.5166,1.20629,1.20629,0,0,0,.11035.52051.879.879,0,0,0,.30957.36426.7973.7973,0,0,0,.4541.13281A.78743.78743,0,0,0,111.61355,41.20788Z"/><path class="cls-2" d="M116.11453,39.21374a1.12368,1.12368,0,0,1,.40527.4541,1.43406,1.43406,0,0,1,.14649.65527,1.45747,1.45747,0,0,1-.14649.65528,1.15845,1.15845,0,0,1-.40332.46289,1.0215,1.0215,0,0,1-.57324.168.98668.98668,0,0,1-.50684-.13672,1.11544,1.11544,0,0,1-.37695-.36231v.31641a.14591.14591,0,0,1-.041.10547.13218.13218,0,0,1-.10254.043.13423.13423,0,0,1-.10352-.043.14591.14591,0,0,1-.041-.10547V38.15808a.14026.14026,0,0,1,.14453-.14454.13762.13762,0,0,1,.10254.041.13981.13981,0,0,1,.041.10352v1.416a1.00683,1.00683,0,0,1,.36524-.37891.95867.95867,0,0,1,.51367-.14453A1.06372,1.06372,0,0,1,116.11453,39.21374Zm-.15137,1.99219a.912.912,0,0,0,.31153-.36719,1.16764,1.16764,0,0,0,.11328-.51563,1.151,1.151,0,0,0-.11328-.5166.88943.88943,0,0,0-.31153-.35742.81123.81123,0,0,0-.44922-.12988.828.828,0,0,0-.76757.48535,1.26785,1.26785,0,0,0,.002,1.03906.89242.89242,0,0,0,.3125.36426.79415.79415,0,0,0,.45312.13281A.78485.78485,0,0,0,115.96316,41.20593Z"/><path class="cls-2" d="M119.35574,39.15124a.14916.14916,0,0,1,.041.10547v2.16015a.14642.14642,0,0,1-.24805.10352.14292.14292,0,0,1-.04-.10352v-.32128a1.01394,1.01394,0,0,1-.36035.36523.97842.97842,0,0,1-.52344.14844,1.0305,1.0305,0,0,1-.57812-.168,1.15927,1.15927,0,0,1-.40332-.46094,1.44813,1.44813,0,0,1-.14649-.65723,1.41083,1.41083,0,0,1,.14942-.65527,1.13787,1.13787,0,0,1,.40527-.4541,1.0706,1.0706,0,0,1,1.09668-.02344.916.916,0,0,1,.36035.36426v-.29785a.15263.15263,0,0,1,.04-.10547.14617.14617,0,0,1,.207,0Zm-.65332,2.05664a.8925.8925,0,0,0,.3125-.36426,1.17932,1.17932,0,0,0,.1123-.52051,1.14035,1.14035,0,0,0-.1123-.50878.89309.89309,0,0,0-.3125-.36231.78745.78745,0,0,0-.44824-.13281.80893.80893,0,0,0-.44922.12988.88934.88934,0,0,0-.31152.35742,1.15083,1.15083,0,0,0-.11329.5166,1.20615,1.20615,0,0,0,.11036.52051.87884.87884,0,0,0,.30957.36426.7973.7973,0,0,0,.4541.13281A.78745.78745,0,0,0,118.70242,41.20788Z"/><path class="cls-2" d="M121.63113,39.10143a.90455.90455,0,0,1,.31152.13672.24033.24033,0,0,1,.11817.18653.15043.15043,0,0,1-.03613.09668.11329.11329,0,0,1-.08887.043.14815.14815,0,0,1-.0791-.01954.36573.36573,0,0,1-.07032-.05761.48832.48832,0,0,0-.11914-.09082.81488.81488,0,0,0-.19043-.05567,1.45953,1.45953,0,0,0-.252-.02148.90107.90107,0,0,0-.48242.13476.94927.94927,0,0,0-.34277.36524,1.05247,1.05247,0,0,0-.125.50879,1.102,1.102,0,0,0,.12011.51758.90679.90679,0,0,0,.334.3623.89752.89752,0,0,0,.48633.13281,1.0462,1.0462,0,0,0,.27636-.02929,1.05748,1.05748,0,0,0,.2041-.08106,1.03872,1.03872,0,0,0,.11524-.08691.39077.39077,0,0,1,.06738-.04981.11619.11619,0,0,1,.0625-.01758.12052.12052,0,0,1,.09082.03614.13273.13273,0,0,1,.0332.09375.24707.24707,0,0,1-.11425.1748,1.01085,1.01085,0,0,1-.31739.16113,1.403,1.403,0,0,1-.44629.06739,1.183,1.183,0,0,1-.624-.166,1.125,1.125,0,0,1-.4248-.458,1.41343,1.41343,0,0,1-.15137-.65722,1.36186,1.36186,0,0,1,.15332-.6416,1.18224,1.18224,0,0,1,1.07129-.63575A1.64408,1.64408,0,0,1,121.63113,39.10143Z"/><path class="cls-2" d="M124.71316,39.15124a.14912.14912,0,0,1,.041.10547v2.16015a.14642.14642,0,0,1-.24805.10352.14292.14292,0,0,1-.04-.10352v-.32128a1.01386,1.01386,0,0,1-.36035.36523.97839.97839,0,0,1-.52344.14844,1.03055,1.03055,0,0,1-.57812-.168,1.15927,1.15927,0,0,1-.40332-.46094,1.44813,1.44813,0,0,1-.14649-.65723,1.41083,1.41083,0,0,1,.14942-.65527,1.13787,1.13787,0,0,1,.40527-.4541,1.0706,1.0706,0,0,1,1.09668-.02344.9159.9159,0,0,1,.36035.36426v-.29785a.15263.15263,0,0,1,.04-.10547.14617.14617,0,0,1,.207,0Zm-.65332,2.05664a.89242.89242,0,0,0,.3125-.36426,1.17933,1.17933,0,0,0,.11231-.52051,1.14036,1.14036,0,0,0-.11231-.50878.893.893,0,0,0-.3125-.36231.78743.78743,0,0,0-.44824-.13281.80893.80893,0,0,0-.44922.12988.88934.88934,0,0,0-.31152.35742,1.15083,1.15083,0,0,0-.11328.5166,1.20629,1.20629,0,0,0,.11035.52051.879.879,0,0,0,.30957.36426.7973.7973,0,0,0,.4541.13281A.78743.78743,0,0,0,124.05984,41.20788Z"/><path class="cls-2" d="M125.28933,42.43737a.12988.12988,0,0,1-.03613-.08887.12813.12813,0,0,1,.0625-.11035,2.04565,2.04565,0,0,0,.78223-.81152,2.289,2.289,0,0,0,.2832-1.10352,2.34962,2.34962,0,0,0-.28125-1.11914,1.89779,1.89779,0,0,0-.78418-.80078.1073.1073,0,0,1-.05762-.10644.13206.13206,0,0,1,.03321-.09082.10978.10978,0,0,1,.08691-.03809.14128.14128,0,0,1,.07129.01856,2.11787,2.11787,0,0,1,.90234.8789,2.5579,2.5579,0,0,1,.31739,1.25781,2.46018,2.46018,0,0,1-1.21973,2.13575.14239.14239,0,0,1-.07129.01953A.11157.11157,0,0,1,125.28933,42.43737Z"/><path class="cls-2" d="M127.21609,41.51061a.19965.19965,0,0,1-.043-.13671v-.10059a.19274.19274,0,0,1,.043-.13477.15778.15778,0,0,1,.125-.04785h.0332a.15914.15914,0,0,1,.125.04785.19747.19747,0,0,1,.043.13477v.10059a.20463.20463,0,0,1-.043.13671.15445.15445,0,0,1-.125.05079h-.0332A.15315.15315,0,0,1,127.21609,41.51061Z"/><path class="cls-1" d="M67.26687,22.22546a.20013.20013,0,0,1-.1084-.36817L90.31375,6.94274a.19991.19991,0,1,1,.21679.33594L67.37527,22.19323A.20036.20036,0,0,1,67.26687,22.22546Z"/></svg>