<svg id="Layer_1" data-name="Layer 1" xmlns="http://www.w3.org/2000/svg" viewBox="0 0 152 52"><defs><style>.cls-1{fill:#943034;}.cls-2{fill:#933033;}.cls-3{fill:#fff;}</style></defs><path class="cls-1" d="M147.41211,49.97705h-2a.2002.2002,0,1,1,0-.40039h2a.211.211,0,0,1,.06348.01025.20165.20165,0,0,1,.0625-.01464,1.82872,1.82872,0,0,0,1.46582-.9209.2001.2001,0,1,1,.34765.19824,2.23,2.23,0,0,1-1.78613,1.12207.32719.32719,0,0,1-.07715-.00977A.19625.19625,0,0,1,147.41211,49.97705Zm-4,0h-2a.2002.2002,0,1,1,0-.40039h2a.2002.2002,0,0,1,0,.40039Zm-4,0h-2a.2002.2002,0,1,1,0-.40039h2a.2002.2002,0,0,1,0,.40039Zm-4,0h-2a.2002.2002,0,1,1,0-.40039h2a.2002.2002,0,0,1,0,.40039Zm-4,0h-2a.2002.2002,0,1,1,0-.40039h2a.2002.2002,0,0,1,0,.40039Zm-4,0h-2a.2002.2002,0,1,1,0-.40039h2a.2002.2002,0,0,1,0,.40039Zm-4,0h-2a.2002.2002,0,1,1,0-.40039h2a.2002.2002,0,0,1,0,.40039Zm-4,0h-2a.2002.2002,0,1,1,0-.40039h2a.2002.2002,0,0,1,0,.40039Zm-4,0h-2a.2002.2002,0,1,1,0-.40039h2a.2002.2002,0,0,1,0,.40039Zm-4,0h-2a.2002.2002,0,1,1,0-.40039h2a.2002.2002,0,0,1,0,.40039Zm-4,0h-2a.2002.2002,0,1,1,0-.40039h2a.2002.2002,0,0,1,0,.40039Zm-4,0h-2a.2002.2002,0,1,1,0-.40039h2a.2002.2002,0,0,1,0,.40039Zm-4,0h-2a.2002.2002,0,1,1,0-.40039h2a.2002.2002,0,0,1,0,.40039Zm-4,0h-2a.2002.2002,0,1,1,0-.40039h2a.2002.2002,0,0,1,0,.40039Zm-4,0h-2a.2002.2002,0,1,1,0-.40039h2a.2002.2002,0,0,1,0,.40039Zm-4,0h-2a.2002.2002,0,1,1,0-.40039h2a.2002.2002,0,0,1,0,.40039ZM83.6875,49.1333a.2.2,0,0,1-.16211-.083,2.22745,2.22745,0,0,1-.42285-1.30566v-.72949a.2002.2002,0,1,1,.40039,0v.729a1.83241,1.83241,0,0,0,.34668,1.07178.20024.20024,0,0,1-.16211.31738Zm65.75684-2.13525a.20047.20047,0,0,1-.2002-.2002v-2a.2002.2002,0,0,1,.40039,0v2A.20047.20047,0,0,1,149.44434,46.99805ZM83.30273,45.21533a.20046.20046,0,0,1-.20019-.20019v-2a.2002.2002,0,1,1,.40039,0v2A.20046.20046,0,0,1,83.30273,45.21533Zm66.14161-2.21728a.20047.20047,0,0,1-.2002-.2002v-2a.2002.2002,0,0,1,.40039,0v2A.20047.20047,0,0,1,149.44434,42.99805ZM83.30273,41.21533a.20046.20046,0,0,1-.20019-.20019v-2a.2002.2002,0,1,1,.40039,0v2A.20046.20046,0,0,1,83.30273,41.21533Zm66.14161-2.21728a.20047.20047,0,0,1-.2002-.2002v-2a.2002.2002,0,0,1,.40039,0v2A.20047.20047,0,0,1,149.44434,38.99805ZM83.30273,37.21533a.20046.20046,0,0,1-.20019-.20019v-2a.2002.2002,0,1,1,.40039,0v2A.20046.20046,0,0,1,83.30273,37.21533Zm66.14161-2.21728a.20047.20047,0,0,1-.2002-.2002v-2a.2002.2002,0,0,1,.40039,0v2A.20047.20047,0,0,1,149.44434,34.99805ZM83.30273,33.21533a.20046.20046,0,0,1-.20019-.20019v-2a.2002.2002,0,1,1,.40039,0v2A.20046.20046,0,0,1,83.30273,33.21533Zm66.14161-2.21728a.20047.20047,0,0,1-.2002-.2002v-2a.2002.2002,0,0,1,.40039,0v2A.20047.20047,0,0,1,149.44434,30.99805ZM83.30273,29.21533a.20046.20046,0,0,1-.20019-.20019v-2a.2002.2002,0,1,1,.40039,0v2A.20046.20046,0,0,1,83.30273,29.21533Zm66.14161-2.21728a.20047.20047,0,0,1-.2002-.2002v-2a.2002.2002,0,0,1,.40039,0v2A.20047.20047,0,0,1,149.44434,26.99805ZM83.30273,25.21533a.20046.20046,0,0,1-.20019-.20019v-2a.2002.2002,0,1,1,.40039,0v2A.20046.20046,0,0,1,83.30273,25.21533Zm66.14161-2.21728a.20047.20047,0,0,1-.2002-.2002v-2a.2002.2002,0,0,1,.40039,0v2A.20047.20047,0,0,1,149.44434,22.99805ZM83.30273,21.21533a.20046.20046,0,0,1-.20019-.20019v-2a.2002.2002,0,1,1,.40039,0v2A.20046.20046,0,0,1,83.30273,21.21533Zm66.14161-2.21728a.20047.20047,0,0,1-.2002-.2002v-2a.2002.2002,0,0,1,.40039,0v2A.20047.20047,0,0,1,149.44434,18.99805ZM83.30273,17.21533a.20046.20046,0,0,1-.20019-.20019v-2a.2002.2002,0,1,1,.40039,0v2A.20046.20046,0,0,1,83.30273,17.21533Zm66.14161-2.21728a.20047.20047,0,0,1-.2002-.2002v-2a.2002.2002,0,0,1,.40039,0v2A.20047.20047,0,0,1,149.44434,14.99805ZM83.30273,13.21533a.20046.20046,0,0,1-.20019-.20019v-2a.2002.2002,0,1,1,.40039,0v2A.20046.20046,0,0,1,83.30273,13.21533ZM149.44434,10.998a.20047.20047,0,0,1-.2002-.2002V9.13867a1.85932,1.85932,0,0,0-.02539-.30615.19972.19972,0,0,1,.16406-.23047.19439.19439,0,0,1,.23047.16406,2.23018,2.23018,0,0,1,.03125.37256v1.65918A.20047.20047,0,0,1,149.44434,10.998ZM83.30664,9.21533l-.01172-.00049a.2.2,0,0,1-.1875-.21191A2.22746,2.22746,0,0,1,84.21387,7.208a.2.2,0,0,1,.20117.3457,1.8295,1.8295,0,0,0-.90918,1.47363A.19924.19924,0,0,1,83.30664,9.21533Zm64.93262-1.7334a.20338.20338,0,0,1-.082-.01757,1.81167,1.81167,0,0,0-.74512-.15821h-1.14746a.2002.2002,0,1,1,0-.40039h1.14746a2.21927,2.21927,0,0,1,.90918.19336.20025.20025,0,0,1-.082.38281Zm-3.97461-.17578h-2a.2002.2002,0,1,1,0-.40039h2a.2002.2002,0,0,1,0,.40039Zm-4,0h-2a.2002.2002,0,1,1,0-.40039h2a.2002.2002,0,0,1,0,.40039Zm-4,0h-2a.2002.2002,0,1,1,0-.40039h2a.2002.2002,0,0,1,0,.40039Zm-4,0h-2a.2002.2002,0,1,1,0-.40039h2a.2002.2002,0,0,1,0,.40039Zm-4,0h-2a.2002.2002,0,1,1,0-.40039h2a.2002.2002,0,0,1,0,.40039Zm-4,0h-2a.2002.2002,0,1,1,0-.40039h2a.2002.2002,0,0,1,0,.40039Zm-4,0h-2a.2002.2002,0,1,1,0-.40039h2a.2002.2002,0,0,1,0,.40039Zm-4,0h-2a.2002.2002,0,1,1,0-.40039h2a.2002.2002,0,0,1,0,.40039Zm-4,0h-2a.2002.2002,0,1,1,0-.40039h2a.2002.2002,0,0,1,0,.40039Zm-4,0h-2a.2002.2002,0,1,1,0-.40039h2a.2002.2002,0,0,1,0,.40039Zm-4,0h-2a.2002.2002,0,1,1,0-.40039h2a.2002.2002,0,0,1,0,.40039Zm-4,0h-2a.2002.2002,0,1,1,0-.40039h2a.2002.2002,0,0,1,0,.40039Zm-4,0h-2a.2002.2002,0,1,1,0-.40039h2a.2002.2002,0,0,1,0,.40039Zm-4,0h-2a.2002.2002,0,1,1,0-.40039h2a.2002.2002,0,0,1,0,.40039Zm-4,0h-2a.2002.2002,0,1,1,0-.40039h2a.2002.2002,0,0,1,0,.40039Z"/><circle class="cls-2" cx="4.21484" cy="4.21484" r="4.21484"/><path class="cls-3" d="M5.37891,5.75684a.14871.14871,0,0,1,.04589.10888.14609.14609,0,0,1-.04589.11182.15321.15321,0,0,1-.1084.04248H3.2783a.17533.17533,0,0,1-.12205-.04248.14719.14719,0,0,1-.04785-.1167.17652.17652,0,0,1,.042-.11182L4.37793,4.39453a3.16726,3.16726,0,0,0,.44043-.57129.99831.99831,0,0,0,.14355-.49658.746.746,0,0,0-.21777-.56836.84108.84108,0,0,0-.60547-.207.87617.87617,0,0,0-.46484.12451.75183.75183,0,0,0-.30567.37988.165.165,0,0,1-.13769.09571.17491.17491,0,0,1-.11133-.04248.12038.12038,0,0,1-.05371-.09571A.17957.17957,0,0,1,3.08691,2.939a.67007.67007,0,0,1,.05274-.085,1.01335,1.01335,0,0,1,.415-.44629,1.186,1.186,0,0,1,.60547-.15917,1.15633,1.15633,0,0,1,.83886.292,1.01388,1.01388,0,0,1,.30274.76513,1.28411,1.28411,0,0,1-.15918.59766,3.58811,3.58811,0,0,1-.52539.709L3.63965,5.71191H5.27051A.14941.14941,0,0,1,5.37891,5.75684Z"/><path class="cls-2" d="M14.08887,2.91992a.18062.18062,0,0,1-.03321.0957.13553.13553,0,0,1-.11035.05274.14642.14642,0,0,1-.07715-.02393A1.49122,1.49122,0,0,0,13.0283,2.79a1.37752,1.37752,0,0,0-.7031.18262,1.29678,1.29678,0,0,0-.49415.51123,1.52637,1.52637,0,0,0-.17968.74609,1.538,1.538,0,0,0,.18164.75635,1.301,1.301,0,0,0,.49707.50879,1.38475,1.38475,0,0,0,.69822.17968,1.48453,1.48453,0,0,0,.835-.24951.15248.15248,0,0,1,.082-.02392.13117.13117,0,0,1,.11035.05761.13332.13332,0,0,1,.03321.09131.1257.1257,0,0,1-.06641.11524,1.75565,1.75565,0,0,1-.46094.20849,1.8089,1.8089,0,0,1-.53322.084,1.68039,1.68039,0,0,1-.84178-.21826,1.62655,1.62655,0,0,1-.61523-.61182A1.76606,1.76606,0,0,1,11.34375,4.23a1.74841,1.74841,0,0,1,.22559-.88086A1.64522,1.64522,0,0,1,12.17871,2.73a1.66269,1.66269,0,0,1,.84959-.22314,1.81727,1.81727,0,0,1,.52541.07714,1.67176,1.67176,0,0,1,.46387.21582A.1334.1334,0,0,1,14.08887,2.91992Z"/><path class="cls-2" d="M16.73438,5.334a1.16766,1.16766,0,0,1-.43653.4585,1.24066,1.24066,0,0,1-1.23828,0,1.1769,1.1769,0,0,1-.4375-.4585,1.42609,1.42609,0,0,1,0-1.30566,1.19572,1.19572,0,0,1,.4375-.46045,1.22506,1.22506,0,0,1,1.23828,0,1.18622,1.18622,0,0,1,.43653.46045,1.42609,1.42609,0,0,1,0,1.30566Zm-.25-1.17089a.90083.90083,0,0,0-.333-.36231.87845.87845,0,0,0-.47266-.13232.867.867,0,0,0-.4707.13232.93852.93852,0,0,0-.334.36231,1.151,1.151,0,0,0,0,1.03173.93852.93852,0,0,0,.334.36231.867.867,0,0,0,.4707.13232.89324.89324,0,0,0,.80567-.48974,1.17838,1.17838,0,0,0,0-1.03662Z"/><path class="cls-2" d="M19.22559,3.563a1.12242,1.12242,0,0,1,.40527.45361,1.43551,1.43551,0,0,1,.14648.65528,1.45449,1.45449,0,0,1-.14648.65527,1.152,1.152,0,0,1-.40332.46289,1.02153,1.02153,0,0,1-.57324.168.98194.98194,0,0,1-.50684-.13672,1.11075,1.11075,0,0,1-.37695-.36231v.3169a.14749.14749,0,0,1-.041.10547.13384.13384,0,0,1-.10254.043.13594.13594,0,0,1-.10351-.043.14749.14749,0,0,1-.041-.10547v-3.269a.14026.14026,0,0,1,.14453-.144.13757.13757,0,0,1,.10254.041.13943.13943,0,0,1,.041.103v1.416a1.01025,1.01025,0,0,1,.36523-.3789.96248.96248,0,0,1,.51367-.144A1.05957,1.05957,0,0,1,19.22559,3.563Zm-.15137,1.99219a.91513.91513,0,0,0,.31152-.36719,1.16814,1.16814,0,0,0,.11328-.51611,1.14873,1.14873,0,0,0-.11328-.51612.883.883,0,0,0-.31152-.35742.80727.80727,0,0,0-.44922-.12988.82657.82657,0,0,0-.76758.48486,1.2679,1.2679,0,0,0,.002,1.03906.89379.89379,0,0,0,.3125.36475.79752.79752,0,0,0,.45312.13232A.78812.78812,0,0,0,19.07422,5.55518Z"/><path class="cls-2" d="M22.46777,3.50049a.14747.14747,0,0,1,.041.10547V5.76611a.14642.14642,0,0,1-.24805.103.14181.14181,0,0,1-.04-.103V5.44434a1.00631,1.00631,0,0,1-.36035.36523.97408.97408,0,0,1-.52344.14844,1.03055,1.03055,0,0,1-.57812-.168,1.15783,1.15783,0,0,1-.40332-.46045,1.4502,1.4502,0,0,1-.14649-.65771,1.41227,1.41227,0,0,1,.14942-.65528,1.13651,1.13651,0,0,1,.40527-.45361,1.07217,1.07217,0,0,1,1.09668-.02393.917.917,0,0,1,.36035.36475V3.606a.151.151,0,0,1,.04-.10547.14617.14617,0,0,1,.207,0Zm-.65332,2.05664a.89379.89379,0,0,0,.3125-.36475,1.17631,1.17631,0,0,0,.11231-.5205,1.14037,1.14037,0,0,0-.11231-.50879.89614.89614,0,0,0-.3125-.36231.79077.79077,0,0,0-.44824-.13232.805.805,0,0,0-.44922.12988.883.883,0,0,0-.31152.35742,1.14873,1.14873,0,0,0-.11328.51612,1.20317,1.20317,0,0,0,.11035.5205.88042.88042,0,0,0,.30957.36475.80068.80068,0,0,0,.4541.13232A.79077.79077,0,0,0,21.81445,5.55713Z"/><path class="cls-2" d="M26.31543,3.563a1.12235,1.12235,0,0,1,.40527.45361,1.43552,1.43552,0,0,1,.14649.65528,1.45449,1.45449,0,0,1-.14649.65527,1.15194,1.15194,0,0,1-.40332.46289,1.0215,1.0215,0,0,1-.57324.168.982.982,0,0,1-.50684-.13672,1.11075,1.11075,0,0,1-.377-.36231v.3169a.14752.14752,0,0,1-.041.10547.13386.13386,0,0,1-.10254.043.13594.13594,0,0,1-.10352-.043.14752.14752,0,0,1-.041-.10547v-3.269a.14024.14024,0,0,1,.14453-.144.13759.13759,0,0,1,.10254.041.13946.13946,0,0,1,.041.103v1.416a1.01028,1.01028,0,0,1,.36524-.3789.96245.96245,0,0,1,.51367-.144A1.05952,1.05952,0,0,1,26.31543,3.563Zm-.15137,1.99219a.91515.91515,0,0,0,.31153-.36719,1.16828,1.16828,0,0,0,.11328-.51611,1.14886,1.14886,0,0,0-.11328-.51612.883.883,0,0,0-.31153-.35742.80727.80727,0,0,0-.44922-.12988.82654.82654,0,0,0-.76757.48486,1.26785,1.26785,0,0,0,.002,1.03906.89387.89387,0,0,0,.3125.36475.79752.79752,0,0,0,.45312.13232A.78812.78812,0,0,0,26.16406,5.55518Z"/><path class="cls-2" d="M29.55762,3.50049a.14751.14751,0,0,1,.041.10547V5.76611a.14641.14641,0,0,1-.248.103.14177.14177,0,0,1-.04-.103V5.44434a1.00638,1.00638,0,0,1-.36035.36523.97413.97413,0,0,1-.52344.14844,1.03055,1.03055,0,0,1-.57813-.168,1.1579,1.1579,0,0,1-.40332-.46045,1.45032,1.45032,0,0,1-.14648-.65771,1.41226,1.41226,0,0,1,.14941-.65528,1.13661,1.13661,0,0,1,.40528-.45361,1.07217,1.07217,0,0,1,1.09668-.02393.9171.9171,0,0,1,.36035.36475V3.606a.15091.15091,0,0,1,.04-.10547.14617.14617,0,0,1,.207,0ZM28.9043,5.55713a.89394.89394,0,0,0,.3125-.36475,1.17644,1.17644,0,0,0,.1123-.5205,1.1405,1.1405,0,0,0-.1123-.50879.89629.89629,0,0,0-.3125-.36231.79082.79082,0,0,0-.44825-.13232.805.805,0,0,0-.44921.12988.883.883,0,0,0-.31153.35742,1.14886,1.14886,0,0,0-.11328.51612,1.20317,1.20317,0,0,0,.11035.5205.88042.88042,0,0,0,.30957.36475.8007.8007,0,0,0,.4541.13232A.79082.79082,0,0,0,28.9043,5.55713Z"/><path class="cls-2" d="M32.16309,3.66113a1.084,1.084,0,0,1,.209.69385V5.76611a.134.134,0,0,1-.044.103.14215.14215,0,0,1-.24414-.103v-1.397a.78851.78851,0,0,0-.15625-.50635.58249.58249,0,0,0-.48242-.19433.86133.86133,0,0,0-.6914.353.58894.58894,0,0,0-.11524.34766v1.397a.14406.14406,0,1,1-.28808,0V3.61572a.14406.14406,0,1,1,.28808,0v.26416a1.02667,1.02667,0,0,1,.37207-.34326.99945.99945,0,0,1,.49707-.13672A.78845.78845,0,0,1,32.16309,3.66113Z"/><path class="cls-2" d="M35.2207,2.39893a.13943.13943,0,0,1,.041.103V5.76611a.14642.14642,0,0,1-.248.103.14177.14177,0,0,1-.04-.103V5.43018a1.0348,1.0348,0,0,1-.3584.37451.94463.94463,0,0,1-.52539.15332,1.03505,1.03505,0,0,1-.57324-.16553,1.1507,1.1507,0,0,1-.40527-.4585,1.51044,1.51044,0,0,1,0-1.31005,1.1507,1.1507,0,0,1,.40527-.4585A1.026,1.026,0,0,1,34.085,3.3999a1.00777,1.00777,0,0,1,.52344.1416.97236.97236,0,0,1,.36523.36719V2.502a.14256.14256,0,0,1,.04-.103.15246.15246,0,0,1,.207,0Zm-.65332,3.16064a.87741.87741,0,0,0,.3125-.3623,1.17788,1.17788,0,0,0,.11231-.52051,1.151,1.151,0,0,0-.11231-.51367.89614.89614,0,0,0-.3125-.36231.827.827,0,0,0-.89746,0,.894.894,0,0,0-.31152.36231,1.23122,1.23122,0,0,0,0,1.03173.894.894,0,0,0,.31152.36231.79168.79168,0,0,0,.44922.13232A.80406.80406,0,0,0,34.56738,5.55957Z"/><path class="cls-2" d="M36.001,3.04688a.162.162,0,0,1-.05371-.13184V2.86719a.16192.16192,0,0,1,.05566-.13233.23135.23135,0,0,1,.15137-.04541c.12793,0,.1914.05909.1914.17774V2.915a.16942.16942,0,0,1-.0498.13184.21163.21163,0,0,1-.14649.04589A.217.217,0,0,1,36.001,3.04688Zm.252,2.82226a.14137.14137,0,0,1-.10352.041.14026.14026,0,0,1-.14453-.144v-2.208a.14026.14026,0,0,1,.14453-.144.13871.13871,0,0,1,.14356.14405v2.208A.14177.14177,0,0,1,36.25293,5.86914Z"/><path class="cls-2" d="M38.85449,3.66113a1.084,1.084,0,0,1,.209.69385V5.76611a.134.134,0,0,1-.04395.103.14215.14215,0,0,1-.24414-.103v-1.397a.78851.78851,0,0,0-.15625-.50635.5825.5825,0,0,0-.48242-.19433.86137.86137,0,0,0-.69141.353.589.589,0,0,0-.11523.34766v1.397a.14406.14406,0,1,1-.28809,0V3.61572a.14406.14406,0,1,1,.28809,0v.26416a1.02659,1.02659,0,0,1,.37207-.34326.99945.99945,0,0,1,.49707-.13672A.78843.78843,0,0,1,38.85449,3.66113Z"/><path class="cls-2" d="M41.99316,3.49805a.14612.14612,0,0,1,.041.10791V5.68457a1.24081,1.24081,0,0,1-.15625.64063,1.029,1.029,0,0,1-.42676.40576,1.34185,1.34185,0,0,1-.62207.13916,1.55037,1.55037,0,0,1-.35254-.043,1.42121,1.42121,0,0,1-.3164-.11035c-.08789-.04492-.13868-.09131-.15137-.13965a.10483.10483,0,0,1-.0332-.07666.087.087,0,0,1,.043-.07666.07555.07555,0,0,1,.04786-.01465.37109.37109,0,0,1,.11035.03369l.10058.04346a1.54927,1.54927,0,0,0,.55664.11523.906.906,0,0,0,.66993-.24267.887.887,0,0,0,.24218-.65528V5.40625a.88116.88116,0,0,1-.3789.40527,1.08741,1.08741,0,0,1-.543.14649,1.10428,1.10428,0,0,1-.59668-.16553,1.16508,1.16508,0,0,1-.4209-.4585,1.4757,1.4757,0,0,1,0-1.31005,1.16508,1.16508,0,0,1,.4209-.4585,1.0981,1.0981,0,0,1,.59277-.16553,1.05775,1.05775,0,0,1,.55371.15088,1.01433,1.01433,0,0,1,.37207.36279V3.606a.14752.14752,0,0,1,.041-.10547.13594.13594,0,0,1,.10351-.043A.14062.14062,0,0,1,41.99316,3.49805Zm-.67187,2.064a.86145.86145,0,0,0,.32617-.35986,1.14112,1.14112,0,0,0,.11816-.52539,1.12731,1.12731,0,0,0-.11816-.52344.86666.86666,0,0,0-.32617-.35742.888.888,0,0,0-.47266-.12744.85247.85247,0,0,0-.46777.13232.89855.89855,0,0,0-.32617.36231,1.18506,1.18506,0,0,0,0,1.03173.89855.89855,0,0,0,.32617.36231.85247.85247,0,0,0,.46777.13232A.888.888,0,0,0,41.32129,5.562Z"/><path class="cls-2" d="M44.7793,5.76611a.12712.12712,0,0,1-.04981.103.156.156,0,0,1-.09375.041.13039.13039,0,0,1-.10547-.05274l-1.06152-1.123-.35937.30712v.72461a.14406.14406,0,1,1-.28809,0V2.502a.13946.13946,0,0,1,.041-.103.13721.13721,0,0,1,.10254-.04053.13948.13948,0,0,1,.14454.14355v2.189l1.38671-1.19531a.12765.12765,0,0,1,.19727-.00245.14409.14409,0,0,1,.043.09864.15568.15568,0,0,1-.05274.11035l-.98925.83984,1.042,1.11377A.16267.16267,0,0,1,44.7793,5.76611Z"/><path class="cls-2" d="M47.43652,3.50049a.14747.14747,0,0,1,.041.10547V5.76611a.14642.14642,0,0,1-.248.103.14177.14177,0,0,1-.04-.103V5.44434a1.00623,1.00623,0,0,1-.36035.36523.97408.97408,0,0,1-.52344.14844,1.03055,1.03055,0,0,1-.57812-.168,1.1579,1.1579,0,0,1-.40332-.46045,1.4502,1.4502,0,0,1-.14649-.65771,1.41227,1.41227,0,0,1,.14942-.65528,1.13651,1.13651,0,0,1,.40527-.45361,1.07217,1.07217,0,0,1,1.09668-.02393.917.917,0,0,1,.36035.36475V3.606a.15091.15091,0,0,1,.04-.10547.14617.14617,0,0,1,.207,0ZM46.7832,5.55713a.89379.89379,0,0,0,.3125-.36475,1.17631,1.17631,0,0,0,.11231-.5205,1.14037,1.14037,0,0,0-.11231-.50879.89614.89614,0,0,0-.3125-.36231.79077.79077,0,0,0-.44824-.13232.805.805,0,0,0-.44922.12988.883.883,0,0,0-.31152.35742,1.14873,1.14873,0,0,0-.11328.51612,1.20317,1.20317,0,0,0,.11035.5205.88042.88042,0,0,0,.30957.36475.80068.80068,0,0,0,.4541.13232A.79077.79077,0,0,0,46.7832,5.55713Z"/><path class="cls-2" d="M50.043,3.66113a1.084,1.084,0,0,1,.209.69385V5.76611a.134.134,0,0,1-.04394.103.14215.14215,0,0,1-.24414-.103v-1.397a.78857.78857,0,0,0-.15625-.50635.58251.58251,0,0,0-.48242-.19433.86133.86133,0,0,0-.69141.353.589.589,0,0,0-.11524.34766v1.397a.14406.14406,0,1,1-.28808,0V3.61572a.14406.14406,0,1,1,.28808,0v.26416a1.02667,1.02667,0,0,1,.37207-.34326.99946.99946,0,0,1,.49708-.13672A.78846.78846,0,0,1,50.043,3.66113Z"/><path class="cls-2" d="M13.23535,9.32275a1.12231,1.12231,0,0,1,.40527.45362,1.43548,1.43548,0,0,1,.14649.65527,1.45443,1.45443,0,0,1-.14649.65527,1.15187,1.15187,0,0,1-.40332.46289,1.0214,1.0214,0,0,1-.57324.168.98193.98193,0,0,1-.50683-.13672,1.11066,1.11066,0,0,1-.377-.3623v.31689a.14751.14751,0,0,1-.041.10547.13386.13386,0,0,1-.10254.043.136.136,0,0,1-.10352-.043.14751.14751,0,0,1-.041-.10547V8.2666a.14022.14022,0,0,1,.14453-.144.13762.13762,0,0,1,.10254.041.1395.1395,0,0,1,.041.103v1.416a1.0103,1.0103,0,0,1,.36524-.37891.96253.96253,0,0,1,.51367-.144A1.05959,1.05959,0,0,1,13.23535,9.32275ZM13.084,11.31494a.915.915,0,0,0,.31153-.36719,1.16821,1.16821,0,0,0,.11328-.51611,1.14881,1.14881,0,0,0-.11328-.51611.88287.88287,0,0,0-.31153-.35742.80727.80727,0,0,0-.44921-.12989.82653.82653,0,0,0-.76758.48487,1.26795,1.26795,0,0,0,.00195,1.03906.894.894,0,0,0,.3125.36474.79754.79754,0,0,0,.45313.13233A.788.788,0,0,0,13.084,11.31494Z"/><path class="cls-2" d="M16.41211,10.40039a.139.139,0,0,1-.10059.04053H14.49707a1.09981,1.09981,0,0,0,.11816.51611.88389.88389,0,0,0,.33594.35986.97387.97387,0,0,0,.51563.13233.8766.8766,0,0,0,.41308-.09619.86159.86159,0,0,0,.293-.24463.16164.16164,0,0,1,.10059-.04346.13339.13339,0,0,1,.125.125.14425.14425,0,0,1-.04785.10059,1.20943,1.20943,0,0,1-.38672.30761,1.06476,1.06476,0,0,1-.49219.11963,1.31413,1.31413,0,0,1-.65234-.1582,1.12443,1.12443,0,0,1-.44239-.44385,1.34053,1.34053,0,0,1-.1582-.66015,1.44881,1.44881,0,0,1,.15625-.689,1.121,1.121,0,0,1,.415-.45117,1.05161,1.05161,0,0,1,.55176-.15576,1.132,1.132,0,0,1,.54.13428,1.0723,1.0723,0,0,1,.41113.39355,1.19447,1.19447,0,0,1,.16308.61426A.12988.12988,0,0,1,16.41211,10.40039Zm-1.58594-.77051a.89086.89086,0,0,0-.30469.55225H16.1582v-.03858a.76379.76379,0,0,0-.14453-.37695.77686.77686,0,0,0-.2998-.24463.869.869,0,0,0-.37207-.084A.80333.80333,0,0,0,14.82617,9.62988Z"/><path class="cls-2" d="M18.86328,9.4209a1.08394,1.08394,0,0,1,.209.69385v1.41113a.134.134,0,0,1-.044.103.14214.14214,0,0,1-.24412-.103v-1.397a.78849.78849,0,0,0-.15625-.50635.58247.58247,0,0,0-.48242-.19434.86134.86134,0,0,0-.69141.353.589.589,0,0,0-.11523.34766v1.397a.14406.14406,0,1,1-.28809,0V9.37549a.14406.14406,0,1,1,.28809,0v.26416a1.02642,1.02642,0,0,1,.37207-.34326.99945.99945,0,0,1,.49707-.13672A.7884.7884,0,0,1,18.86328,9.4209Z"/><path class="cls-2" d="M20.30566,9.49561v1.60791a.34227.34227,0,0,0,.06739.24707.24127.24127,0,0,0,.17675.06494.26489.26489,0,0,0,.07227-.01221.28478.28478,0,0,1,.06738-.01172.09284.09284,0,0,1,.07422.03613.12518.12518,0,0,1,.03125.084.13253.13253,0,0,1-.07617.11279.35431.35431,0,0,1-.18262.04541.99221.99221,0,0,1-.23047-.02392.36565.36565,0,0,1-.19433-.144.62622.62622,0,0,1-.09375-.38379V9.49561H19.667a.13871.13871,0,0,1-.09863-.03858.13493.13493,0,0,1,0-.19189.14083.14083,0,0,1,.09863-.03858h.35059V8.69385a.13946.13946,0,0,1,.041-.103.13762.13762,0,0,1,.10254-.041.14024.14024,0,0,1,.14453.14405v.53271h.4795a.12636.12636,0,0,1,.09375.04346.13582.13582,0,0,1,.041.0957.12288.12288,0,0,1-.03808.09375.13717.13717,0,0,1-.09668.03614Z"/><path class="cls-2" d="M23.38965,9.27246a.14178.14178,0,0,1,.04.103V10.729a.95234.95234,0,0,1-.26367.72266,1.01275,1.01275,0,0,1-.7295.25195.99866.99866,0,0,1-.72265-.25195.95884.95884,0,0,1-.26172-.72266V9.37549a.14406.14406,0,1,1,.28808,0V10.729a.63272.63272,0,0,0,.69629.70557.71636.71636,0,0,0,.52051-.17969.70235.70235,0,0,0,.18457-.52588V9.37549a.14024.14024,0,0,1,.14453-.144A.14138.14138,0,0,1,23.38965,9.27246Z"/><path class="cls-2" d="M26.1709,11.52588a.12715.12715,0,0,1-.04981.103.15593.15593,0,0,1-.09375.041.13039.13039,0,0,1-.10546-.05273l-1.06153-1.12305-.35937.30713v.72461a.14406.14406,0,1,1-.28809,0V8.26172a.13945.13945,0,0,1,.041-.103.13721.13721,0,0,1,.10254-.04053.13948.13948,0,0,1,.14453.14356v2.189L25.8877,9.25537a.12764.12764,0,0,1,.19726-.00244.14406.14406,0,0,1,.043.09863.15567.15567,0,0,1-.05273.11035l-.98926.83985,1.042,1.11377A.16265.16265,0,0,1,26.1709,11.52588Z"/><path class="cls-2" d="M30.04883,11.52588a.12715.12715,0,0,1-.04981.103.15593.15593,0,0,1-.09375.041.13041.13041,0,0,1-.10547-.05273l-1.06152-1.12305-.35937.30713v.72461a.14406.14406,0,1,1-.28809,0V8.26172a.13945.13945,0,0,1,.041-.103.13721.13721,0,0,1,.10254-.04053.13948.13948,0,0,1,.14453.14356v2.189l1.38671-1.19531a.12766.12766,0,0,1,.19727-.00244.14406.14406,0,0,1,.043.09863.15565.15565,0,0,1-.05274.11035l-.98925.83985,1.042,1.11377A.16265.16265,0,0,1,30.04883,11.52588Z"/><path class="cls-2" d="M32.70605,9.26025a.14749.14749,0,0,1,.041.10547v2.16016a.14643.14643,0,0,1-.248.103.14184.14184,0,0,1-.04-.103V11.2041a1.00633,1.00633,0,0,1-.36035.36524.97406.97406,0,0,1-.52343.14843,1.03048,1.03048,0,0,1-.57813-.168,1.15781,1.15781,0,0,1-.40332-.46044,1.45027,1.45027,0,0,1-.14648-.65772,1.41222,1.41222,0,0,1,.14941-.65527,1.13654,1.13654,0,0,1,.40527-.45362,1.0722,1.0722,0,0,1,1.09668-.02392.91688.91688,0,0,1,.36035.36474V9.36572a.151.151,0,0,1,.04-.10547.14619.14619,0,0,1,.207,0Zm-.65332,2.05664a.89383.89383,0,0,0,.3125-.36474,1.17635,1.17635,0,0,0,.11231-.52051,1.14037,1.14037,0,0,0-.11231-.50879.89611.89611,0,0,0-.3125-.3623.79077.79077,0,0,0-.44824-.13233.805.805,0,0,0-.44922.12989.88292.88292,0,0,0-.31152.35742,1.14868,1.14868,0,0,0-.11328.51611,1.20322,1.20322,0,0,0,.11035.52051.88045.88045,0,0,0,.30957.36474.80069.80069,0,0,0,.4541.13233A.79077.79077,0,0,0,32.05273,11.31689Z"/><path class="cls-2" d="M35.3125,9.4209a1.08393,1.08393,0,0,1,.209.69385v1.41113a.134.134,0,0,1-.04394.103.14215.14215,0,0,1-.24414-.103v-1.397a.78855.78855,0,0,0-.15625-.50635.58247.58247,0,0,0-.48242-.19434.86138.86138,0,0,0-.69143.353.58907.58907,0,0,0-.11521.34766v1.397a.14406.14406,0,1,1-.28809,0V9.37549a.14406.14406,0,1,1,.28809,0v.26416a1.02642,1.02642,0,0,1,.37207-.34326.99943.99943,0,0,1,.49707-.13672A.7884.7884,0,0,1,35.3125,9.4209Z"/><path class="cls-2" d="M35.83789,12.582a.13143.13143,0,0,1-.03809-.09619v-.019a.12479.12479,0,0,1,.03321-.08887.15527.15527,0,0,1,.09082-.04541.53931.53931,0,0,0,.2959-.15625.45569.45569,0,0,0,.11718-.32861V9.37061a.14406.14406,0,1,1,.28809,0v2.52a.71644.71644,0,0,1-.36719.64112.66468.66468,0,0,1-.32422.08838A.13031.13031,0,0,1,35.83789,12.582ZM36.332,8.80176a.16449.16449,0,0,1-.05273-.13184V8.62207a.1619.1619,0,0,1,.05566-.13232.2295.2295,0,0,1,.15137-.04541c.12793,0,.1914.05908.1914.17773v.04785a.16942.16942,0,0,1-.0498.13184.21163.21163,0,0,1-.14648.0459A.21975.21975,0,0,1,36.332,8.80176Z"/><path class="cls-2" d="M37.417,8.80664a.162.162,0,0,1-.05371-.13184V8.627a.16192.16192,0,0,1,.05567-.13232.23132.23132,0,0,1,.15136-.04541c.12793,0,.19141.05908.19141.17773V8.6748a.16938.16938,0,0,1-.04981.13184.21161.21161,0,0,1-.14648.0459A.217.217,0,0,1,37.417,8.80664Zm.252,2.82227a.14138.14138,0,0,1-.10352.041.14022.14022,0,0,1-.14453-.144v-2.208a.14022.14022,0,0,1,.14453-.144.13868.13868,0,0,1,.14355.144v2.208A.14183.14183,0,0,1,37.669,11.62891Z"/><path class="cls-2" d="M41.86426,8.15869a.13948.13948,0,0,1,.041.103v3.26416a.14642.14642,0,0,1-.248.103.1418.1418,0,0,1-.04-.103v-.33594a1.0348,1.0348,0,0,1-.3584.37451.94466.94466,0,0,1-.52539.15332,1.035,1.035,0,0,1-.57324-.16552,1.15093,1.15093,0,0,1-.40528-.4585,1.51055,1.51055,0,0,1,0-1.31006,1.15083,1.15083,0,0,1,.40528-.45849,1.02585,1.02585,0,0,1,.56836-.16553,1.00761,1.00761,0,0,1,.52343.1416.97239.97239,0,0,1,.36524.36719V8.26172a.14259.14259,0,0,1,.04-.103.15246.15246,0,0,1,.207,0Zm-.65332,3.16065a.87758.87758,0,0,0,.3125-.36231,1.178,1.178,0,0,0,.1123-.52051,1.1512,1.1512,0,0,0-.1123-.51367.89626.89626,0,0,0-.3125-.3623.827.827,0,0,0-.89746,0,.894.894,0,0,0-.31153.3623,1.23124,1.23124,0,0,0,0,1.03174.894.894,0,0,0,.31153.3623.79167.79167,0,0,0,.44922.13233A.80419.80419,0,0,0,41.21094,11.31934Z"/><path class="cls-2" d="M44.68848,10.40039a.139.139,0,0,1-.10059.04053H42.77344a1.09981,1.09981,0,0,0,.11816.51611.88389.88389,0,0,0,.33594.35986.97385.97385,0,0,0,.51562.13233.87664.87664,0,0,0,.41309-.09619.86169.86169,0,0,0,.293-.24463.16164.16164,0,0,1,.10058-.04346.13339.13339,0,0,1,.125.125.14425.14425,0,0,1-.04785.10059,1.20932,1.20932,0,0,1-.38672.30761,1.06469,1.06469,0,0,1-.49218.11963,1.31416,1.31416,0,0,1-.65235-.1582,1.12464,1.12464,0,0,1-.4424-.44385,1.34074,1.34074,0,0,1-.15818-.66015,1.44881,1.44881,0,0,1,.15625-.689,1.12091,1.12091,0,0,1,.415-.45117,1.0516,1.0516,0,0,1,.55175-.15576,1.132,1.132,0,0,1,.54.13428,1.07225,1.07225,0,0,1,.41114.39355,1.19457,1.19457,0,0,1,.16308.61426A.12992.12992,0,0,1,44.68848,10.40039Zm-1.58594-.77051a.89081.89081,0,0,0-.30469.55225h1.63672v-.03858A.76379.76379,0,0,0,44.29,9.7666a.77682.77682,0,0,0-.29981-.24463.869.869,0,0,0-.37207-.084A.8033.8033,0,0,0,43.10254,9.62988Z"/><path class="cls-2" d="M47.13965,9.4209a1.08405,1.08405,0,0,1,.209.69385v1.41113a.13405.13405,0,0,1-.04394.103.14215.14215,0,0,1-.24414-.103v-1.397a.78855.78855,0,0,0-.15625-.50635.58249.58249,0,0,0-.48242-.19434.8613.8613,0,0,0-.69141.353.589.589,0,0,0-.11524.34766v1.397a.14406.14406,0,1,1-.28808,0V9.37549a.14406.14406,0,1,1,.28808,0v.26416a1.02658,1.02658,0,0,1,.37207-.34326.99946.99946,0,0,1,.49708-.13672A.7884.7884,0,0,1,47.13965,9.4209Z"/><path class="cls-2" d="M50.27734,9.25781a.14615.14615,0,0,1,.041.10791v2.07862a1.24078,1.24078,0,0,1-.15625.64062,1.0289,1.0289,0,0,1-.42676.40576,1.34173,1.34173,0,0,1-.62207.13916,1.55037,1.55037,0,0,1-.35254-.043,1.4202,1.4202,0,0,1-.3164-.11035c-.08789-.04492-.13868-.09131-.15137-.13965a.10483.10483,0,0,1-.0332-.07666.087.087,0,0,1,.043-.07666.07558.07558,0,0,1,.04786-.01464.37109.37109,0,0,1,.11035.03369l.10058.04345a1.5493,1.5493,0,0,0,.55664.11524.906.906,0,0,0,.66993-.24268.887.887,0,0,0,.24218-.65527V11.166a.8812.8812,0,0,1-.3789.40527,1.0874,1.0874,0,0,1-.543.14648,1.10427,1.10427,0,0,1-.59668-.16552,1.16522,1.16522,0,0,1-.4209-.4585,1.47589,1.47589,0,0,1,0-1.31006,1.16512,1.16512,0,0,1,.4209-.45849,1.098,1.098,0,0,1,.59277-.16553,1.05766,1.05766,0,0,1,.55371.15088,1.01425,1.01425,0,0,1,.37207.36279V9.36572a.14753.14753,0,0,1,.041-.10547.136.136,0,0,1,.10351-.043A.14065.14065,0,0,1,50.27734,9.25781Zm-.67187,2.064a.86147.86147,0,0,0,.32617-.35987,1.14109,1.14109,0,0,0,.11816-.52539,1.12724,1.12724,0,0,0-.11816-.52343.86675.86675,0,0,0-.32617-.35743.888.888,0,0,0-.47266-.12744.85248.85248,0,0,0-.46777.13233.89852.89852,0,0,0-.32617.3623,1.18508,1.18508,0,0,0,0,1.03174.89852.89852,0,0,0,.32617.3623.85248.85248,0,0,0,.46777.13233A.888.888,0,0,0,49.60547,11.32178Z"/><path class="cls-2" d="M53.14844,9.26025a.14752.14752,0,0,1,.041.10547v2.16016a.14642.14642,0,0,1-.248.103.1418.1418,0,0,1-.04-.103V11.2041a1.00648,1.00648,0,0,1-.36035.36524.97412.97412,0,0,1-.52344.14843,1.03048,1.03048,0,0,1-.57813-.168,1.15781,1.15781,0,0,1-.40332-.46044,1.4504,1.4504,0,0,1-.14648-.65772,1.41222,1.41222,0,0,1,.14941-.65527,1.13664,1.13664,0,0,1,.40528-.45362A1.0722,1.0722,0,0,1,52.541,9.29883a.917.917,0,0,1,.36035.36474V9.36572a.15093.15093,0,0,1,.04-.10547.14619.14619,0,0,1,.207,0Zm-.65332,2.05664a.894.894,0,0,0,.3125-.36474,1.17649,1.17649,0,0,0,.1123-.52051,1.1405,1.1405,0,0,0-.1123-.50879.89626.89626,0,0,0-.3125-.3623.79082.79082,0,0,0-.44824-.13233.805.805,0,0,0-.44922.12989.88287.88287,0,0,0-.31153.35742,1.14881,1.14881,0,0,0-.11328.51611,1.20322,1.20322,0,0,0,.11035.52051.88045.88045,0,0,0,.30957.36474.80072.80072,0,0,0,.45411.13233A.79082.79082,0,0,0,52.49512,11.31689Z"/><path class="cls-2" d="M55.75488,9.4209a1.08394,1.08394,0,0,1,.209.69385v1.41113a.134.134,0,0,1-.044.103.14215.14215,0,0,1-.24414-.103v-1.397a.78849.78849,0,0,0-.15625-.50635.58247.58247,0,0,0-.48242-.19434.86134.86134,0,0,0-.69141.353.589.589,0,0,0-.11523.34766v1.397a.14406.14406,0,1,1-.28809,0V9.37549a.14406.14406,0,1,1,.28809,0v.26416a1.0265,1.0265,0,0,1,.37207-.34326.99945.99945,0,0,1,.49707-.13672A.7884.7884,0,0,1,55.75488,9.4209Z"/><path class="cls-2" d="M11.47852,14.56689a.162.162,0,0,1-.05372-.13183v-.04785a.16192.16192,0,0,1,.05567-.13233.23135.23135,0,0,1,.15137-.04541c.12793,0,.1914.05908.1914.17774v.04785a.16939.16939,0,0,1-.0498.13183.21159.21159,0,0,1-.14649.0459A.21694.21694,0,0,1,11.47852,14.56689Zm.252,2.82227a.14139.14139,0,0,1-.10352.041.14026.14026,0,0,1-.14453-.144v-2.208a.14026.14026,0,0,1,.14453-.144.13871.13871,0,0,1,.14356.144v2.208A.14178.14178,0,0,1,11.73047,17.38916Z"/><path class="cls-2" d="M12.7959,17.38916a.13983.13983,0,0,1-.10352.041.1402.1402,0,0,1-.14355-.144V14.022a.13946.13946,0,0,1,.041-.103.13721.13721,0,0,1,.10254-.04053.13946.13946,0,0,1,.14453.14355v3.26416A.13871.13871,0,0,1,12.7959,17.38916Z"/><path class="cls-2" d="M15.53711,15.03271a.1418.1418,0,0,1,.04.103v1.35352a.95232.95232,0,0,1-.26367.72265,1.01274,1.01274,0,0,1-.7295.252.99866.99866,0,0,1-.72265-.252.95881.95881,0,0,1-.26172-.72265V15.13574a.14406.14406,0,1,1,.28809,0v1.35352a.63269.63269,0,0,0,.69628.70556.71634.71634,0,0,0,.52051-.17968.70236.70236,0,0,0,.18457-.52588V15.13574a.14024.14024,0,0,1,.14453-.144A.14136.14136,0,0,1,15.53711,15.03271Z"/><path class="cls-2" d="M16.15234,16.93555A.1577.1577,0,0,1,16.292,16.811a.14827.14827,0,0,1,.10547.04785.89876.89876,0,0,0,.75391.37451.733.733,0,0,0,.40039-.10791.351.351,0,0,0,.1709-.31445.33435.33435,0,0,0-.15821-.30225,1.54374,1.54374,0,0,0-.44238-.17285,1.86983,1.86983,0,0,1-.624-.26172.5436.5436,0,0,1-.22559-.47266.59873.59873,0,0,1,.11035-.353.73082.73082,0,0,1,.30078-.24219,1.02177,1.02177,0,0,1,.42871-.08643,1.17107,1.17107,0,0,1,.416.0791.87992.87992,0,0,1,.35744.252.11615.11615,0,0,1,.043.09619.12938.12938,0,0,1-.13476.12939A.11841.11841,0,0,1,17.708,15.438a.76249.76249,0,0,0-.27344-.19678.87133.87133,0,0,0-.34082-.06689.69033.69033,0,0,0-.38672.10547.35323.35323,0,0,0-.16113.31689.34552.34552,0,0,0,.17578.29248,1.81816,1.81816,0,0,0,.4873.18262,2.2646,2.2646,0,0,1,.41211.13916.68614.68614,0,0,1,.26661.21582.6043.6043,0,0,1,.10351.36963.58592.58592,0,0,1-.25.49707,1.01045,1.01045,0,0,1-.61914.18457,1.1245,1.1245,0,0,1-.93066-.43653A.20876.20876,0,0,1,16.15234,16.93555Z"/><path class="cls-2" d="M19.0625,15.25586v1.60791a.34232.34232,0,0,0,.06738.24707.24126.24126,0,0,0,.17676.06494.26457.26457,0,0,0,.07227-.01221.2845.2845,0,0,1,.06738-.01171.09281.09281,0,0,1,.07422.03613.12516.12516,0,0,1,.03125.084.13254.13254,0,0,1-.07617.1128.35443.35443,0,0,1-.18262.04541.99206.99206,0,0,1-.23047-.02393.36559.36559,0,0,1-.19434-.144.62626.62626,0,0,1-.09375-.38379V15.25586h-.35058a.13873.13873,0,0,1-.09863-.03857.135.135,0,0,1,0-.1919.14081.14081,0,0,1,.09863-.03857h.35058V14.4541a.1395.1395,0,0,1,.041-.103.1376.1376,0,0,1,.10254-.041.14024.14024,0,0,1,.14453.144v.53272H19.542a.12631.12631,0,0,1,.09375.04345.1358.1358,0,0,1,.041.09571.12291.12291,0,0,1-.03809.09375.13721.13721,0,0,1-.09668.03613Z"/><path class="cls-2" d="M21.5293,14.958a.12472.12472,0,0,1,.07715.11523.15145.15145,0,0,1-.03907.10791.11975.11975,0,0,1-.09082.041.36.36,0,0,1-.09375-.02393.40158.40158,0,0,0-.13183-.02392.56929.56929,0,0,0-.35254.13672,1.06534,1.06534,0,0,0-.28809.35253.93725.93725,0,0,0-.11328.437v1.18554a.14406.14406,0,1,1-.28809,0V15.13574a.14406.14406,0,1,1,.28809,0v.42237a1.1051,1.1051,0,0,1,.334-.45362.83119.83119,0,0,1,.5254-.18457A.38128.38128,0,0,1,21.5293,14.958Z"/><path class="cls-2" d="M24.09473,15.02051a.14751.14751,0,0,1,.041.10547v2.16015a.14641.14641,0,0,1-.248.103.14178.14178,0,0,1-.04-.103v-.32177a1.00634,1.00634,0,0,1-.36036.36523.97412.97412,0,0,1-.52343.14844,1.03055,1.03055,0,0,1-.57813-.168,1.1579,1.1579,0,0,1-.40332-.46045,1.45034,1.45034,0,0,1-.14648-.65772,1.41225,1.41225,0,0,1,.14941-.65527,1.13652,1.13652,0,0,1,.40527-.45361,1.07217,1.07217,0,0,1,1.09668-.02393.91706.91706,0,0,1,.36036.36475V15.126a.15091.15091,0,0,1,.04-.10547.14617.14617,0,0,1,.207,0Zm-.65332,2.05664a.89394.89394,0,0,0,.3125-.36475,1.17645,1.17645,0,0,0,.1123-.52051,1.14049,1.14049,0,0,0-.1123-.50878.89629.89629,0,0,0-.3125-.36231.79082.79082,0,0,0-.44825-.13232.805.805,0,0,0-.44921.12988.883.883,0,0,0-.31153.35742,1.14885,1.14885,0,0,0-.11328.51611,1.20319,1.20319,0,0,0,.11035.52051.88042.88042,0,0,0,.30957.36475.8007.8007,0,0,0,.4541.13232A.79082.79082,0,0,0,23.44141,17.07715Z"/><path class="cls-2" d="M24.71094,16.93555a.1577.1577,0,0,1,.13965-.12451.14825.14825,0,0,1,.10546.04785.89876.89876,0,0,0,.75391.37451.733.733,0,0,0,.40039-.10791.351.351,0,0,0,.1709-.31445.33434.33434,0,0,0-.1582-.30225,1.54382,1.54382,0,0,0-.44239-.17285,1.86983,1.86983,0,0,1-.624-.26172.5436.5436,0,0,1-.22559-.47266.59867.59867,0,0,1,.11036-.353.73069.73069,0,0,1,.30078-.24219,1.02174,1.02174,0,0,1,.42871-.08643,1.17121,1.17121,0,0,1,.416.0791.88.88,0,0,1,.35743.252.11615.11615,0,0,1,.043.09619.12938.12938,0,0,1-.13476.12939.11841.11841,0,0,1-.08594-.03857.76249.76249,0,0,0-.27344-.19678.87126.87126,0,0,0-.34082-.06689.69036.69036,0,0,0-.38672.10547.35323.35323,0,0,0-.16113.31689.34554.34554,0,0,0,.17578.29248,1.81811,1.81811,0,0,0,.48731.18262,2.26514,2.26514,0,0,1,.41211.13916.68618.68618,0,0,1,.2666.21582.6043.6043,0,0,1,.10351.36963.5859.5859,0,0,1-.25.49707,1.01045,1.01045,0,0,1-.61914.18457A1.1245,1.1245,0,0,1,24.75,17.0415.20873.20873,0,0,1,24.71094,16.93555Z"/><path class="cls-2" d="M27.126,14.56689a.16194.16194,0,0,1-.05371-.13183v-.04785a.16192.16192,0,0,1,.05566-.13233.23135.23135,0,0,1,.15137-.04541c.12793,0,.1914.05908.1914.17774v.04785a.16939.16939,0,0,1-.0498.13183.21159.21159,0,0,1-.14649.0459A.21694.21694,0,0,1,27.126,14.56689Zm.252,2.82227a.14137.14137,0,0,1-.10352.041.14026.14026,0,0,1-.14453-.144v-2.208a.14026.14026,0,0,1,.14453-.144.13871.13871,0,0,1,.14356.144v2.208A.14178.14178,0,0,1,27.37793,17.38916Z"/><path class="cls-2" d="M31.41016,14.9751a.1426.1426,0,0,1,.04.103v2.1167a1.3144,1.3144,0,0,1-.14844.648.99336.99336,0,0,1-.41309.40821,1.25448,1.25448,0,0,1-.59472.13916,1.57174,1.57174,0,0,1-.377-.043.98907.98907,0,0,1-.29-.11524c-.06738-.042-.10156-.08838-.10156-.13916a.37455.37455,0,0,1,.00977-.04834.13224.13224,0,0,1,.04785-.07177.122.122,0,0,1,.07226-.02393.13181.13181,0,0,1,.05762.01416,1.22766,1.22766,0,0,0,.58594.168.82022.82022,0,0,0,.63086-.24951.95993.95993,0,0,0,.2334-.68164v-.168a.8808.8808,0,0,1-.34571.32422,1.01378,1.01378,0,0,1-.49023.12207.79321.79321,0,0,1-.63379-.24951,1.0016,1.0016,0,0,1-.21582-.67676V15.07812a.14024.14024,0,0,1,.14453-.144.13757.13757,0,0,1,.10254.041.13946.13946,0,0,1,.041.103v1.43067a.78889.78889,0,0,0,.15137.52295.58683.58683,0,0,0,.47266.17773.77073.77073,0,0,0,.377-.09863.80374.80374,0,0,0,.28809-.25928.60121.60121,0,0,0,.1084-.34277V15.07812a.14571.14571,0,0,1,.24707-.103Z"/><path class="cls-2" d="M34.49121,15.02051a.14752.14752,0,0,1,.041.10547v2.16015a.14642.14642,0,0,1-.248.103.14178.14178,0,0,1-.04-.103v-.32177a1.00631,1.00631,0,0,1-.36035.36523.97413.97413,0,0,1-.52344.14844,1.0305,1.0305,0,0,1-.57812-.168,1.15783,1.15783,0,0,1-.40332-.46045,1.45021,1.45021,0,0,1-.14649-.65772,1.41225,1.41225,0,0,1,.14942-.65527,1.13645,1.13645,0,0,1,.40527-.45361,1.07217,1.07217,0,0,1,1.09668-.02393.917.917,0,0,1,.36035.36475V15.126a.15091.15091,0,0,1,.04-.10547.14617.14617,0,0,1,.207,0Zm-.65332,2.05664a.89387.89387,0,0,0,.3125-.36475,1.17632,1.17632,0,0,0,.11231-.52051,1.14036,1.14036,0,0,0-.11231-.50878.89621.89621,0,0,0-.3125-.36231.79079.79079,0,0,0-.44824-.13232.805.805,0,0,0-.44922.12988.883.883,0,0,0-.31152.35742,1.14872,1.14872,0,0,0-.11329.51611,1.203,1.203,0,0,0,.11036.52051.88034.88034,0,0,0,.30957.36475.80068.80068,0,0,0,.4541.13232A.79079.79079,0,0,0,33.83789,17.07715Z"/><path class="cls-2" d="M37.09766,15.18115a1.084,1.084,0,0,1,.209.69385v1.41113a.134.134,0,0,1-.04394.103.14215.14215,0,0,1-.24415-.103v-1.397a.78851.78851,0,0,0-.15625-.50635.58249.58249,0,0,0-.48242-.19433.86133.86133,0,0,0-.6914.353.58894.58894,0,0,0-.11524.34766v1.397a.14406.14406,0,1,1-.28808,0V15.13574a.14406.14406,0,1,1,.28808,0v.26416a1.02667,1.02667,0,0,1,.37207-.34326.99945.99945,0,0,1,.49707-.13672A.78845.78845,0,0,1,37.09766,15.18115Z"/><path class="cls-2" d="M40.23633,15.01807a.14615.14615,0,0,1,.041.10791v2.07861a1.24065,1.24065,0,0,1-.15625.64062,1.029,1.029,0,0,1-.42675.40577,1.34191,1.34191,0,0,1-.62207.13916,1.5503,1.5503,0,0,1-.35254-.043,1.42168,1.42168,0,0,1-.31643-.11035c-.08787-.04493-.13865-.09131-.15135-.13965a.10483.10483,0,0,1-.0332-.07666.08694.08694,0,0,1,.043-.07666.0755.0755,0,0,1,.04785-.01465.37109.37109,0,0,1,.11035.03369l.10059.04346a1.54923,1.54923,0,0,0,.55664.11523.906.906,0,0,0,.66992-.24267.887.887,0,0,0,.24219-.65528v-.29736a.88123.88123,0,0,1-.37891.40527,1.08738,1.08738,0,0,1-.543.14649,1.10428,1.10428,0,0,1-.59668-.16553,1.16515,1.16515,0,0,1-.4209-.4585,1.47587,1.47587,0,0,1,0-1.31,1.16515,1.16515,0,0,1,.4209-.4585,1.09811,1.09811,0,0,1,.59278-.16553,1.05766,1.05766,0,0,1,.55371.15088,1.0144,1.0144,0,0,1,.37207.36279V15.126a.14751.14751,0,0,1,.041-.10547.136.136,0,0,1,.10352-.043A.14065.14065,0,0,1,40.23633,15.01807Zm-.67188,2.064a.86145.86145,0,0,0,.32617-.35986,1.141,1.141,0,0,0,.11817-.52539,1.12716,1.12716,0,0,0-.11817-.52344.86666.86666,0,0,0-.32617-.35742.888.888,0,0,0-.47265-.12744.85253.85253,0,0,0-.46778.13232.89869.89869,0,0,0-.32617.36231,1.18515,1.18515,0,0,0,0,1.03173.89869.89869,0,0,0,.32617.36231.85253.85253,0,0,0,.46778.13232A.888.888,0,0,0,39.56445,17.082Z"/><path class="cls-2" d="M44.44141,15.02051a.14751.14751,0,0,1,.041.10547v2.16015a.14641.14641,0,0,1-.248.103.14178.14178,0,0,1-.04-.103v-.32177a1.00634,1.00634,0,0,1-.36036.36523.97407.97407,0,0,1-.52343.14844,1.03051,1.03051,0,0,1-.57813-.168,1.1579,1.1579,0,0,1-.40332-.46045,1.45034,1.45034,0,0,1-.14648-.65772,1.41225,1.41225,0,0,1,.14941-.65527,1.13652,1.13652,0,0,1,.40527-.45361,1.07217,1.07217,0,0,1,1.09668-.02393.91706.91706,0,0,1,.36036.36475V15.126a.15091.15091,0,0,1,.04-.10547.14617.14617,0,0,1,.207,0Zm-.65332,2.05664a.89394.89394,0,0,0,.3125-.36475,1.17645,1.17645,0,0,0,.1123-.52051,1.14049,1.14049,0,0,0-.1123-.50878.89629.89629,0,0,0-.3125-.36231.79082.79082,0,0,0-.44825-.13232.805.805,0,0,0-.44922.12988.88305.88305,0,0,0-.31152.35742,1.14885,1.14885,0,0,0-.11328.51611,1.20319,1.20319,0,0,0,.11035.52051.88042.88042,0,0,0,.30957.36475.80068.80068,0,0,0,.4541.13232A.79082.79082,0,0,0,43.78809,17.07715Z"/><path class="cls-2" d="M47.33105,13.919a.13943.13943,0,0,1,.041.103v3.26416a.14642.14642,0,0,1-.248.103.14183.14183,0,0,1-.04-.103V16.9502a1.03469,1.03469,0,0,1-.35839.37451.94468.94468,0,0,1-.52539.15332,1.03506,1.03506,0,0,1-.57325-.16553,1.1507,1.1507,0,0,1-.40527-.4585,1.51053,1.51053,0,0,1,0-1.31,1.1507,1.1507,0,0,1,.40527-.4585,1.026,1.026,0,0,1,.56836-.16553,1.00774,1.00774,0,0,1,.52344.1416.97229.97229,0,0,1,.36523.36719V14.022a.1426.1426,0,0,1,.04-.103.15246.15246,0,0,1,.207,0Zm-.65332,3.16064a.87741.87741,0,0,0,.3125-.3623,1.17788,1.17788,0,0,0,.11231-.52051,1.151,1.151,0,0,0-.11231-.51367.89614.89614,0,0,0-.3125-.36231.827.827,0,0,0-.89746,0,.89412.89412,0,0,0-.31152.36231,1.23122,1.23122,0,0,0,0,1.03173.89412.89412,0,0,0,.31152.36231.79171.79171,0,0,0,.44922.13232A.80406.80406,0,0,0,46.67773,17.07959Z"/><path class="cls-2" d="M50.2207,15.02051a.14747.14747,0,0,1,.041.10547v2.16015a.14642.14642,0,0,1-.248.103.14178.14178,0,0,1-.04-.103v-.32177a1.00631,1.00631,0,0,1-.36035.36523.97411.97411,0,0,1-.52344.14844,1.03055,1.03055,0,0,1-.57812-.168,1.15783,1.15783,0,0,1-.40332-.46045,1.45021,1.45021,0,0,1-.14649-.65772,1.41225,1.41225,0,0,1,.14942-.65527,1.13645,1.13645,0,0,1,.40527-.45361,1.07217,1.07217,0,0,1,1.09668-.02393.917.917,0,0,1,.36035.36475V15.126a.15091.15091,0,0,1,.04-.10547.14617.14617,0,0,1,.207,0Zm-.65332,2.05664a.89379.89379,0,0,0,.3125-.36475,1.17632,1.17632,0,0,0,.11231-.52051,1.14036,1.14036,0,0,0-.11231-.50878.89614.89614,0,0,0-.3125-.36231.79077.79077,0,0,0-.44824-.13232.805.805,0,0,0-.44922.12988.883.883,0,0,0-.31152.35742,1.14871,1.14871,0,0,0-.11328.51611,1.20319,1.20319,0,0,0,.11035.52051.88042.88042,0,0,0,.30957.36475.80068.80068,0,0,0,.4541.13232A.79077.79077,0,0,0,49.56738,17.07715Z"/><path class="cls-2" d="M50.92871,17.37988a.2005.2005,0,0,1-.043-.13672v-.10107a.19143.19143,0,0,1,.043-.13428.15778.15778,0,0,1,.125-.04785h.0332a.15914.15914,0,0,1,.125.04785.19618.19618,0,0,1,.043.13428v.10107a.20558.20558,0,0,1-.043.13672.15569.15569,0,0,1-.125.0503h-.0332A.15437.15437,0,0,1,50.92871,17.37988Z"/><path class="cls-2" d="M14.12012,21.53613a.1406.1406,0,0,1,.041.10352v1.15674a.14662.14662,0,0,1-.07226.12939,1.72888,1.72888,0,0,1-.47949.23047,1.80228,1.80228,0,0,1-.53809.08154,1.744,1.744,0,0,1-.88281-.22558,1.63884,1.63884,0,0,1-.61914-.61914,1.84114,1.84114,0,0,1,0-1.76612,1.64357,1.64357,0,0,1,.61914-.61963,1.744,1.744,0,0,1,.88281-.22558,1.93147,1.93147,0,0,1,.49219.0625,1.56932,1.56932,0,0,1,.4248.17773.13543.13543,0,0,1,.06738.12012.14752.14752,0,0,1-.041.10547.1258.1258,0,0,1-.09375.043.1584.1584,0,0,1-.08594-.02393,1.57179,1.57179,0,0,0-.76367-.19678,1.43339,1.43339,0,0,0-.73145.1875,1.33592,1.33592,0,0,0-.50683.51563,1.58525,1.58525,0,0,0,0,1.47363,1.33387,1.33387,0,0,0,.50683.51612,1.43308,1.43308,0,0,0,.73145.187,1.57578,1.57578,0,0,0,.416-.05713,1.42044,1.42044,0,0,0,.3711-.15869v-.9502h-.75781a.14589.14589,0,0,1-.10547-.041.13322.13322,0,0,1-.043-.103.135.135,0,0,1,.043-.10352.14755.14755,0,0,1,.10547-.04052h.917A.14069.14069,0,0,1,14.12012,21.53613Z"/><path class="cls-2" d="M16.76562,20.79248a.14178.14178,0,0,1,.04.103V22.249a.95234.95234,0,0,1-.26367.72266,1.01271,1.01271,0,0,1-.72949.252.99868.99868,0,0,1-.72266-.252.95888.95888,0,0,1-.26172-.72266V20.89551a.14406.14406,0,1,1,.28809,0V22.249a.63272.63272,0,0,0,.69629.70557.71637.71637,0,0,0,.52051-.17969.70239.70239,0,0,0,.18457-.52588V20.89551a.14024.14024,0,0,1,.14453-.144A.14136.14136,0,0,1,16.76562,20.79248Z"/><path class="cls-2" d="M19.37207,20.94092a1.08393,1.08393,0,0,1,.209.69385V23.0459a.134.134,0,0,1-.04394.103.14215.14215,0,0,1-.24414-.103v-1.397a.78855.78855,0,0,0-.15625-.50635.58247.58247,0,0,0-.48242-.19434.86134.86134,0,0,0-.69141.353.589.589,0,0,0-.11523.34766v1.397a.14406.14406,0,1,1-.28809,0V20.89551a.14406.14406,0,1,1,.28809,0v.26416a1.02634,1.02634,0,0,1,.37207-.34326.99945.99945,0,0,1,.49707-.13672A.7884.7884,0,0,1,19.37207,20.94092Z"/><path class="cls-2" d="M22.42969,20.78027a.14752.14752,0,0,1,.041.10547V23.0459a.14642.14642,0,0,1-.248.103.1418.1418,0,0,1-.04-.103v-.32178a1.00648,1.00648,0,0,1-.36035.36524.97412.97412,0,0,1-.52344.14843,1.03048,1.03048,0,0,1-.57813-.168,1.15781,1.15781,0,0,1-.40332-.46044,1.4504,1.4504,0,0,1-.14648-.65772,1.41222,1.41222,0,0,1,.14941-.65527,1.13664,1.13664,0,0,1,.40528-.45362,1.0722,1.0722,0,0,1,1.09668-.02392.917.917,0,0,1,.36035.36474v-.29785a.15093.15093,0,0,1,.04-.10547.14617.14617,0,0,1,.207,0Zm-.65332,2.05664a.894.894,0,0,0,.3125-.36474,1.17652,1.17652,0,0,0,.1123-.52051,1.1405,1.1405,0,0,0-.1123-.50879.89626.89626,0,0,0-.3125-.3623.79083.79083,0,0,0-.44825-.13233.805.805,0,0,0-.44921.12988.883.883,0,0,0-.31153.35743,1.14881,1.14881,0,0,0-.11328.51611,1.20325,1.20325,0,0,0,.11035.52051.88045.88045,0,0,0,.30957.36474.80071.80071,0,0,0,.4541.13233A.79083.79083,0,0,0,21.77637,22.83691Z"/><path class="cls-2" d="M25.21094,23.0459a.12715.12715,0,0,1-.04981.103.15593.15593,0,0,1-.09375.041.13041.13041,0,0,1-.10547-.05273l-1.06152-1.123-.35937.30713v.72461a.14406.14406,0,1,1-.28809,0V19.78174a.13943.13943,0,0,1,.041-.103.13721.13721,0,0,1,.10253-.04053.13948.13948,0,0,1,.14454.14356v2.189l1.38671-1.19531A.12766.12766,0,0,1,25.125,20.773a.14415.14415,0,0,1,.043.09863.15565.15565,0,0,1-.05274.11035l-.98925.83985,1.042,1.11377A.16263.16263,0,0,1,25.21094,23.0459Z"/><path class="cls-2" d="M27.86719,20.78027a.14752.14752,0,0,1,.041.10547V23.0459a.14642.14642,0,0,1-.248.103.1418.1418,0,0,1-.04-.103v-.32178a1.00648,1.00648,0,0,1-.36035.36524.97412.97412,0,0,1-.52344.14843,1.03048,1.03048,0,0,1-.57813-.168,1.15781,1.15781,0,0,1-.40332-.46044,1.4504,1.4504,0,0,1-.14648-.65772,1.41222,1.41222,0,0,1,.14941-.65527,1.13664,1.13664,0,0,1,.40528-.45362,1.0722,1.0722,0,0,1,1.09668-.02392.917.917,0,0,1,.36035.36474v-.29785a.15093.15093,0,0,1,.04-.10547.14617.14617,0,0,1,.207,0Zm-.65332,2.05664a.894.894,0,0,0,.3125-.36474,1.17652,1.17652,0,0,0,.1123-.52051,1.1405,1.1405,0,0,0-.1123-.50879.89626.89626,0,0,0-.3125-.3623.79083.79083,0,0,0-.44825-.13233.805.805,0,0,0-.44921.12988.883.883,0,0,0-.31153.35743,1.14881,1.14881,0,0,0-.11328.51611,1.20325,1.20325,0,0,0,.11035.52051.88045.88045,0,0,0,.30957.36474.80071.80071,0,0,0,.4541.13233A.79083.79083,0,0,0,27.21387,22.83691Z"/><path class="cls-2" d="M30.47363,20.94092a1.08394,1.08394,0,0,1,.209.69385V23.0459a.134.134,0,0,1-.04395.103.14215.14215,0,0,1-.24414-.103v-1.397a.78849.78849,0,0,0-.15625-.50635.58247.58247,0,0,0-.48242-.19434.86134.86134,0,0,0-.69141.353.589.589,0,0,0-.11523.34766v1.397a.14406.14406,0,1,1-.28809,0V20.89551a.14406.14406,0,1,1,.28809,0v.26416a1.02642,1.02642,0,0,1,.37207-.34326.99945.99945,0,0,1,.49707-.13672A.7884.7884,0,0,1,30.47363,20.94092Z"/><path class="cls-2" d="M32.73242,20.32666a.162.162,0,0,1-.05371-.13184V20.147a.16192.16192,0,0,1,.05567-.13232.23132.23132,0,0,1,.15136-.04541c.12793,0,.19141.05908.19141.17773v.04785a.16938.16938,0,0,1-.04981.13184.21161.21161,0,0,1-.14648.0459A.217.217,0,0,1,32.73242,20.32666Zm.252,2.82227a.14138.14138,0,0,1-.10352.041.14022.14022,0,0,1-.14453-.144v-2.208a.14022.14022,0,0,1,.14453-.144.13868.13868,0,0,1,.14355.144v2.208A.14183.14183,0,0,1,32.98438,23.14893Z"/><path class="cls-2" d="M37.19336,20.98438a1.12208,1.12208,0,0,1,.2041.70312v1.3584a.14406.14406,0,1,1-.28808,0V21.70215a.83132.83132,0,0,0-.1504-.51611.55133.55133,0,0,0-.46875-.19922.81424.81424,0,0,0-.67187.35742.63609.63609,0,0,0-.11035.35791V23.0459a.14406.14406,0,1,1-.28809,0V21.6875a.83085.83085,0,0,0-.14355-.50635.52653.52653,0,0,0-.45117-.19433.75957.75957,0,0,0-.37208.0957.80188.80188,0,0,0-.2832.25684.611.611,0,0,0-.1084.34814v1.3584a.14406.14406,0,1,1-.28808,0V20.89551a.14406.14406,0,1,1,.28808,0v.27832a1.0494,1.0494,0,0,1,.35059-.32617.90764.90764,0,0,1,.46582-.12989.84053.84053,0,0,1,.47949.13477.73084.73084,0,0,1,.28809.39355.88669.88669,0,0,1,.37011-.36963,1.05251,1.05251,0,0,1,.542-.15869A.74887.74887,0,0,1,37.19336,20.98438Z"/><path class="cls-2" d="M40.24609,20.78027a.14749.14749,0,0,1,.041.10547V23.0459a.14643.14643,0,0,1-.248.103.14184.14184,0,0,1-.04-.103v-.32178a1.00633,1.00633,0,0,1-.36035.36524.97407.97407,0,0,1-.52344.14843,1.03047,1.03047,0,0,1-.57812-.168,1.15781,1.15781,0,0,1-.40332-.46044,1.45027,1.45027,0,0,1-.14649-.65772,1.41223,1.41223,0,0,1,.14942-.65527,1.13654,1.13654,0,0,1,.40527-.45362,1.0722,1.0722,0,0,1,1.09668-.02392.91688.91688,0,0,1,.36035.36474v-.29785a.151.151,0,0,1,.04-.10547.14617.14617,0,0,1,.207,0Zm-.65332,2.05664a.89383.89383,0,0,0,.3125-.36474,1.17638,1.17638,0,0,0,.11231-.52051,1.14037,1.14037,0,0,0-.11231-.50879.89611.89611,0,0,0-.3125-.3623.79077.79077,0,0,0-.44824-.13233.80507.80507,0,0,0-.44922.12988.883.883,0,0,0-.31152.35743,1.14868,1.14868,0,0,0-.11328.51611,1.20325,1.20325,0,0,0,.11035.52051.88045.88045,0,0,0,.30957.36474.80069.80069,0,0,0,.4541.13233A.79077.79077,0,0,0,39.59277,22.83691Z"/><path class="cls-2" d="M40.60352,24.102a.13139.13139,0,0,1-.03809-.09619v-.019a.12478.12478,0,0,1,.0332-.08887.1553.1553,0,0,1,.09082-.04541.53928.53928,0,0,0,.2959-.15625.45565.45565,0,0,0,.11719-.32861V20.89062a.14406.14406,0,1,1,.28808,0v2.52a.71641.71641,0,0,1-.36718.64112.66471.66471,0,0,1-.32422.08838A.13029.13029,0,0,1,40.60352,24.102Zm.49414-3.78027a.16446.16446,0,0,1-.05274-.13184v-.04785a.1619.1619,0,0,1,.05567-.13232.22947.22947,0,0,1,.15136-.04541c.12793,0,.19141.05908.19141.17773v.04785a.16939.16939,0,0,1-.04981.13184.21159.21159,0,0,1-.14648.0459A.21972.21972,0,0,1,41.09766,20.32178Z"/><path class="cls-2" d="M42.18359,20.32666a.162.162,0,0,1-.05371-.13184V20.147a.16192.16192,0,0,1,.05567-.13232.23134.23134,0,0,1,.15136-.04541c.12793,0,.19139.05908.19139.17773v.04785a.1694.1694,0,0,1-.04978.13184.21164.21164,0,0,1-.14649.0459A.217.217,0,0,1,42.18359,20.32666Zm.252,2.82227a.14138.14138,0,0,1-.10352.041.14024.14024,0,0,1-.14453-.144v-2.208a.14024.14024,0,0,1,.14453-.144.13869.13869,0,0,1,.14356.144v2.208A.14184.14184,0,0,1,42.43555,23.14893Z"/><path class="cls-2" d="M45.03711,20.94092a1.08393,1.08393,0,0,1,.209.69385V23.0459a.134.134,0,0,1-.04394.103.14215.14215,0,0,1-.24414-.103v-1.397a.78855.78855,0,0,0-.15625-.50635.58247.58247,0,0,0-.48242-.19434.8613.8613,0,0,0-.69141.353.589.589,0,0,0-.11523.34766v1.397a.14406.14406,0,1,1-.28809,0V20.89551a.14406.14406,0,1,1,.28809,0v.26416a1.02634,1.02634,0,0,1,.37207-.34326.99943.99943,0,0,1,.49707-.13672A.7884.7884,0,0,1,45.03711,20.94092Z"/><path class="cls-2" d="M48.09473,20.78027a.14752.14752,0,0,1,.041.10547V23.0459a.14642.14642,0,0,1-.248.103.1418.1418,0,0,1-.04-.103v-.32178a1.00644,1.00644,0,0,1-.36036.36524.97411.97411,0,0,1-.52343.14843,1.03048,1.03048,0,0,1-.57813-.168,1.15781,1.15781,0,0,1-.40332-.46044,1.4504,1.4504,0,0,1-.14648-.65772,1.41222,1.41222,0,0,1,.14941-.65527,1.13661,1.13661,0,0,1,.40527-.45362,1.0722,1.0722,0,0,1,1.09668-.02392.917.917,0,0,1,.36036.36474v-.29785a.15093.15093,0,0,1,.04-.10547.14617.14617,0,0,1,.207,0Zm-.65332,2.05664a.894.894,0,0,0,.3125-.36474,1.17652,1.17652,0,0,0,.1123-.52051,1.1405,1.1405,0,0,0-.1123-.50879.89626.89626,0,0,0-.3125-.3623.79083.79083,0,0,0-.44825-.13233.805.805,0,0,0-.44921.12988.883.883,0,0,0-.31153.35743,1.14881,1.14881,0,0,0-.11328.51611,1.20325,1.20325,0,0,0,.11035.52051.88045.88045,0,0,0,.30957.36474.80071.80071,0,0,0,.4541.13233A.79083.79083,0,0,0,47.44141,22.83691Z"/><path class="cls-2" d="M48.71,22.69531a.15774.15774,0,0,1,.13965-.12451.14827.14827,0,0,1,.10547.04785.89874.89874,0,0,0,.7539.37451.73305.73305,0,0,0,.4004-.10791.351.351,0,0,0,.17089-.31445.33435.33435,0,0,0-.1582-.30225,1.54386,1.54386,0,0,0-.44238-.17285,1.86939,1.86939,0,0,1-.624-.26172.54358.54358,0,0,1-.22558-.47265.59876.59876,0,0,1,.11035-.353.731.731,0,0,1,.30078-.24219,1.02192,1.02192,0,0,1,.42871-.08642,1.171,1.171,0,0,1,.416.0791.88.88,0,0,1,.35742.25195.11617.11617,0,0,1,.043.09619.12938.12938,0,0,1-.13477.1294.11844.11844,0,0,1-.08594-.03858.76246.76246,0,0,0-.27343-.19677.87116.87116,0,0,0-.34082-.0669.69041.69041,0,0,0-.38672.10547.35324.35324,0,0,0-.16113.3169.34553.34553,0,0,0,.17578.29248,1.81819,1.81819,0,0,0,.4873.18261,2.26564,2.26564,0,0,1,.41211.13916.68619.68619,0,0,1,.2666.21582.60426.60426,0,0,1,.10352.36963.58589.58589,0,0,1-.25.49707,1.0104,1.0104,0,0,1-.61914.18457,1.1245,1.1245,0,0,1-.93067-.43652A.20885.20885,0,0,1,48.71,22.69531Z"/><path class="cls-2" d="M51.126,20.32666a.162.162,0,0,1-.05371-.13184V20.147a.16191.16191,0,0,1,.05566-.13232.23135.23135,0,0,1,.15137-.04541c.12793,0,.1914.05908.1914.17773v.04785a.16941.16941,0,0,1-.0498.13184.21164.21164,0,0,1-.14649.0459A.217.217,0,0,1,51.126,20.32666Zm.252,2.82227a.14136.14136,0,0,1-.10352.041.14024.14024,0,0,1-.14453-.144v-2.208a.14024.14024,0,0,1,.14453-.144.13869.13869,0,0,1,.14356.144v2.208A.1418.1418,0,0,1,51.37793,23.14893Z"/><path class="cls-2" d="M55.40918,20.73486a.1426.1426,0,0,1,.04.103v2.1167a1.3144,1.3144,0,0,1-.14844.648.99331.99331,0,0,1-.41308.4082,1.25443,1.25443,0,0,1-.59473.13916,1.5716,1.5716,0,0,1-.37695-.043.98935.98935,0,0,1-.29-.11523c-.06739-.042-.10157-.08838-.10157-.13916a.37052.37052,0,0,1,.00977-.04834.13232.13232,0,0,1,.04785-.07178.12212.12212,0,0,1,.07227-.02392.13177.13177,0,0,1,.05761.01416,1.22775,1.22775,0,0,0,.58594.168.82016.82016,0,0,0,.63086-.24951.95989.95989,0,0,0,.2334-.68164v-.168a.8807.8807,0,0,1-.3457.32422,1.01371,1.01371,0,0,1-.49024.12207.79317.79317,0,0,1-.63379-.24951,1.00164,1.00164,0,0,1-.21582-.67676V20.83789a.14024.14024,0,0,1,.14453-.144.13758.13758,0,0,1,.10254.041.13946.13946,0,0,1,.041.103v1.43066a.7888.7888,0,0,0,.15137.52295.58677.58677,0,0,0,.47265.17774.77078.77078,0,0,0,.377-.09863.80366.80366,0,0,0,.28809-.25928.60117.60117,0,0,0,.1084-.34278V20.83789a.14572.14572,0,0,1,.24707-.103Z"/><path class="cls-2" d="M58.49121,20.78027a.14753.14753,0,0,1,.041.10547V23.0459a.14643.14643,0,0,1-.248.103.1418.1418,0,0,1-.04-.103v-.32178a1.00641,1.00641,0,0,1-.36035.36524.97412.97412,0,0,1-.52344.14843,1.03042,1.03042,0,0,1-.57812-.168,1.15773,1.15773,0,0,1-.40332-.46044,1.45027,1.45027,0,0,1-.14649-.65772,1.41223,1.41223,0,0,1,.14942-.65527,1.13654,1.13654,0,0,1,.40527-.45362,1.0722,1.0722,0,0,1,1.09668-.02392.91694.91694,0,0,1,.36035.36474v-.29785a.15093.15093,0,0,1,.04-.10547.14617.14617,0,0,1,.207,0Zm-.65332,2.05664a.8939.8939,0,0,0,.3125-.36474,1.17638,1.17638,0,0,0,.11231-.52051,1.14037,1.14037,0,0,0-.11231-.50879.89618.89618,0,0,0-.3125-.3623.7908.7908,0,0,0-.44824-.13233.80507.80507,0,0,0-.44922.12988.883.883,0,0,0-.31152.35743,1.14869,1.14869,0,0,0-.11329.51611,1.20311,1.20311,0,0,0,.11036.52051.88038.88038,0,0,0,.30957.36474.80069.80069,0,0,0,.4541.13233A.7908.7908,0,0,0,57.83789,22.83691Z"/><path class="cls-2" d="M59.209,23.14209a.19311.19311,0,0,1-.04394-.13477v-.10546a.19179.19179,0,0,1,.04394-.13428.16242.16242,0,0,1,.12891-.04785h.0293a.15912.15912,0,0,1,.125.04785.19616.19616,0,0,1,.043.13428v.10546a.19752.19752,0,0,1-.043.13477.16081.16081,0,0,1-.125.04785h-.0293A.16409.16409,0,0,1,59.209,23.14209Zm.043-.99365-.05273-2.12158a.24136.24136,0,0,1,.03808-.144.13359.13359,0,0,1,.11524-.05273.13175.13175,0,0,1,.11523.05517.217.217,0,0,1,.03321.14161l-.05274,2.12158c-.00293.06689-.03515.10058-.0957.10058C59.29492,22.249,59.26172,22.21533,59.252,22.14844Z"/><path class="cls-1" d="M83.30273,28.28027a.18746.18746,0,0,1-.05468-.00781L62.77539,22.4082a.2.2,0,1,1,.10938-.38476L83.35742,27.8877a.20009.20009,0,0,1-.05469.39257Z"/></svg>