<svg id="Layer_1" data-name="Layer 1" xmlns="http://www.w3.org/2000/svg" viewBox="0 0 84 55"><defs><style>.cls-1{fill:#933034;}.cls-2{fill:#fff;}.cls-3,.cls-4,.cls-5{fill:none;stroke:#933034;stroke-miterlimit:10;stroke-width:0.25px;}.cls-3{stroke-dasharray:1.97535 1.97535;}.cls-5{stroke-dasharray:2.16296 2.16296;}</style></defs><circle class="cls-1" cx="38.42428" cy="39.30649" r="3.96478"/><path class="cls-2" d="M39.37924,39.70927a.148.148,0,0,1,0,.2124.15388.15388,0,0,1-.10938.04248h-.35547v.98828a.15323.15323,0,0,1-.04785.11426.16663.16663,0,0,1-.11719.04492.14673.14673,0,0,1-.11133-.04492.16106.16106,0,0,1-.043-.11426v-.98828H37.03353a.14966.14966,0,0,1-.11133-.05029.16057.16057,0,0,1-.04785-.11426.15791.15791,0,0,1,.03711-.10645l1.71094-2.23632a.14806.14806,0,0,1,.13281-.064.15494.15494,0,0,1,.11426.04541.15844.15844,0,0,1,.04492.11426v2.11426h.35547A.15388.15388,0,0,1,39.37924,39.70927Zm-2.06934-.04248h1.28516v-1.7002Z"/><path class="cls-1" d="M48.29818,38.012a.182.182,0,0,1-.0332.09571.13555.13555,0,0,1-.11035.05273.143.143,0,0,1-.07715-.02441,1.49448,1.49448,0,0,0-.83985-.25391,1.37281,1.37281,0,0,0-.70312.18262,1.29553,1.29553,0,0,0-.49414.51074,1.65315,1.65315,0,0,0,.00195,1.50293,1.30425,1.30425,0,0,0,.49707.50879,1.38978,1.38978,0,0,0,.69824.17969,1.48124,1.48124,0,0,0,.835-.25.1562.1562,0,0,1,.082-.02344.13.13,0,0,1,.11035.05761.13209.13209,0,0,1,.0332.09083.12467.12467,0,0,1-.06641.11523,1.75584,1.75584,0,0,1-.46093.209,1.82514,1.82514,0,0,1-.53321.084,1.68066,1.68066,0,0,1-.84179-.21875A1.62875,1.62875,0,0,1,45.7806,40.22a1.768,1.768,0,0,1-.22754-.89844,1.74972,1.74972,0,0,1,.22559-.88086,1.6462,1.6462,0,0,1,1.459-.84179,1.80092,1.80092,0,0,1,.52539.07714,1.67137,1.67137,0,0,1,.46387.21583A.13234.13234,0,0,1,48.29818,38.012Z"/><path class="cls-1" d="M50.94369,40.42606a1.16634,1.16634,0,0,1-.43653.458,1.23749,1.23749,0,0,1-1.23828,0,1.17564,1.17564,0,0,1-.4375-.458,1.42609,1.42609,0,0,1,0-1.30566,1.19713,1.19713,0,0,1,.4375-.46094,1.22506,1.22506,0,0,1,1.23828,0,1.18755,1.18755,0,0,1,.43653.46094,1.42609,1.42609,0,0,1,0,1.30566Zm-.25-1.17089a.89761.89761,0,0,0-.333-.36231.8746.8746,0,0,0-.47266-.13281.86328.86328,0,0,0-.4707.13281.93514.93514,0,0,0-.334.36231,1.15,1.15,0,0,0,0,1.03125.93518.93518,0,0,0,.334.3623.86328.86328,0,0,0,.4707.13281.89814.89814,0,0,0,.47266-.12988.88613.88613,0,0,0,.333-.36035,1.17724,1.17724,0,0,0,0-1.03613Z"/><path class="cls-1" d="M53.50424,38.75321a1.08253,1.08253,0,0,1,.209.69336v1.41114a.135.135,0,0,1-.044.10351.14743.14743,0,0,1-.2041,0,.143.143,0,0,1-.04-.10351V39.46122a.789.789,0,0,0-.15625-.50683.5839.5839,0,0,0-.48242-.19434.86359.86359,0,0,0-.6914.35351.58676.58676,0,0,0-.11524.34766v1.39649a.1398.1398,0,0,1-.041.10351.13762.13762,0,0,1-.10254.041.14026.14026,0,0,1-.14453-.14453v-2.1504a.13758.13758,0,0,1,.041-.10253.13978.13978,0,0,1,.10352-.041.14018.14018,0,0,1,.14355.14355V38.972a1.032,1.032,0,0,1,.37207-.34375,1.00455,1.00455,0,0,1,.49707-.13672A.78726.78726,0,0,1,53.50424,38.75321Z"/><path class="cls-1" d="M54.94662,38.82743v1.6084a.34312.34312,0,0,0,.06738.24707.243.243,0,0,0,.17676.06445.28165.28165,0,0,0,.07226-.01171.28425.28425,0,0,1,.06739-.01172.09285.09285,0,0,1,.07422.03613.12432.12432,0,0,1,.03125.084.13187.13187,0,0,1-.07618.11231.35455.35455,0,0,1-.18261.0459.96468.96468,0,0,1-.23047-.02442.36186.36186,0,0,1-.19434-.14355.62626.62626,0,0,1-.09375-.38379v-1.623H54.308a.14041.14041,0,0,1-.09864-.03808.12475.12475,0,0,1-.04-.09571.12684.12684,0,0,1,.04-.09668.14041.14041,0,0,1,.09864-.03808h.35058v-.53321a.13908.13908,0,0,1,.041-.10253.13755.13755,0,0,1,.10254-.041.14024.14024,0,0,1,.14453.14355v.53321h.47949a.12754.12754,0,0,1,.09375.043.13665.13665,0,0,1,.041.0957.12146.12146,0,0,1-.03809.09375.13508.13508,0,0,1-.09668.03613Z"/><path class="cls-1" d="M58.17709,40.42606a1.16634,1.16634,0,0,1-.43653.458,1.23749,1.23749,0,0,1-1.23828,0,1.17564,1.17564,0,0,1-.4375-.458,1.42609,1.42609,0,0,1,0-1.30566,1.19713,1.19713,0,0,1,.4375-.46094,1.22506,1.22506,0,0,1,1.23828,0,1.18755,1.18755,0,0,1,.43653.46094,1.42609,1.42609,0,0,1,0,1.30566Zm-.25-1.17089a.89761.89761,0,0,0-.333-.36231.87463.87463,0,0,0-.47266-.13281.86326.86326,0,0,0-.4707.13281.93507.93507,0,0,0-.334.36231,1.14994,1.14994,0,0,0,0,1.03125.93511.93511,0,0,0,.334.3623.86326.86326,0,0,0,.4707.13281.89817.89817,0,0,0,.47266-.12988.88613.88613,0,0,0,.333-.36035,1.17733,1.17733,0,0,0,0-1.03613Z"/><path class="cls-1" d="M60.68685,38.80106a1.10493,1.10493,0,0,1,.21094.69825v1.3584a.14292.14292,0,0,1-.04.10351.14361.14361,0,0,1-.24707-.10351v-1.3584a.805.805,0,0,0-.14941-.50586.547.547,0,0,0-.46582-.19434.79307.79307,0,0,0-.38086.0957.81409.81409,0,0,0-.291.25684.60433.60433,0,0,0-.11035.34766v1.3584a.13977.13977,0,0,1-.041.10351.13759.13759,0,0,1-.10254.041.14028.14028,0,0,1-.14453-.14453V37.594a.13874.13874,0,0,1,.14453-.14355.13681.13681,0,0,1,.10254.04.13977.13977,0,0,1,.041.10351v1.40625a1.00983,1.00983,0,0,1,.36035-.33789.938.938,0,0,1,.4707-.13281A.76475.76475,0,0,1,60.68685,38.80106Z"/><path class="cls-1" d="M64.94955,40.85771a.128.128,0,0,1-.04981.10351.156.156,0,0,1-.09375.041.13039.13039,0,0,1-.10547-.05274l-1.06152-1.123-.35937.30664v.72461a.14028.14028,0,0,1-.14454.14453.13758.13758,0,0,1-.10253-.041.13977.13977,0,0,1-.041-.10351V37.594a.13977.13977,0,0,1,.041-.10351.1368.1368,0,0,1,.10253-.04.13874.13874,0,0,1,.14454.14355v2.18848l1.38671-1.19531a.13511.13511,0,0,1,.10059-.04785.13312.13312,0,0,1,.09668.04589.14319.14319,0,0,1,.043.09864.15654.15654,0,0,1-.05274.11035l-.98925.83984,1.042,1.11328A.16358.16358,0,0,1,64.94955,40.85771Z"/><path class="cls-1" d="M67.53158,40.42606a1.16639,1.16639,0,0,1-.43652.458,1.23751,1.23751,0,0,1-1.23829,0,1.17564,1.17564,0,0,1-.4375-.458,1.42609,1.42609,0,0,1,0-1.30566,1.19713,1.19713,0,0,1,.4375-.46094,1.22508,1.22508,0,0,1,1.23829,0,1.1876,1.1876,0,0,1,.43652.46094,1.42609,1.42609,0,0,1,0,1.30566Zm-.25-1.17089a.89761.89761,0,0,0-.333-.36231.8746.8746,0,0,0-.47266-.13281.86328.86328,0,0,0-.4707.13281.93514.93514,0,0,0-.334.36231,1.15,1.15,0,0,0,0,1.03125.93518.93518,0,0,0,.334.3623.86328.86328,0,0,0,.4707.13281.89814.89814,0,0,0,.47266-.12988.88613.88613,0,0,0,.333-.36035,1.17724,1.17724,0,0,0,0-1.03613Z"/><path class="cls-1" d="M68.10287,40.50712a.10605.10605,0,0,1,.0625-.0957.10712.10712,0,0,1,.07715-.02832.14636.14636,0,0,1,.10547.04785.89954.89954,0,0,0,.7539.374.73693.73693,0,0,0,.40039-.10742.351.351,0,0,0,.1709-.31445.33515.33515,0,0,0-.1582-.30274,1.54382,1.54382,0,0,0-.44239-.17285,1.86962,1.86962,0,0,1-.624-.26172.54359.54359,0,0,1-.22558-.47265.5972.5972,0,0,1,.11035-.35254.727.727,0,0,1,.30078-.24219,1.02183,1.02183,0,0,1,.42871-.08692,1.171,1.171,0,0,1,.416.07911.87983.87983,0,0,1,.35743.252.11649.11649,0,0,1,.043.09668.12855.12855,0,0,1-.13477.12891.11975.11975,0,0,1-.08594-.03809.75818.75818,0,0,0-.27344-.19727.87986.87986,0,0,0-.34082-.0664.6903.6903,0,0,0-.38671.10547.35294.35294,0,0,0-.16114.3164.347.347,0,0,0,.17578.293,1.83513,1.83513,0,0,0,.48731.18262,2.268,2.268,0,0,1,.41211.13867.69064.69064,0,0,1,.2666.21582.60678.60678,0,0,1,.10352.37012.58591.58591,0,0,1-.25.49707,1.0105,1.0105,0,0,1-.61915.18457,1.1245,1.1245,0,0,1-.93066-.43653A.21013.21013,0,0,1,68.10287,40.50712Z"/><path class="cls-1" d="M72.66537,38.59208a.14915.14915,0,0,1,.041.10547v2.16016a.14641.14641,0,0,1-.248.10351.14292.14292,0,0,1-.04-.10351v-.32129a1.01394,1.01394,0,0,1-.36035.36523.97842.97842,0,0,1-.52344.14844,1.03055,1.03055,0,0,1-.57813-.168,1.15943,1.15943,0,0,1-.40332-.46094,1.44824,1.44824,0,0,1-.14648-.65722,1.41084,1.41084,0,0,1,.14941-.65528,1.13809,1.13809,0,0,1,.40528-.4541,1.0706,1.0706,0,0,1,1.09668-.02344.916.916,0,0,1,.36035.36426v-.29785a.15263.15263,0,0,1,.04-.10547.14617.14617,0,0,1,.207,0Zm-.65332,2.05664a.8925.8925,0,0,0,.3125-.36426,1.17945,1.17945,0,0,0,.1123-.5205,1.1405,1.1405,0,0,0-.1123-.50879.89309.89309,0,0,0-.3125-.36231.78745.78745,0,0,0-.44824-.13281.8089.8089,0,0,0-.44922.12988.88942.88942,0,0,0-.31153.35742,1.151,1.151,0,0,0-.11328.51661,1.20628,1.20628,0,0,0,.11035.5205.879.879,0,0,0,.30957.36426.79733.79733,0,0,0,.45411.13281A.78745.78745,0,0,0,72.01205,40.64872Z"/><path class="cls-1" d="M75.44662,40.85771a.128.128,0,0,1-.04981.10351.156.156,0,0,1-.09375.041.13039.13039,0,0,1-.10547-.05274l-1.06152-1.123-.35937.30664v.72461a.14028.14028,0,0,1-.14454.14453.13758.13758,0,0,1-.10253-.041.13977.13977,0,0,1-.041-.10351V37.594a.13977.13977,0,0,1,.041-.10351.1368.1368,0,0,1,.10253-.04.13874.13874,0,0,1,.14454.14355v2.18848l1.38671-1.19531a.13511.13511,0,0,1,.10059-.04785.13312.13312,0,0,1,.09668.04589.14319.14319,0,0,1,.043.09864.15654.15654,0,0,1-.05274.11035l-.98925.83984,1.042,1.11328A.16358.16358,0,0,1,75.44662,40.85771Z"/><path class="cls-1" d="M78.10384,38.59208a.14912.14912,0,0,1,.041.10547v2.16016a.14642.14642,0,0,1-.248.10351.143.143,0,0,1-.04-.10351v-.32129a1.01378,1.01378,0,0,1-.36035.36523.97836.97836,0,0,1-.52343.14844,1.03055,1.03055,0,0,1-.57813-.168,1.15935,1.15935,0,0,1-.40332-.46094,1.44811,1.44811,0,0,1-.14648-.65722,1.41084,1.41084,0,0,1,.14941-.65528,1.138,1.138,0,0,1,.40527-.4541,1.0706,1.0706,0,0,1,1.09668-.02344.91583.91583,0,0,1,.36035.36426v-.29785a.15267.15267,0,0,1,.04-.10547.14617.14617,0,0,1,.207,0Zm-.65332,2.05664a.89235.89235,0,0,0,.3125-.36426,1.17931,1.17931,0,0,0,.11231-.5205,1.14037,1.14037,0,0,0-.11231-.50879.89294.89294,0,0,0-.3125-.36231.78743.78743,0,0,0-.44824-.13281.809.809,0,0,0-.44922.12988.88948.88948,0,0,0-.31152.35742,1.15084,1.15084,0,0,0-.11328.51661,1.20628,1.20628,0,0,0,.11035.5205.879.879,0,0,0,.30957.36426.7973.7973,0,0,0,.4541.13281A.78743.78743,0,0,0,77.45052,40.64872Z"/><path class="cls-1" d="M79.37826,38.82743v1.6084a.34312.34312,0,0,0,.06738.24707.243.243,0,0,0,.17676.06445.28165.28165,0,0,0,.07226-.01171.28425.28425,0,0,1,.06739-.01172.09285.09285,0,0,1,.07422.03613.12432.12432,0,0,1,.03125.084.13187.13187,0,0,1-.07618.11231.35455.35455,0,0,1-.18261.0459.96468.96468,0,0,1-.23047-.02442.36186.36186,0,0,1-.19434-.14355.62626.62626,0,0,1-.09375-.38379v-1.623h-.35058a.14041.14041,0,0,1-.09864-.03808.12475.12475,0,0,1-.04-.09571.12684.12684,0,0,1,.04-.09668.14041.14041,0,0,1,.09864-.03808h.35058v-.53321a.13908.13908,0,0,1,.041-.10253.13757.13757,0,0,1,.10254-.041.14024.14024,0,0,1,.14453.14355v.53321h.47949a.12754.12754,0,0,1,.09375.043.13665.13665,0,0,1,.041.0957.12146.12146,0,0,1-.03809.09375.13508.13508,0,0,1-.09668.03613Z"/><path class="cls-1" d="M82.62045,38.59208a.14915.14915,0,0,1,.041.10547v2.16016a.14642.14642,0,0,1-.24805.10351.143.143,0,0,1-.04-.10351v-.32129a1.01389,1.01389,0,0,1-.36036.36523.97836.97836,0,0,1-.52343.14844,1.03055,1.03055,0,0,1-.57813-.168,1.15935,1.15935,0,0,1-.40332-.46094,1.44824,1.44824,0,0,1-.14648-.65722,1.41084,1.41084,0,0,1,.14941-.65528,1.13807,1.13807,0,0,1,.40527-.4541,1.0706,1.0706,0,0,1,1.09668-.02344.91592.91592,0,0,1,.36036.36426v-.29785a.15266.15266,0,0,1,.04-.10547.14618.14618,0,0,1,.207,0Zm-.65332,2.05664a.8925.8925,0,0,0,.3125-.36426,1.17945,1.17945,0,0,0,.1123-.5205,1.1405,1.1405,0,0,0-.1123-.50879.89309.89309,0,0,0-.3125-.36231.78748.78748,0,0,0-.44825-.13281.809.809,0,0,0-.44922.12988.88948.88948,0,0,0-.31152.35742,1.151,1.151,0,0,0-.11328.51661,1.20628,1.20628,0,0,0,.11035.5205.879.879,0,0,0,.30957.36426.7973.7973,0,0,0,.4541.13281A.78748.78748,0,0,0,81.96713,40.64872Z"/><path class="cls-1" d="M48.03939,45.264a.97719.97719,0,0,1-.1084,1.26464,1.11544,1.11544,0,0,1-.72168.2334h-1.292a.1402.1402,0,0,1-.14355-.14453V43.54618a.14022.14022,0,0,1,.14355-.14453h1.27246a.8708.8708,0,0,1,.63086.2207.80237.80237,0,0,1,.22852.60547.84738.84738,0,0,1-.125.45508.70841.70841,0,0,1-.35547.293A.87991.87991,0,0,1,48.03939,45.264Zm-.45312-1.42774a.60042.60042,0,0,0-.43457-.15137H46.08138v1.2002H47.1517a.59671.59671,0,0,0,.4248-.168.62358.62358,0,0,0,.165-.46582A.55238.55238,0,0,0,47.58627,43.83622Zm.1289,2.47949a.59774.59774,0,0,0,.19922-.49023.58462.58462,0,0,0-.2041-.49414.8309.8309,0,0,0-.52539-.1582H46.08138V46.4788h1.11328A.79792.79792,0,0,0,47.71517,46.31571Z"/><path class="cls-1" d="M50.9222,44.35185a.14909.14909,0,0,1,.041.10546v2.16016a.14642.14642,0,0,1-.248.10352.143.143,0,0,1-.04-.10352v-.32129a1.01372,1.01372,0,0,1-.36035.36524.97836.97836,0,0,1-.52344.14843,1.03054,1.03054,0,0,1-.57812-.168,1.15935,1.15935,0,0,1-.40332-.46094,1.44813,1.44813,0,0,1-.14649-.65723,1.41083,1.41083,0,0,1,.14942-.65527,1.13787,1.13787,0,0,1,.40527-.4541,1.0706,1.0706,0,0,1,1.09668-.02344.91577.91577,0,0,1,.36035.36426v-.29786a.15265.15265,0,0,1,.04-.10546.14617.14617,0,0,1,.207,0Zm-.65332,2.05664a.89241.89241,0,0,0,.3125-.36426,1.17933,1.17933,0,0,0,.11231-.52051,1.14037,1.14037,0,0,0-.11231-.50879.893.893,0,0,0-.3125-.3623.78743.78743,0,0,0-.44824-.13282.809.809,0,0,0-.44922.12989.88927.88927,0,0,0-.31152.35742,1.1508,1.1508,0,0,0-.11328.5166,1.20629,1.20629,0,0,0,.11035.52051.879.879,0,0,0,.30957.36426.79737.79737,0,0,0,.4541.13281A.7875.7875,0,0,0,50.26888,46.40849Z"/><path class="cls-1" d="M53.47787,44.56083a1.105,1.105,0,0,1,.21094.69824v1.3584a.143.143,0,0,1-.04.10352.14361.14361,0,0,1-.24707-.10352v-1.3584a.80506.80506,0,0,0-.14942-.50586.547.547,0,0,0-.46582-.19433.79309.79309,0,0,0-.38086.0957.814.814,0,0,0-.291.25684.60423.60423,0,0,0-.11035.34765v1.3584a.13985.13985,0,0,1-.041.10352.1376.1376,0,0,1-.10254.041.14025.14025,0,0,1-.14453-.14453V43.3538a.13872.13872,0,0,1,.14453-.14356.13686.13686,0,0,1,.10254.04.13985.13985,0,0,1,.041.10352v1.40625a1.00974,1.00974,0,0,1,.36035-.33789.93793.93793,0,0,1,.4707-.13281A.76476.76476,0,0,1,53.47787,44.56083Z"/><path class="cls-1" d="M56.53744,44.35185a.14913.14913,0,0,1,.041.10546v2.16016a.14642.14642,0,0,1-.248.10352.143.143,0,0,1-.04-.10352v-.32129a1.01388,1.01388,0,0,1-.36035.36524.97841.97841,0,0,1-.52344.14843,1.03055,1.03055,0,0,1-.57813-.168,1.15943,1.15943,0,0,1-.40332-.46094,1.44825,1.44825,0,0,1-.14648-.65723,1.41083,1.41083,0,0,1,.14941-.65527,1.138,1.138,0,0,1,.40528-.4541A1.0706,1.0706,0,0,1,55.93,44.39091a.9159.9159,0,0,1,.36035.36426v-.29786a.1526.1526,0,0,1,.04-.10546.14617.14617,0,0,1,.207,0Zm-.65332,2.05664a.89256.89256,0,0,0,.3125-.36426,1.17946,1.17946,0,0,0,.1123-.52051,1.1405,1.1405,0,0,0-.1123-.50879.89313.89313,0,0,0-.3125-.3623.78746.78746,0,0,0-.44824-.13282.80891.80891,0,0,0-.44922.12989.88929.88929,0,0,0-.31153.35742,1.15093,1.15093,0,0,0-.11328.5166,1.20629,1.20629,0,0,0,.11035.52051.879.879,0,0,0,.30957.36426.79741.79741,0,0,0,.45411.13281A.78752.78752,0,0,0,55.88412,46.40849Z"/><path class="cls-1" d="M57.15365,46.26689a.10607.10607,0,0,1,.0625-.09571.10716.10716,0,0,1,.07715-.02832.1464.1464,0,0,1,.10547.04785.89954.89954,0,0,0,.7539.374.73694.73694,0,0,0,.40039-.10743.351.351,0,0,0,.1709-.31445.33514.33514,0,0,0-.1582-.30273,1.54357,1.54357,0,0,0-.44238-.17285,1.8698,1.8698,0,0,1-.624-.26172.5436.5436,0,0,1-.22558-.47266.5973.5973,0,0,1,.11035-.35254.72713.72713,0,0,1,.30078-.24219,1.022,1.022,0,0,1,.42871-.08691,1.17126,1.17126,0,0,1,.416.0791.88006.88006,0,0,1,.35742.252.11651.11651,0,0,1,.043.09668.12854.12854,0,0,1-.13477.12891.11971.11971,0,0,1-.08594-.03809.75809.75809,0,0,0-.27343-.19726.87975.87975,0,0,0-.34082-.06641.69039.69039,0,0,0-.38672.10547.35294.35294,0,0,0-.16114.31641.347.347,0,0,0,.17579.293,1.83473,1.83473,0,0,0,.4873.18261,2.26763,2.26763,0,0,1,.41211.13868.69046.69046,0,0,1,.2666.21582.60675.60675,0,0,1,.10352.37011.58589.58589,0,0,1-.25.49707,1.0104,1.0104,0,0,1-.61914.18457,1.1245,1.1245,0,0,1-.93067-.43652A.21016.21016,0,0,1,57.15365,46.26689Z"/><path class="cls-1" d="M61.71713,44.35185a.14913.14913,0,0,1,.041.10546v2.16016a.14642.14642,0,0,1-.248.10352.143.143,0,0,1-.04-.10352v-.32129a1.01383,1.01383,0,0,1-.36036.36524.97835.97835,0,0,1-.52343.14843,1.03055,1.03055,0,0,1-.57813-.168,1.15935,1.15935,0,0,1-.40332-.46094,1.44812,1.44812,0,0,1-.14648-.65723,1.41083,1.41083,0,0,1,.14941-.65527,1.13794,1.13794,0,0,1,.40527-.4541,1.0706,1.0706,0,0,1,1.09668-.02344.91586.91586,0,0,1,.36036.36426v-.29786a.15264.15264,0,0,1,.04-.10546.14618.14618,0,0,1,.207,0Zm-.65332,2.05664a.89256.89256,0,0,0,.3125-.36426,1.17946,1.17946,0,0,0,.1123-.52051,1.1405,1.1405,0,0,0-.1123-.50879.89313.89313,0,0,0-.3125-.3623.78749.78749,0,0,0-.44825-.13282.809.809,0,0,0-.44922.12989.88934.88934,0,0,0-.31152.35742,1.15093,1.15093,0,0,0-.11328.5166,1.20629,1.20629,0,0,0,.11035.52051.879.879,0,0,0,.30957.36426.79737.79737,0,0,0,.4541.13281A.78756.78756,0,0,0,61.06381,46.40849Z"/><path class="cls-1" d="M64.1517,46.64384a1.082,1.082,0,0,1-.36914-.44336.15179.15179,0,0,1-.02442-.07715.12067.12067,0,0,1,.0459-.0957.15228.15228,0,0,1,.09863-.03907.16316.16316,0,0,1,.13379.082.789.789,0,0,0,.26465.3291.65861.65861,0,0,0,.38867.12207.73056.73056,0,0,0,.53711-.2041.71883.71883,0,0,0,.207-.53516V43.54618a.1377.1377,0,0,1,.043-.10351.15433.15433,0,0,1,.11035-.041.14652.14652,0,0,1,.1084.041.14292.14292,0,0,1,.04.10351v2.23633a1.0442,1.0442,0,0,1-.13379.52832.96035.96035,0,0,1-.37207.36719,1.09488,1.09488,0,0,1-.54.13183A.92776.92776,0,0,1,64.1517,46.64384Z"/><path class="cls-1" d="M68.597,45.49247a.13851.13851,0,0,1-.10059.04H66.682a1.10322,1.10322,0,0,0,.11816.5166.88265.88265,0,0,0,.33594.35938.96969.96969,0,0,0,.51563.13281.871.871,0,0,0,.41308-.09668.86039.86039,0,0,0,.293-.24414.15982.15982,0,0,1,.10059-.044.11924.11924,0,0,1,.08593.03907.11713.11713,0,0,1,.03907.08593.14337.14337,0,0,1-.04785.10059,1.20959,1.20959,0,0,1-.38672.30762,1.05936,1.05936,0,0,1-.49219.12011,1.31413,1.31413,0,0,1-.65234-.1582,1.12566,1.12566,0,0,1-.44239-.44434,1.33919,1.33919,0,0,1-.1582-.66015,1.4468,1.4468,0,0,1,.15625-.68848,1.11481,1.11481,0,0,1,.415-.45117,1.04766,1.04766,0,0,1,.55176-.15625,1.12683,1.12683,0,0,1,.54.13477,1.0723,1.0723,0,0,1,.41113.39355,1.19316,1.19316,0,0,1,.16308.61426A.13063.13063,0,0,1,68.597,45.49247ZM67.01107,44.722a.88963.88963,0,0,0-.30469.55176H68.3431v-.03808a.762.762,0,0,0-.14453-.377.77818.77818,0,0,0-.2998-.24512.87622.87622,0,0,0-.37207-.084A.80388.80388,0,0,0,67.01107,44.722Z"/><path class="cls-1" d="M70.97884,44.45048a1.11438,1.11438,0,0,1,.40528.44629,1.48479,1.48479,0,0,1,0,1.28613,1.13177,1.13177,0,0,1-.40332.44922,1.04912,1.04912,0,0,1-.57324.16309,1.02174,1.02174,0,0,1-.51172-.13184,1.03993,1.03993,0,0,1-.37207-.35254v1.2666a.13985.13985,0,0,1-.041.10352.1376.1376,0,0,1-.10254.041.14026.14026,0,0,1-.14453-.14453v-3.1289a.1498.1498,0,0,1,.041-.10645.1377.1377,0,0,1,.10351-.043.13557.13557,0,0,1,.10254.043.14984.14984,0,0,1,.041.10645v.32617a.89566.89566,0,0,1,.36035-.35547,1.0587,1.0587,0,0,1,.51855-.12988A1.07049,1.07049,0,0,1,70.97884,44.45048Zm-.15136,1.94922a.87165.87165,0,0,0,.31152-.35352,1.1202,1.1202,0,0,0,.11328-.50879,1.09294,1.09294,0,0,0-.11328-.501.86955.86955,0,0,0-.31152-.35059.817.817,0,0,0-.44922-.127.85.85,0,0,0-.45606.124.83757.83757,0,0,0-.31152.34863,1.11652,1.11652,0,0,0-.11035.50586,1.132,1.132,0,0,0,.11035.50879.85094.85094,0,0,0,.31152.35352.83531.83531,0,0,0,.45606.12695A.817.817,0,0,0,70.82748,46.3997Z"/><path class="cls-1" d="M74.221,44.35185a.14909.14909,0,0,1,.041.10546v2.16016a.14642.14642,0,0,1-.24805.10352.143.143,0,0,1-.04-.10352v-.32129a1.0138,1.0138,0,0,1-.36035.36524.97838.97838,0,0,1-.52344.14843,1.03054,1.03054,0,0,1-.57812-.168,1.15927,1.15927,0,0,1-.40332-.46094,1.44813,1.44813,0,0,1-.14649-.65723,1.41083,1.41083,0,0,1,.14942-.65527,1.13787,1.13787,0,0,1,.40527-.4541,1.0706,1.0706,0,0,1,1.09668-.02344.91583.91583,0,0,1,.36035.36426v-.29786a.1526.1526,0,0,1,.04-.10546.14617.14617,0,0,1,.207,0Zm-.65332,2.05664a.89249.89249,0,0,0,.3125-.36426,1.17933,1.17933,0,0,0,.11231-.52051,1.14037,1.14037,0,0,0-.11231-.50879.89305.89305,0,0,0-.3125-.3623.78743.78743,0,0,0-.44824-.13282.80894.80894,0,0,0-.44922.12989.88927.88927,0,0,0-.31152.35742,1.1508,1.1508,0,0,0-.11328.5166,1.20629,1.20629,0,0,0,.11035.52051.879.879,0,0,0,.30957.36426.79737.79737,0,0,0,.4541.13281A.7875.7875,0,0,0,73.56771,46.40849Z"/><path class="cls-1" d="M76.82748,44.513a1.08249,1.08249,0,0,1,.209.69336v1.41113a.1351.1351,0,0,1-.04394.10352.14747.14747,0,0,1-.20411,0,.143.143,0,0,1-.04-.10352V45.221a.789.789,0,0,0-.15625-.50684.58394.58394,0,0,0-.48243-.19434.86357.86357,0,0,0-.6914.35352.58683.58683,0,0,0-.11524.34766v1.39648a.13984.13984,0,0,1-.041.10352.13762.13762,0,0,1-.10254.041.14025.14025,0,0,1-.14453-.14453V44.46708a.1376.1376,0,0,1,.041-.10254.13984.13984,0,0,1,.10352-.041.14016.14016,0,0,1,.14355.14355v.26465a1.032,1.032,0,0,1,.37207-.34375,1.00455,1.00455,0,0,1,.49707-.13672A.78722.78722,0,0,1,76.82748,44.513Z"/><path class="cls-1" d="M79.96517,44.34989a.14577.14577,0,0,1,.041.10742v2.07911a1.24323,1.24323,0,0,1-.15625.64062,1.0278,1.0278,0,0,1-.42676.40527,1.34188,1.34188,0,0,1-.62207.13965,1.57845,1.57845,0,0,1-.35254-.043,1.47152,1.47152,0,0,1-.31641-.11035c-.08789-.04492-.13867-.09179-.15136-.13965a.1051.1051,0,0,1-.03321-.07714.08622.08622,0,0,1,.043-.07618.07557.07557,0,0,1,.04785-.01464.36489.36489,0,0,1,.11036.0332l.10058.04394a1.55958,1.55958,0,0,0,.55664.11524.90427.90427,0,0,0,.66992-.24317.88619.88619,0,0,0,.24219-.65527V46.2581a.8836.8836,0,0,1-.3789.40527,1.08743,1.08743,0,0,1-.543.14648,1.10462,1.10462,0,0,1-.59668-.166,1.16376,1.16376,0,0,1-.4209-.458,1.47694,1.47694,0,0,1,0-1.31055,1.16373,1.16373,0,0,1,.4209-.458,1.09841,1.09841,0,0,1,.59277-.166,1.05808,1.05808,0,0,1,.55371.15137,1.01326,1.01326,0,0,1,.37207.3623v-.30762a.14909.14909,0,0,1,.041-.10546.1377.1377,0,0,1,.10351-.043A.13912.13912,0,0,1,79.96517,44.34989Zm-.67187,2.06348a.85723.85723,0,0,0,.32617-.35938,1.14252,1.14252,0,0,0,.11816-.52539,1.12586,1.12586,0,0,0-.11816-.52343.86382.86382,0,0,0-.32617-.35743.88837.88837,0,0,0-.47266-.12793.84881.84881,0,0,0-.46777.13282.89543.89543,0,0,0-.32617.3623,1.184,1.184,0,0,0,0,1.03125.8954.8954,0,0,0,.32617.36231.84888.84888,0,0,0,.46777.13281A.88837.88837,0,0,0,79.2933,46.41337Z"/><path class="cls-1" d="M81.05111,47.01884a.72973.72973,0,0,1-.17578.22558.32644.32644,0,0,1-.20606.08887.1453.1453,0,0,1-.08886-.02637.09074.09074,0,0,1-.03614-.0791.07988.07988,0,0,1,.02442-.06738.21113.21113,0,0,1,.07422-.03418.34921.34921,0,0,0,.07422-.02832.24043.24043,0,0,0,.10351-.09863.29266.29266,0,0,0,.03516-.1416.12346.12346,0,0,0-.02832-.08594.0972.0972,0,0,0-.07715-.03418.19928.19928,0,0,0-.12891.043.14237.14237,0,0,1-.05761-.11524.18459.18459,0,0,1,.08593-.15039.30235.30235,0,0,1,.1875-.06543.27673.27673,0,0,1,.2041.0791.29614.29614,0,0,1,.07911.21875A.60247.60247,0,0,1,81.05111,47.01884Z"/><path class="cls-1" d="M47.44466,50.17509a1.121,1.121,0,0,1,.40528.45312,1.4371,1.4371,0,0,1,.14648.65528,1.45166,1.45166,0,0,1-.14648.65527,1.14557,1.14557,0,0,1-.40332.46289,1.02145,1.02145,0,0,1-.57324.168.97726.97726,0,0,1-.50684-.13672,1.10625,1.10625,0,0,1-.377-.3623V52.388a.14918.14918,0,0,1-.041.10547.13557.13557,0,0,1-.10254.043.1377.1377,0,0,1-.10351-.043.14913.14913,0,0,1-.041-.10547V49.11845a.14024.14024,0,0,1,.14453-.14356.13757.13757,0,0,1,.10254.041.13913.13913,0,0,1,.041.10254v1.416a1.01375,1.01375,0,0,1,.36523-.3789.96639.96639,0,0,1,.51367-.14356A1.05537,1.05537,0,0,1,47.44466,50.17509Zm-.15136,1.99219a.91835.91835,0,0,0,.31152-.36719,1.16876,1.16876,0,0,0,.11328-.5166,1.14661,1.14661,0,0,0-.11328-.51563.87666.87666,0,0,0-.31152-.35742.80346.80346,0,0,0-.44922-.12988.83531.83531,0,0,0-.45606.127.84418.84418,0,0,0-.31152.35742,1.26795,1.26795,0,0,0,.00195,1.03906.89539.89539,0,0,0,.3125.36524.801.801,0,0,0,.45313.13183A.79146.79146,0,0,0,47.2933,52.16728Z"/><path class="cls-1" d="M50.62142,51.25224a.1394.1394,0,0,1-.10058.041H48.70638a1.09644,1.09644,0,0,0,.11817.51563.88516.88516,0,0,0,.33594.36035.97814.97814,0,0,0,.51562.13183.88216.88216,0,0,0,.41309-.0957.86266.86266,0,0,0,.293-.24512.16351.16351,0,0,1,.10059-.043.13234.13234,0,0,1,.125.125.14513.14513,0,0,1-.04785.10058,1.20959,1.20959,0,0,1-.38672.30762,1.07031,1.07031,0,0,1-.49219.11914,1.31415,1.31415,0,0,1-.65234-.1582,1.12317,1.12317,0,0,1-.44238-.44336,1.3419,1.3419,0,0,1-.15821-.66016,1.45077,1.45077,0,0,1,.15625-.68945,1.12742,1.12742,0,0,1,.415-.45117,1.05554,1.05554,0,0,1,.55176-.15528,1.13719,1.13719,0,0,1,.54.13379,1.07219,1.07219,0,0,1,.41113.39356,1.19588,1.19588,0,0,1,.16309.61425A.12918.12918,0,0,1,50.62142,51.25224Zm-1.58593-.77051a.892.892,0,0,0-.30469.55273h1.63672V50.9954a.7658.7658,0,0,0-.14453-.37695.77558.77558,0,0,0-.29981-.24414.86188.86188,0,0,0-.37207-.084A.80272.80272,0,0,0,49.03549,50.48173Z"/><path class="cls-1" d="M51.08236,52.02763a.10506.10506,0,0,1,.0625-.09571.10379.10379,0,0,1,.07715-.02929.15028.15028,0,0,1,.10547.04785.89793.89793,0,0,0,.7539.375.72911.72911,0,0,0,.40039-.1084.351.351,0,0,0,.1709-.31445.33355.33355,0,0,0-.1582-.30176,1.54386,1.54386,0,0,0-.44238-.17285,1.86959,1.86959,0,0,1-.624-.26172.5436.5436,0,0,1-.22558-.47266.60024.60024,0,0,1,.11035-.35351.73479.73479,0,0,1,.30078-.24219,1.02168,1.02168,0,0,1,.42871-.08594,1.17126,1.17126,0,0,1,.416.0791.88.88,0,0,1,.35742.252.11583.11583,0,0,1,.043.0957.13035.13035,0,0,1-.04785.10059.12828.12828,0,0,1-.08692.02929.11714.11714,0,0,1-.08594-.03906.767.767,0,0,0-.27343-.19629.86292.86292,0,0,0-.34082-.06738.69033.69033,0,0,0-.38672.10547.35352.35352,0,0,0-.16114.31738.34411.34411,0,0,0,.17579.292,1.80126,1.80126,0,0,0,.4873.18262,2.26207,2.26207,0,0,1,.41211.13965.68179.68179,0,0,1,.2666.21582.60171.60171,0,0,1,.10352.36914.58591.58591,0,0,1-.25.49707,1.0104,1.0104,0,0,1-.61914.18457,1.12453,1.12453,0,0,1-.93067-.43652A.20748.20748,0,0,1,51.08236,52.02763Z"/><path class="cls-1" d="M55.54134,51.25224a.1394.1394,0,0,1-.10058.041H53.62631a1.09644,1.09644,0,0,0,.11816.51563.88516.88516,0,0,0,.33594.36035.97814.97814,0,0,0,.51562.13183.88216.88216,0,0,0,.41309-.0957.86279.86279,0,0,0,.293-.24512.16349.16349,0,0,1,.10058-.043.13234.13234,0,0,1,.125.125.14513.14513,0,0,1-.04785.10058,1.20948,1.20948,0,0,1-.38672.30762,1.07028,1.07028,0,0,1-.49219.11914,1.31415,1.31415,0,0,1-.65234-.1582,1.12317,1.12317,0,0,1-.44238-.44336,1.3419,1.3419,0,0,1-.1582-.66016,1.45065,1.45065,0,0,1,.15625-.68945,1.12733,1.12733,0,0,1,.415-.45117A1.05556,1.05556,0,0,1,54.471,50.012a1.13719,1.13719,0,0,1,.54.13379,1.07219,1.07219,0,0,1,.41113.39356,1.19588,1.19588,0,0,1,.16309.61425A.12918.12918,0,0,1,55.54134,51.25224Zm-1.58593-.77051a.892.892,0,0,0-.30469.55273h1.63672V50.9954a.76561.76561,0,0,0-.14453-.37695.77551.77551,0,0,0-.29981-.24414.86185.86185,0,0,0-.37207-.084A.80274.80274,0,0,0,53.95541,50.48173Z"/><path class="cls-1" d="M57.50033,50.05009a.12423.12423,0,0,1,.07715.11523.14937.14937,0,0,1-.03907.10742.11975.11975,0,0,1-.09082.041.37343.37343,0,0,1-.09375-.02344.39037.39037,0,0,0-.13183-.02441.57219.57219,0,0,0-.35254.13672,1.07025,1.07025,0,0,0-.28809.35254.9391.9391,0,0,0-.11328.4375v1.18554a.14018.14018,0,0,1-.14355.14356.13981.13981,0,0,1-.10352-.041.13758.13758,0,0,1-.041-.10254V50.22782a.14026.14026,0,0,1,.14453-.14453.13759.13759,0,0,1,.10254.041.1398.1398,0,0,1,.041.10351v.42188a1.10668,1.10668,0,0,1,.334-.45313.83116.83116,0,0,1,.52539-.18457A.38128.38128,0,0,1,57.50033,50.05009Z"/><path class="cls-1" d="M58.50814,50.34794v1.60742a.34152.34152,0,0,0,.06738.24707.23959.23959,0,0,0,.17676.06543.25009.25009,0,0,0,.07227-.01269.28418.28418,0,0,1,.06738-.01172.09284.09284,0,0,1,.07422.03613.12607.12607,0,0,1,.03125.084.13321.13321,0,0,1-.07617.11329.35426.35426,0,0,1-.18262.04492,1.0206,1.0206,0,0,1-.23047-.02344.36937.36937,0,0,1-.19433-.14453.62626.62626,0,0,1-.09375-.38379V50.34794h-.35059a.13711.13711,0,0,1-.09863-.03906.1344.1344,0,0,1,0-.19141.14125.14125,0,0,1,.09863-.03906h.35059v-.53223a.1398.1398,0,0,1,.041-.10351.13757.13757,0,0,1,.10254-.041.14026.14026,0,0,1,.14453.14453v.53223h.47949a.12518.12518,0,0,1,.09375.04394.135.135,0,0,1,.041.09571.1244.1244,0,0,1-.03809.09375.13938.13938,0,0,1-.09668.03613Z"/><path class="cls-1" d="M61.75033,50.11259a.14589.14589,0,0,1,.041.10547v2.16015a.13758.13758,0,0,1-.041.10254.14359.14359,0,0,1-.24707-.10254V52.056a.999.999,0,0,1-.36035.36523.96988.96988,0,0,1-.52344.14844,1.03048,1.03048,0,0,1-.57813-.168,1.15647,1.15647,0,0,1-.40332-.46,1.45241,1.45241,0,0,1-.14648-.6582,1.41369,1.41369,0,0,1,.14941-.65528,1.13519,1.13519,0,0,1,.40528-.45312,1.07374,1.07374,0,0,1,1.09668-.02442.91823.91823,0,0,1,.36035.36524v-.29785a.14923.14923,0,0,1,.04-.10547.14617.14617,0,0,1,.207,0ZM61.097,52.16923a.89539.89539,0,0,0,.3125-.36524,1.17345,1.17345,0,0,0,.1123-.5205,1.1405,1.1405,0,0,0-.1123-.50879.89951.89951,0,0,0-.3125-.36231.83482.83482,0,0,0-.89746-.002.87675.87675,0,0,0-.31153.35742,1.14674,1.14674,0,0,0-.11328.51563,1.20008,1.20008,0,0,0,.11035.5205.88185.88185,0,0,0,.30957.36524.80413.80413,0,0,0,.45411.13183A.79417.79417,0,0,0,61.097,52.16923Z"/><path class="cls-1" d="M65.95052,50.11259a.14586.14586,0,0,1,.041.10547v2.16015a.13755.13755,0,0,1-.041.10254.14359.14359,0,0,1-.24707-.10254V52.056a.99879.99879,0,0,1-.36035.36523.96984.96984,0,0,1-.52344.14844,1.03047,1.03047,0,0,1-.57812-.168,1.1564,1.1564,0,0,1-.40332-.46,1.45228,1.45228,0,0,1-.14648-.6582,1.41369,1.41369,0,0,1,.14941-.65528,1.13509,1.13509,0,0,1,.40527-.45312,1.07374,1.07374,0,0,1,1.09668-.02442.9181.9181,0,0,1,.36035.36524v-.29785a.14928.14928,0,0,1,.04-.10547.14617.14617,0,0,1,.207,0Zm-.65332,2.05664a.89524.89524,0,0,0,.3125-.36524,1.17331,1.17331,0,0,0,.11231-.5205,1.14037,1.14037,0,0,0-.11231-.50879.89936.89936,0,0,0-.3125-.36231.83482.83482,0,0,0-.89746-.002.87666.87666,0,0,0-.31152.35742,1.14661,1.14661,0,0,0-.11328.51563,1.20008,1.20008,0,0,0,.11035.5205.88185.88185,0,0,0,.30957.36524.8041.8041,0,0,0,.4541.13183A.79415.79415,0,0,0,65.2972,52.16923Z"/><path class="cls-1" d="M68.06478,50.05009a.12423.12423,0,0,1,.07715.11523.14941.14941,0,0,1-.03906.10742.11977.11977,0,0,1-.09082.041.37333.37333,0,0,1-.09375-.02344.39043.39043,0,0,0-.13184-.02441.57221.57221,0,0,0-.35254.13672,1.07023,1.07023,0,0,0-.28808.35254.939.939,0,0,0-.11328.4375v1.18554a.14019.14019,0,0,1-.14356.14356.13977.13977,0,0,1-.10351-.041.13755.13755,0,0,1-.041-.10254V50.22782a.14028.14028,0,0,1,.14453-.14453.13757.13757,0,0,1,.10254.041.13981.13981,0,0,1,.041.10351v.42188a1.10666,1.10666,0,0,1,.334-.45313.83119.83119,0,0,1,.52539-.18457A.38128.38128,0,0,1,68.06478,50.05009Z"/><path class="cls-1" d="M69.07259,50.34794v1.60742a.34151.34151,0,0,0,.06739.24707.23956.23956,0,0,0,.17676.06543.25.25,0,0,0,.07226-.01269.28426.28426,0,0,1,.06738-.01172.09284.09284,0,0,1,.07422.03613.12607.12607,0,0,1,.03125.084.13321.13321,0,0,1-.07617.11329.35424.35424,0,0,1-.18262.04492,1.02066,1.02066,0,0,1-.23047-.02344.36937.36937,0,0,1-.19433-.14453.62626.62626,0,0,1-.09375-.38379V50.34794h-.35059a.13713.13713,0,0,1-.09863-.03906.1344.1344,0,0,1,0-.19141.14127.14127,0,0,1,.09863-.03906h.35059v-.53223a.1398.1398,0,0,1,.041-.10351.13759.13759,0,0,1,.10254-.041.14026.14026,0,0,1,.14453.14453v.53223h.4795a.12521.12521,0,0,1,.09375.04394.135.135,0,0,1,.041.09571.12439.12439,0,0,1-.03808.09375.13941.13941,0,0,1-.09668.03613Z"/><path class="cls-1" d="M70.20541,49.65849a.162.162,0,0,1-.05371-.13184V49.4788a.16028.16028,0,0,1,.05566-.13184.23146.23146,0,0,1,.15137-.0459c.12793,0,.1914.05958.1914.17774v.04785a.16942.16942,0,0,1-.0498.13184.20927.20927,0,0,1-.14649.0459A.21455.21455,0,0,1,70.20541,49.65849Zm.25195,2.82226a.14133.14133,0,0,1-.10352.041.13977.13977,0,0,1-.10351-.041.13759.13759,0,0,1-.041-.10254v-2.208a.14028.14028,0,0,1,.14453-.14454.14137.14137,0,0,1,.10352.041.14292.14292,0,0,1,.04.10352v2.208A.14062.14062,0,0,1,70.45736,52.48075Z"/><path class="cls-1" d="M73.05892,50.27274a1.0854,1.0854,0,0,1,.209.69434v1.41113a.133.133,0,0,1-.04395.10254.14214.14214,0,0,1-.24414-.10254V50.98075a.788.788,0,0,0-.15625-.50586.58107.58107,0,0,0-.48242-.19433.85908.85908,0,0,0-.69141.35254.59114.59114,0,0,0-.11523.34765v1.39746a.14019.14019,0,0,1-.14356.14356.13977.13977,0,0,1-.10351-.041.13755.13755,0,0,1-.041-.10254V50.22782a.14028.14028,0,0,1,.14453-.14453.13755.13755,0,0,1,.10254.041.13977.13977,0,0,1,.041.10351v.26367a1.02126,1.02126,0,0,1,.37207-.34277.99441.99441,0,0,1,.49707-.13672A.78963.78963,0,0,1,73.05892,50.27274Z"/><path class="cls-1" d="M75.93,50.06669a.143.143,0,0,1,.04.10352v2.11621a1.31759,1.31759,0,0,1-.14844.64843.99624.99624,0,0,1-.41309.40821,1.25423,1.25423,0,0,1-.59472.13867,1.54733,1.54733,0,0,1-.377-.043.97616.97616,0,0,1-.29-.11523c-.06738-.042-.10156-.08789-.10156-.13868A.39184.39184,0,0,1,74.055,53.136a.1309.1309,0,0,1,.04785-.07129.11943.11943,0,0,1,.07226-.02442.12622.12622,0,0,1,.05762.01465,1.2332,1.2332,0,0,0,.58594.168.81882.81882,0,0,0,.63086-.25.9591.9591,0,0,0,.2334-.68164v-.168a.87389.87389,0,0,1-.34571.32422,1.00834,1.00834,0,0,1-.49023.12207.79453.79453,0,0,1-.63379-.249,1.00335,1.00335,0,0,1-.21582-.67676V50.17021a.14026.14026,0,0,1,.14453-.14454.13761.13761,0,0,1,.10254.041.13982.13982,0,0,1,.041.10352v1.43066a.78832.78832,0,0,0,.15136.52246.58526.58526,0,0,0,.47266.17773.76547.76547,0,0,0,.377-.09863.80249.80249,0,0,0,.28809-.25879.6035.6035,0,0,0,.1084-.34277V50.17021a.14571.14571,0,0,1,.24707-.10352Z"/><path class="cls-1" d="M79.01107,50.11259a.1459.1459,0,0,1,.041.10547v2.16015a.13759.13759,0,0,1-.041.10254.14359.14359,0,0,1-.24707-.10254V52.056a.99887.99887,0,0,1-.36035.36523.96988.96988,0,0,1-.52344.14844,1.03044,1.03044,0,0,1-.57812-.168,1.15632,1.15632,0,0,1-.40332-.46,1.45228,1.45228,0,0,1-.14649-.6582,1.41369,1.41369,0,0,1,.14942-.65528,1.13509,1.13509,0,0,1,.40527-.45312,1.07374,1.07374,0,0,1,1.09668-.02442.91816.91816,0,0,1,.36035.36524v-.29785a.14923.14923,0,0,1,.04-.10547.14617.14617,0,0,1,.207,0Zm-.65332,2.05664a.89531.89531,0,0,0,.3125-.36524,1.17331,1.17331,0,0,0,.11231-.5205,1.14037,1.14037,0,0,0-.11231-.50879.89943.89943,0,0,0-.3125-.36231.83482.83482,0,0,0-.89746-.002.87666.87666,0,0,0-.31152.35742,1.14661,1.14661,0,0,0-.11328.51563,1.19994,1.19994,0,0,0,.11035.5205.88178.88178,0,0,0,.30957.36524.8041.8041,0,0,0,.4541.13183A.79417.79417,0,0,0,78.35775,52.16923Z"/><path class="cls-1" d="M79.71908,52.472a.20135.20135,0,0,1-.043-.13672v-.10156a.19013.19013,0,0,1,.043-.13379.15778.15778,0,0,1,.125-.04785h.0332a.15914.15914,0,0,1,.125.04785.19483.19483,0,0,1,.043.13379v.10156a.20648.20648,0,0,1-.043.13672.15694.15694,0,0,1-.125.04981h-.0332A.1556.1556,0,0,1,79.71908,52.472Z"/><path class="cls-3" d="M4.406,1.69547h48.7359a2.70984,2.70984,0,0,1,2.70984,2.70984v7.94987A2.70987,2.70987,0,0,1,53.14188,15.065H4.406a2.70987,2.70987,0,0,1-2.70987-2.70987V4.40531A2.70984,2.70984,0,0,1,4.406,1.69547Z"/><line class="cls-4" x1="31.0459" y1="15.06509" x2="31.30194" y2="16.03175"/><line class="cls-5" x1="31.85577" y1="18.1226" x2="36.00952" y2="33.80399"/><line class="cls-4" x1="36.28644" y1="34.84941" x2="36.54248" y2="35.81607"/></svg>