<svg id="Layer_1" data-name="Layer 1" xmlns="http://www.w3.org/2000/svg" viewBox="0 0 107 28"><defs><style>.cls-1{fill:#933034;}.cls-2{fill:#fff;}.cls-3,.cls-4,.cls-5{fill:none;stroke:#933034;stroke-miterlimit:10;stroke-width:0.25px;}.cls-3{stroke-dasharray:2.0076 2.0076;}.cls-5{stroke-dasharray:1.93531 1.93531;}</style></defs><circle class="cls-1" cx="58.95419" cy="4.63565" r="3.96478"/><path class="cls-2" d="M59.31478,4.22538a1.057,1.057,0,0,1,.41406.40381,1.30389,1.30389,0,0,1-.01562,1.26953,1.19154,1.19154,0,0,1-.46973.43848,1.39169,1.39169,0,0,1-.65918.15674,1.31658,1.31658,0,0,1-.44043-.07471.93647.93647,0,0,1-.36132-.22266.15414.15414,0,0,1-.07422-.12793.17791.17791,0,0,1,.04785-.11914.1405.1405,0,0,1,.11133-.05615.2101.2101,0,0,1,.13281.05859.80106.80106,0,0,0,.61621.23926A.9827.9827,0,0,0,59.0892,6.074a.88525.88525,0,0,0,.3457-.3291.9115.9115,0,0,0,.127-.478.865.865,0,0,0-.12988-.48877.78026.78026,0,0,0-.33984-.28956,1.08733,1.08733,0,0,0-.44434-.09326.96683.96683,0,0,0-.16406.01856.97563.97563,0,0,1-.12793.019.13165.13165,0,0,1-.10352-.04541.16626.16626,0,0,1-.04-.11426.17.17,0,0,1,.05371-.12207l1.01465-1.126H57.804a.15224.15224,0,0,1-.10938-.043.14431.14431,0,0,1-.04492-.11133.14024.14024,0,0,1,.04492-.10645A.15388.15388,0,0,1,57.804,2.722h1.78418a.14948.14948,0,0,1,.125.05078.181.181,0,0,1,.04.11426.16221.16221,0,0,1-.05274.1167l-.97265,1.0835h.03222A1.159,1.159,0,0,1,59.31478,4.22538Z"/><path class="cls-1" d="M68.86752,6.19706a.13619.13619,0,0,1-.05078.11279.17544.17544,0,0,1-.11231.04053.13354.13354,0,0,1-.10644-.05273L67.25912,4.61308l-.65235.61425v.95508a.162.162,0,0,1-.04785.10791.14978.14978,0,0,1-.10644.041.14084.14084,0,0,1-.14844-.14893V3.11991a.14379.14379,0,0,1,.043-.10791.15616.15616,0,0,1,.11035-.04052.14821.14821,0,0,1,.1084.04052.14618.14618,0,0,1,.041.10791V4.86259l1.93848-1.8335a.1382.1382,0,0,1,.10645-.04834.12983.12983,0,0,1,.09765.04346.13579.13579,0,0,1,.041.0957.14013.14013,0,0,1-.043.10108L67.48959,4.39677,68.83334,6.096A.17479.17479,0,0,1,68.86752,6.19706Z"/><path class="cls-1" d="M71.4017,5.06181a.139.139,0,0,1-.10059.04052H69.48666a1.09985,1.09985,0,0,0,.11816.51612.884.884,0,0,0,.33594.35986.97385.97385,0,0,0,.51562.13233.87652.87652,0,0,0,.41309-.0962.86146.86146,0,0,0,.293-.24463.16165.16165,0,0,1,.10058-.04345.13337.13337,0,0,1,.125.125.14423.14423,0,0,1-.04785.10058,1.20948,1.20948,0,0,1-.38672.30762,1.06469,1.06469,0,0,1-.49218.11963,1.31416,1.31416,0,0,1-.65235-.1582,1.12447,1.12447,0,0,1-.44238-.44385,1.34057,1.34057,0,0,1-.1582-.66016,1.44867,1.44867,0,0,1,.15625-.689,1.12091,1.12091,0,0,1,.415-.45117,1.05152,1.05152,0,0,1,.55175-.15577,1.13206,1.13206,0,0,1,.54.13428,1.07228,1.07228,0,0,1,.41114.39356,1.19456,1.19456,0,0,1,.16308.61425A.12994.12994,0,0,1,71.4017,5.06181ZM69.81576,4.2913a.89081.89081,0,0,0-.30469.55225h1.63672V4.805a.76379.76379,0,0,0-.14453-.37695.77673.77673,0,0,0-.29981-.24463.869.869,0,0,0-.37207-.084A.80331.80331,0,0,0,69.81576,4.2913Z"/><path class="cls-1" d="M73.85189,4.08231a1.084,1.084,0,0,1,.209.69385V6.1873a.134.134,0,0,1-.04395.103.14215.14215,0,0,1-.24414-.103v-1.397a.78846.78846,0,0,0-.15625-.50634.58247.58247,0,0,0-.48242-.19434.86134.86134,0,0,0-.69141.353.58894.58894,0,0,0-.11523.34765v1.397a.14406.14406,0,1,1-.28809,0V4.0369a.14406.14406,0,1,1,.28809,0v.26416a1.02651,1.02651,0,0,1,.37207-.34326.99945.99945,0,0,1,.49707-.13672A.78843.78843,0,0,1,73.85189,4.08231Z"/><path class="cls-1" d="M76.90951,3.92167a.14752.14752,0,0,1,.041.10547V6.1873a.14641.14641,0,0,1-.248.103.14176.14176,0,0,1-.04-.103V5.86552a1.00638,1.00638,0,0,1-.36035.36523.97413.97413,0,0,1-.52344.14844,1.03048,1.03048,0,0,1-.57813-.168,1.15791,1.15791,0,0,1-.40332-.46045,1.45032,1.45032,0,0,1-.14648-.65771,1.41226,1.41226,0,0,1,.14941-.65528,1.13667,1.13667,0,0,1,.40528-.45361,1.07217,1.07217,0,0,1,1.09668-.02393.9171.9171,0,0,1,.36035.36475V4.02714a.15093.15093,0,0,1,.04-.10547.14617.14617,0,0,1,.207,0Zm-.65332,2.05664a.89394.89394,0,0,0,.3125-.36475,1.17644,1.17644,0,0,0,.1123-.5205,1.1405,1.1405,0,0,0-.1123-.50879.89629.89629,0,0,0-.3125-.36231.79079.79079,0,0,0-.44824-.13232.80505.80505,0,0,0-.44922.12988.883.883,0,0,0-.31153.35742,1.14886,1.14886,0,0,0-.11328.51612,1.20317,1.20317,0,0,0,.11035.5205.88042.88042,0,0,0,.30957.36475.80072.80072,0,0,0,.45411.13233A.7908.7908,0,0,0,76.25619,5.97831Z"/><path class="cls-1" d="M77.97982,6.29032a.13977.13977,0,0,1-.10351.041.14021.14021,0,0,1-.14356-.144V2.92314a.13943.13943,0,0,1,.041-.103.13718.13718,0,0,1,.10254-.04053.13948.13948,0,0,1,.14453.14356V6.1873A.1387.1387,0,0,1,77.97982,6.29032Z"/><path class="cls-1" d="M78.79427,3.46806a.162.162,0,0,1-.05371-.13184V3.28837a.1619.1619,0,0,1,.05567-.13232.23128.23128,0,0,1,.15136-.04541c.12793,0,.19141.05908.19141.17773v.04785a.16942.16942,0,0,1-.0498.13184.21164.21164,0,0,1-.14649.0459A.217.217,0,0,1,78.79427,3.46806Zm.252,2.82226a.14135.14135,0,0,1-.10352.041.14026.14026,0,0,1-.14453-.144v-2.208a.14026.14026,0,0,1,.14453-.144.13871.13871,0,0,1,.14356.14405v2.208A.1418.1418,0,0,1,79.04623,6.29032Z"/><path class="cls-1" d="M82.888,3.98417a1.12244,1.12244,0,0,1,.40528.45361,1.43564,1.43564,0,0,1,.14648.65528,1.45462,1.45462,0,0,1-.14648.65527,1.152,1.152,0,0,1-.40332.46289,1.02145,1.02145,0,0,1-.57324.168.98194.98194,0,0,1-.50684-.13672,1.11081,1.11081,0,0,1-.37695-.3623v.31689a.14753.14753,0,0,1-.041.10547.13384.13384,0,0,1-.10254.043.13594.13594,0,0,1-.10351-.043.14749.14749,0,0,1-.041-.10547V2.928a.14024.14024,0,0,1,.14453-.144.1376.1376,0,0,1,.10254.041.13947.13947,0,0,1,.041.103V4.344a1.01025,1.01025,0,0,1,.36523-.3789.96257.96257,0,0,1,.51367-.144A1.05952,1.05952,0,0,1,82.888,3.98417Zm-.15136,1.99219a.91506.91506,0,0,0,.31152-.36719,1.16811,1.16811,0,0,0,.11328-.51611,1.14873,1.14873,0,0,0-.11328-.51612.883.883,0,0,0-.31152-.35742.8074.8074,0,0,0-.44922-.12988.82654.82654,0,0,0-.76758.48486,1.26795,1.26795,0,0,0,.002,1.03906.89394.89394,0,0,0,.3125.36475.79758.79758,0,0,0,.45313.13233A.78818.78818,0,0,0,82.73666,5.97636Z"/><path class="cls-1" d="M86.06478,5.06181a.13894.13894,0,0,1-.10058.04052H84.14974a1.09985,1.09985,0,0,0,.11817.51612.88393.88393,0,0,0,.33593.35986.97389.97389,0,0,0,.51563.13233.87652.87652,0,0,0,.41309-.0962.86133.86133,0,0,0,.293-.24463.16168.16168,0,0,1,.10059-.04345.13337.13337,0,0,1,.125.125.14423.14423,0,0,1-.04785.10058,1.20959,1.20959,0,0,1-.38672.30762,1.06473,1.06473,0,0,1-.49219.11963A1.31415,1.31415,0,0,1,84.472,6.221a1.1244,1.1244,0,0,1-.44238-.44385,1.34058,1.34058,0,0,1-.15821-.66016,1.44879,1.44879,0,0,1,.15625-.689,1.121,1.121,0,0,1,.415-.45117,1.05155,1.05155,0,0,1,.55176-.15577,1.13209,1.13209,0,0,1,.54.13428,1.07219,1.07219,0,0,1,.41113.39356,1.19456,1.19456,0,0,1,.16309.61425A.12992.12992,0,0,1,86.06478,5.06181ZM84.47884,4.2913a.8908.8908,0,0,0-.30468.55225h1.63672V4.805a.7639.7639,0,0,0-.14454-.37695.7767.7767,0,0,0-.2998-.24463.869.869,0,0,0-.37207-.084A.80334.80334,0,0,0,84.47884,4.2913Z"/><path class="cls-1" d="M88.516,4.08231a1.08392,1.08392,0,0,1,.209.69385V6.1873a.134.134,0,0,1-.044.103.14215.14215,0,0,1-.24414-.103v-1.397A.78846.78846,0,0,0,88.2806,4.284a.58247.58247,0,0,0-.48242-.19434.86134.86134,0,0,0-.69141.353.58894.58894,0,0,0-.11523.34765v1.397a.14406.14406,0,1,1-.28809,0V4.0369a.14406.14406,0,1,1,.28809,0v.26416a1.02659,1.02659,0,0,1,.37207-.34326.99945.99945,0,0,1,.49707-.13672A.78842.78842,0,0,1,88.516,4.08231Z"/><path class="cls-1" d="M89.95834,4.157V5.76493a.34232.34232,0,0,0,.06738.24707.24125.24125,0,0,0,.17676.06494.26482.26482,0,0,0,.07226-.0122.28425.28425,0,0,1,.06739-.01172.09282.09282,0,0,1,.07421.03613.12518.12518,0,0,1,.03125.084.13253.13253,0,0,1-.07617.11279.3544.3544,0,0,1-.18261.04541.99152.99152,0,0,1-.23047-.02393.36556.36556,0,0,1-.19434-.144.62626.62626,0,0,1-.09375-.38379V4.157h-.35059a.13872.13872,0,0,1-.09863-.03857.135.135,0,0,1,0-.1919.14084.14084,0,0,1,.09863-.03857h.35059V3.35526a.13943.13943,0,0,1,.041-.103.13755.13755,0,0,1,.10254-.041.14026.14026,0,0,1,.14453.144V3.888h.47949a.12632.12632,0,0,1,.09375.04346.13579.13579,0,0,1,.041.0957.12291.12291,0,0,1-.03808.09375.13721.13721,0,0,1-.09668.03613Z"/><path class="cls-1" d="M93.04232,3.93388a.14176.14176,0,0,1,.04.103V5.39042a.95234.95234,0,0,1-.26367.72266,1.01273,1.01273,0,0,1-.72949.25195.99867.99867,0,0,1-.72266-.25195.95884.95884,0,0,1-.26172-.72266V4.0369a.14406.14406,0,1,1,.28809,0V5.39042a.63271.63271,0,0,0,.69629.70557.71633.71633,0,0,0,.5205-.17969.70236.70236,0,0,0,.18457-.52588V4.0369a.14026.14026,0,0,1,.14454-.144A.14133.14133,0,0,1,93.04232,3.93388Z"/><path class="cls-1" d="M95.82357,6.1873a.12713.12713,0,0,1-.0498.103.15589.15589,0,0,1-.09375.041.13038.13038,0,0,1-.10547-.05274L94.513,5.15556l-.35937.30713V6.1873a.14406.14406,0,1,1-.28809,0V2.92314a.13947.13947,0,0,1,.041-.103.13719.13719,0,0,1,.10254-.04053.13948.13948,0,0,1,.14453.14356v2.189l1.38672-1.19531a.12764.12764,0,0,1,.19726-.00244.144.144,0,0,1,.043.09863.15571.15571,0,0,1-.05273.11035l-.98926.83984,1.042,1.11377A.16268.16268,0,0,1,95.82357,6.1873Z"/><path class="cls-1" d="M99.8099,2.82011a.13946.13946,0,0,1,.041.103V6.1873a.14641.14641,0,0,1-.248.103.14176.14176,0,0,1-.04-.103V5.85136a1.0348,1.0348,0,0,1-.3584.37451.94466.94466,0,0,1-.52539.15332,1.035,1.035,0,0,1-.57324-.16553,1.15083,1.15083,0,0,1-.40528-.45849,1.51055,1.51055,0,0,1,0-1.31006,1.15086,1.15086,0,0,1,.40528-.4585,1.026,1.026,0,0,1,.56836-.16553,1.00762,1.00762,0,0,1,.52343.14161.9723.9723,0,0,1,.36524.36718V2.92314a.14257.14257,0,0,1,.04-.103.15246.15246,0,0,1,.207,0Zm-.65332,3.16064a.87749.87749,0,0,0,.3125-.3623,1.178,1.178,0,0,0,.1123-.52051,1.1512,1.1512,0,0,0-.1123-.51367.89629.89629,0,0,0-.3125-.36231.827.827,0,0,0-.89746,0,.89414.89414,0,0,0-.31153.36231,1.23124,1.23124,0,0,0,0,1.03174.89418.89418,0,0,0,.31153.3623.79167.79167,0,0,0,.44922.13233A.80409.80409,0,0,0,99.15658,5.98075Z"/><path class="cls-1" d="M102.69955,3.92167a.14752.14752,0,0,1,.041.10547V6.1873a.14641.14641,0,0,1-.248.103.14176.14176,0,0,1-.04-.103V5.86552a1.00638,1.00638,0,0,1-.36035.36523.97413.97413,0,0,1-.52344.14844,1.03048,1.03048,0,0,1-.57813-.168,1.15784,1.15784,0,0,1-.40332-.46045,1.45032,1.45032,0,0,1-.14648-.65771,1.41226,1.41226,0,0,1,.14941-.65528,1.13667,1.13667,0,0,1,.40528-.45361,1.07217,1.07217,0,0,1,1.09668-.02393.9171.9171,0,0,1,.36035.36475V4.02714a.15093.15093,0,0,1,.04-.10547.14617.14617,0,0,1,.207,0Zm-.65332,2.05664a.89394.89394,0,0,0,.3125-.36475,1.17644,1.17644,0,0,0,.1123-.5205,1.1405,1.1405,0,0,0-.1123-.50879.89629.89629,0,0,0-.3125-.36231.79081.79081,0,0,0-.44824-.13232.80505.80505,0,0,0-.44922.12988.883.883,0,0,0-.31153.35742,1.14886,1.14886,0,0,0-.11328.51612,1.20317,1.20317,0,0,0,.11035.5205.88042.88042,0,0,0,.30957.36475.80072.80072,0,0,0,.45411.13233A.79082.79082,0,0,0,102.04623,5.97831Z"/><path class="cls-1" d="M105.306,4.08231a1.084,1.084,0,0,1,.209.69385V6.1873a.134.134,0,0,1-.04395.103.14215.14215,0,0,1-.24414-.103v-1.397a.78846.78846,0,0,0-.15625-.50634.58247.58247,0,0,0-.48242-.19434.86134.86134,0,0,0-.69141.353.58894.58894,0,0,0-.11523.34765v1.397a.14406.14406,0,1,1-.28809,0V4.0369a.14406.14406,0,1,1,.28809,0v.26416a1.02659,1.02659,0,0,1,.37207-.34326.99945.99945,0,0,1,.49707-.13672A.78843.78843,0,0,1,105.306,4.08231Z"/><path class="cls-1" d="M67.71322,9.63114a.91353.91353,0,0,1,.31152.13672.24036.24036,0,0,1,.11817.187.14907.14907,0,0,1-.03614.09619.11228.11228,0,0,1-.08886.04346.14815.14815,0,0,1-.0791-.01953.385.385,0,0,1-.07032-.05762.47983.47983,0,0,0-.11914-.09131.84192.84192,0,0,0-.19043-.05517A1.41252,1.41252,0,0,0,67.307,9.8494a.905.905,0,0,0-.48242.13428.95281.95281,0,0,0-.34278.36524,1.05258,1.05258,0,0,0-.125.50879,1.10251,1.10251,0,0,0,.12012.51806.90109.90109,0,0,0,.82031.49463,1.06991,1.06991,0,0,0,.27637-.02881,1.0591,1.0591,0,0,0,.2041-.08154,1.01516,1.01516,0,0,0,.11524-.08643.42546.42546,0,0,1,.06738-.05029.12017.12017,0,0,1,.0625-.01709.11877.11877,0,0,1,.09082.03613.13115.13115,0,0,1,.0332.09375.24886.24886,0,0,1-.11425.17481,1.01085,1.01085,0,0,1-.31739.16113,1.41742,1.41742,0,0,1-.44629.0669,1.18268,1.18268,0,0,1-.624-.16553,1.12638,1.12638,0,0,1-.4248-.4585,1.412,1.412,0,0,1-.15137-.65722,1.36,1.36,0,0,1,.15332-.64112,1.18226,1.18226,0,0,1,1.07129-.63574A1.66655,1.66655,0,0,1,67.71322,9.63114Z"/><path class="cls-1" d="M70.79427,9.68144a.14745.14745,0,0,1,.041.10546v2.16016a.14643.14643,0,0,1-.24805.103.14184.14184,0,0,1-.04-.103v-.32178a1.00617,1.00617,0,0,1-.36035.36524.97408.97408,0,0,1-.52344.14844,1.03055,1.03055,0,0,1-.57812-.168,1.1579,1.1579,0,0,1-.40332-.46045,1.45021,1.45021,0,0,1-.14648-.65772,1.41225,1.41225,0,0,1,.14941-.65527,1.13645,1.13645,0,0,1,.40527-.45361A1.07217,1.07217,0,0,1,70.18685,9.72a.9169.9169,0,0,1,.36035.36475V9.7869a.15093.15093,0,0,1,.04-.10546.14617.14617,0,0,1,.207,0ZM70.141,11.73808a.89386.89386,0,0,0,.3125-.36475,1.17632,1.17632,0,0,0,.11231-.52051,1.1404,1.1404,0,0,0-.11231-.50879.89617.89617,0,0,0-.3125-.3623.79077.79077,0,0,0-.44824-.13233.805.805,0,0,0-.44922.12989.88285.88285,0,0,0-.31152.35742,1.14868,1.14868,0,0,0-.11328.51611,1.20319,1.20319,0,0,0,.11035.52051.88048.88048,0,0,0,.30957.36475.80068.80068,0,0,0,.4541.13232A.79077.79077,0,0,0,70.141,11.73808Z"/><path class="cls-1" d="M72.90853,9.61894a.12471.12471,0,0,1,.07715.11523.15144.15144,0,0,1-.03906.10791.1198.1198,0,0,1-.09082.041.36029.36029,0,0,1-.09375-.02393.40161.40161,0,0,0-.13184-.02393.56931.56931,0,0,0-.35254.13672,1.06546,1.06546,0,0,0-.28808.35254.93712.93712,0,0,0-.11328.437v1.18555a.14406.14406,0,1,1-.28809,0V9.79667a.14406.14406,0,1,1,.28809,0V10.219a1.105,1.105,0,0,1,.334-.45361.83113.83113,0,0,1,.52539-.18457A.38128.38128,0,0,1,72.90853,9.61894Z"/><path class="cls-1" d="M75.47494,9.68144a.14748.14748,0,0,1,.041.10546v2.16016a.14642.14642,0,0,1-.248.103.1418.1418,0,0,1-.04-.103v-.32178a1.00633,1.00633,0,0,1-.36035.36524.97413.97413,0,0,1-.52344.14844,1.03055,1.03055,0,0,1-.57813-.168,1.158,1.158,0,0,1-.40332-.46045,1.45034,1.45034,0,0,1-.14648-.65772,1.41225,1.41225,0,0,1,.14941-.65527,1.13654,1.13654,0,0,1,.40528-.45361A1.07217,1.07217,0,0,1,74.86752,9.72a.917.917,0,0,1,.36035.36475V9.7869a.15089.15089,0,0,1,.04-.10546.14617.14617,0,0,1,.207,0Zm-.65332,2.05664a.894.894,0,0,0,.3125-.36475,1.17645,1.17645,0,0,0,.1123-.52051,1.14053,1.14053,0,0,0-.1123-.50879.89632.89632,0,0,0-.3125-.3623.7908.7908,0,0,0-.44824-.13233.805.805,0,0,0-.44922.12989.88287.88287,0,0,0-.31153.35742,1.14881,1.14881,0,0,0-.11328.51611,1.20319,1.20319,0,0,0,.11035.52051.88048.88048,0,0,0,.30957.36475.80071.80071,0,0,0,.45411.13232A.79079.79079,0,0,0,74.82162,11.73808Z"/><path class="cls-1" d="M79.32162,9.74394a1.12229,1.12229,0,0,1,.40527.45361,1.43551,1.43551,0,0,1,.14649.65527,1.45451,1.45451,0,0,1-.14649.65528,1.152,1.152,0,0,1-.40332.46289,1.0215,1.0215,0,0,1-.57324.168.982.982,0,0,1-.50684-.13672,1.11084,1.11084,0,0,1-.37695-.36231v.3169a.14749.14749,0,0,1-.041.10547.13385.13385,0,0,1-.10253.043.136.136,0,0,1-.10352-.043.14753.14753,0,0,1-.041-.10547v-3.269a.14026.14026,0,0,1,.14454-.144.13755.13755,0,0,1,.10253.041.13943.13943,0,0,1,.041.103v1.416a1.01035,1.01035,0,0,1,.36523-.37891.96257.96257,0,0,1,.51368-.144A1.05954,1.05954,0,0,1,79.32162,9.74394Zm-.15137,1.99218a.915.915,0,0,0,.31152-.36718,1.16816,1.16816,0,0,0,.11329-.51612,1.14869,1.14869,0,0,0-.11329-.51611.88285.88285,0,0,0-.31152-.35742A.80728.80728,0,0,0,78.721,9.8494a.8266.8266,0,0,0-.76758.48487,1.2679,1.2679,0,0,0,.002,1.03906.89386.89386,0,0,0,.3125.36475.79752.79752,0,0,0,.45312.13232A.78806.78806,0,0,0,79.17025,11.73612Z"/><path class="cls-1" d="M82.56381,9.68144a.14748.14748,0,0,1,.041.10546v2.16016a.14643.14643,0,0,1-.24805.103.14183.14183,0,0,1-.04-.103v-.32178a1.00628,1.00628,0,0,1-.36036.36524.97407.97407,0,0,1-.52343.14844,1.03055,1.03055,0,0,1-.57813-.168,1.1579,1.1579,0,0,1-.40332-.46045,1.45021,1.45021,0,0,1-.14648-.65772,1.41225,1.41225,0,0,1,.14941-.65527,1.13652,1.13652,0,0,1,.40527-.45361A1.07217,1.07217,0,0,1,81.95638,9.72a.917.917,0,0,1,.36036.36475V9.7869a.15092.15092,0,0,1,.04-.10546.14618.14618,0,0,1,.207,0Zm-.65332,2.05664a.894.894,0,0,0,.3125-.36475,1.17645,1.17645,0,0,0,.1123-.52051,1.14053,1.14053,0,0,0-.1123-.50879.89632.89632,0,0,0-.3125-.3623.79083.79083,0,0,0-.44825-.13233.805.805,0,0,0-.44922.12989.88292.88292,0,0,0-.31152.35742,1.14881,1.14881,0,0,0-.11328.51611,1.20319,1.20319,0,0,0,.11035.52051.88048.88048,0,0,0,.30957.36475.80068.80068,0,0,0,.4541.13232A.79082.79082,0,0,0,81.91049,11.73808Z"/><path class="cls-1" d="M84.8392,9.63114a.9137.9137,0,0,1,.31152.13672.24037.24037,0,0,1,.11816.187.14906.14906,0,0,1-.03613.09619.11228.11228,0,0,1-.08887.04346.1482.1482,0,0,1-.0791-.01953.3853.3853,0,0,1-.07031-.05762.48019.48019,0,0,0-.11914-.09131.84192.84192,0,0,0-.19043-.05517A1.4126,1.4126,0,0,0,84.433,9.8494a.905.905,0,0,0-.48243.13428.95286.95286,0,0,0-.34277.36524,1.05247,1.05247,0,0,0-.125.50879,1.10251,1.10251,0,0,0,.12012.51806.90106.90106,0,0,0,.82031.49463.90383.90383,0,0,0,.48047-.11035,1.01442,1.01442,0,0,0,.11523-.08643.42548.42548,0,0,1,.06739-.05029.12017.12017,0,0,1,.0625-.01709.11879.11879,0,0,1,.09082.03613.13115.13115,0,0,1,.0332.09375.24888.24888,0,0,1-.11426.17481,1.0109,1.0109,0,0,1-.31738.16113,1.41746,1.41746,0,0,1-.44629.0669,1.18263,1.18263,0,0,1-.624-.16553,1.12647,1.12647,0,0,1-.42481-.4585,1.41213,1.41213,0,0,1-.15137-.65722,1.35985,1.35985,0,0,1,.15333-.64112,1.18223,1.18223,0,0,1,1.07128-.63574A1.66669,1.66669,0,0,1,84.8392,9.63114Z"/><path class="cls-1" d="M87.92025,9.68144a.14749.14749,0,0,1,.041.10546v2.16016a.14643.14643,0,0,1-.248.103.1418.1418,0,0,1-.04-.103v-.32178a1.00625,1.00625,0,0,1-.36035.36524.97413.97413,0,0,1-.52344.14844,1.0305,1.0305,0,0,1-.57812-.168,1.15783,1.15783,0,0,1-.40332-.46045,1.45021,1.45021,0,0,1-.14649-.65772,1.41225,1.41225,0,0,1,.14942-.65527,1.13645,1.13645,0,0,1,.40527-.45361A1.07217,1.07217,0,0,1,87.31283,9.72a.917.917,0,0,1,.36035.36475V9.7869a.15089.15089,0,0,1,.04-.10546.14617.14617,0,0,1,.207,0Zm-.65332,2.05664a.89393.89393,0,0,0,.3125-.36475,1.17632,1.17632,0,0,0,.11231-.52051,1.1404,1.1404,0,0,0-.11231-.50879.89625.89625,0,0,0-.3125-.3623.7908.7908,0,0,0-.44824-.13233.805.805,0,0,0-.44922.12989.88285.88285,0,0,0-.31152.35742,1.14869,1.14869,0,0,0-.11329.51611,1.203,1.203,0,0,0,.11036.52051.88041.88041,0,0,0,.30957.36475.80068.80068,0,0,0,.4541.13232A.79079.79079,0,0,0,87.26693,11.73808Z"/><path class="cls-1" d="M92.12045,8.57987a.1395.1395,0,0,1,.041.103v3.26416a.14643.14643,0,0,1-.24805.103.14183.14183,0,0,1-.04-.103v-.33594a1.03475,1.03475,0,0,1-.3584.37452.94476.94476,0,0,1-.52539.15332,1.03506,1.03506,0,0,1-.57325-.16553,1.15084,1.15084,0,0,1-.40527-.4585,1.51055,1.51055,0,0,1,0-1.31006,1.15081,1.15081,0,0,1,.40527-.45849,1.026,1.026,0,0,1,.56836-.16553,1.00772,1.00772,0,0,1,.52344.1416.97239.97239,0,0,1,.36524.36719V8.6829a.14264.14264,0,0,1,.04-.103.1525.1525,0,0,1,.207,0Zm-.65332,3.16065a.87752.87752,0,0,0,.3125-.36231,1.17794,1.17794,0,0,0,.1123-.5205,1.15121,1.15121,0,0,0-.1123-.51368.89632.89632,0,0,0-.3125-.3623.827.827,0,0,0-.89747,0,.89416.89416,0,0,0-.31152.3623,1.23124,1.23124,0,0,0,0,1.03174.89412.89412,0,0,0,.31152.36231.79171.79171,0,0,0,.44922.13232A.8042.8042,0,0,0,91.46713,11.74052Z"/><path class="cls-1" d="M95.01009,9.68144a.14745.14745,0,0,1,.041.10546v2.16016a.14643.14643,0,0,1-.248.103.14184.14184,0,0,1-.04-.103v-.32178a1.00617,1.00617,0,0,1-.36035.36524.97407.97407,0,0,1-.52343.14844,1.03055,1.03055,0,0,1-.57813-.168,1.1579,1.1579,0,0,1-.40332-.46045,1.45021,1.45021,0,0,1-.14648-.65772,1.41225,1.41225,0,0,1,.14941-.65527,1.13645,1.13645,0,0,1,.40527-.45361A1.07217,1.07217,0,0,1,94.40267,9.72a.9169.9169,0,0,1,.36035.36475V9.7869a.15093.15093,0,0,1,.04-.10546.14617.14617,0,0,1,.207,0Zm-.65332,2.05664a.89386.89386,0,0,0,.3125-.36475,1.17632,1.17632,0,0,0,.11231-.52051,1.1404,1.1404,0,0,0-.11231-.50879.89617.89617,0,0,0-.3125-.3623.79077.79077,0,0,0-.44824-.13233.805.805,0,0,0-.44922.12989.88292.88292,0,0,0-.31152.35742,1.14868,1.14868,0,0,0-.11328.51611,1.20319,1.20319,0,0,0,.11035.52051.88048.88048,0,0,0,.30957.36475.80068.80068,0,0,0,.4541.13232A.79077.79077,0,0,0,94.35677,11.73808Z"/><path class="cls-1" d="M97.12435,9.61894a.12471.12471,0,0,1,.07715.11523.15144.15144,0,0,1-.03906.10791.1198.1198,0,0,1-.09082.041.36029.36029,0,0,1-.09375-.02393.40161.40161,0,0,0-.13184-.02393.56931.56931,0,0,0-.35254.13672,1.06546,1.06546,0,0,0-.28808.35254.93712.93712,0,0,0-.11328.437v1.18555a.14406.14406,0,1,1-.28809,0V9.79667a.14406.14406,0,1,1,.28809,0V10.219a1.105,1.105,0,0,1,.334-.45361.83113.83113,0,0,1,.52539-.18457A.38128.38128,0,0,1,97.12435,9.61894Z"/><path class="cls-1" d="M97.638,9.22782a.162.162,0,0,1-.05371-.13183V9.04814A.16192.16192,0,0,1,97.64,8.91581a.23134.23134,0,0,1,.15136-.04541c.12793,0,.19141.05908.19141.17774V9.096a.1694.1694,0,0,1-.0498.13183.21164.21164,0,0,1-.14649.0459A.217.217,0,0,1,97.638,9.22782Zm.252,2.82227a.14138.14138,0,0,1-.10352.041.14024.14024,0,0,1-.14453-.144v-2.208a.14026.14026,0,0,1,.14453-.144.13871.13871,0,0,1,.14356.144v2.208A.14184.14184,0,0,1,97.89,12.05009Z"/><path class="cls-1" d="M67.99349,15.65067a1.104,1.104,0,0,1,.21094.69825v1.35839a.14177.14177,0,0,1-.04.103.15112.15112,0,0,1-.207,0,.138.138,0,0,1-.04-.103V16.34892a.80748.80748,0,0,0-.14941-.50635.54837.54837,0,0,0-.46582-.19434.79855.79855,0,0,0-.38086.09571.81863.81863,0,0,0-.291.25683.60583.60583,0,0,0-.11035.34815v1.35839a.14406.14406,0,1,1-.28809,0V14.44315a.13948.13948,0,0,1,.14454-.14355.13717.13717,0,0,1,.10253.04053.13943.13943,0,0,1,.041.103v1.40674a1.01106,1.01106,0,0,1,.36035-.33838.93729.93729,0,0,1,.4707-.13232A.76475.76475,0,0,1,67.99349,15.65067Z"/><path class="cls-1" d="M70.89584,15.4539a.1418.1418,0,0,1,.04.103v1.35352a.95232.95232,0,0,1-.26368.72266,1.01275,1.01275,0,0,1-.72949.252.99869.99869,0,0,1-.72265-.252.95885.95885,0,0,1-.26172-.72266V15.55692a.14406.14406,0,1,1,.28808,0v1.35352a.63272.63272,0,0,0,.69629.70557.71637.71637,0,0,0,.52051-.17969.70236.70236,0,0,0,.18457-.52588V15.55692a.14026.14026,0,0,1,.14453-.144A.14135.14135,0,0,1,70.89584,15.4539Z"/><path class="cls-1" d="M73.00912,15.37919a.12472.12472,0,0,1,.07715.11523.15143.15143,0,0,1-.03907.10791.11975.11975,0,0,1-.09082.041.36.36,0,0,1-.09375-.02393.40153.40153,0,0,0-.13183-.02392.56929.56929,0,0,0-.35254.13672,1.06538,1.06538,0,0,0-.28809.35254.93721.93721,0,0,0-.11328.437v1.18554a.14406.14406,0,1,1-.28808,0V15.55692a.14406.14406,0,1,1,.28808,0v.42237a1.105,1.105,0,0,1,.334-.45362.83114.83114,0,0,1,.52539-.18457A.38128.38128,0,0,1,73.00912,15.37919Z"/><path class="cls-1" d="M75.47494,15.4539a.14176.14176,0,0,1,.04.103v1.35352a.95236.95236,0,0,1-.26367.72266,1.01279,1.01279,0,0,1-.7295.252.9987.9987,0,0,1-.72265-.252.95885.95885,0,0,1-.26172-.72266V15.55692a.14406.14406,0,1,1,.28808,0v1.35352a.63272.63272,0,0,0,.69629.70557.71636.71636,0,0,0,.52051-.17969.70236.70236,0,0,0,.18457-.52588V15.55692a.14026.14026,0,0,1,.14453-.144A.14135.14135,0,0,1,75.47494,15.4539Z"/><path class="cls-1" d="M76.88509,14.67362a.42457.42457,0,0,0-.084.27832v.49463h.53711a.13231.13231,0,0,1,.09375.03858.13272.13272,0,0,1,0,.19189.1339.1339,0,0,1-.09375.03809h-.53711v1.99218a.14406.14406,0,1,1-.28809,0V15.71513h-.35058a.12515.12515,0,0,1-.0957-.04053.13385.13385,0,0,1-.03809-.09375.12831.12831,0,0,1,.03809-.09814.13476.13476,0,0,1,.0957-.03614H76.513v-.49463a.615.615,0,0,1,.17481-.46777.65591.65591,0,0,1,.46875-.16553.74806.74806,0,0,1,.249.04053c.07715.02734.11524.07129.11524.13232a.13031.13031,0,0,1-.03809.09571.11888.11888,0,0,1-.08691.03857.30551.30551,0,0,1-.10547-.02392.65919.65919,0,0,0-.168-.02881A.29159.29159,0,0,0,76.88509,14.67362Z"/><path class="cls-1" d="M79.75326,15.677v1.60791a.34232.34232,0,0,0,.06738.24707.24126.24126,0,0,0,.17676.06494.26482.26482,0,0,0,.07226-.0122.28425.28425,0,0,1,.06739-.01172.09285.09285,0,0,1,.07422.03613.12522.12522,0,0,1,.03125.084.13253.13253,0,0,1-.07618.1128.35437.35437,0,0,1-.18261.04541.99152.99152,0,0,1-.23047-.02393.36559.36559,0,0,1-.19434-.144.62626.62626,0,0,1-.09375-.38379V15.677h-.35058a.13873.13873,0,0,1-.09864-.03857.135.135,0,0,1,0-.1919.14085.14085,0,0,1,.09864-.03857h.35058v-.53272a.13943.13943,0,0,1,.041-.103.13757.13757,0,0,1,.10254-.041.14026.14026,0,0,1,.14453.144V15.408h.47949a.12632.12632,0,0,1,.09375.04346.1358.1358,0,0,1,.041.0957.12291.12291,0,0,1-.03809.09375.13721.13721,0,0,1-.09668.03613Z"/><path class="cls-1" d="M82.90658,16.58183a.139.139,0,0,1-.10059.04052H80.99154a1.09985,1.09985,0,0,0,.11816.51612.884.884,0,0,0,.33594.35986.97386.97386,0,0,0,.51563.13232.87648.87648,0,0,0,.41308-.09619.86137.86137,0,0,0,.293-.24463.16168.16168,0,0,1,.10059-.04345.13339.13339,0,0,1,.125.125.14423.14423,0,0,1-.04785.10058,1.20959,1.20959,0,0,1-.38672.30762,1.06476,1.06476,0,0,1-.49219.11963,1.31413,1.31413,0,0,1-.65234-.1582,1.12443,1.12443,0,0,1-.44239-.44385,1.34057,1.34057,0,0,1-.1582-.66016,1.44876,1.44876,0,0,1,.15625-.689,1.121,1.121,0,0,1,.415-.45117,1.05153,1.05153,0,0,1,.55176-.15577,1.13209,1.13209,0,0,1,.54.13428,1.07233,1.07233,0,0,1,.41113.39356,1.19446,1.19446,0,0,1,.16308.61425A.12991.12991,0,0,1,82.90658,16.58183Zm-1.58594-.77051a.89086.89086,0,0,0-.30469.55224h1.63672V16.325a.76379.76379,0,0,0-.14453-.37695.77677.77677,0,0,0-.2998-.24463.869.869,0,0,0-.37207-.084A.80332.80332,0,0,0,81.32064,15.81132Z"/><path class="cls-1" d="M84.86556,15.37919a.12472.12472,0,0,1,.07715.11523.15143.15143,0,0,1-.03906.10791.11975.11975,0,0,1-.09082.041.35986.35986,0,0,1-.09375-.02393.40159.40159,0,0,0-.13184-.02392.56931.56931,0,0,0-.35254.13672,1.06536,1.06536,0,0,0-.28808.35254.93709.93709,0,0,0-.11328.437v1.18554a.14406.14406,0,1,1-.28809,0V15.55692a.14406.14406,0,1,1,.28809,0v.42237a1.1051,1.1051,0,0,1,.334-.45362.83119.83119,0,0,1,.52539-.18457A.38128.38128,0,0,1,84.86556,15.37919Z"/><path class="cls-1" d="M85.21517,17.35673a.15774.15774,0,0,1,.13965-.12451.14827.14827,0,0,1,.10547.04785.89876.89876,0,0,0,.75391.37451.733.733,0,0,0,.40039-.10791.351.351,0,0,0,.1709-.31445.33436.33436,0,0,0-.15821-.30225,1.54374,1.54374,0,0,0-.44238-.17285,1.86953,1.86953,0,0,1-.624-.26172.5436.5436,0,0,1-.22559-.47266.59875.59875,0,0,1,.11035-.353.7309.7309,0,0,1,.30078-.24219,1.02177,1.02177,0,0,1,.42871-.08643,1.17106,1.17106,0,0,1,.416.07911.87987.87987,0,0,1,.35742.25195.11617.11617,0,0,1,.043.09619.12937.12937,0,0,1-.13477.12939.11839.11839,0,0,1-.08593-.03857.76249.76249,0,0,0-.27344-.19678.87133.87133,0,0,0-.34082-.06689.69033.69033,0,0,0-.38672.10547.35323.35323,0,0,0-.16113.31689.34552.34552,0,0,0,.17578.29248,1.81782,1.81782,0,0,0,.4873.18262,2.26487,2.26487,0,0,1,.41211.13916.68619.68619,0,0,1,.2666.21582.60424.60424,0,0,1,.10352.36963.58591.58591,0,0,1-.25.49707,1.0104,1.0104,0,0,1-.61914.18457,1.12449,1.12449,0,0,1-.93066-.43652A.20882.20882,0,0,1,85.21517,17.35673Z"/><path class="cls-1" d="M89.67416,16.58183a.139.139,0,0,1-.10059.04052H87.75912a1.09985,1.09985,0,0,0,.11816.51612.884.884,0,0,0,.33594.35986.97385.97385,0,0,0,.51562.13232.87652.87652,0,0,0,.41309-.09619.86146.86146,0,0,0,.293-.24463.16168.16168,0,0,1,.10059-.04345.13339.13339,0,0,1,.125.125.14425.14425,0,0,1-.04786.10058,1.20948,1.20948,0,0,1-.38672.30762,1.06469,1.06469,0,0,1-.49218.11963,1.31416,1.31416,0,0,1-.65235-.1582,1.12447,1.12447,0,0,1-.44238-.44385,1.34057,1.34057,0,0,1-.1582-.66016,1.44876,1.44876,0,0,1,.15625-.689,1.121,1.121,0,0,1,.415-.45117,1.05152,1.05152,0,0,1,.55175-.15577,1.13206,1.13206,0,0,1,.54.13428,1.07228,1.07228,0,0,1,.41114.39356,1.19446,1.19446,0,0,1,.16308.61425A.12994.12994,0,0,1,89.67416,16.58183Zm-1.58594-.77051a.89081.89081,0,0,0-.30469.55224h1.63672V16.325a.76379.76379,0,0,0-.14453-.37695.77673.77673,0,0,0-.29981-.24463.869.869,0,0,0-.37207-.084A.80331.80331,0,0,0,88.08822,15.81132Z"/><path class="cls-1" d="M92.056,15.50419a1.12244,1.12244,0,0,1,.40528.45361,1.43564,1.43564,0,0,1,.14648.65528,1.45462,1.45462,0,0,1-.14648.65527,1.15209,1.15209,0,0,1-.40332.46289,1.02146,1.02146,0,0,1-.57325.168.98193.98193,0,0,1-.50683-.13672,1.11075,1.11075,0,0,1-.377-.3623v.31689a.14752.14752,0,0,1-.041.10547.13384.13384,0,0,1-.10254.043.136.136,0,0,1-.10352-.043.14752.14752,0,0,1-.041-.10547V14.448a.14024.14024,0,0,1,.14453-.144.13761.13761,0,0,1,.10254.041.13946.13946,0,0,1,.041.103v1.416a1.01028,1.01028,0,0,1,.36524-.3789.96254.96254,0,0,1,.51367-.144A1.05952,1.05952,0,0,1,92.056,15.50419Zm-.15136,1.99219a.91514.91514,0,0,0,.31152-.36719,1.16825,1.16825,0,0,0,.11328-.51611,1.14886,1.14886,0,0,0-.11328-.51612.88305.88305,0,0,0-.31152-.35742.8074.8074,0,0,0-.44922-.12988.82654.82654,0,0,0-.76758.48486,1.26795,1.26795,0,0,0,.00195,1.03906.89394.89394,0,0,0,.3125.36475.79755.79755,0,0,0,.45313.13232A.78817.78817,0,0,0,91.90463,17.49638Z"/><path class="cls-1" d="M95.14,15.4539a.1418.1418,0,0,1,.04.103v1.35352a.95232.95232,0,0,1-.26368.72266,1.01275,1.01275,0,0,1-.72949.252.9987.9987,0,0,1-.72265-.252.95885.95885,0,0,1-.26172-.72266V15.55692a.14406.14406,0,1,1,.28808,0v1.35352a.63272.63272,0,0,0,.69629.70557.71636.71636,0,0,0,.52051-.17969.70236.70236,0,0,0,.18457-.52588V15.55692a.14026.14026,0,0,1,.14453-.144A.14135.14135,0,0,1,95.14,15.4539Z"/><path class="cls-1" d="M96.41439,15.677v1.60791a.34232.34232,0,0,0,.06738.24707.24126.24126,0,0,0,.17676.06494.26489.26489,0,0,0,.07227-.0122.28418.28418,0,0,1,.06738-.01172.09284.09284,0,0,1,.07422.03613.12517.12517,0,0,1,.03125.084.13253.13253,0,0,1-.07617.1128.35443.35443,0,0,1-.18262.04541.99158.99158,0,0,1-.23047-.02393.36558.36558,0,0,1-.19433-.144.62626.62626,0,0,1-.09375-.38379V15.677h-.35059a.13868.13868,0,0,1-.09863-.03857.135.135,0,0,1,0-.1919.14081.14081,0,0,1,.09863-.03857h.35059v-.53272a.13946.13946,0,0,1,.041-.103.13757.13757,0,0,1,.10254-.041.14024.14024,0,0,1,.14453.144V15.408h.47949a.12632.12632,0,0,1,.09375.04346.13576.13576,0,0,1,.041.0957.12291.12291,0,0,1-.03809.09375.13717.13717,0,0,1-.09668.03613Z"/><path class="cls-1" d="M97.47494,17.80106a.20049.20049,0,0,1-.043-.13671v-.10108a.19143.19143,0,0,1,.043-.13428.15778.15778,0,0,1,.125-.04785h.0332a.15916.15916,0,0,1,.125.04785.19618.19618,0,0,1,.043.13428v.10108a.20557.20557,0,0,1-.043.13671.15568.15568,0,0,1-.125.0503h-.0332A.15434.15434,0,0,1,97.47494,17.80106Z"/><path class="cls-3" d="M3.60056,4.29816H22.4364a2.7099,2.7099,0,0,1,2.7099,2.7099V23.83847a2.70987,2.70987,0,0,1-2.70987,2.70987H3.60056A2.70987,2.70987,0,0,1,.89069,23.83847V7.008A2.70987,2.70987,0,0,1,3.60056,4.29816Z"/><line class="cls-4" x1="25.16895" y1="13.75174" x2="26.13501" y2="13.49348"/><line class="cls-5" x1="28.0047" y1="12.99368" x2="53.24512" y2="6.24635"/><line class="cls-4" x1="54.17993" y1="5.99644" x2="55.146" y2="5.73819"/></svg>