<svg id="Layer_1" data-name="Layer 1" xmlns="http://www.w3.org/2000/svg" viewBox="0 0 124 55"><defs><style>.cls-1{fill:#933034;}.cls-2{fill:#fff;}.cls-3,.cls-4,.cls-5{fill:none;stroke:#933034;stroke-miterlimit:10;stroke-width:0.25px;}.cls-3{stroke-dasharray:2.00531 2.00531;}.cls-5{stroke-dasharray:2.08385 2.08385;}</style></defs><circle class="cls-1" cx="4.54724" cy="13.92336" r="3.96478"/><path class="cls-2" d="M5.71224,15.46513a.149.149,0,0,1,.0459.10937.14572.14572,0,0,1-.0459.11133.15362.15362,0,0,1-.1084.043H3.61166a.17562.17562,0,0,1-.12207-.043.14683.14683,0,0,1-.04785-.11621.17879.17879,0,0,1,.042-.11231l1.22754-1.35449a3.134,3.134,0,0,0,.44043-.57129.99661.99661,0,0,0,.14355-.49609.7446.7446,0,0,0-.21777-.56836.839.839,0,0,0-.60547-.207.87588.87588,0,0,0-.46485.124.75385.75385,0,0,0-.30566.37989.164.164,0,0,1-.13769.0957.17423.17423,0,0,1-.11133-.042.121.121,0,0,1-.05371-.09571.17756.17756,0,0,1,.02148-.07422.67007.67007,0,0,1,.05274-.085,1.01333,1.01333,0,0,1,.415-.44629,1.18608,1.18608,0,0,1,.60547-.15918,1.15428,1.15428,0,0,1,.83887.292,1.012,1.012,0,0,1,.30273.76465,1.281,1.281,0,0,1-.15918.59765,3.55981,3.55981,0,0,1-.52539.709L3.973,15.42021H5.60384A.15134.15134,0,0,1,5.71224,15.46513Z"/><path class="cls-1" d="M14.16244,14.12138A.9772.9772,0,0,1,14.054,15.386a1.11521,1.11521,0,0,1-.72168.23291h-1.292a.14021.14021,0,0,1-.14356-.144V12.40312a.13945.13945,0,0,1,.14356-.144h1.27246a.8687.8687,0,0,1,.63086.22071.80125.80125,0,0,1,.22851.605.849.849,0,0,1-.125.45556.70839.70839,0,0,1-.35546.293A.877.877,0,0,1,14.16244,14.12138Zm-.45313-1.42823a.60016.60016,0,0,0-.43457-.15087H12.20443V13.742h1.07031a.59468.59468,0,0,0,.42481-.168.62313.62313,0,0,0,.165-.46533A.5535.5535,0,0,0,13.70931,12.69315Zm.12891,2.4795a.59613.59613,0,0,0,.19922-.48975.584.584,0,0,0-.2041-.49414.82817.82817,0,0,0-.52539-.15869H12.20443v1.30566h1.11328A.79526.79526,0,0,0,13.83822,15.17265Z"/><path class="cls-1" d="M17.04525,13.20927a.14752.14752,0,0,1,.041.10547v2.16015a.14642.14642,0,0,1-.248.103.14178.14178,0,0,1-.04-.103v-.32177a1.00631,1.00631,0,0,1-.36035.36523.97413.97413,0,0,1-.52344.14844,1.0305,1.0305,0,0,1-.57812-.168,1.15783,1.15783,0,0,1-.40332-.46045,1.45021,1.45021,0,0,1-.14649-.65772,1.41225,1.41225,0,0,1,.14942-.65527,1.13645,1.13645,0,0,1,.40527-.45361,1.07217,1.07217,0,0,1,1.09668-.02393.917.917,0,0,1,.36035.36475v-.29785a.15091.15091,0,0,1,.04-.10547.14617.14617,0,0,1,.207,0Zm-.65332,2.05664a.89387.89387,0,0,0,.3125-.36475,1.17632,1.17632,0,0,0,.11231-.52051,1.14036,1.14036,0,0,0-.11231-.50878.89621.89621,0,0,0-.3125-.36231.79079.79079,0,0,0-.44824-.13232.805.805,0,0,0-.44922.12988.883.883,0,0,0-.31152.35742,1.14872,1.14872,0,0,0-.11329.51611,1.203,1.203,0,0,0,.11036.52051.88034.88034,0,0,0,.30957.36475.80068.80068,0,0,0,.4541.13232A.79079.79079,0,0,0,16.39193,15.26591Z"/><path class="cls-1" d="M19.6517,13.36991a1.084,1.084,0,0,1,.209.69385v1.41113a.134.134,0,0,1-.04394.103.14215.14215,0,0,1-.24415-.103v-1.397a.78851.78851,0,0,0-.15625-.50635.58249.58249,0,0,0-.48242-.19433.86133.86133,0,0,0-.6914.353.58894.58894,0,0,0-.11524.34766v1.397a.14406.14406,0,1,1-.28808,0V13.3245a.14406.14406,0,1,1,.28808,0v.26416a1.02667,1.02667,0,0,1,.37207-.34326.99945.99945,0,0,1,.49707-.13672A.78845.78845,0,0,1,19.6517,13.36991Z"/><path class="cls-1" d="M22.70931,12.10771a.13943.13943,0,0,1,.041.103v3.26416a.14642.14642,0,0,1-.24805.103.14178.14178,0,0,1-.04-.103V15.139a1.0348,1.0348,0,0,1-.3584.37451.94463.94463,0,0,1-.52539.15332,1.03505,1.03505,0,0,1-.57324-.16553,1.1507,1.1507,0,0,1-.40527-.4585,1.51044,1.51044,0,0,1,0-1.31,1.1507,1.1507,0,0,1,.40527-.4585,1.026,1.026,0,0,1,.56836-.16553,1.00777,1.00777,0,0,1,.52344.1416.97236.97236,0,0,1,.36523.36719V12.21073a.14256.14256,0,0,1,.04-.103.15246.15246,0,0,1,.207,0ZM22.056,15.26835a.87741.87741,0,0,0,.3125-.3623,1.17788,1.17788,0,0,0,.11231-.52051,1.151,1.151,0,0,0-.11231-.51367.89614.89614,0,0,0-.3125-.36231.827.827,0,0,0-.89746,0,.894.894,0,0,0-.31152.36231,1.23122,1.23122,0,0,0,0,1.03173.894.894,0,0,0,.31152.36231.79168.79168,0,0,0,.44922.13232A.80406.80406,0,0,0,22.056,15.26835Z"/><path class="cls-1" d="M23.48861,12.75565a.162.162,0,0,1-.05371-.13183V12.576a.16192.16192,0,0,1,.05566-.13233.23137.23137,0,0,1,.15137-.04541c.12793,0,.19141.05908.19141.17774v.04785a.16936.16936,0,0,1-.04981.13183.21158.21158,0,0,1-.14648.0459A.217.217,0,0,1,23.48861,12.75565Zm.25195,2.82227a.14136.14136,0,0,1-.10351.041.14024.14024,0,0,1-.14453-.144v-2.208a.14024.14024,0,0,1,.14453-.144.13871.13871,0,0,1,.14355.14405v2.208A.14178.14178,0,0,1,23.74056,15.57792Z"/><path class="cls-1" d="M26.34213,13.36991a1.084,1.084,0,0,1,.209.69385v1.41113a.134.134,0,0,1-.044.103.14215.14215,0,0,1-.24414-.103v-1.397a.78851.78851,0,0,0-.15625-.50635.58249.58249,0,0,0-.48242-.19433.86133.86133,0,0,0-.6914.353.58894.58894,0,0,0-.11524.34766v1.397a.14406.14406,0,1,1-.28808,0V13.3245a.14406.14406,0,1,1,.28808,0v.26416a1.02667,1.02667,0,0,1,.37207-.34326.99945.99945,0,0,1,.49707-.13672A.78845.78845,0,0,1,26.34213,13.36991Z"/><path class="cls-1" d="M29.4808,13.20683a.14615.14615,0,0,1,.041.10791v2.07861a1.24072,1.24072,0,0,1-.15625.64063,1.029,1.029,0,0,1-.42675.40576,1.34191,1.34191,0,0,1-.62207.13916,1.5503,1.5503,0,0,1-.35254-.043,1.42113,1.42113,0,0,1-.31641-.11035c-.08789-.04493-.13867-.09131-.15137-.13965a.10483.10483,0,0,1-.0332-.07666.08694.08694,0,0,1,.043-.07666A.0755.0755,0,0,1,27.554,16.118a.37109.37109,0,0,1,.11035.03369l.10059.04346a1.54923,1.54923,0,0,0,.55664.11523.906.906,0,0,0,.66992-.24267.887.887,0,0,0,.24219-.65528V15.115a.88123.88123,0,0,1-.37891.40527,1.08738,1.08738,0,0,1-.543.14649,1.10428,1.10428,0,0,1-.59668-.16553,1.16515,1.16515,0,0,1-.4209-.4585,1.47587,1.47587,0,0,1,0-1.31,1.16515,1.16515,0,0,1,.4209-.4585,1.09811,1.09811,0,0,1,.59278-.16553,1.05775,1.05775,0,0,1,.55371.15088,1.0144,1.0144,0,0,1,.37207.36279v-.30761a.14751.14751,0,0,1,.041-.10547.136.136,0,0,1,.10352-.043A.14065.14065,0,0,1,29.4808,13.20683Zm-.67188,2.064a.86145.86145,0,0,0,.32617-.35986,1.141,1.141,0,0,0,.11817-.52539,1.12719,1.12719,0,0,0-.11817-.52344.86666.86666,0,0,0-.32617-.35742.888.888,0,0,0-.47265-.12744.85248.85248,0,0,0-.46778.13232.89862.89862,0,0,0-.32617.36231,1.18515,1.18515,0,0,0,0,1.03173.89862.89862,0,0,0,.32617.36231.85248.85248,0,0,0,.46778.13232A.888.888,0,0,0,28.80892,15.27079Z"/><path class="cls-1" d="M32.26791,15.47489a.12713.12713,0,0,1-.04981.103.156.156,0,0,1-.09375.041.13039.13039,0,0,1-.10547-.05274l-1.06152-1.12305-.35937.30713v.72461a.14406.14406,0,1,1-.28809,0V12.21073a.13946.13946,0,0,1,.041-.103.13721.13721,0,0,1,.10254-.04053.13948.13948,0,0,1,.14454.14355v2.189l1.38671-1.19531a.12765.12765,0,0,1,.19727-.00245.14409.14409,0,0,1,.043.09864.15568.15568,0,0,1-.05274.11035l-.98925.83984,1.042,1.11377A.16267.16267,0,0,1,32.26791,15.47489Z"/><path class="cls-1" d="M34.92416,13.20927a.14751.14751,0,0,1,.041.10547v2.16015a.14641.14641,0,0,1-.248.103.14178.14178,0,0,1-.04-.103v-.32177a1.00638,1.00638,0,0,1-.36035.36523.97413.97413,0,0,1-.52344.14844,1.03055,1.03055,0,0,1-.57813-.168,1.1579,1.1579,0,0,1-.40332-.46045,1.45034,1.45034,0,0,1-.14648-.65772,1.41225,1.41225,0,0,1,.14941-.65527,1.13647,1.13647,0,0,1,.40528-.45361,1.07217,1.07217,0,0,1,1.09668-.02393.9171.9171,0,0,1,.36035.36475v-.29785a.15091.15091,0,0,1,.04-.10547.14617.14617,0,0,1,.207,0Zm-.65332,2.05664a.89394.89394,0,0,0,.3125-.36475,1.17645,1.17645,0,0,0,.1123-.52051,1.14049,1.14049,0,0,0-.1123-.50878.89629.89629,0,0,0-.3125-.36231.79082.79082,0,0,0-.44825-.13232.805.805,0,0,0-.44921.12988.883.883,0,0,0-.31153.35742,1.14885,1.14885,0,0,0-.11328.51611,1.20319,1.20319,0,0,0,.11035.52051.88042.88042,0,0,0,.30957.36475.8007.8007,0,0,0,.4541.13232A.79082.79082,0,0,0,34.27084,15.26591Z"/><path class="cls-1" d="M37.5306,13.36991a1.084,1.084,0,0,1,.209.69385v1.41113a.134.134,0,0,1-.044.103.14215.14215,0,0,1-.24414-.103v-1.397a.78851.78851,0,0,0-.15625-.50635.5825.5825,0,0,0-.48242-.19433.86137.86137,0,0,0-.69141.353.589.589,0,0,0-.11523.34766v1.397a.14406.14406,0,1,1-.28809,0V13.3245a.14406.14406,0,1,1,.28809,0v.26416a1.02659,1.02659,0,0,1,.37207-.34326.99945.99945,0,0,1,.49707-.13672A.78843.78843,0,0,1,37.5306,13.36991Z"/><path class="cls-1" d="M13.56771,19.03153a1.1224,1.1224,0,0,1,.40528.45362,1.4356,1.4356,0,0,1,.14648.65527,1.45456,1.45456,0,0,1-.14648.65527,1.152,1.152,0,0,1-.40333.46289,1.0214,1.0214,0,0,1-.57324.168.98193.98193,0,0,1-.50683-.13672,1.11066,1.11066,0,0,1-.377-.3623v.31689a.14751.14751,0,0,1-.041.10547.13386.13386,0,0,1-.10254.043.136.136,0,0,1-.10352-.043.14751.14751,0,0,1-.041-.10547v-3.269a.14022.14022,0,0,1,.14453-.144.13762.13762,0,0,1,.10254.041.1395.1395,0,0,1,.041.103v1.416a1.0103,1.0103,0,0,1,.36524-.37891.96253.96253,0,0,1,.51367-.144A1.05959,1.05959,0,0,1,13.56771,19.03153Zm-.15137,1.99219a.915.915,0,0,0,.31153-.36719,1.16821,1.16821,0,0,0,.11328-.51611,1.14881,1.14881,0,0,0-.11328-.51611.88287.88287,0,0,0-.31153-.35742.80727.80727,0,0,0-.44921-.12989.82653.82653,0,0,0-.76758.48487,1.26795,1.26795,0,0,0,.00195,1.03906.894.894,0,0,0,.3125.36474.79754.79754,0,0,0,.45313.13233A.788.788,0,0,0,13.41634,21.02372Z"/><path class="cls-1" d="M16.74447,20.10917a.139.139,0,0,1-.10059.04053H14.82943a1.09981,1.09981,0,0,0,.11816.51611.884.884,0,0,0,.33594.35986.97387.97387,0,0,0,.51563.13233.8766.8766,0,0,0,.41308-.09619.86159.86159,0,0,0,.293-.24463.16164.16164,0,0,1,.10059-.04346.13339.13339,0,0,1,.125.125.14425.14425,0,0,1-.04785.10059,1.20943,1.20943,0,0,1-.38672.30761,1.06476,1.06476,0,0,1-.49219.11963,1.31413,1.31413,0,0,1-.65234-.1582,1.12443,1.12443,0,0,1-.44239-.44385,1.34053,1.34053,0,0,1-.1582-.66015,1.44881,1.44881,0,0,1,.15625-.689,1.121,1.121,0,0,1,.415-.45117,1.05161,1.05161,0,0,1,.55176-.15576,1.132,1.132,0,0,1,.54.13428,1.0723,1.0723,0,0,1,.41113.39355,1.19447,1.19447,0,0,1,.16308.61426A.12988.12988,0,0,1,16.74447,20.10917Zm-1.58594-.77051a.89086.89086,0,0,0-.30469.55225h1.63672v-.03858a.76379.76379,0,0,0-.14453-.37695.77686.77686,0,0,0-.2998-.24463.869.869,0,0,0-.37207-.084A.80333.80333,0,0,0,15.15853,19.33866Z"/><path class="cls-1" d="M19.19564,19.12968a1.08394,1.08394,0,0,1,.209.69385v1.41113a.134.134,0,0,1-.044.103.14215.14215,0,0,1-.24414-.103v-1.397a.78849.78849,0,0,0-.15625-.50635.58247.58247,0,0,0-.48242-.19434.86134.86134,0,0,0-.69141.353.589.589,0,0,0-.11523.34766v1.397a.14406.14406,0,1,1-.28809,0V19.08427a.14406.14406,0,1,1,.28809,0v.26416a1.02642,1.02642,0,0,1,.37207-.34326.99945.99945,0,0,1,.49707-.13672A.7884.7884,0,0,1,19.19564,19.12968Z"/><path class="cls-1" d="M20.638,19.20439V20.8123a.34231.34231,0,0,0,.06739.24707.24127.24127,0,0,0,.17675.06494.26489.26489,0,0,0,.07227-.01221.28478.28478,0,0,1,.06738-.01172.09284.09284,0,0,1,.07422.03613.12518.12518,0,0,1,.03125.084.13253.13253,0,0,1-.07617.11279.35441.35441,0,0,1-.18262.04541.99221.99221,0,0,1-.23047-.02392.36565.36565,0,0,1-.19433-.144.62624.62624,0,0,1-.09375-.38379V19.20439h-.35059a.13871.13871,0,0,1-.09863-.03858.135.135,0,0,1,0-.19189.14083.14083,0,0,1,.09863-.03858h.35059v-.53271a.13946.13946,0,0,1,.041-.103.13762.13762,0,0,1,.10254-.041.14024.14024,0,0,1,.14453.14405v.53271h.4795a.12636.12636,0,0,1,.09375.04346.13582.13582,0,0,1,.041.0957.12288.12288,0,0,1-.03808.09375.13717.13717,0,0,1-.09668.03614Z"/><path class="cls-1" d="M23.722,18.98124a.14178.14178,0,0,1,.04.103v1.35351a.95234.95234,0,0,1-.26367.72266,1.01275,1.01275,0,0,1-.7295.25195.99866.99866,0,0,1-.72265-.25195.95884.95884,0,0,1-.26172-.72266V19.08427a.14406.14406,0,1,1,.28808,0v1.35351a.63272.63272,0,0,0,.69629.70557.71636.71636,0,0,0,.52051-.17969.70235.70235,0,0,0,.18457-.52588V19.08427a.14024.14024,0,0,1,.14453-.144A.14138.14138,0,0,1,23.722,18.98124Z"/><path class="cls-1" d="M26.50326,21.23466a.12715.12715,0,0,1-.04981.103.15593.15593,0,0,1-.09375.041.13039.13039,0,0,1-.10546-.05273l-1.06153-1.12305-.35937.30713v.72461a.14406.14406,0,1,1-.28809,0V17.9705a.13943.13943,0,0,1,.041-.103.13721.13721,0,0,1,.10254-.04053.13948.13948,0,0,1,.14453.14356v2.189l1.38672-1.19531a.12764.12764,0,0,1,.19726-.00244.14406.14406,0,0,1,.043.09863.15567.15567,0,0,1-.05273.11035l-.98926.83985,1.042,1.11377A.16263.16263,0,0,1,26.50326,21.23466Z"/><path class="cls-1" d="M28.38021,18.51542a.162.162,0,0,1-.05371-.13184v-.04785a.16194.16194,0,0,1,.05566-.13232.23137.23137,0,0,1,.15137-.04541c.12793,0,.19141.05908.19141.17773v.04785a.16938.16938,0,0,1-.04981.13184.21161.21161,0,0,1-.14648.0459A.217.217,0,0,1,28.38021,18.51542Zm.25195,2.82227a.14136.14136,0,0,1-.10351.041.14022.14022,0,0,1-.14453-.144v-2.208a.14022.14022,0,0,1,.14453-.144.13869.13869,0,0,1,.14355.144v2.208A.1418.1418,0,0,1,28.63216,21.33769Z"/><path class="cls-1" d="M29.69759,21.33769a.1398.1398,0,0,1-.10351.041.1402.1402,0,0,1-.14356-.144V17.9705a.13947.13947,0,0,1,.041-.103.13723.13723,0,0,1,.10254-.04053.13948.13948,0,0,1,.14453.14356v3.26416A.1387.1387,0,0,1,29.69759,21.33769Z"/><path class="cls-1" d="M32.43881,18.98124a.14182.14182,0,0,1,.04.103v1.35351a.95234.95234,0,0,1-.26367.72266,1.01271,1.01271,0,0,1-.72949.25195.99868.99868,0,0,1-.72266-.25195.95887.95887,0,0,1-.26171-.72266V19.08427a.14406.14406,0,1,1,.28808,0v1.35351a.63272.63272,0,0,0,.69629.70557.71637.71637,0,0,0,.52051-.17969.70235.70235,0,0,0,.18457-.52588V19.08427a.14022.14022,0,0,1,.14453-.144A.14138.14138,0,0,1,32.43881,18.98124Z"/><path class="cls-1" d="M33.054,20.88407a.15774.15774,0,0,1,.13965-.12451.14829.14829,0,0,1,.10547.04785.89874.89874,0,0,0,.7539.37451.733.733,0,0,0,.40039-.10791.351.351,0,0,0,.1709-.31445.33435.33435,0,0,0-.1582-.30225,1.54386,1.54386,0,0,0-.44238-.17285,1.86939,1.86939,0,0,1-.624-.26172.54358.54358,0,0,1-.22558-.47265.59876.59876,0,0,1,.11035-.353.731.731,0,0,1,.30078-.24219,1.02192,1.02192,0,0,1,.42871-.08642,1.171,1.171,0,0,1,.416.0791.88.88,0,0,1,.35742.252.11617.11617,0,0,1,.043.09619.12938.12938,0,0,1-.13477.1294.11842.11842,0,0,1-.08594-.03858.76246.76246,0,0,0-.27343-.19677.87116.87116,0,0,0-.34082-.0669.69041.69041,0,0,0-.38672.10547.35325.35325,0,0,0-.16114.3169.34554.34554,0,0,0,.17579.29248,1.81819,1.81819,0,0,0,.4873.18261,2.26564,2.26564,0,0,1,.41211.13916.68627.68627,0,0,1,.2666.21582.60426.60426,0,0,1,.10352.36963.58589.58589,0,0,1-.25.49707,1.0104,1.0104,0,0,1-.61914.18457A1.1245,1.1245,0,0,1,33.0931,20.99.20885.20885,0,0,1,33.054,20.88407Z"/><path class="cls-1" d="M35.9642,19.20439V20.8123a.34232.34232,0,0,0,.06738.24707.24127.24127,0,0,0,.17676.06494.26489.26489,0,0,0,.07226-.01221.28477.28477,0,0,1,.06739-.01172.09282.09282,0,0,1,.07421.03613.12518.12518,0,0,1,.03125.084.13253.13253,0,0,1-.07617.11279.35441.35441,0,0,1-.18262.04541.99206.99206,0,0,1-.23046-.02392.36563.36563,0,0,1-.19434-.144.62624.62624,0,0,1-.09375-.38379V19.20439h-.35059a.13873.13873,0,0,1-.09863-.03858.135.135,0,0,1,0-.19189.14085.14085,0,0,1,.09863-.03858h.35059v-.53271a.13943.13943,0,0,1,.041-.103.13758.13758,0,0,1,.10253-.041.14026.14026,0,0,1,.14454.14405v.53271h.47949a.12636.12636,0,0,1,.09375.04346.13582.13582,0,0,1,.041.0957.12288.12288,0,0,1-.03808.09375.13717.13717,0,0,1-.09668.03614Z"/><path class="cls-1" d="M38.431,18.90653a.12473.12473,0,0,1,.07715.11524.15146.15146,0,0,1-.03906.10791.11979.11979,0,0,1-.09082.041.36012.36012,0,0,1-.09375-.02392.40135.40135,0,0,0-.13184-.02393.56931.56931,0,0,0-.35254.13672,1.06546,1.06546,0,0,0-.28808.35254.93709.93709,0,0,0-.11328.437v1.18555a.14406.14406,0,1,1-.28809,0V19.08427a.14406.14406,0,1,1,.28809,0v.42236a1.10506,1.10506,0,0,1,.334-.45361.83113.83113,0,0,1,.52539-.18457A.38128.38128,0,0,1,38.431,18.90653Z"/><path class="cls-1" d="M40.99642,18.969a.14749.14749,0,0,1,.041.10547v2.16016a.14643.14643,0,0,1-.248.103.1418.1418,0,0,1-.04-.103v-.32178a1.00641,1.00641,0,0,1-.36035.36524.9741.9741,0,0,1-.52344.14843,1.03047,1.03047,0,0,1-.57812-.168,1.15773,1.15773,0,0,1-.40332-.46044,1.45027,1.45027,0,0,1-.14649-.65772,1.41223,1.41223,0,0,1,.14942-.65527,1.13654,1.13654,0,0,1,.40527-.45362,1.0722,1.0722,0,0,1,1.09668-.02392.91694.91694,0,0,1,.36035.36474V19.0745a.15093.15093,0,0,1,.04-.10547.14617.14617,0,0,1,.207,0Zm-.65332,2.05664a.8939.8939,0,0,0,.3125-.36474,1.17638,1.17638,0,0,0,.11231-.52051,1.14037,1.14037,0,0,0-.11231-.50879.89618.89618,0,0,0-.3125-.3623.79077.79077,0,0,0-.44824-.13233.805.805,0,0,0-.44922.12989.88285.88285,0,0,0-.31152.35742,1.14868,1.14868,0,0,0-.11328.51611,1.20325,1.20325,0,0,0,.11035.52051.88045.88045,0,0,0,.30957.36474.80069.80069,0,0,0,.4541.13233A.79077.79077,0,0,0,40.3431,21.02567Z"/><path class="cls-1" d="M41.61263,20.88407a.15774.15774,0,0,1,.13965-.12451.14827.14827,0,0,1,.10547.04785.89876.89876,0,0,0,.75391.37451.733.733,0,0,0,.40039-.10791.351.351,0,0,0,.1709-.31445.33436.33436,0,0,0-.15821-.30225,1.54374,1.54374,0,0,0-.44238-.17285,1.86942,1.86942,0,0,1-.624-.26172.54358.54358,0,0,1-.22559-.47265.59876.59876,0,0,1,.11035-.353.731.731,0,0,1,.30078-.24219,1.02192,1.02192,0,0,1,.42871-.08642,1.171,1.171,0,0,1,.416.0791.88.88,0,0,1,.35742.252.11617.11617,0,0,1,.043.09619.12938.12938,0,0,1-.13476.1294.11842.11842,0,0,1-.08594-.03858.76259.76259,0,0,0-.27344-.19677.87116.87116,0,0,0-.34082-.0669.69041.69041,0,0,0-.38672.10547.35324.35324,0,0,0-.16113.3169.34553.34553,0,0,0,.17578.29248,1.81819,1.81819,0,0,0,.4873.18261,2.26537,2.26537,0,0,1,.41211.13916.68622.68622,0,0,1,.26661.21582.60432.60432,0,0,1,.10351.36963.58589.58589,0,0,1-.25.49707,1.01038,1.01038,0,0,1-.61914.18457A1.12448,1.12448,0,0,1,41.6517,20.99.20879.20879,0,0,1,41.61263,20.88407Z"/><path class="cls-1" d="M44.02767,18.51542a.162.162,0,0,1-.05371-.13184v-.04785a.16192.16192,0,0,1,.05567-.13232A.23134.23134,0,0,1,44.181,18.158c.12793,0,.19141.05908.19141.17773v.04785a.16938.16938,0,0,1-.04981.13184.21161.21161,0,0,1-.14648.0459A.217.217,0,0,1,44.02767,18.51542Zm.252,2.82227a.14138.14138,0,0,1-.10352.041.14022.14022,0,0,1-.14453-.144v-2.208a.14022.14022,0,0,1,.14453-.144.13868.13868,0,0,1,.14355.144v2.208A.14183.14183,0,0,1,44.27963,21.33769Z"/><path class="cls-1" d="M13.92025,23.62773a.13946.13946,0,0,1,.041.103v3.26416a.14642.14642,0,0,1-.24805.103.14178.14178,0,0,1-.04-.103V26.659a1.0348,1.0348,0,0,1-.3584.37451.94466.94466,0,0,1-.52539.15332,1.035,1.035,0,0,1-.57324-.16553,1.1507,1.1507,0,0,1-.40527-.4585,1.51044,1.51044,0,0,1,0-1.31005,1.1507,1.1507,0,0,1,.40527-.4585,1.026,1.026,0,0,1,.56836-.16553,1.00777,1.00777,0,0,1,.52344.1416.97236.97236,0,0,1,.36523.36719V23.73075a.14256.14256,0,0,1,.04-.103.15246.15246,0,0,1,.207,0Zm-.65332,3.16064a.87745.87745,0,0,0,.3125-.36231,1.17781,1.17781,0,0,0,.11231-.5205,1.151,1.151,0,0,0-.11231-.51367.89621.89621,0,0,0-.3125-.36231.827.827,0,0,0-.89746,0,.894.894,0,0,0-.31152.36231,1.23112,1.23112,0,0,0,0,1.03173.894.894,0,0,0,.31152.36231.79168.79168,0,0,0,.44922.13232A.80408.80408,0,0,0,13.26693,26.78837Z"/><path class="cls-1" d="M16.74447,25.86942a.13892.13892,0,0,1-.10059.04053H14.82943a1.09981,1.09981,0,0,0,.11816.51611.88392.88392,0,0,0,.33594.35987.97386.97386,0,0,0,.51563.13232.87648.87648,0,0,0,.41308-.09619.86148.86148,0,0,0,.293-.24463.16162.16162,0,0,1,.10059-.04345.13337.13337,0,0,1,.125.125.14425.14425,0,0,1-.04785.10058,1.20959,1.20959,0,0,1-.38672.30762,1.06476,1.06476,0,0,1-.49219.11963,1.31413,1.31413,0,0,1-.65234-.15821,1.12434,1.12434,0,0,1-.44239-.44384,1.34057,1.34057,0,0,1-.1582-.66016,1.44874,1.44874,0,0,1,.15625-.689,1.12114,1.12114,0,0,1,.415-.45118,1.05161,1.05161,0,0,1,.55176-.15576,1.132,1.132,0,0,1,.54.13428,1.0723,1.0723,0,0,1,.41113.39355,1.19453,1.19453,0,0,1,.16308.61426A.12987.12987,0,0,1,16.74447,25.86942Zm-1.58594-.7705a.89086.89086,0,0,0-.30469.55224h1.63672v-.03857a.76379.76379,0,0,0-.14453-.377.77677.77677,0,0,0-.2998-.24463.86885.86885,0,0,0-.37207-.084A.80334.80334,0,0,0,15.15853,25.09892Z"/><path class="cls-1" d="M19.19564,24.88993a1.084,1.084,0,0,1,.209.69385v1.41113a.134.134,0,0,1-.044.103.14215.14215,0,0,1-.24414-.103v-1.397a.78851.78851,0,0,0-.15625-.50635.5825.5825,0,0,0-.48242-.19433.86137.86137,0,0,0-.69141.353.589.589,0,0,0-.11523.34766v1.397a.14406.14406,0,1,1-.28809,0V24.84452a.14406.14406,0,1,1,.28809,0v.26416a1.02651,1.02651,0,0,1,.37207-.34326.99945.99945,0,0,1,.49707-.13672A.78843.78843,0,0,1,19.19564,24.88993Z"/><path class="cls-1" d="M22.33431,24.72685a.14612.14612,0,0,1,.041.10791v2.07861a1.24075,1.24075,0,0,1-.15625.64062,1.029,1.029,0,0,1-.42676.40577,1.34185,1.34185,0,0,1-.62207.13916,1.55037,1.55037,0,0,1-.35254-.043,1.421,1.421,0,0,1-.3164-.11035c-.0879-.04493-.13868-.09131-.15137-.13965a.10483.10483,0,0,1-.0332-.07666.087.087,0,0,1,.043-.07666.07553.07553,0,0,1,.04786-.01465.37109.37109,0,0,1,.11035.03369l.10058.04346a1.54927,1.54927,0,0,0,.55664.11523.906.906,0,0,0,.66993-.24267.887.887,0,0,0,.24218-.65528v-.29736a.88125.88125,0,0,1-.3789.40527,1.08741,1.08741,0,0,1-.543.14649,1.10426,1.10426,0,0,1-.59668-.16553,1.16508,1.16508,0,0,1-.4209-.4585,1.47587,1.47587,0,0,1,0-1.31005,1.16508,1.16508,0,0,1,.4209-.4585,1.0981,1.0981,0,0,1,.59277-.16553,1.05766,1.05766,0,0,1,.55371.15088,1.01433,1.01433,0,0,1,.37207.36279v-.30761a.14747.14747,0,0,1,.041-.10547.13594.13594,0,0,1,.10351-.043A.14062.14062,0,0,1,22.33431,24.72685Zm-.67187,2.064a.86145.86145,0,0,0,.32617-.35986,1.14115,1.14115,0,0,0,.11816-.52539,1.12728,1.12728,0,0,0-.11816-.52344.86666.86666,0,0,0-.32617-.35742.888.888,0,0,0-.47266-.12744.85247.85247,0,0,0-.46777.13232.89855.89855,0,0,0-.32617.36231,1.18506,1.18506,0,0,0,0,1.03173.89855.89855,0,0,0,.32617.36231.85247.85247,0,0,0,.46777.13232A.888.888,0,0,0,21.66244,26.79081Z"/><path class="cls-1" d="M25.20541,24.72929a.14751.14751,0,0,1,.041.10547v2.16015a.14641.14641,0,0,1-.248.103.14178.14178,0,0,1-.04-.103v-.32177a1.00638,1.00638,0,0,1-.36035.36523.97413.97413,0,0,1-.52344.14844,1.03055,1.03055,0,0,1-.57813-.168,1.1579,1.1579,0,0,1-.40332-.46045,1.45034,1.45034,0,0,1-.14648-.65772,1.41225,1.41225,0,0,1,.14941-.65527,1.13647,1.13647,0,0,1,.40528-.45361,1.07217,1.07217,0,0,1,1.09668-.02393.9171.9171,0,0,1,.36035.36475v-.29785a.15091.15091,0,0,1,.04-.10547.14617.14617,0,0,1,.207,0Zm-.65332,2.05664a.89394.89394,0,0,0,.3125-.36475,1.17645,1.17645,0,0,0,.1123-.52051,1.14049,1.14049,0,0,0-.1123-.50878.89629.89629,0,0,0-.3125-.36231.79082.79082,0,0,0-.44825-.13232.805.805,0,0,0-.44921.12988.88294.88294,0,0,0-.31153.35742,1.14885,1.14885,0,0,0-.11328.51611,1.20319,1.20319,0,0,0,.11035.52051.88042.88042,0,0,0,.30957.36475.8007.8007,0,0,0,.4541.13232A.79082.79082,0,0,0,24.55209,26.78593Z"/><path class="cls-1" d="M27.81088,24.88993a1.084,1.084,0,0,1,.209.69385v1.41113a.134.134,0,0,1-.044.103.14215.14215,0,0,1-.24414-.103v-1.397a.78851.78851,0,0,0-.15625-.50635.58249.58249,0,0,0-.48242-.19433.86133.86133,0,0,0-.6914.353.58894.58894,0,0,0-.11524.34766v1.397a.14406.14406,0,1,1-.28808,0V24.84452a.14406.14406,0,1,1,.28808,0v.26416a1.02667,1.02667,0,0,1,.37207-.34326.99945.99945,0,0,1,.49707-.13672A.78845.78845,0,0,1,27.81088,24.88993Z"/><path class="cls-1" d="M31.84506,24.93827a1.104,1.104,0,0,1,.21093.69824v1.3584a.14178.14178,0,0,1-.04.103.15112.15112,0,0,1-.207,0,.138.138,0,0,1-.04-.103v-1.3584a.80747.80747,0,0,0-.14941-.50634.54836.54836,0,0,0-.46582-.19434.79868.79868,0,0,0-.38086.0957.81875.81875,0,0,0-.291.25684.6058.6058,0,0,0-.11035.34814v1.3584a.14406.14406,0,1,1-.28808,0V23.73075a.13946.13946,0,0,1,.14453-.14355.13721.13721,0,0,1,.10254.04053.13946.13946,0,0,1,.041.103v1.40674a1.01114,1.01114,0,0,1,.36035-.33838.9373.9373,0,0,1,.47071-.13232A.76476.76476,0,0,1,31.84506,24.93827Z"/><path class="cls-1" d="M34.7474,24.74149a.1418.1418,0,0,1,.04.103V26.198a.95232.95232,0,0,1-.26367.72265,1.01274,1.01274,0,0,1-.7295.252.99866.99866,0,0,1-.72265-.252.95881.95881,0,0,1-.26172-.72265V24.84452a.14406.14406,0,1,1,.28809,0V26.198a.63269.63269,0,0,0,.69628.70556.71634.71634,0,0,0,.52051-.17968.70236.70236,0,0,0,.18457-.52588V24.84452a.14024.14024,0,0,1,.14453-.144A.14136.14136,0,0,1,34.7474,24.74149Z"/><path class="cls-1" d="M36.86166,24.66679a.12472.12472,0,0,1,.07715.11523.15145.15145,0,0,1-.03907.10791.11975.11975,0,0,1-.09082.041.36.36,0,0,1-.09375-.02393.40158.40158,0,0,0-.13183-.02392.56934.56934,0,0,0-.35254.13671,1.06548,1.06548,0,0,0-.28809.35254.93725.93725,0,0,0-.11328.437v1.18554a.14406.14406,0,1,1-.28809,0V24.84452a.14406.14406,0,1,1,.28809,0v.42237a1.1051,1.1051,0,0,1,.334-.45362.83113.83113,0,0,1,.5254-.18457A.38128.38128,0,0,1,36.86166,24.66679Z"/><path class="cls-1" d="M39.3265,24.74149a.1418.1418,0,0,1,.04.103V26.198a.95232.95232,0,0,1-.26367.72265,1.01273,1.01273,0,0,1-.72949.252.99867.99867,0,0,1-.72266-.252A.95881.95881,0,0,1,37.389,26.198V24.84452a.14406.14406,0,1,1,.28809,0V26.198a.63269.63269,0,0,0,.69629.70556.71633.71633,0,0,0,.5205-.17968.70236.70236,0,0,0,.18457-.52588V24.84452a.14024.14024,0,0,1,.14454-.144A.14136.14136,0,0,1,39.3265,24.74149Z"/><path class="cls-1" d="M40.73763,23.96122a.42455.42455,0,0,0-.084.27832v.49463h.53711a.13238.13238,0,0,1,.09375.03857.13275.13275,0,0,1,0,.1919.13393.13393,0,0,1-.09375.03809h-.53711v1.99218a.14406.14406,0,1,1-.28809,0V25.00273H40.015a.12517.12517,0,0,1-.09571-.04053.13392.13392,0,0,1-.03808-.09375.12836.12836,0,0,1,.03808-.09815.13482.13482,0,0,1,.09571-.03613h.35058v-.49463a.615.615,0,0,1,.17481-.46777.65591.65591,0,0,1,.46875-.16553.74806.74806,0,0,1,.249.04053c.07715.02734.11524.07129.11524.13232a.13033.13033,0,0,1-.03809.09571.11892.11892,0,0,1-.08691.03857.30533.30533,0,0,1-.10547-.02393.65962.65962,0,0,0-.168-.0288A.29159.29159,0,0,0,40.73763,23.96122Z"/><path class="cls-1" d="M13.75716,30.44364a.1426.1426,0,0,1,.04.103v2.1167a1.3144,1.3144,0,0,1-.14843.648.99328.99328,0,0,1-.41309.4082,1.25437,1.25437,0,0,1-.59473.13916,1.57172,1.57172,0,0,1-.377-.043.98935.98935,0,0,1-.29-.11523c-.06738-.042-.10156-.08838-.10156-.13916a.3753.3753,0,0,1,.00976-.04834A.1323.1323,0,0,1,11.93,33.4412a.12209.12209,0,0,1,.07226-.02392.13181.13181,0,0,1,.05762.01416,1.22775,1.22775,0,0,0,.58594.168.82019.82019,0,0,0,.63086-.24951.95989.95989,0,0,0,.23339-.68164v-.168a.88063.88063,0,0,1-.3457.32422,1.01367,1.01367,0,0,1-.49023.12207.79321.79321,0,0,1-.63379-.24951,1.00159,1.00159,0,0,1-.21582-.67676V30.54667a.14022.14022,0,0,1,.14453-.144.13762.13762,0,0,1,.10254.041.1395.1395,0,0,1,.041.103v1.43066a.78882.78882,0,0,0,.15137.52295.58681.58681,0,0,0,.47266.17774.77084.77084,0,0,0,.37695-.09863.80374.80374,0,0,0,.28809-.25928.60123.60123,0,0,0,.10839-.34278V30.54667a.14572.14572,0,0,1,.24707-.103Z"/><path class="cls-1" d="M16.83822,30.48905a.14753.14753,0,0,1,.041.10547v2.16016a.14643.14643,0,0,1-.248.103.1418.1418,0,0,1-.04-.103V32.4329a1.00648,1.00648,0,0,1-.36035.36524.97412.97412,0,0,1-.52344.14843,1.03042,1.03042,0,0,1-.57812-.168,1.15779,1.15779,0,0,1-.40333-.46045,1.45032,1.45032,0,0,1-.14648-.65771,1.41234,1.41234,0,0,1,.14941-.65527,1.13664,1.13664,0,0,1,.40528-.45362,1.0722,1.0722,0,0,1,1.09668-.02392.917.917,0,0,1,.36035.36474v-.29785a.15093.15093,0,0,1,.04-.10547.14617.14617,0,0,1,.207,0Zm-.65332,2.05664a.894.894,0,0,0,.3125-.36474,1.17652,1.17652,0,0,0,.1123-.52051,1.1405,1.1405,0,0,0-.1123-.50879.89626.89626,0,0,0-.3125-.3623.7908.7908,0,0,0-.44824-.13233.80505.80505,0,0,0-.44922.12988.883.883,0,0,0-.31153.35743,1.14881,1.14881,0,0,0-.11328.51611,1.20311,1.20311,0,0,0,.11036.52051.8803.8803,0,0,0,.30957.36474.80069.80069,0,0,0,.4541.13233A.7908.7908,0,0,0,16.1849,32.54569Z"/><path class="cls-1" d="M19.44466,30.6497a1.08388,1.08388,0,0,1,.209.69385v1.41113a.134.134,0,0,1-.04395.103.14215.14215,0,0,1-.24414-.103v-1.397a.78849.78849,0,0,0-.15625-.50635.58247.58247,0,0,0-.48242-.19434.8613.8613,0,0,0-.6914.353.58889.58889,0,0,0-.11524.34766v1.397a.14406.14406,0,1,1-.28809,0V30.60429a.14406.14406,0,1,1,.28809,0v.26416a1.02642,1.02642,0,0,1,.37207-.34326.99945.99945,0,0,1,.49707-.13672A.78839.78839,0,0,1,19.44466,30.6497Z"/><path class="cls-1" d="M22.58334,30.48661a.14618.14618,0,0,1,.041.10791v2.07862a1.24078,1.24078,0,0,1-.15625.64062,1.02891,1.02891,0,0,1-.42676.40576,1.34173,1.34173,0,0,1-.62207.13916,1.55029,1.55029,0,0,1-.35253-.043,1.42062,1.42062,0,0,1-.31641-.11035c-.08789-.04492-.13867-.09131-.15137-.13965a.10483.10483,0,0,1-.0332-.07666.087.087,0,0,1,.043-.07666.07556.07556,0,0,1,.04785-.01465.37122.37122,0,0,1,.11035.0337l.10059.04345a1.54925,1.54925,0,0,0,.55664.11524.906.906,0,0,0,.66992-.24268.887.887,0,0,0,.24219-.65527v-.29737a.88125.88125,0,0,1-.37891.40528,1.0875,1.0875,0,0,1-.543.14648,1.10427,1.10427,0,0,1-.59668-.16552,1.16529,1.16529,0,0,1-.4209-.4585,1.47589,1.47589,0,0,1,0-1.31006,1.16529,1.16529,0,0,1,.4209-.4585,1.0981,1.0981,0,0,1,.59278-.16552,1.05766,1.05766,0,0,1,.55371.15088,1.0144,1.0144,0,0,1,.37207.36279v-.30762a.14752.14752,0,0,1,.041-.10547.136.136,0,0,1,.10352-.043A.14069.14069,0,0,1,22.58334,30.48661Zm-.67188,2.064a.86147.86147,0,0,0,.32617-.35987,1.141,1.141,0,0,0,.11817-.52539,1.12712,1.12712,0,0,0-.11817-.52343.86669.86669,0,0,0-.32617-.35743.888.888,0,0,0-.47265-.12744.85249.85249,0,0,0-.46778.13233.89859.89859,0,0,0-.32617.3623,1.18517,1.18517,0,0,0,0,1.03174.89859.89859,0,0,0,.32617.3623.85249.85249,0,0,0,.46778.13233A.888.888,0,0,0,21.91146,32.55058Z"/><path class="cls-1" d="M26.78841,30.48905a.14749.14749,0,0,1,.041.10547v2.16016a.14643.14643,0,0,1-.248.103.14184.14184,0,0,1-.04-.103V32.4329a1.00633,1.00633,0,0,1-.36035.36524.97406.97406,0,0,1-.52343.14843,1.03048,1.03048,0,0,1-.57813-.168,1.15777,1.15777,0,0,1-.40332-.46045,1.45019,1.45019,0,0,1-.14648-.65771,1.41222,1.41222,0,0,1,.14941-.65527,1.13654,1.13654,0,0,1,.40527-.45362,1.0722,1.0722,0,0,1,1.09668-.02392.91688.91688,0,0,1,.36035.36474v-.29785a.151.151,0,0,1,.04-.10547.14617.14617,0,0,1,.207,0Zm-.65332,2.05664a.89383.89383,0,0,0,.3125-.36474,1.17638,1.17638,0,0,0,.11231-.52051,1.14037,1.14037,0,0,0-.11231-.50879.89611.89611,0,0,0-.3125-.3623.79077.79077,0,0,0-.44824-.13233.8051.8051,0,0,0-.44922.12988.883.883,0,0,0-.31152.35743,1.14868,1.14868,0,0,0-.11328.51611,1.20325,1.20325,0,0,0,.11035.52051.88045.88045,0,0,0,.30957.36474.80069.80069,0,0,0,.4541.13233A.79077.79077,0,0,0,26.13509,32.54569Z"/><path class="cls-1" d="M29.67806,29.38749a.13943.13943,0,0,1,.041.103v3.26416a.14643.14643,0,0,1-.24805.103.1418.1418,0,0,1-.04-.103v-.33594a1.0348,1.0348,0,0,1-.3584.37451.94463.94463,0,0,1-.52539.15332,1.035,1.035,0,0,1-.57324-.16552,1.15083,1.15083,0,0,1-.40527-.4585,1.51046,1.51046,0,0,1,0-1.31006,1.15083,1.15083,0,0,1,.40527-.4585,1.026,1.026,0,0,1,.56836-.16552,1.00767,1.00767,0,0,1,.52344.1416.97236.97236,0,0,1,.36523.36719V29.49052a.14257.14257,0,0,1,.04-.103.15246.15246,0,0,1,.207,0Zm-.65332,3.16065a.87744.87744,0,0,0,.3125-.36231,1.17782,1.17782,0,0,0,.11231-.52051,1.15107,1.15107,0,0,0-.11231-.51367.89611.89611,0,0,0-.3125-.3623.827.827,0,0,0-.89746,0,.894.894,0,0,0-.31152.3623,1.23124,1.23124,0,0,0,0,1.03174.894.894,0,0,0,.31152.3623.79169.79169,0,0,0,.44922.13233A.80414.80414,0,0,0,29.02474,32.54814Z"/><path class="cls-1" d="M32.56771,30.48905a.14749.14749,0,0,1,.041.10547v2.16016a.14643.14643,0,0,1-.248.103.1418.1418,0,0,1-.04-.103V32.4329a1.00641,1.00641,0,0,1-.36035.36524.9741.9741,0,0,1-.52344.14843,1.03047,1.03047,0,0,1-.57812-.168,1.15769,1.15769,0,0,1-.40332-.46045,1.4502,1.4502,0,0,1-.14649-.65771,1.41223,1.41223,0,0,1,.14942-.65527,1.13654,1.13654,0,0,1,.40527-.45362,1.0722,1.0722,0,0,1,1.09668-.02392.91694.91694,0,0,1,.36035.36474v-.29785a.15093.15093,0,0,1,.04-.10547.14617.14617,0,0,1,.207,0Zm-.65332,2.05664a.8939.8939,0,0,0,.3125-.36474,1.17638,1.17638,0,0,0,.11231-.52051,1.14037,1.14037,0,0,0-.11231-.50879.89618.89618,0,0,0-.3125-.3623.7908.7908,0,0,0-.44824-.13233.80507.80507,0,0,0-.44922.12988.883.883,0,0,0-.31152.35743,1.14868,1.14868,0,0,0-.11328.51611,1.20325,1.20325,0,0,0,.11035.52051.88045.88045,0,0,0,.30957.36474.80069.80069,0,0,0,.4541.13233A.7908.7908,0,0,0,31.91439,32.54569Z"/><path class="cls-1" d="M33.27572,32.84843a.2005.2005,0,0,1-.043-.13672v-.10107a.19142.19142,0,0,1,.043-.13428.15775.15775,0,0,1,.125-.04785h.0332a.15911.15911,0,0,1,.125.04785.19616.19616,0,0,1,.043.13428v.10107a.20558.20558,0,0,1-.043.13672.15569.15569,0,0,1-.125.05029h-.0332A.15437.15437,0,0,1,33.27572,32.84843Z"/><path class="cls-1" d="M37.36947,29.66093a.86342.86342,0,0,1,.3291.34082,1.0251,1.0251,0,0,1,.11719.49219,1.06508,1.06508,0,0,1-.11719.499.89947.89947,0,0,1-.3291.35547.889.889,0,0,1-.47559.12939h-.99316v1.27686a.14406.14406,0,1,1-.28809,0V29.6829a.13945.13945,0,0,1,.14356-.144h1.13769A.92965.92965,0,0,1,37.36947,29.66093Zm-.02441,1.33691a.74651.74651,0,0,0,.17285-.5039.68719.68719,0,0,0-.17285-.48487.58643.58643,0,0,0-.45118-.187h-.99316V31.1995h.99316A.5664.5664,0,0,0,37.34506,30.99784Z"/><path class="cls-1" d="M40.473,30.48905a.14752.14752,0,0,1,.041.10547v2.16016a.14643.14643,0,0,1-.24805.103.14184.14184,0,0,1-.04-.103V32.4329a1.00633,1.00633,0,0,1-.36035.36524.97406.97406,0,0,1-.52343.14843,1.03048,1.03048,0,0,1-.57813-.168,1.15777,1.15777,0,0,1-.40332-.46045,1.45019,1.45019,0,0,1-.14648-.65771,1.41222,1.41222,0,0,1,.14941-.65527,1.13661,1.13661,0,0,1,.40527-.45362,1.0722,1.0722,0,0,1,1.09668-.02392.91688.91688,0,0,1,.36035.36474v-.29785a.151.151,0,0,1,.04-.10547.14618.14618,0,0,1,.207,0Zm-.65333,2.05664a.89383.89383,0,0,0,.3125-.36474,1.17638,1.17638,0,0,0,.11231-.52051,1.14037,1.14037,0,0,0-.11231-.50879.89611.89611,0,0,0-.3125-.3623.79077.79077,0,0,0-.44824-.13233.8051.8051,0,0,0-.44922.12988.883.883,0,0,0-.31152.35743,1.14881,1.14881,0,0,0-.11328.51611,1.20325,1.20325,0,0,0,.11035.52051.88045.88045,0,0,0,.30957.36474.80069.80069,0,0,0,.4541.13233A.79077.79077,0,0,0,39.81966,32.54569Z"/><path class="cls-1" d="M43.25424,32.75468a.12718.12718,0,0,1-.04981.103.15593.15593,0,0,1-.09375.041.13041.13041,0,0,1-.10547-.05273l-1.06152-1.123-.35938.30713v.72461a.14406.14406,0,1,1-.28808,0V29.49052a.13946.13946,0,0,1,.041-.103.13724.13724,0,0,1,.10254-.04053.13947.13947,0,0,1,.14453.14356v2.189L42.971,30.48417a.12766.12766,0,0,1,.19727-.00244.14406.14406,0,0,1,.043.09863.15565.15565,0,0,1-.05274.11035l-.98926.83985,1.042,1.11377A.16263.16263,0,0,1,43.25424,32.75468Z"/><path class="cls-1" d="M45.91146,30.48905a.14749.14749,0,0,1,.041.10547v2.16016a.14643.14643,0,0,1-.248.103.1418.1418,0,0,1-.04-.103V32.4329a1.00641,1.00641,0,0,1-.36035.36524.9741.9741,0,0,1-.52344.14843,1.03047,1.03047,0,0,1-.57812-.168,1.15769,1.15769,0,0,1-.40332-.46045,1.4502,1.4502,0,0,1-.14649-.65771,1.41223,1.41223,0,0,1,.14942-.65527,1.13654,1.13654,0,0,1,.40527-.45362,1.0722,1.0722,0,0,1,1.09668-.02392.91694.91694,0,0,1,.36035.36474v-.29785a.15093.15093,0,0,1,.04-.10547.14617.14617,0,0,1,.207,0Zm-.65332,2.05664a.8939.8939,0,0,0,.3125-.36474,1.17638,1.17638,0,0,0,.11231-.52051,1.14037,1.14037,0,0,0-.11231-.50879.89618.89618,0,0,0-.3125-.3623.7908.7908,0,0,0-.44824-.13233.80507.80507,0,0,0-.44922.12988.883.883,0,0,0-.31152.35743,1.14868,1.14868,0,0,0-.11328.51611,1.20325,1.20325,0,0,0,.11035.52051.88045.88045,0,0,0,.30957.36474.80069.80069,0,0,0,.4541.13233A.7908.7908,0,0,0,45.25814,32.54569Z"/><path class="cls-1" d="M46.69174,30.03544a.162.162,0,0,1-.05372-.13184v-.04785a.16192.16192,0,0,1,.05567-.13232.23129.23129,0,0,1,.15137-.04541c.12793,0,.1914.05908.1914.17773v.04785a.16941.16941,0,0,1-.0498.13184.21164.21164,0,0,1-.14649.0459A.217.217,0,0,1,46.69174,30.03544Zm.25195,2.82227a.14138.14138,0,0,1-.10352.041.14024.14024,0,0,1-.14453-.144v-2.208a.14024.14024,0,0,1,.14453-.144.13869.13869,0,0,1,.14356.144v2.208A.1418.1418,0,0,1,46.94369,32.85771Z"/><path class="cls-1" d="M11.81088,35.79569a.162.162,0,0,1-.05372-.13183V35.616a.16192.16192,0,0,1,.05567-.13233.23135.23135,0,0,1,.15137-.04541c.12793,0,.1914.05908.1914.17774v.04785a.16939.16939,0,0,1-.0498.13183.21159.21159,0,0,1-.14649.0459A.21694.21694,0,0,1,11.81088,35.79569Zm.252,2.82227a.14137.14137,0,0,1-.10352.041.14026.14026,0,0,1-.14453-.144v-2.208a.14026.14026,0,0,1,.14453-.144.13871.13871,0,0,1,.14356.144v2.208A.14178.14178,0,0,1,12.06283,38.618Z"/><path class="cls-1" d="M16.27181,36.45341a1.1221,1.1221,0,0,1,.2041.70312v1.3584a.14406.14406,0,1,1-.28808,0V37.17118a.8314.8314,0,0,0-.15039-.51611.55136.55136,0,0,0-.46875-.19922.81424.81424,0,0,0-.67188.35742.63609.63609,0,0,0-.11035.35791v1.34375a.14406.14406,0,1,1-.28808,0v-1.3584a.83082.83082,0,0,0-.14356-.50634.52651.52651,0,0,0-.45117-.19434.75961.75961,0,0,0-.37207.0957.8019.8019,0,0,0-.2832.25684.6109.6109,0,0,0-.1084.34814v1.3584a.14406.14406,0,1,1-.28809,0V36.36454a.14406.14406,0,1,1,.28809,0v.27832a1.04937,1.04937,0,0,1,.35058-.32617.90766.90766,0,0,1,.46582-.12988.84056.84056,0,0,1,.4795.13476.73093.73093,0,0,1,.28808.39356.88661.88661,0,0,1,.37012-.36963,1.05235,1.05235,0,0,1,.542-.15869A.74885.74885,0,0,1,16.27181,36.45341Z"/><path class="cls-1" d="M19.32455,36.24931a.14751.14751,0,0,1,.041.10547v2.16015a.14641.14641,0,0,1-.248.103.14178.14178,0,0,1-.04-.103v-.32178a1.00633,1.00633,0,0,1-.36035.36524.97413.97413,0,0,1-.52344.14844,1.03055,1.03055,0,0,1-.57813-.168,1.1579,1.1579,0,0,1-.40332-.46045,1.45034,1.45034,0,0,1-.14648-.65772,1.41225,1.41225,0,0,1,.14941-.65527,1.13654,1.13654,0,0,1,.40528-.45361,1.07217,1.07217,0,0,1,1.09668-.02393.917.917,0,0,1,.36035.36475v-.29785a.15091.15091,0,0,1,.04-.10547.14617.14617,0,0,1,.207,0ZM18.67123,38.306a.89394.89394,0,0,0,.3125-.36475,1.17645,1.17645,0,0,0,.1123-.52051,1.14056,1.14056,0,0,0-.1123-.50879.89632.89632,0,0,0-.3125-.3623.79081.79081,0,0,0-.44824-.13232.805.805,0,0,0-.44922.12988.88294.88294,0,0,0-.31153.35742,1.14885,1.14885,0,0,0-.11328.51611,1.20319,1.20319,0,0,0,.11035.52051.88042.88042,0,0,0,.30957.36475.80071.80071,0,0,0,.45411.13232A.79081.79081,0,0,0,18.67123,38.306Z"/><path class="cls-1" d="M19.682,39.57108a.1314.1314,0,0,1-.03809-.09619v-.019a.12479.12479,0,0,1,.03321-.08887.15533.15533,0,0,1,.09082-.04541.53925.53925,0,0,0,.2959-.15625.45567.45567,0,0,0,.11718-.32861v-2.477a.14406.14406,0,1,1,.28809,0v2.52a.71641.71641,0,0,1-.36719.64111.66468.66468,0,0,1-.32422.08838A.13027.13027,0,0,1,19.682,39.57108Zm.49414-3.78027a.16443.16443,0,0,1-.05273-.13183v-.04786a.16191.16191,0,0,1,.05566-.13232.22954.22954,0,0,1,.15137-.04541c.12793,0,.1914.05908.1914.17773V35.659a.1694.1694,0,0,1-.0498.13183.21164.21164,0,0,1-.14649.0459A.21974.21974,0,0,1,20.17611,35.79081Z"/><path class="cls-1" d="M21.26205,35.79569a.16194.16194,0,0,1-.05371-.13183V35.616a.16192.16192,0,0,1,.05566-.13233.23135.23135,0,0,1,.15137-.04541c.12793,0,.1914.05908.1914.17774v.04785a.16939.16939,0,0,1-.0498.13183.21158.21158,0,0,1-.14648.0459A.217.217,0,0,1,21.26205,35.79569Zm.252,2.82227a.14136.14136,0,0,1-.10351.041.14026.14026,0,0,1-.14454-.144v-2.208a.14026.14026,0,0,1,.14454-.144.13871.13871,0,0,1,.14355.144v2.208A.14178.14178,0,0,1,21.514,38.618Z"/><path class="cls-1" d="M24.11556,36.41a1.0839,1.0839,0,0,1,.209.69385v1.41113a.134.134,0,0,1-.04395.103.14215.14215,0,0,1-.24414-.103V37.118a.78849.78849,0,0,0-.15625-.50635.5825.5825,0,0,0-.48242-.19433.86137.86137,0,0,0-.69141.353.589.589,0,0,0-.11523.34766v1.397a.14406.14406,0,1,1-.28809,0V36.36454a.14406.14406,0,1,1,.28809,0v.26416a1.02659,1.02659,0,0,1,.37207-.34326.99945.99945,0,0,1,.49707-.13672A.78843.78843,0,0,1,24.11556,36.41Z"/><path class="cls-1" d="M27.17318,36.24931a.14752.14752,0,0,1,.041.10547v2.16015a.14642.14642,0,0,1-.24805.103.14178.14178,0,0,1-.04-.103v-.32178a1.00633,1.00633,0,0,1-.36035.36524.97413.97413,0,0,1-.52344.14844,1.0305,1.0305,0,0,1-.57812-.168,1.15783,1.15783,0,0,1-.40332-.46045,1.45021,1.45021,0,0,1-.14649-.65772,1.41225,1.41225,0,0,1,.14942-.65527,1.13645,1.13645,0,0,1,.40527-.45361,1.07217,1.07217,0,0,1,1.09668-.02393.917.917,0,0,1,.36035.36475v-.29785a.15091.15091,0,0,1,.04-.10547.14617.14617,0,0,1,.207,0ZM26.51986,38.306a.89394.89394,0,0,0,.3125-.36475,1.17632,1.17632,0,0,0,.1123-.52051,1.14043,1.14043,0,0,0-.1123-.50879.89632.89632,0,0,0-.3125-.3623.79079.79079,0,0,0-.44824-.13232.805.805,0,0,0-.44922.12988.88292.88292,0,0,0-.31152.35742,1.14872,1.14872,0,0,0-.11329.51611,1.203,1.203,0,0,0,.11036.52051.88027.88027,0,0,0,.30957.36475.80068.80068,0,0,0,.4541.13232A.79079.79079,0,0,0,26.51986,38.306Z"/><path class="cls-1" d="M27.78841,38.16435a.15773.15773,0,0,1,.13965-.12452.14827.14827,0,0,1,.10547.04786.89876.89876,0,0,0,.75391.37451.73308.73308,0,0,0,.40039-.10791.351.351,0,0,0,.1709-.31446.33434.33434,0,0,0-.15821-.30224,1.54374,1.54374,0,0,0-.44238-.17285,1.86983,1.86983,0,0,1-.624-.26172.5436.5436,0,0,1-.22559-.47266.59878.59878,0,0,1,.11035-.353.73088.73088,0,0,1,.30078-.24218,1.02182,1.02182,0,0,1,.42872-.08643,1.17125,1.17125,0,0,1,.416.0791.88.88,0,0,1,.35742.252.11615.11615,0,0,1,.043.09619.12938.12938,0,0,1-.13476.12939.11841.11841,0,0,1-.08594-.03857.76249.76249,0,0,0-.27344-.19678.87133.87133,0,0,0-.34082-.06689.69041.69041,0,0,0-.38672.10546.35326.35326,0,0,0-.16113.3169.34556.34556,0,0,0,.17578.29248,1.81811,1.81811,0,0,0,.48731.18262,2.26474,2.26474,0,0,1,.4121.13916.68614.68614,0,0,1,.26661.21582.6043.6043,0,0,1,.10351.36963.58592.58592,0,0,1-.25.49707,1.01045,1.01045,0,0,1-.61914.18457,1.1245,1.1245,0,0,1-.93066-.43653A.20879.20879,0,0,1,27.78841,38.16435Z"/><path class="cls-1" d="M30.20443,35.79569a.162.162,0,0,1-.05371-.13183V35.616a.16192.16192,0,0,1,.05566-.13233.23137.23137,0,0,1,.15137-.04541c.12793,0,.19141.05908.19141.17774v.04785a.16936.16936,0,0,1-.04981.13183.21158.21158,0,0,1-.14648.0459A.217.217,0,0,1,30.20443,35.79569Zm.252,2.82227a.14136.14136,0,0,1-.10351.041.14024.14024,0,0,1-.14453-.144v-2.208a.14024.14024,0,0,1,.14453-.144.13871.13871,0,0,1,.14355.144v2.208A.14178.14178,0,0,1,30.45638,38.618Z"/><path class="cls-1" d="M34.48763,36.2039a.14256.14256,0,0,1,.04.103v2.1167a1.31451,1.31451,0,0,1-.14843.648.99336.99336,0,0,1-.41309.40821,1.25449,1.25449,0,0,1-.59473.13916,1.57172,1.57172,0,0,1-.377-.043.98935.98935,0,0,1-.29-.11524c-.06738-.042-.10156-.08838-.10156-.13916a.37377.37377,0,0,1,.00976-.04834.13222.13222,0,0,1,.04786-.07177.122.122,0,0,1,.07226-.02393.13181.13181,0,0,1,.05762.01416,1.22766,1.22766,0,0,0,.58594.168.82018.82018,0,0,0,.63085-.24951.95988.95988,0,0,0,.2334-.68164v-.168a.88077.88077,0,0,1-.3457.32422,1.01378,1.01378,0,0,1-.49023.12207.79318.79318,0,0,1-.63379-.24952,1.00156,1.00156,0,0,1-.21582-.67675V36.30692a.14024.14024,0,0,1,.14453-.144.13759.13759,0,0,1,.10254.041.13946.13946,0,0,1,.041.103v1.43067a.78884.78884,0,0,0,.15137.523.58683.58683,0,0,0,.47266.17773.77073.77073,0,0,0,.377-.09863.80363.80363,0,0,0,.28808-.25928.60114.60114,0,0,0,.1084-.34277V36.30692a.14571.14571,0,0,1,.24707-.103Z"/><path class="cls-1" d="M37.56966,36.24931a.14747.14747,0,0,1,.041.10547v2.16015a.14642.14642,0,0,1-.248.103.14183.14183,0,0,1-.04-.103v-.32178a1.00617,1.00617,0,0,1-.36035.36524.97407.97407,0,0,1-.52343.14844,1.03055,1.03055,0,0,1-.57813-.168,1.1579,1.1579,0,0,1-.40332-.46045,1.45021,1.45021,0,0,1-.14648-.65772,1.41225,1.41225,0,0,1,.14941-.65527,1.13645,1.13645,0,0,1,.40527-.45361,1.07217,1.07217,0,0,1,1.09668-.02393.9169.9169,0,0,1,.36035.36475v-.29785a.151.151,0,0,1,.04-.10547.14617.14617,0,0,1,.207,0ZM36.91634,38.306a.89379.89379,0,0,0,.3125-.36475,1.17632,1.17632,0,0,0,.11231-.52051,1.14043,1.14043,0,0,0-.11231-.50879.89617.89617,0,0,0-.3125-.3623.79077.79077,0,0,0-.44824-.13232.805.805,0,0,0-.44922.12988.883.883,0,0,0-.31152.35742,1.14871,1.14871,0,0,0-.11328.51611,1.20319,1.20319,0,0,0,.11035.52051.88042.88042,0,0,0,.30957.36475.80068.80068,0,0,0,.4541.13232A.79077.79077,0,0,0,36.91634,38.306Z"/><path class="cls-1" d="M38.28646,38.61112a.193.193,0,0,1-.04394-.13476v-.10547a.19176.19176,0,0,1,.04394-.13428.16246.16246,0,0,1,.12891-.04785h.02929a.15914.15914,0,0,1,.125.04785.19613.19613,0,0,1,.043.13428v.10547a.19743.19743,0,0,1-.043.13476.1608.1608,0,0,1-.125.04786h-.02929A.16409.16409,0,0,1,38.28646,38.61112Zm.043-.99365-.05273-2.12158a.2413.2413,0,0,1,.03808-.144.13356.13356,0,0,1,.11524-.05274.13174.13174,0,0,1,.11523.05518.21686.21686,0,0,1,.0332.1416l-.05273,2.12158c-.00293.0669-.03516.10059-.0957.10059C38.3724,37.71806,38.3392,37.68437,38.32943,37.61747Z"/><rect class="cls-3" x="67.69617" y="1.05182" width="54.15558" height="52.45901" rx="2.70987"/><line class="cls-4" x1="47.25208" y1="36.50261" x2="48.23712" y2="36.67493"/><line class="cls-5" x1="50.28979" y1="37.03401" x2="65.68494" y2="39.72716"/><line class="cls-4" x1="66.71124" y1="39.90669" x2="67.69629" y2="40.07901"/></svg>