<svg id="Layer_1" data-name="Layer 1" xmlns="http://www.w3.org/2000/svg" viewBox="0 0 70 53"><defs><style>.cls-1,.cls-2,.cls-3{fill:none;stroke:#933034;stroke-miterlimit:10;stroke-width:0.25px;}.cls-1{stroke-dasharray:1.99411 1.99411;}.cls-3{stroke-dasharray:2.25605 2.25605;}.cls-4{fill:#933034;}.cls-5{fill:#fff;}</style></defs><path class="cls-1" d="M4.577,1.51373h18.0817a2.70984,2.70984,0,0,1,2.70984,2.70984V19.51738a2.70987,2.70987,0,0,1-2.70987,2.70987H4.577a2.70984,2.70984,0,0,1-2.70984-2.70984V4.2236A2.70987,2.70987,0,0,1,4.577,1.51373Z"/><line class="cls-2" x1="15.48486" y1="22.2272" x2="16.06641" y2="23.04073"/><line class="cls-3" x1="17.37836" y1="24.87608" x2="21.97015" y2="31.29984"/><line class="cls-2" x1="22.62616" y1="32.21751" x2="23.2077" y2="33.03104"/><circle class="cls-4" cx="25.45309" cy="36.21915" r="3.96478"/><path class="cls-5" d="M26.098,35.7161a1.10873,1.10873,0,0,1,.42968.42481,1.214,1.214,0,0,1,.15723.61377,1.2917,1.2917,0,0,1-.17285.6665,1.19954,1.19954,0,0,1-.48047.45947,1.46729,1.46729,0,0,1-.70215.165,1.37664,1.37664,0,0,1-.44336-.0747,1.169,1.169,0,0,1-.38476-.21241.14387.14387,0,0,1-.05079-.061.17693.17693,0,0,1-.01855-.07715.159.159,0,0,1,.04492-.10351.14119.14119,0,0,1,.10938-.0503.18644.18644,0,0,1,.11718.04785,1.0954,1.0954,0,0,0,.29981.16455.9548.9548,0,0,0,.32617.0586,1.16676,1.16676,0,0,0,.54-.12207.88729.88729,0,0,0,.36621-.34571.98.98,0,0,0,.12988-.50439.858.858,0,0,0-.25976-.65088.97192.97192,0,0,0-.69629-.24707.95043.95043,0,0,0-.30567.04785,3.34366,3.34366,0,0,0-.31543.12744.5386.5386,0,0,1-.165.064.17551.17551,0,0,1-.12989-.05078.16033.16033,0,0,1-.05078-.11914.123.123,0,0,1,.00586-.04248l.22754-1.44532a.17017.17017,0,0,1,.05664-.09277.15821.15821,0,0,1,.1084-.04h1.59863a.1486.1486,0,0,1,.10938.04541.15457.15457,0,0,1,.04492.11426.15337.15337,0,0,1-.1543.15381h-1.4873l-.18067,1.09961a1.64149,1.64149,0,0,1,.32715-.1167,1.56717,1.56717,0,0,1,.38477-.04785A1.2477,1.2477,0,0,1,26.098,35.7161Z"/><path class="cls-4" d="M34.764,37.67021a.131.131,0,0,1,.041.10058.14024.14024,0,0,1-.14453.144H32.94662a.1402.1402,0,0,1-.14356-.144V34.699a.13846.13846,0,0,1,.043-.10351.15612.15612,0,0,1,.11035-.04053.14751.14751,0,0,1,.10547.04053.13577.13577,0,0,1,.044.10351v2.93262h1.55469A.14389.14389,0,0,1,34.764,37.67021Z"/><path class="cls-4" d="M35.27084,35.05155a.162.162,0,0,1-.05371-.13183v-.04785a.16192.16192,0,0,1,.05566-.13233.23135.23135,0,0,1,.15137-.04541c.12793,0,.1914.05908.1914.17774v.04785a.1694.1694,0,0,1-.0498.13183.21164.21164,0,0,1-.14649.0459A.217.217,0,0,1,35.27084,35.05155Zm.252,2.82227a.14136.14136,0,0,1-.10352.041.14024.14024,0,0,1-.14453-.144v-2.208a.14026.14026,0,0,1,.14453-.144.13871.13871,0,0,1,.14356.144v2.208A.14178.14178,0,0,1,35.52279,37.87382Z"/><path class="cls-4" d="M38.07357,35.71415a1.104,1.104,0,0,1,.21094.69824v1.3584a.14178.14178,0,0,1-.04.103.15115.15115,0,0,1-.207,0,.13793.13793,0,0,1-.04-.103v-1.3584a.80753.80753,0,0,0-.14941-.50634.54838.54838,0,0,0-.46583-.19434.79864.79864,0,0,0-.38085.0957.81865.81865,0,0,0-.291.25684.6058.6058,0,0,0-.11035.34814v1.3584a.14406.14406,0,1,1-.28809,0V34.50663a.13946.13946,0,0,1,.14453-.14355.13721.13721,0,0,1,.10254.04052.13946.13946,0,0,1,.041.103v1.40674a1.011,1.011,0,0,1,.36035-.33838.93729.93729,0,0,1,.4707-.13232A.76475.76475,0,0,1,38.07357,35.71415Z"/><path class="cls-4" d="M41.13314,35.50517a.14747.14747,0,0,1,.041.10547v2.16015a.14643.14643,0,0,1-.248.103.14178.14178,0,0,1-.04-.103V37.449a1.00625,1.00625,0,0,1-.36035.36524.97411.97411,0,0,1-.52344.14844,1.03052,1.03052,0,0,1-.57812-.168,1.15783,1.15783,0,0,1-.40332-.46045,1.45021,1.45021,0,0,1-.14649-.65772,1.41225,1.41225,0,0,1,.14942-.65527,1.13645,1.13645,0,0,1,.40527-.45361,1.07217,1.07217,0,0,1,1.09668-.02393.917.917,0,0,1,.36035.36475v-.29785a.15091.15091,0,0,1,.04-.10547.14617.14617,0,0,1,.207,0Zm-.65332,2.05664a.89393.89393,0,0,0,.3125-.36475,1.17632,1.17632,0,0,0,.11231-.52051,1.1404,1.1404,0,0,0-.11231-.50879.89625.89625,0,0,0-.3125-.3623.79079.79079,0,0,0-.44824-.13232.805.805,0,0,0-.44922.12988.88285.88285,0,0,0-.31152.35742,1.14871,1.14871,0,0,0-.11328.51611,1.203,1.203,0,0,0,.11035.52051.88041.88041,0,0,0,.30957.36475.80068.80068,0,0,0,.4541.13232A.79079.79079,0,0,0,40.47982,37.56181Z"/><path class="cls-4" d="M42.40756,35.74052v1.60791a.34232.34232,0,0,0,.06738.24707.24123.24123,0,0,0,.17676.06494.26489.26489,0,0,0,.07226-.01221.28478.28478,0,0,1,.06738-.01172.09281.09281,0,0,1,.07422.03614.12514.12514,0,0,1,.03125.084.13253.13253,0,0,1-.07617.11279.35431.35431,0,0,1-.18262.04541.99206.99206,0,0,1-.23046-.02392.36561.36561,0,0,1-.19434-.144.62626.62626,0,0,1-.09375-.38379V35.74052h-.35059a.13871.13871,0,0,1-.09863-.03858.135.135,0,0,1,0-.19189.14082.14082,0,0,1,.09863-.03857h.35059v-.53272a.13946.13946,0,0,1,.041-.103.13758.13758,0,0,1,.10253-.041.14024.14024,0,0,1,.14454.144v.53272h.47949a.12634.12634,0,0,1,.09375.04345.13583.13583,0,0,1,.041.09571.12291.12291,0,0,1-.03808.09375.13721.13721,0,0,1-.09668.03613Z"/><path class="cls-4" d="M46.96029,34.4036a.1395.1395,0,0,1,.041.103v3.26416a.14643.14643,0,0,1-.248.103.14178.14178,0,0,1-.04-.103v-.33594a1.03475,1.03475,0,0,1-.3584.37452.94474.94474,0,0,1-.52539.15332,1.035,1.035,0,0,1-.57324-.16553,1.1508,1.1508,0,0,1-.40528-.4585,1.51055,1.51055,0,0,1,0-1.31006,1.15083,1.15083,0,0,1,.40528-.45849,1.026,1.026,0,0,1,.56836-.16553,1.00777,1.00777,0,0,1,.52344.1416.97236.97236,0,0,1,.36523.36719V34.50663a.1426.1426,0,0,1,.04-.103.15248.15248,0,0,1,.207,0ZM46.307,37.56425a.87752.87752,0,0,0,.3125-.36231,1.17794,1.17794,0,0,0,.1123-.5205,1.15121,1.15121,0,0,0-.1123-.51368.89632.89632,0,0,0-.3125-.3623.827.827,0,0,0-.89746,0,.89408.89408,0,0,0-.31152.3623,1.23114,1.23114,0,0,0,0,1.03174.894.894,0,0,0,.31152.36231.79168.79168,0,0,0,.44922.13232A.80416.80416,0,0,0,46.307,37.56425Z"/><path class="cls-4" d="M49.84994,35.50517a.14751.14751,0,0,1,.041.10547v2.16015a.14642.14642,0,0,1-.248.103.14178.14178,0,0,1-.04-.103V37.449a1.00633,1.00633,0,0,1-.36035.36524.97413.97413,0,0,1-.52344.14844,1.03055,1.03055,0,0,1-.57813-.168,1.158,1.158,0,0,1-.40332-.46045,1.45034,1.45034,0,0,1-.14648-.65772,1.41225,1.41225,0,0,1,.14941-.65527,1.13654,1.13654,0,0,1,.40528-.45361,1.07217,1.07217,0,0,1,1.09668-.02393.917.917,0,0,1,.36035.36475v-.29785a.15091.15091,0,0,1,.04-.10547.14617.14617,0,0,1,.207,0Zm-.65332,2.05664a.894.894,0,0,0,.3125-.36475,1.17645,1.17645,0,0,0,.1123-.52051,1.14053,1.14053,0,0,0-.1123-.50879.89632.89632,0,0,0-.3125-.3623.79079.79079,0,0,0-.44824-.13232.805.805,0,0,0-.44922.12988.88287.88287,0,0,0-.31153.35742,1.14885,1.14885,0,0,0-.11328.51611,1.20319,1.20319,0,0,0,.11035.52051.88048.88048,0,0,0,.30957.36475.80071.80071,0,0,0,.45411.13232A.79079.79079,0,0,0,49.19662,37.56181Z"/><path class="cls-4" d="M52.45638,35.66581a1.0839,1.0839,0,0,1,.209.69385v1.41113a.134.134,0,0,1-.044.103.14215.14215,0,0,1-.24414-.103v-1.397a.78849.78849,0,0,0-.15625-.50635.5825.5825,0,0,0-.48242-.19433.86137.86137,0,0,0-.69141.353.589.589,0,0,0-.11523.34766v1.397a.14406.14406,0,1,1-.28809,0V35.6204a.14406.14406,0,1,1,.28809,0v.26416a1.02659,1.02659,0,0,1,.37207-.34326.99945.99945,0,0,1,.49707-.13672A.78839.78839,0,0,1,52.45638,35.66581Z"/><path class="cls-4" d="M34.7181,43.53056a.12713.12713,0,0,1-.0498.103.15589.15589,0,0,1-.09375.041.13041.13041,0,0,1-.10547-.05273l-1.06152-1.123-.35938.30713v.72461a.14406.14406,0,1,1-.28809,0V40.2664a.13947.13947,0,0,1,.041-.103.13723.13723,0,0,1,.10254-.04053.13948.13948,0,0,1,.14453.14356v2.189l1.38672-1.19531a.12764.12764,0,0,1,.19726-.00244.144.144,0,0,1,.043.09863.15565.15565,0,0,1-.05273.11035l-.98926.83985,1.042,1.11377A.16263.16263,0,0,1,34.7181,43.53056Z"/><path class="cls-4" d="M37.223,42.40507a.139.139,0,0,1-.10059.04053H35.308a1.09983,1.09983,0,0,0,.11816.51611.884.884,0,0,0,.33594.35986.97385.97385,0,0,0,.51562.13233.87664.87664,0,0,0,.41309-.09619.86169.86169,0,0,0,.293-.24463.16162.16162,0,0,1,.10058-.04346.13337.13337,0,0,1,.125.125.14425.14425,0,0,1-.04785.10059,1.20946,1.20946,0,0,1-.38672.30761,1.06469,1.06469,0,0,1-.49218.11963,1.31416,1.31416,0,0,1-.65235-.1582,1.1244,1.1244,0,0,1-.44238-.44385,1.34055,1.34055,0,0,1-.1582-.66016,1.44867,1.44867,0,0,1,.15625-.689,1.121,1.121,0,0,1,.415-.45117,1.05157,1.05157,0,0,1,.55176-.15576,1.13206,1.13206,0,0,1,.54.13427,1.07226,1.07226,0,0,1,.41113.39356,1.19457,1.19457,0,0,1,.16309.61426A.12992.12992,0,0,1,37.223,42.40507Zm-1.58594-.77051a.89077.89077,0,0,0-.30469.55225h1.63672v-.03858a.76379.76379,0,0,0-.14453-.377.77682.77682,0,0,0-.29981-.24463.869.869,0,0,0-.37207-.084A.8033.8033,0,0,0,35.63705,41.63456Z"/><path class="cls-4" d="M39.67416,41.42558a1.08392,1.08392,0,0,1,.209.69384v1.41114a.134.134,0,0,1-.04394.103.14214.14214,0,0,1-.24414-.103v-1.397a.78852.78852,0,0,0-.15625-.50634.5825.5825,0,0,0-.48243-.19434.8613.8613,0,0,0-.6914.353.589.589,0,0,0-.11524.34765v1.397a.14406.14406,0,1,1-.28808,0V41.38017a.14406.14406,0,1,1,.28808,0v.26416a1.02661,1.02661,0,0,1,.37207-.34327.99954.99954,0,0,1,.49707-.13671A.78841.78841,0,0,1,39.67416,41.42558Z"/><path class="cls-4" d="M42.73177,41.26493a.14749.14749,0,0,1,.041.10547v2.16016a.14642.14642,0,0,1-.248.103.1418.1418,0,0,1-.04-.103v-.32178a1.00623,1.00623,0,0,1-.36035.36523.974.974,0,0,1-.52344.14844,1.03047,1.03047,0,0,1-.57812-.168,1.15777,1.15777,0,0,1-.40332-.46045,1.45019,1.45019,0,0,1-.14648-.65771,1.41219,1.41219,0,0,1,.14941-.65527,1.13654,1.13654,0,0,1,.40527-.45362,1.0722,1.0722,0,0,1,1.09668-.02392.91688.91688,0,0,1,.36035.36474V41.3704a.151.151,0,0,1,.04-.10547.14617.14617,0,0,1,.207,0Zm-.65332,2.05664a.89383.89383,0,0,0,.3125-.36474,1.17638,1.17638,0,0,0,.11231-.52051,1.14037,1.14037,0,0,0-.11231-.50879.89611.89611,0,0,0-.3125-.3623.79077.79077,0,0,0-.44824-.13233.8051.8051,0,0,0-.44922.12988.883.883,0,0,0-.31152.35743,1.14865,1.14865,0,0,0-.11328.51611,1.20325,1.20325,0,0,0,.11035.52051.88045.88045,0,0,0,.30957.36474.80069.80069,0,0,0,.4541.13233A.79077.79077,0,0,0,42.07845,43.32157Z"/><path class="cls-4" d="M43.80209,43.63358a.13981.13981,0,0,1-.10352.041.1402.1402,0,0,1-.14355-.144V40.2664a.13946.13946,0,0,1,.041-.103.13724.13724,0,0,1,.10254-.04053.13947.13947,0,0,1,.14453.14356v3.26416A.13869.13869,0,0,1,43.80209,43.63358Z"/><path class="cls-4" d="M44.61654,40.81132a.162.162,0,0,1-.05371-.13184v-.04785a.1619.1619,0,0,1,.05566-.13232.23131.23131,0,0,1,.15137-.04541c.12793,0,.19141.05908.19141.17773v.04785a.16941.16941,0,0,1-.04981.13184.21163.21163,0,0,1-.14648.0459A.217.217,0,0,1,44.61654,40.81132Zm.252,2.82226a.14133.14133,0,0,1-.10351.041.14024.14024,0,0,1-.14453-.144v-2.208a.14022.14022,0,0,1,.14453-.144.13869.13869,0,0,1,.14355.144v2.208A.14176.14176,0,0,1,44.86849,43.63358Z"/><path class="cls-4" d="M46.5306,44.58671a.13142.13142,0,0,1-.03808-.09619v-.019a.12476.12476,0,0,1,.0332-.08887.15527.15527,0,0,1,.09082-.04541.53928.53928,0,0,0,.2959-.15625.45572.45572,0,0,0,.11719-.32862V41.37528a.14406.14406,0,1,1,.28808,0v2.52a.71639.71639,0,0,1-.36719.64112.66468.66468,0,0,1-.32421.08838A.13031.13031,0,0,1,46.5306,44.58671Zm.49414-3.78027a.16449.16449,0,0,1-.05273-.13184v-.04785a.16193.16193,0,0,1,.05566-.13233A.22958.22958,0,0,1,47.179,40.449c.12793,0,.19141.05909.19141.17774v.04785a.16943.16943,0,0,1-.04981.13184.21162.21162,0,0,1-.14648.04589A.21975.21975,0,0,1,47.02474,40.80644Z"/><path class="cls-4" d="M50.06185,41.27714a.14177.14177,0,0,1,.04.103v1.35351a.95234.95234,0,0,1-.26367.72266,1.01273,1.01273,0,0,1-.72949.252.99868.99868,0,0,1-.72266-.252.95884.95884,0,0,1-.26172-.72266V41.38017a.14406.14406,0,1,1,.28809,0v1.35351a.63272.63272,0,0,0,.69629.70557.71637.71637,0,0,0,.52051-.17969.7024.7024,0,0,0,.18457-.52588V41.38017a.14024.14024,0,0,1,.14453-.144A.14136.14136,0,0,1,50.06185,41.27714Z"/><path class="cls-4" d="M52.98373,41.26249a.14617.14617,0,0,1,.041.10791V43.449a1.24069,1.24069,0,0,1-.15625.64063,1.02894,1.02894,0,0,1-.42675.40576,1.34192,1.34192,0,0,1-.62208.13916,1.55029,1.55029,0,0,1-.35253-.043,1.42113,1.42113,0,0,1-.31641-.11035c-.08789-.04492-.13867-.09131-.15137-.13965a.10483.10483,0,0,1-.0332-.07666.08694.08694,0,0,1,.043-.07666.07556.07556,0,0,1,.04785-.01465.37109.37109,0,0,1,.11035.03369l.10059.04346a1.54925,1.54925,0,0,0,.55664.11524.906.906,0,0,0,.66992-.24268.887.887,0,0,0,.24219-.65527v-.29737a.88125.88125,0,0,1-.37891.40528,1.08748,1.08748,0,0,1-.543.14648,1.10419,1.10419,0,0,1-.59668-.16553,1.16519,1.16519,0,0,1-.4209-.45849,1.47589,1.47589,0,0,1,0-1.31006,1.16529,1.16529,0,0,1,.4209-.4585,1.0981,1.0981,0,0,1,.59278-.16552,1.05766,1.05766,0,0,1,.55371.15088,1.01425,1.01425,0,0,1,.37207.36279V41.3704a.14752.14752,0,0,1,.041-.10547.136.136,0,0,1,.10352-.043A.14069.14069,0,0,1,52.98373,41.26249Zm-.67188,2.064a.86147.86147,0,0,0,.32617-.35987,1.141,1.141,0,0,0,.11817-.52539,1.12719,1.12719,0,0,0-.11817-.52344.86666.86666,0,0,0-.32617-.35742.888.888,0,0,0-.47265-.12744.85249.85249,0,0,0-.46778.13233.89859.89859,0,0,0-.32617.3623,1.18517,1.18517,0,0,0,0,1.03174.89859.89859,0,0,0,.32617.3623.85249.85249,0,0,0,.46778.13233A.888.888,0,0,0,52.31185,43.32646Z"/><path class="cls-4" d="M55.85482,41.26493a.14753.14753,0,0,1,.041.10547v2.16016a.14642.14642,0,0,1-.248.103.14176.14176,0,0,1-.04-.103v-.32178a1.00631,1.00631,0,0,1-.36035.36523.974.974,0,0,1-.52344.14844,1.03044,1.03044,0,0,1-.57812-.168,1.15769,1.15769,0,0,1-.40332-.46045,1.4502,1.4502,0,0,1-.14649-.65771,1.4122,1.4122,0,0,1,.14942-.65527,1.13654,1.13654,0,0,1,.40527-.45362,1.0722,1.0722,0,0,1,1.09668-.02392.91694.91694,0,0,1,.36035.36474V41.3704a.15093.15093,0,0,1,.04-.10547.14617.14617,0,0,1,.207,0Zm-.65332,2.05664a.8939.8939,0,0,0,.3125-.36474,1.17638,1.17638,0,0,0,.11231-.52051,1.14037,1.14037,0,0,0-.11231-.50879.89618.89618,0,0,0-.3125-.3623.7908.7908,0,0,0-.44824-.13233.80507.80507,0,0,0-.44922.12988.883.883,0,0,0-.31152.35743,1.14865,1.14865,0,0,0-.11328.51611,1.20311,1.20311,0,0,0,.11035.52051.88038.88038,0,0,0,.30957.36474.80069.80069,0,0,0,.4541.13233A.7908.7908,0,0,0,55.2015,43.32157Z"/><path class="cls-4" d="M59.90365,41.20731a.106.106,0,0,1,.043.08643.17983.17983,0,0,1-.01856.08154l-.9414,2.208a.17971.17971,0,0,1-.05469.06494.12587.12587,0,0,1-.0752.02637.13374.13374,0,0,1-.08593-.019.14612.14612,0,0,1-.05762-.07227l-.94531-2.208a.098.098,0,0,0-.00782-.0288.10483.10483,0,0,1-.00683-.03809.13953.13953,0,0,1,.03808-.09863.14345.14345,0,0,1,.11036-.04053.12855.12855,0,0,1,.0791.02637.1659.1659,0,0,1,.05566.06933l.81641,1.94385.82031-1.94385a.166.166,0,0,1,.05566-.06933.11791.11791,0,0,1,.084-.022A.14768.14768,0,0,1,59.90365,41.20731Z"/><path class="cls-4" d="M62.50424,42.40507a.139.139,0,0,1-.10059.04053H60.5892a1.09983,1.09983,0,0,0,.11816.51611.884.884,0,0,0,.33594.35986.97385.97385,0,0,0,.51562.13233.87664.87664,0,0,0,.41309-.09619.86169.86169,0,0,0,.293-.24463.16162.16162,0,0,1,.10058-.04346.13337.13337,0,0,1,.125.125.14425.14425,0,0,1-.04785.10059,1.20946,1.20946,0,0,1-.38672.30761,1.06469,1.06469,0,0,1-.49218.11963,1.31416,1.31416,0,0,1-.65235-.1582,1.1244,1.1244,0,0,1-.44238-.44385,1.34055,1.34055,0,0,1-.1582-.66016,1.44867,1.44867,0,0,1,.15625-.689,1.121,1.121,0,0,1,.415-.45117,1.05157,1.05157,0,0,1,.55176-.15576,1.13206,1.13206,0,0,1,.54.13427,1.07226,1.07226,0,0,1,.41113.39356,1.19457,1.19457,0,0,1,.16309.61426A.12992.12992,0,0,1,62.50424,42.40507Zm-1.58594-.77051a.89077.89077,0,0,0-.30469.55225h1.63672v-.03858a.76379.76379,0,0,0-.14453-.377.77682.77682,0,0,0-.29981-.24463.869.869,0,0,0-.37207-.084A.8033.8033,0,0,0,60.9183,41.63456Z"/><path class="cls-4" d="M64.46322,41.20243a.12473.12473,0,0,1,.07715.11524.15146.15146,0,0,1-.03906.10791.11981.11981,0,0,1-.09082.041.36.36,0,0,1-.09375-.02392.4014.4014,0,0,0-.13184-.02393.56931.56931,0,0,0-.35254.13672,1.06538,1.06538,0,0,0-.28809.35254.93721.93721,0,0,0-.11328.437v1.18555a.14406.14406,0,1,1-.28808,0V41.38017a.14406.14406,0,1,1,.28808,0v.42236a1.10493,1.10493,0,0,1,.334-.45361.83111.83111,0,0,1,.52539-.18457A.38128.38128,0,0,1,64.46322,41.20243Z"/><path class="cls-4" d="M64.81381,43.18a.15774.15774,0,0,1,.13964-.12451.14826.14826,0,0,1,.10547.04785.89876.89876,0,0,0,.75391.37451.733.733,0,0,0,.40039-.10791.351.351,0,0,0,.1709-.31445.33436.33436,0,0,0-.15821-.30225,1.54362,1.54362,0,0,0-.44238-.17285,1.86962,1.86962,0,0,1-.624-.26172.5436.5436,0,0,1-.22559-.47265.59876.59876,0,0,1,.11035-.353.73094.73094,0,0,1,.30079-.24219,1.02174,1.02174,0,0,1,.42871-.08642,1.171,1.171,0,0,1,.416.0791.88.88,0,0,1,.35742.25195.11617.11617,0,0,1,.043.09619.12938.12938,0,0,1-.13476.1294.11842.11842,0,0,1-.08594-.03858.76259.76259,0,0,0-.27344-.19677.87112.87112,0,0,0-.34082-.0669.69041.69041,0,0,0-.38672.10547.35323.35323,0,0,0-.16113.31689.34554.34554,0,0,0,.17578.29248,1.81777,1.81777,0,0,0,.48731.18262,2.26591,2.26591,0,0,1,.41211.13916.68627.68627,0,0,1,.2666.21582.6043.6043,0,0,1,.10351.36963.58591.58591,0,0,1-.25.49707,1.01038,1.01038,0,0,1-.61914.18457,1.12452,1.12452,0,0,1-.93066-.43652A.20879.20879,0,0,1,64.81381,43.18Z"/><path class="cls-4" d="M67.22884,40.81132a.162.162,0,0,1-.05371-.13184v-.04785a.1619.1619,0,0,1,.05567-.13232.23128.23128,0,0,1,.15136-.04541c.12793,0,.19141.05908.19141.17773v.04785a.16941.16941,0,0,1-.0498.13184.21164.21164,0,0,1-.14649.0459A.217.217,0,0,1,67.22884,40.81132Zm.252,2.82226a.14135.14135,0,0,1-.10352.041.14026.14026,0,0,1-.14453-.144v-2.208a.14024.14024,0,0,1,.14453-.144.13869.13869,0,0,1,.14356.144v2.208A.1418.1418,0,0,1,67.4808,43.63358Z"/><path class="cls-4" d="M35.36654,49.30058a.13616.13616,0,0,1-.05078.11279.17542.17542,0,0,1-.11231.04053.13353.13353,0,0,1-.10644-.05274l-1.33887-1.68457-.65234.61426v.95508a.162.162,0,0,1-.04785.10791.14985.14985,0,0,1-.10645.041.14083.14083,0,0,1-.14844-.14892v-3.0625a.14375.14375,0,0,1,.043-.10791.15612.15612,0,0,1,.11035-.04053.14814.14814,0,0,1,.1084.04053.14612.14612,0,0,1,.041.10791V47.9661l1.93847-1.83349a.13818.13818,0,0,1,.10645-.04834.12985.12985,0,0,1,.09766.04346.13579.13579,0,0,1,.041.0957.14013.14013,0,0,1-.043.10107l-1.25781,1.17578,1.34375,1.69922A.17484.17484,0,0,1,35.36654,49.30058Z"/><path class="cls-4" d="M38.06674,47.02519a.14748.14748,0,0,1,.041.10546v2.16016a.14643.14643,0,0,1-.24805.103.14184.14184,0,0,1-.04-.103V48.969a1.00617,1.00617,0,0,1-.36035.36524.97407.97407,0,0,1-.52343.14844,1.03055,1.03055,0,0,1-.57813-.168,1.1579,1.1579,0,0,1-.40332-.46045,1.45021,1.45021,0,0,1-.14648-.65772,1.41225,1.41225,0,0,1,.14941-.65527,1.13652,1.13652,0,0,1,.40527-.45361,1.07217,1.07217,0,0,1,1.09668-.02393.9169.9169,0,0,1,.36035.36475v-.29786a.15093.15093,0,0,1,.04-.10546.14618.14618,0,0,1,.207,0Zm-.65333,2.05664a.89386.89386,0,0,0,.3125-.36475,1.17632,1.17632,0,0,0,.11231-.52051,1.1404,1.1404,0,0,0-.11231-.50879.89617.89617,0,0,0-.3125-.3623.79077.79077,0,0,0-.44824-.13233.805.805,0,0,0-.44922.12989.88292.88292,0,0,0-.31152.35742,1.14881,1.14881,0,0,0-.11328.51611,1.20319,1.20319,0,0,0,.11035.52051.88048.88048,0,0,0,.30957.36475.80068.80068,0,0,0,.4541.13232A.79077.79077,0,0,0,37.41341,49.08183Z"/><path class="cls-4" d="M39.34115,47.26054v1.60791a.34232.34232,0,0,0,.06738.24707.24126.24126,0,0,0,.17676.06494.265.265,0,0,0,.07227-.01221.28462.28462,0,0,1,.06738-.01172.09282.09282,0,0,1,.07422.03614.12519.12519,0,0,1,.03125.084.13253.13253,0,0,1-.07617.11279.35434.35434,0,0,1-.18262.04541.99209.99209,0,0,1-.23047-.02392.3657.3657,0,0,1-.19434-.144.62626.62626,0,0,1-.09375-.38379V47.26054h-.35058a.13873.13873,0,0,1-.09864-.03858.135.135,0,0,1,0-.19189.14086.14086,0,0,1,.09864-.03858h.35058v-.53271a.1395.1395,0,0,1,.041-.103.1376.1376,0,0,1,.10254-.041.14024.14024,0,0,1,.14453.144v.53271h.47949a.12632.12632,0,0,1,.09375.04346.13579.13579,0,0,1,.041.0957.12288.12288,0,0,1-.03809.09375.13717.13717,0,0,1-.09668.03614Z"/><path class="cls-4" d="M42.58334,47.02519a.14748.14748,0,0,1,.041.10546v2.16016a.14642.14642,0,0,1-.248.103.1418.1418,0,0,1-.04-.103V48.969a1.00628,1.00628,0,0,1-.36036.36524.97407.97407,0,0,1-.52343.14844,1.03055,1.03055,0,0,1-.57813-.168,1.1579,1.1579,0,0,1-.40332-.46045,1.45034,1.45034,0,0,1-.14648-.65772,1.41225,1.41225,0,0,1,.14941-.65527,1.13647,1.13647,0,0,1,.40528-.45361,1.07215,1.07215,0,0,1,1.09667-.02393.917.917,0,0,1,.36036.36475v-.29786a.15089.15089,0,0,1,.04-.10546.14617.14617,0,0,1,.207,0ZM41.93,49.08183a.894.894,0,0,0,.3125-.36475,1.17645,1.17645,0,0,0,.1123-.52051,1.14053,1.14053,0,0,0-.1123-.50879.89632.89632,0,0,0-.3125-.3623.79083.79083,0,0,0-.44825-.13233.805.805,0,0,0-.44921.12989.88287.88287,0,0,0-.31153.35742,1.14881,1.14881,0,0,0-.11328.51611,1.20319,1.20319,0,0,0,.11035.52051.88048.88048,0,0,0,.30957.36475.8007.8007,0,0,0,.4541.13232A.79082.79082,0,0,0,41.93,49.08183Z"/><path class="cls-4" d="M45.36459,49.29081a.12715.12715,0,0,1-.04981.103.15593.15593,0,0,1-.09375.041.13038.13038,0,0,1-.10547-.05273l-1.06152-1.123-.35938.30713v.72461a.14406.14406,0,1,1-.28808,0V46.02665a.1395.1395,0,0,1,.041-.103.13724.13724,0,0,1,.10254-.04052.13945.13945,0,0,1,.14453.14355v2.189l1.38672-1.19532a.12766.12766,0,0,1,.19727-.00244.14406.14406,0,0,1,.043.09863.15568.15568,0,0,1-.05274.11036l-.98925.83984,1.042,1.11377A.16267.16267,0,0,1,45.36459,49.29081Z"/><path class="cls-4" d="M48.02181,47.02519a.14745.14745,0,0,1,.041.10546v2.16016a.14643.14643,0,0,1-.248.103.1418.1418,0,0,1-.04-.103V48.969a1.00625,1.00625,0,0,1-.36035.36524.97408.97408,0,0,1-.52344.14844,1.03055,1.03055,0,0,1-.57812-.168,1.15783,1.15783,0,0,1-.40332-.46045,1.45021,1.45021,0,0,1-.14649-.65772,1.41225,1.41225,0,0,1,.14942-.65527,1.13645,1.13645,0,0,1,.40527-.45361,1.07217,1.07217,0,0,1,1.09668-.02393.917.917,0,0,1,.36035.36475v-.29786a.15089.15089,0,0,1,.04-.10546.14617.14617,0,0,1,.207,0Zm-.65332,2.05664a.89386.89386,0,0,0,.3125-.36475,1.17632,1.17632,0,0,0,.11231-.52051,1.1404,1.1404,0,0,0-.11231-.50879.89617.89617,0,0,0-.3125-.3623.79077.79077,0,0,0-.44824-.13233.805.805,0,0,0-.44922.12989.88285.88285,0,0,0-.31152.35742,1.14868,1.14868,0,0,0-.11328.51611,1.20319,1.20319,0,0,0,.11035.52051.88048.88048,0,0,0,.30957.36475.80068.80068,0,0,0,.4541.13232A.79077.79077,0,0,0,47.36849,49.08183Z"/><path class="cls-4" d="M50.62728,47.18583a1.084,1.084,0,0,1,.209.69385v1.41113a.134.134,0,0,1-.044.103.14215.14215,0,0,1-.24414-.103v-1.397a.78849.78849,0,0,0-.15625-.50635.5825.5825,0,0,0-.48242-.19434.86141.86141,0,0,0-.69141.353.589.589,0,0,0-.11523.34766v1.397a.14406.14406,0,1,1-.28809,0V47.14042a.14406.14406,0,1,1,.28809,0v.26416a1.02659,1.02659,0,0,1,.37207-.34326.99945.99945,0,0,1,.49707-.13672A.7884.7884,0,0,1,50.62728,47.18583Z"/><path class="cls-4" d="M53.6849,47.02519a.14748.14748,0,0,1,.041.10546v2.16016a.14642.14642,0,0,1-.248.103.1418.1418,0,0,1-.04-.103V48.969a1.00633,1.00633,0,0,1-.36035.36524.97413.97413,0,0,1-.52344.14844,1.03055,1.03055,0,0,1-.57813-.168,1.158,1.158,0,0,1-.40332-.46045,1.45034,1.45034,0,0,1-.14648-.65772,1.41225,1.41225,0,0,1,.14941-.65527,1.13654,1.13654,0,0,1,.40528-.45361,1.07217,1.07217,0,0,1,1.09668-.02393.917.917,0,0,1,.36035.36475v-.29786a.15089.15089,0,0,1,.04-.10546.14617.14617,0,0,1,.207,0Zm-.65332,2.05664a.894.894,0,0,0,.3125-.36475,1.17645,1.17645,0,0,0,.1123-.52051,1.14053,1.14053,0,0,0-.1123-.50879.89632.89632,0,0,0-.3125-.3623.7908.7908,0,0,0-.44824-.13233.805.805,0,0,0-.44922.12989.883.883,0,0,0-.31153.35742,1.14881,1.14881,0,0,0-.11328.51611,1.20319,1.20319,0,0,0,.11035.52051.88043.88043,0,0,0,.30958.36475.80066.80066,0,0,0,.4541.13232A.79079.79079,0,0,0,53.03158,49.08183Z"/><path class="cls-4" d="M57.60189,47.18583a1.084,1.084,0,0,1,.209.69385v1.41113a.134.134,0,0,1-.04395.103.14215.14215,0,0,1-.24414-.103v-1.397a.78849.78849,0,0,0-.15625-.50635.5825.5825,0,0,0-.48242-.19434.86141.86141,0,0,0-.69141.353.589.589,0,0,0-.11523.34766v1.397a.14406.14406,0,1,1-.28809,0V47.14042a.14406.14406,0,1,1,.28809,0v.26416a1.02651,1.02651,0,0,1,.37207-.34326.99945.99945,0,0,1,.49707-.13672A.7884.7884,0,0,1,57.60189,47.18583Z"/><path class="cls-4" d="M60.473,46.97978a.1426.1426,0,0,1,.04.103v2.1167a1.3144,1.3144,0,0,1-.14843.648.99328.99328,0,0,1-.41309.4082,1.25437,1.25437,0,0,1-.59473.13916,1.57223,1.57223,0,0,1-.377-.043.98935.98935,0,0,1-.29-.11524c-.06738-.042-.10156-.08838-.10156-.13916a.37455.37455,0,0,1,.00977-.04834.13227.13227,0,0,1,.04785-.07178.12209.12209,0,0,1,.07226-.02392.13181.13181,0,0,1,.05762.01416,1.22766,1.22766,0,0,0,.58594.168.82022.82022,0,0,0,.63086-.24951.95992.95992,0,0,0,.23339-.68164v-.168a.88077.88077,0,0,1-.3457.32422,1.01378,1.01378,0,0,1-.49023.12207.79318.79318,0,0,1-.63379-.24952,1.00158,1.00158,0,0,1-.21582-.67675V47.0828a.14024.14024,0,0,1,.14453-.144.13759.13759,0,0,1,.10254.041.13946.13946,0,0,1,.041.103v1.43067a.78889.78889,0,0,0,.15137.523.58683.58683,0,0,0,.47266.17773.77073.77073,0,0,0,.377-.09863.80374.80374,0,0,0,.28809-.25928.6012.6012,0,0,0,.10839-.34277V47.0828a.14572.14572,0,0,1,.24708-.103Z"/><path class="cls-4" d="M63.554,47.02519a.14749.14749,0,0,1,.041.10546v2.16016a.14643.14643,0,0,1-.248.103.1418.1418,0,0,1-.04-.103V48.969a1.00633,1.00633,0,0,1-.36035.36524.97413.97413,0,0,1-.52344.14844,1.0305,1.0305,0,0,1-.57812-.168,1.15783,1.15783,0,0,1-.40332-.46045,1.45021,1.45021,0,0,1-.14649-.65772,1.41237,1.41237,0,0,1,.14941-.65527,1.13654,1.13654,0,0,1,.40528-.45361,1.07217,1.07217,0,0,1,1.09668-.02393.917.917,0,0,1,.36035.36475v-.29786a.15089.15089,0,0,1,.04-.10546.14617.14617,0,0,1,.207,0Zm-.65332,2.05664a.894.894,0,0,0,.3125-.36475,1.17645,1.17645,0,0,0,.1123-.52051,1.14053,1.14053,0,0,0-.1123-.50879.89632.89632,0,0,0-.3125-.3623.7908.7908,0,0,0-.44824-.13233.805.805,0,0,0-.44922.12989.88285.88285,0,0,0-.31152.35742,1.14869,1.14869,0,0,0-.11329.51611,1.203,1.203,0,0,0,.11036.52051.88033.88033,0,0,0,.30957.36475.80068.80068,0,0,0,.4541.13232A.79079.79079,0,0,0,62.90072,49.08183Z"/><path class="cls-4" d="M64.26205,49.38456a.2005.2005,0,0,1-.043-.13672v-.10107a.19143.19143,0,0,1,.043-.13428.15775.15775,0,0,1,.125-.04785h.0332a.15912.15912,0,0,1,.125.04785.19618.19618,0,0,1,.043.13428v.10107a.20558.20558,0,0,1-.043.13672.1557.1557,0,0,1-.125.05029h-.0332A.15437.15437,0,0,1,64.26205,49.38456Z"/></svg>