<svg id="Layer_1" data-name="Layer 1" xmlns="http://www.w3.org/2000/svg" viewBox="0 0 95 43"><defs><style>.cls-1{fill:#933034;}.cls-2{fill:#fff;}.cls-3,.cls-4,.cls-5{fill:none;stroke:#933034;stroke-miterlimit:10;stroke-width:0.25px;}.cls-3{stroke-dasharray:2.00628 2.00628;}.cls-5{stroke-dasharray:2.1087 2.1087;}</style></defs><circle class="cls-1" cx="4.54724" cy="4.50614" r="3.96478"/><path class="cls-2" d="M4.74545,2.64335a.15949.15949,0,0,1,.04.10889v3.3999a.14892.14892,0,0,1-.05079.11426.18268.18268,0,0,1-.125.04492.16665.16665,0,0,1-.11718-.04492.15325.15325,0,0,1-.04786-.11426V3.04423L3.7806,3.4373a.14592.14592,0,0,1-.07422.02148.15753.15753,0,0,1-.11914-.05322.16377.16377,0,0,1-.05078-.1167.13309.13309,0,0,1,.02442-.07471.1766.1766,0,0,1,.06054-.0581l.89844-.542a.18713.18713,0,0,1,.12695-.02148A.14575.14575,0,0,1,4.74545,2.64335Z"/><path class="cls-1" d="M13.65365,2.96415a.86342.86342,0,0,1,.3291.34082,1.02376,1.02376,0,0,1,.11719.49219,1.06505,1.06505,0,0,1-.11719.499.90268.90268,0,0,1-.3291.35547.893.893,0,0,1-.47559.12891H12.1849V6.0579a.13757.13757,0,0,1-.041.10254.14989.14989,0,0,1-.206,0,.13761.13761,0,0,1-.041-.10254V2.98564a.13868.13868,0,0,1,.14356-.14356h1.13769A.92484.92484,0,0,1,13.65365,2.96415Zm-.02441,1.33691a.74825.74825,0,0,0,.17285-.5039.68841.68841,0,0,0-.17285-.48535.58772.58772,0,0,0-.45118-.18653H12.1849v1.377h.99316A.56751.56751,0,0,0,13.62924,4.30106Z"/><path class="cls-1" d="M16.75716,3.79228a.14585.14585,0,0,1,.041.10546V6.0579a.13757.13757,0,0,1-.041.10254.14359.14359,0,0,1-.24707-.10254V5.73564a.99879.99879,0,0,1-.36035.36523.96983.96983,0,0,1-.52343.14844,1.03055,1.03055,0,0,1-.57813-.168,1.15646,1.15646,0,0,1-.40332-.46,1.45232,1.45232,0,0,1-.14648-.65821,1.41368,1.41368,0,0,1,.14941-.65527,1.135,1.135,0,0,1,.40527-.45312,1.07374,1.07374,0,0,1,1.09668-.02442.9181.9181,0,0,1,.36035.36524V3.89774a.14927.14927,0,0,1,.04-.10546.14617.14617,0,0,1,.207,0Zm-.65332,2.05664a.89524.89524,0,0,0,.3125-.36524,1.17333,1.17333,0,0,0,.11231-.52051,1.14036,1.14036,0,0,0-.11231-.50878.89929.89929,0,0,0-.3125-.36231.83477.83477,0,0,0-.89746-.00195.87666.87666,0,0,0-.31152.35742,1.1466,1.1466,0,0,0-.11328.51562,1.20009,1.20009,0,0,0,.11035.52051.88185.88185,0,0,0,.30957.36524.8041.8041,0,0,0,.4541.13183A.79415.79415,0,0,0,16.10384,5.84892Z"/><path class="cls-1" d="M19.31283,4.00126a1.10305,1.10305,0,0,1,.21094.69824V6.0579a.14572.14572,0,0,1-.24707.10254.13682.13682,0,0,1-.04-.10254V4.6995a.8099.8099,0,0,0-.14942-.50683.54968.54968,0,0,0-.46582-.19434.80436.80436,0,0,0-.38086.0957.82342.82342,0,0,0-.291.25684.6073.6073,0,0,0-.11035.34863V6.0579a.14019.14019,0,0,1-.14356.14356.13981.13981,0,0,1-.10351-.041.13757.13757,0,0,1-.041-.10254V2.79325a.14022.14022,0,0,1,.14453-.14355.1376.1376,0,0,1,.10254.041.13916.13916,0,0,1,.041.10254V4.20048a1.0122,1.0122,0,0,1,.36035-.33887.9366.9366,0,0,1,.4707-.13183A.76476.76476,0,0,1,19.31283,4.00126Z"/><path class="cls-1" d="M22.37338,3.79228a.14589.14589,0,0,1,.041.10546V6.0579a.1376.1376,0,0,1-.041.10254.14358.14358,0,0,1-.24707-.10254V5.73564a.9989.9989,0,0,1-.36036.36523.96983.96983,0,0,1-.52343.14844,1.03055,1.03055,0,0,1-.57813-.168,1.15646,1.15646,0,0,1-.40332-.46,1.45232,1.45232,0,0,1-.14648-.65821A1.41368,1.41368,0,0,1,20.264,4.3079a1.1351,1.1351,0,0,1,.40527-.45312A1.07374,1.07374,0,0,1,21.766,3.83036a.91819.91819,0,0,1,.36036.36524V3.89774a.14926.14926,0,0,1,.04-.10546.14618.14618,0,0,1,.207,0Zm-.65332,2.05664a.89539.89539,0,0,0,.3125-.36524,1.17346,1.17346,0,0,0,.1123-.52051,1.14049,1.14049,0,0,0-.1123-.50878.89944.89944,0,0,0-.3125-.36231.83479.83479,0,0,0-.89747-.00195.87666.87666,0,0,0-.31152.35742,1.14673,1.14673,0,0,0-.11328.51562,1.20009,1.20009,0,0,0,.11035.52051.88185.88185,0,0,0,.30957.36524.8041.8041,0,0,0,.4541.13183A.7942.7942,0,0,0,21.72006,5.84892Z"/><path class="cls-1" d="M26.58627,3.99638a1.1221,1.1221,0,0,1,.2041.70312V6.0579a.14019.14019,0,0,1-.14356.14356.13981.13981,0,0,1-.10351-.041.13757.13757,0,0,1-.041-.10254V4.71415a.83185.83185,0,0,0-.15039-.5166.55135.55135,0,0,0-.46875-.19922.81421.81421,0,0,0-.67187.35742.63757.63757,0,0,0-.11036.3584V6.0579a.1376.1376,0,0,1-.041.10254.1499.1499,0,0,1-.20606,0,.1376.1376,0,0,1-.041-.10254V4.6995a.83328.83328,0,0,0-.14356-.50683.5278.5278,0,0,0-.45117-.19434.765.765,0,0,0-.37207.0957.80641.80641,0,0,0-.2832.25684.61242.61242,0,0,0-.1084.34863V6.0579a.14019.14019,0,0,1-.14355.14356.13982.13982,0,0,1-.10352-.041.13761.13761,0,0,1-.041-.10254V3.90751a.14026.14026,0,0,1,.14454-.14453.13758.13758,0,0,1,.10253.041.13981.13981,0,0,1,.041.10352v.27832a1.04449,1.04449,0,0,1,.35059-.32617.90293.90293,0,0,1,.46582-.12988.84055.84055,0,0,1,.47949.13476.729.729,0,0,1,.28808.39356.88481.88481,0,0,1,.37012-.37012,1.05634,1.05634,0,0,1,.542-.1582A.74889.74889,0,0,1,26.58627,3.99638Z"/><path class="cls-1" d="M27.5306,3.33817a.162.162,0,0,1-.05371-.13183V3.15849a.16027.16027,0,0,1,.05567-.13184.23143.23143,0,0,1,.15136-.0459c.12793,0,.19141.05957.19141.17774v.04785a.16936.16936,0,0,1-.04981.13183.20925.20925,0,0,1-.14648.0459A.2146.2146,0,0,1,27.5306,3.33817Zm.252,2.82227a.14139.14139,0,0,1-.10352.041.13985.13985,0,0,1-.10352-.041.1376.1376,0,0,1-.041-.10254v-2.208a.14026.14026,0,0,1,.14453-.14453.14135.14135,0,0,1,.10352.041.143.143,0,0,1,.04.10351v2.208A.14067.14067,0,0,1,27.78256,6.16044Z"/><path class="cls-1" d="M29.86849,3.33817a.162.162,0,0,1-.05371-.13183V3.15849a.16027.16027,0,0,1,.05567-.13184.23145.23145,0,0,1,.15136-.0459c.12793,0,.19141.05957.19141.17774v.04785a.16936.16936,0,0,1-.04981.13183.20923.20923,0,0,1-.14648.0459A.2146.2146,0,0,1,29.86849,3.33817Zm.252,2.82227a.14139.14139,0,0,1-.10352.041.13985.13985,0,0,1-.10352-.041.1376.1376,0,0,1-.041-.10254v-2.208a.14026.14026,0,0,1,.14453-.14453.14135.14135,0,0,1,.10352.041.143.143,0,0,1,.04.10351v2.208A.14068.14068,0,0,1,30.12045,6.16044Z"/><path class="cls-1" d="M31.1849,6.16044a.13982.13982,0,0,1-.10352.041.14018.14018,0,0,1-.14355-.14356V2.79325a.13915.13915,0,0,1,.041-.10254.13762.13762,0,0,1,.10254-.041.1402.1402,0,0,1,.14453.14355V6.0579A.1376.1376,0,0,1,31.1849,6.16044Z"/><path class="cls-1" d="M33.92611,3.804a.143.143,0,0,1,.04.10352V5.261a.95307.95307,0,0,1-.26367.72265,1.01273,1.01273,0,0,1-.72949.252.99867.99867,0,0,1-.72266-.252.95957.95957,0,0,1-.26172-.72265V3.90751a.14026.14026,0,0,1,.14453-.14453.1376.1376,0,0,1,.10254.041.13985.13985,0,0,1,.041.10352V5.261a.63261.63261,0,0,0,.69629.70507.7143.7143,0,0,0,.5205-.17968.70118.70118,0,0,0,.18457-.52539V3.90751a.14026.14026,0,0,1,.14453-.14453A.14136.14136,0,0,1,33.92611,3.804Z"/><path class="cls-1" d="M34.54232,5.70731a.10505.10505,0,0,1,.0625-.0957.1038.1038,0,0,1,.07715-.0293.15028.15028,0,0,1,.10547.04786.89793.89793,0,0,0,.7539.375.72925.72925,0,0,0,.4004-.1084.351.351,0,0,0,.17089-.31446.33353.33353,0,0,0-.1582-.30175,1.54345,1.54345,0,0,0-.44238-.17285,1.8698,1.8698,0,0,1-.624-.26172.54361.54361,0,0,1-.22558-.47266.60027.60027,0,0,1,.11035-.35352.73477.73477,0,0,1,.30078-.24218,1.02168,1.02168,0,0,1,.42871-.08594,1.17126,1.17126,0,0,1,.416.0791.88006.88006,0,0,1,.35742.25195.11587.11587,0,0,1,.043.09571.13034.13034,0,0,1-.04785.10058.12826.12826,0,0,1-.08692.0293.11712.11712,0,0,1-.08593-.03906.76712.76712,0,0,0-.27344-.19629.86292.86292,0,0,0-.34082-.06738.69041.69041,0,0,0-.38672.10546.35354.35354,0,0,0-.16113.31739.34411.34411,0,0,0,.17578.292,1.80159,1.80159,0,0,0,.4873.18262,2.26207,2.26207,0,0,1,.41211.13965.68179.68179,0,0,1,.2666.21582.60171.60171,0,0,1,.10352.36914.58592.58592,0,0,1-.25.49707,1.01047,1.01047,0,0,1-.61914.18457,1.12451,1.12451,0,0,1-.93067-.43653A.20742.20742,0,0,1,34.54232,5.70731Z"/><path class="cls-1" d="M37.4515,4.02763V5.63505a.34152.34152,0,0,0,.06738.24707.23963.23963,0,0,0,.17676.06543.25015.25015,0,0,0,.07227-.0127.2845.2845,0,0,1,.06738-.01171.09281.09281,0,0,1,.07422.03613.12607.12607,0,0,1,.03125.084.13321.13321,0,0,1-.07617.11328.35417.35417,0,0,1-.18262.04493A1.02117,1.02117,0,0,1,37.4515,6.178a.36944.36944,0,0,1-.19434-.14453.62626.62626,0,0,1-.09375-.38379V4.02763h-.35058a.13708.13708,0,0,1-.09863-.03907.13439.13439,0,0,1,0-.1914.14125.14125,0,0,1,.09863-.03906h.35058V3.22587a.13985.13985,0,0,1,.041-.10352.1376.1376,0,0,1,.10254-.041.14025.14025,0,0,1,.14453.14453V3.7581H37.931a.12514.12514,0,0,1,.09375.04394.13495.13495,0,0,1,.041.0957.12436.12436,0,0,1-.03809.09375.13934.13934,0,0,1-.09668.03614Z"/><path class="cls-1" d="M39.9183,3.72978a.12423.12423,0,0,1,.07715.11523.14943.14943,0,0,1-.03907.10742.11975.11975,0,0,1-.09082.041A.37343.37343,0,0,1,39.77181,3.97.39042.39042,0,0,0,39.64,3.9456a.57217.57217,0,0,0-.35254.13671,1.07046,1.07046,0,0,0-.28809.35254.93913.93913,0,0,0-.11328.4375V6.0579a.14018.14018,0,0,1-.14355.14356.13982.13982,0,0,1-.10352-.041.1376.1376,0,0,1-.041-.10254V3.90751a.14025.14025,0,0,1,.14453-.14453.13762.13762,0,0,1,.10254.041.13984.13984,0,0,1,.041.10352v.42188a1.10662,1.10662,0,0,1,.334-.45313.83109.83109,0,0,1,.52539-.18457A.38128.38128,0,0,1,39.9183,3.72978Z"/><path class="cls-1" d="M42.4847,3.79228a.14585.14585,0,0,1,.041.10546V6.0579a.13757.13757,0,0,1-.041.10254.14359.14359,0,0,1-.24707-.10254V5.73564a.99879.99879,0,0,1-.36035.36523.96984.96984,0,0,1-.52344.14844,1.03055,1.03055,0,0,1-.57812-.168,1.15646,1.15646,0,0,1-.40332-.46,1.45233,1.45233,0,0,1-.14649-.65821,1.41368,1.41368,0,0,1,.14942-.65527,1.135,1.135,0,0,1,.40527-.45312,1.07374,1.07374,0,0,1,1.09668-.02442.9181.9181,0,0,1,.36035.36524V3.89774a.14927.14927,0,0,1,.04-.10546.14617.14617,0,0,1,.207,0Zm-.65332,2.05664a.89524.89524,0,0,0,.3125-.36524,1.17333,1.17333,0,0,0,.11231-.52051,1.14036,1.14036,0,0,0-.11231-.50878.89929.89929,0,0,0-.3125-.36231.83477.83477,0,0,0-.89746-.00195.87659.87659,0,0,0-.31152.35742,1.1466,1.1466,0,0,0-.11328.51562,1.20009,1.20009,0,0,0,.11035.52051.88185.88185,0,0,0,.30957.36524.8041.8041,0,0,0,.4541.13183A.79415.79415,0,0,0,41.83138,5.84892Z"/><path class="cls-1" d="M43.10091,5.70731a.10505.10505,0,0,1,.0625-.0957.10383.10383,0,0,1,.07715-.0293.15026.15026,0,0,1,.10547.04786.898.898,0,0,0,.75391.375.72919.72919,0,0,0,.40039-.1084.351.351,0,0,0,.1709-.31446.33354.33354,0,0,0-.15821-.30175,1.54345,1.54345,0,0,0-.44238-.17285,1.86983,1.86983,0,0,1-.624-.26172.54361.54361,0,0,1-.22559-.47266.60027.60027,0,0,1,.11035-.35352.73477.73477,0,0,1,.30078-.24218,1.02173,1.02173,0,0,1,.42872-.08594,1.17125,1.17125,0,0,1,.416.0791.88006.88006,0,0,1,.35742.25195.11587.11587,0,0,1,.043.09571.13031.13031,0,0,1-.04785.10058.12826.12826,0,0,1-.08691.0293.11714.11714,0,0,1-.08594-.03906.76712.76712,0,0,0-.27344-.19629.86292.86292,0,0,0-.34082-.06738.69041.69041,0,0,0-.38672.10546.35354.35354,0,0,0-.16113.31739.34414.34414,0,0,0,.17578.292,1.80155,1.80155,0,0,0,.48731.18262,2.26194,2.26194,0,0,1,.4121.13965.68182.68182,0,0,1,.26661.21582.60177.60177,0,0,1,.10351.36914.58592.58592,0,0,1-.25.49707,1.01045,1.01045,0,0,1-.61914.18457A1.1245,1.1245,0,0,1,43.14,5.81278.20736.20736,0,0,1,43.10091,5.70731Z"/><path class="cls-1" d="M45.51595,3.33817a.162.162,0,0,1-.05371-.13183V3.15849a.16027.16027,0,0,1,.05567-.13184.23145.23145,0,0,1,.15136-.0459c.12793,0,.19141.05957.19141.17774v.04785a.16939.16939,0,0,1-.0498.13183.20927.20927,0,0,1-.14649.0459A.2146.2146,0,0,1,45.51595,3.33817Zm.252,2.82227a.14139.14139,0,0,1-.10352.041.13981.13981,0,0,1-.10351-.041.13757.13757,0,0,1-.041-.10254v-2.208a.14028.14028,0,0,1,.14453-.14453.14135.14135,0,0,1,.10352.041.143.143,0,0,1,.04.10351v2.208A.14068.14068,0,0,1,45.76791,6.16044Z"/><path class="cls-1" d="M15.24447,9.75614a1.12213,1.12213,0,0,1,.2041.70313v1.3584a.14016.14016,0,0,1-.14355.14355.13981.13981,0,0,1-.10352-.041.13762.13762,0,0,1-.041-.10254V10.47392a.83189.83189,0,0,0-.1504-.51661.55135.55135,0,0,0-.46875-.19921.81424.81424,0,0,0-.67187.35742.63764.63764,0,0,0-.11035.3584v1.34375a.13759.13759,0,0,1-.041.10254.14991.14991,0,0,1-.206,0,.13759.13759,0,0,1-.041-.10254v-1.3584a.83337.83337,0,0,0-.14355-.50684.52782.52782,0,0,0-.45117-.19433.76484.76484,0,0,0-.37207.0957.80643.80643,0,0,0-.28321.25684.6125.6125,0,0,0-.1084.34863v1.3584a.14016.14016,0,0,1-.14355.14355.13984.13984,0,0,1-.10352-.041.13762.13762,0,0,1-.041-.10254V9.66728a.14026.14026,0,0,1,.14453-.14454.13762.13762,0,0,1,.10254.041.13981.13981,0,0,1,.041.10352V9.9456a1.04461,1.04461,0,0,1,.35059-.32618.903.903,0,0,1,.46582-.12988.84045.84045,0,0,1,.47949.13477.729.729,0,0,1,.28809.39355.88481.88481,0,0,1,.37012-.37012,1.05641,1.05641,0,0,1,.542-.1582A.74889.74889,0,0,1,15.24447,9.75614Z"/><path class="cls-1" d="M18.23275,10.69169a.13942.13942,0,0,1-.10059.041H16.31771a1.09631,1.09631,0,0,0,.11817.51562.8852.8852,0,0,0,.33593.36035.9782.9782,0,0,0,.51563.13184.88213.88213,0,0,0,.41308-.09571.86267.86267,0,0,0,.293-.24511.16353.16353,0,0,1,.10059-.043.13234.13234,0,0,1,.125.125.14511.14511,0,0,1-.04785.10058,1.20959,1.20959,0,0,1-.38672.30762,1.07031,1.07031,0,0,1-.49219.11914,1.31413,1.31413,0,0,1-.65234-.1582,1.1232,1.1232,0,0,1-.44239-.44336,1.342,1.342,0,0,1-.1582-.66016,1.4508,1.4508,0,0,1,.15625-.68945,1.12742,1.12742,0,0,1,.415-.45117,1.05553,1.05553,0,0,1,.55176-.15527,1.1373,1.1373,0,0,1,.54.13378,1.07233,1.07233,0,0,1,.41113.39356,1.19589,1.19589,0,0,1,.16309.61426A.12915.12915,0,0,1,18.23275,10.69169Zm-1.58594-.77051a.89206.89206,0,0,0-.30468.55274h1.63671v-.03907a.76561.76561,0,0,0-.14453-.377.77556.77556,0,0,0-.2998-.24414.86187.86187,0,0,0-.37207-.084A.80276.80276,0,0,0,16.64681,9.92118Z"/><path class="cls-1" d="M19.14681,11.92021a.1398.1398,0,0,1-.10351.041.14018.14018,0,0,1-.14356-.14355V8.553a.13909.13909,0,0,1,.041-.10254.13761.13761,0,0,1,.10254-.041.14024.14024,0,0,1,.14453.14356v3.26465A.13759.13759,0,0,1,19.14681,11.92021Z"/><path class="cls-1" d="M22.07064,9.552a.14588.14588,0,0,1,.041.10547v2.16016a.13759.13759,0,0,1-.041.10254.14359.14359,0,0,1-.24707-.10254V11.4954a.999.999,0,0,1-.36035.36524.96994.96994,0,0,1-.52344.14843,1.03044,1.03044,0,0,1-.57812-.168,1.15625,1.15625,0,0,1-.40332-.46,1.45228,1.45228,0,0,1-.14649-.6582,1.41365,1.41365,0,0,1,.14942-.65527,1.13512,1.13512,0,0,1,.40527-.45313,1.07377,1.07377,0,0,1,1.09668-.02441.91808.91808,0,0,1,.36035.36523V9.65751a.14925.14925,0,0,1,.04-.10547.14617.14617,0,0,1,.207,0Zm-.65332,2.05664a.89535.89535,0,0,0,.3125-.36523,1.17339,1.17339,0,0,0,.11231-.52051,1.14037,1.14037,0,0,0-.11231-.50879.8994.8994,0,0,0-.3125-.3623.8348.8348,0,0,0-.89746-.002.87666.87666,0,0,0-.31152.35742,1.14661,1.14661,0,0,0-.11328.51563,1.2,1.2,0,0,0,.11035.52051.88181.88181,0,0,0,.30957.36523.80411.80411,0,0,0,.4541.13184A.79418.79418,0,0,0,21.41732,11.60868Z"/><path class="cls-1" d="M23.141,11.92021a.1398.1398,0,0,1-.10351.041.14018.14018,0,0,1-.14356-.14355V8.553a.13913.13913,0,0,1,.041-.10254.13761.13761,0,0,1,.10254-.041A.14024.14024,0,0,1,23.182,8.553v3.26465A.13759.13759,0,0,1,23.141,11.92021Z"/><path class="cls-1" d="M25.88216,9.56376a.14292.14292,0,0,1,.04.10352v1.35351a.95308.95308,0,0,1-.26367.72266,1.01271,1.01271,0,0,1-.72949.252.99868.99868,0,0,1-.72266-.252.95962.95962,0,0,1-.26172-.72266V9.66728a.14028.14028,0,0,1,.14454-.14454.13762.13762,0,0,1,.10254.041.13981.13981,0,0,1,.041.10352v1.35351a.63264.63264,0,0,0,.69629.70508.7143.7143,0,0,0,.52051-.17969.70121.70121,0,0,0,.18457-.52539V9.66728a.14026.14026,0,0,1,.14453-.14454A.14136.14136,0,0,1,25.88216,9.56376Z"/><path class="cls-1" d="M26.66146,9.09794a.162.162,0,0,1-.05371-.13184V8.91825a.16029.16029,0,0,1,.05566-.13183.23143.23143,0,0,1,.15137-.0459c.12793,0,.19141.05957.19141.17773V8.9661a.16938.16938,0,0,1-.04981.13184.20925.20925,0,0,1-.14648.0459A.2146.2146,0,0,1,26.66146,9.09794Zm.25195,2.82227a.14136.14136,0,0,1-.10351.041.13984.13984,0,0,1-.10352-.041.13762.13762,0,0,1-.041-.10254v-2.208a.14025.14025,0,0,1,.14453-.14453.14136.14136,0,0,1,.10351.041.143.143,0,0,1,.04.10352v2.208A.14065.14065,0,0,1,26.91341,11.92021Z"/><path class="cls-1" d="M30.49447,9.50126A.92308.92308,0,0,1,30.806,9.638a.2404.2404,0,0,1,.11817.1875.14782.14782,0,0,1-.03614.0957.11135.11135,0,0,1-.08886.044.14824.14824,0,0,1-.0791-.01953.40719.40719,0,0,1-.07032-.05762.47105.47105,0,0,0-.11914-.0918.87054.87054,0,0,0-.19043-.05469,1.36938,1.36938,0,0,0-.252-.02148.90886.90886,0,0,0-.48242.13379.95618.95618,0,0,0-.34278.36523,1.05261,1.05261,0,0,0-.125.50879,1.10312,1.10312,0,0,0,.12012.51856.89956.89956,0,0,0,.82031.49414,1.09573,1.09573,0,0,0,.27637-.02832,1.06206,1.06206,0,0,0,.2041-.082.99319.99319,0,0,0,.11524-.08594.46622.46622,0,0,1,.06738-.05078.12457.12457,0,0,1,.0625-.0166.117.117,0,0,1,.09082.03613.12956.12956,0,0,1,.0332.09375.25066.25066,0,0,1-.11425.1748,1.01106,1.01106,0,0,1-.31739.16114,1.43186,1.43186,0,0,1-.44629.0664,1.18228,1.18228,0,0,1-.624-.165,1.12766,1.12766,0,0,1-.4248-.459,1.41063,1.41063,0,0,1-.15137-.65723,1.358,1.358,0,0,1,.15332-.64062,1.18226,1.18226,0,0,1,1.07129-.63574A1.68969,1.68969,0,0,1,30.49447,9.50126Z"/><path class="cls-1" d="M33.57552,9.552a.14588.14588,0,0,1,.041.10547v2.16016a.13759.13759,0,0,1-.041.10254.14359.14359,0,0,1-.24707-.10254V11.4954a.99889.99889,0,0,1-.36035.36524.96991.96991,0,0,1-.52344.14843,1.03047,1.03047,0,0,1-.57812-.168,1.15633,1.15633,0,0,1-.40332-.46,1.45228,1.45228,0,0,1-.14648-.6582,1.41365,1.41365,0,0,1,.14941-.65527,1.13512,1.13512,0,0,1,.40527-.45313,1.07377,1.07377,0,0,1,1.09668-.02441.918.918,0,0,1,.36035.36523V9.65751a.14929.14929,0,0,1,.04-.10547.14617.14617,0,0,1,.207,0Zm-.65332,2.05664a.89528.89528,0,0,0,.3125-.36523,1.17339,1.17339,0,0,0,.11231-.52051,1.14037,1.14037,0,0,0-.11231-.50879.89933.89933,0,0,0-.3125-.3623.8348.8348,0,0,0-.89746-.002.87666.87666,0,0,0-.31152.35742,1.14661,1.14661,0,0,0-.11328.51563,1.20016,1.20016,0,0,0,.11035.52051.88188.88188,0,0,0,.30957.36523.80411.80411,0,0,0,.4541.13184A.79415.79415,0,0,0,32.9222,11.60868Z"/><path class="cls-1" d="M36.11263,9.65067a1.10807,1.10807,0,0,1,.40528.44629,1.48481,1.48481,0,0,1,0,1.28614,1.13828,1.13828,0,0,1-.40332.44921,1.04913,1.04913,0,0,1-.57325.16309,1.01252,1.01252,0,0,1-.51171-.13281,1.03164,1.03164,0,0,1-.37207-.35254v1.26758a.13868.13868,0,0,1-.14356.14355.14292.14292,0,0,1-.10351-.04.14133.14133,0,0,1-.041-.10351V9.64774a.14747.14747,0,0,1,.041-.10546.13423.13423,0,0,1,.10351-.043.13216.13216,0,0,1,.10254.043.14751.14751,0,0,1,.041.10546v.32618a.88737.88737,0,0,1,.36035-.3545,1.04828,1.04828,0,0,1,.51855-.12988A1.07049,1.07049,0,0,1,36.11263,9.65067Zm-.15136,1.94825a.86892.86892,0,0,0,.31152-.35254,1.12316,1.12316,0,0,0,.11328-.50879,1.1,1.1,0,0,0-.11328-.502.87605.87605,0,0,0-.31152-.35059.82512.82512,0,0,0-.44922-.12695.85071.85071,0,0,0-.45606.125.83478.83478,0,0,0-.31152.34765,1.12361,1.12361,0,0,0-.11035.50684,1.13494,1.13494,0,0,0,.11035.50879.84823.84823,0,0,0,.31152.35254.83531.83531,0,0,0,.45606.127A.817.817,0,0,0,35.96127,11.59892Z"/><path class="cls-1" d="M37.73959,9.78739v1.60742a.34153.34153,0,0,0,.06738.24708.2396.2396,0,0,0,.17676.06542.25.25,0,0,0,.07226-.01269.28477.28477,0,0,1,.06739-.01172.09282.09282,0,0,1,.07421.03613.12609.12609,0,0,1,.03125.084.13321.13321,0,0,1-.07617.11328.35423.35423,0,0,1-.18261.04492,1.02053,1.02053,0,0,1-.23047-.02344.36935.36935,0,0,1-.19434-.14453.62626.62626,0,0,1-.09375-.38379V9.78739h-.35059a.1371.1371,0,0,1-.09863-.03906.1344.1344,0,0,1,0-.19141.14129.14129,0,0,1,.09863-.03906h.35059V8.98564a.13978.13978,0,0,1,.041-.10352.13759.13759,0,0,1,.10254-.041.14028.14028,0,0,1,.14453.14454v.53222h.47949a.12515.12515,0,0,1,.09375.04395.135.135,0,0,1,.041.0957.12436.12436,0,0,1-.03808.09375.13936.13936,0,0,1-.09668.03613Z"/><path class="cls-1" d="M38.8724,9.09794a.162.162,0,0,1-.05371-.13184V8.91825a.16026.16026,0,0,1,.05566-.13183.23143.23143,0,0,1,.15137-.0459c.12793,0,.19141.05957.19141.17773V8.9661a.16941.16941,0,0,1-.04981.13184.20926.20926,0,0,1-.14648.0459A.21458.21458,0,0,1,38.8724,9.09794Zm.252,2.82227a.14136.14136,0,0,1-.10351.041.13981.13981,0,0,1-.10352-.041.13762.13762,0,0,1-.041-.10254v-2.208a.14025.14025,0,0,1,.14453-.14453.14136.14136,0,0,1,.10351.041.143.143,0,0,1,.04.10352v2.208A.14065.14065,0,0,1,39.12435,11.92021Z"/><path class="cls-1" d="M42.02084,11.38505a1.169,1.169,0,0,1-.43653.459,1.20019,1.20019,0,0,1-1.67578-.459,1.42609,1.42609,0,0,1,0-1.30566,1.19441,1.19441,0,0,1,.4375-.46,1.22513,1.22513,0,0,1,1.23828,0,1.18485,1.18485,0,0,1,.43653.46,1.42609,1.42609,0,0,1,0,1.30566Zm-.25-1.1709a.90389.90389,0,0,0-.333-.3623A.88233.88233,0,0,0,40.96517,9.72a.87082.87082,0,0,0-.4707.13184.94192.94192,0,0,0-.334.3623,1.152,1.152,0,0,0,0,1.03223.94192.94192,0,0,0,.334.3623.87082.87082,0,0,0,.4707.13184.894.894,0,0,0,.80567-.48926,1.17944,1.17944,0,0,0,0-1.03711Z"/><path class="cls-1" d="M44.58236,9.7122a1.08537,1.08537,0,0,1,.209.69433v1.41114a.133.133,0,0,1-.04394.10254.14214.14214,0,0,1-.24414-.10254V10.42021a.788.788,0,0,0-.15625-.50586A.581.581,0,0,0,43.86459,9.72a.85908.85908,0,0,0-.69141.35254.59114.59114,0,0,0-.11523.34766v1.39746a.14018.14018,0,0,1-.14356.14355.1398.1398,0,0,1-.10351-.041.13759.13759,0,0,1-.041-.10254V9.66728a.14028.14028,0,0,1,.14453-.14454.13761.13761,0,0,1,.10254.041.13982.13982,0,0,1,.041.10352V9.931A1.02112,1.02112,0,0,1,43.43,9.58817a.99447.99447,0,0,1,.49707-.13671A.7896.7896,0,0,1,44.58236,9.7122Z"/><path class="cls-1" d="M45.84506,12.21806a.70755.70755,0,0,1-.17579.22558.32128.32128,0,0,1-.206.08887.14533.14533,0,0,1-.08887-.02637.09077.09077,0,0,1-.03613-.0791.07985.07985,0,0,1,.02441-.06738.2123.2123,0,0,1,.07422-.0332.34235.34235,0,0,0,.07422-.0293.23834.23834,0,0,0,.10352-.09766.2955.2955,0,0,0,.03515-.1416.126.126,0,0,0-.02832-.08691.09644.09644,0,0,0-.07715-.03321.194.194,0,0,0-.1289.043.14368.14368,0,0,1-.05762-.11523.18617.18617,0,0,1,.08594-.15137.30723.30723,0,0,1,.1875-.06445.27669.27669,0,0,1,.2041.0791.29616.29616,0,0,1,.0791.21875A.5987.5987,0,0,1,45.84506,12.21806Z"/><path class="cls-1" d="M13.92025,14.21024a.13985.13985,0,0,1,.041.10352v3.26367a.14642.14642,0,0,1-.24805.10352.143.143,0,0,1-.04-.10352v-.33594a1.03206,1.03206,0,0,1-.3584.375.94466.94466,0,0,1-.52539.15332,1.03543,1.03543,0,0,1-.57324-.166,1.14933,1.14933,0,0,1-.40527-.458,1.51154,1.51154,0,0,1,0-1.31055,1.1493,1.1493,0,0,1,.40527-.458,1.02639,1.02639,0,0,1,.56836-.166,1.00777,1.00777,0,0,1,.52344.1416.97582.97582,0,0,1,.36523.36719V14.31376a.143.143,0,0,1,.04-.10352.15386.15386,0,0,1,.207,0Zm-.65332,3.16114a.88053.88053,0,0,0,.3125-.36231,1.17933,1.17933,0,0,0,.11231-.52051,1.14958,1.14958,0,0,0-.11231-.51367.89305.89305,0,0,0-.3125-.3623.82447.82447,0,0,0-.89746,0,.8909.8909,0,0,0-.31152.3623,1.23,1.23,0,0,0,0,1.03125.89086.89086,0,0,0,.31152.36231.78842.78842,0,0,0,.44922.13281A.80811.80811,0,0,0,13.26693,17.37138Z"/><path class="cls-1" d="M16.8099,15.31181a.14914.14914,0,0,1,.041.10547v2.16015a.14642.14642,0,0,1-.248.10352.143.143,0,0,1-.04-.10352v-.32129a1.01388,1.01388,0,0,1-.36035.36524.97841.97841,0,0,1-.52344.14843,1.03055,1.03055,0,0,1-.57813-.168,1.15943,1.15943,0,0,1-.40332-.46094,1.44825,1.44825,0,0,1-.14648-.65723,1.41083,1.41083,0,0,1,.14941-.65527,1.138,1.138,0,0,1,.40528-.4541,1.0706,1.0706,0,0,1,1.09668-.02344.9159.9159,0,0,1,.36035.36426v-.29785a.15261.15261,0,0,1,.04-.10547.14617.14617,0,0,1,.207,0Zm-.65332,2.05664a.89256.89256,0,0,0,.3125-.36426,1.17946,1.17946,0,0,0,.1123-.52051,1.14053,1.14053,0,0,0-.1123-.50879.89313.89313,0,0,0-.3125-.3623.78745.78745,0,0,0-.44824-.13281.8089.8089,0,0,0-.44922.12988.88937.88937,0,0,0-.31153.35742,1.15093,1.15093,0,0,0-.11328.5166,1.20629,1.20629,0,0,0,.11035.52051.879.879,0,0,0,.30958.36426.79735.79735,0,0,0,.4541.13281A.78752.78752,0,0,0,16.15658,17.36845Z"/><path class="cls-1" d="M19.41634,15.47294a1.08243,1.08243,0,0,1,.209.69336v1.41113a.13507.13507,0,0,1-.044.10352.14746.14746,0,0,1-.2041,0,.143.143,0,0,1-.04-.10352V16.181a.789.789,0,0,0-.15625-.50684.58394.58394,0,0,0-.48242-.19433.86363.86363,0,0,0-.69141.35351.58682.58682,0,0,0-.11523.34766v1.39648a.13981.13981,0,0,1-.041.10352.13758.13758,0,0,1-.10253.041.14026.14026,0,0,1-.14454-.14453V15.427a.13762.13762,0,0,1,.041-.10254.13981.13981,0,0,1,.10352-.041.14018.14018,0,0,1,.14355.14355v.26465a1.03187,1.03187,0,0,1,.37207-.34375,1.00455,1.00455,0,0,1,.49707-.13672A.78722.78722,0,0,1,19.41634,15.47294Z"/><path class="cls-1" d="M23.432,15.41044a1.11435,1.11435,0,0,1,.40527.44629,1.4847,1.4847,0,0,1,0,1.28613,1.1317,1.1317,0,0,1-.40332.44922,1.04909,1.04909,0,0,1-.57324.16309,1.02177,1.02177,0,0,1-.51172-.13184,1.03993,1.03993,0,0,1-.37207-.35254v1.2666a.13983.13983,0,0,1-.041.10352.13762.13762,0,0,1-.10254.041.14025.14025,0,0,1-.14453-.14453v-3.1289a.14984.14984,0,0,1,.041-.10645.1377.1377,0,0,1,.10352-.043.13558.13558,0,0,1,.10254.043.14984.14984,0,0,1,.041.10645v.32617a.89579.89579,0,0,1,.36035-.35547,1.05871,1.05871,0,0,1,.51856-.12988A1.07049,1.07049,0,0,1,23.432,15.41044Zm-.15137,1.94922a.87175.87175,0,0,0,.31153-.35352,1.12033,1.12033,0,0,0,.11328-.50879,1.09307,1.09307,0,0,0-.11328-.501.86965.86965,0,0,0-.31153-.35059.81694.81694,0,0,0-.44922-.12695.85.85,0,0,0-.456.124.83757.83757,0,0,0-.31152.34863,1.11652,1.11652,0,0,0-.11036.50586,1.132,1.132,0,0,0,.11036.50879.85094.85094,0,0,0,.31152.35352.83525.83525,0,0,0,.456.12695A.81694.81694,0,0,0,23.2806,17.35966Z"/><path class="cls-1" d="M26.60775,16.45243a.13847.13847,0,0,1-.10059.04H24.69271a1.1031,1.1031,0,0,0,.11817.5166.88263.88263,0,0,0,.33593.35938.96971.96971,0,0,0,.51563.13281.871.871,0,0,0,.41308-.09668.86039.86039,0,0,0,.293-.24414.15982.15982,0,0,1,.10059-.044.11925.11925,0,0,1,.08594.03907.11715.11715,0,0,1,.03906.08593.14337.14337,0,0,1-.04785.10059,1.20959,1.20959,0,0,1-.38672.30762,1.05921,1.05921,0,0,1-.49219.12011,1.31413,1.31413,0,0,1-.65234-.1582,1.12563,1.12563,0,0,1-.44239-.44433,1.33936,1.33936,0,0,1-.1582-.66016,1.4468,1.4468,0,0,1,.15625-.68848,1.11488,1.11488,0,0,1,.415-.45117,1.04769,1.04769,0,0,1,.55176-.15625,1.12683,1.12683,0,0,1,.54.13477,1.07223,1.07223,0,0,1,.41113.39355,1.19326,1.19326,0,0,1,.16309.61426A.13063.13063,0,0,1,26.60775,16.45243Zm-1.58594-.77051a.88957.88957,0,0,0-.30468.55176h1.63671V16.1956a.762.762,0,0,0-.14453-.377.778.778,0,0,0-.2998-.24511.87609.87609,0,0,0-.37207-.084A.8039.8039,0,0,0,25.02181,15.68192Z"/><path class="cls-1" d="M28.56674,15.24931a.12518.12518,0,0,1,.07714.11523.1535.1535,0,0,1-.03906.1084.11979.11979,0,0,1-.09082.041.34792.34792,0,0,1-.09375-.02442.41351.41351,0,0,0-.13184-.02344.56648.56648,0,0,0-.35253.13672,1.06056,1.06056,0,0,0-.28809.35254.93524.93524,0,0,0-.11328.43653v1.18554a.13981.13981,0,0,1-.041.10352.13758.13758,0,0,1-.10254.041.14026.14026,0,0,1-.14453-.14453V15.427a.13759.13759,0,0,1,.041-.10254.1398.1398,0,0,1,.10351-.041.14018.14018,0,0,1,.14356.14355v.42285a1.10349,1.10349,0,0,1,.334-.4541.83113.83113,0,0,1,.52539-.18457A.38132.38132,0,0,1,28.56674,15.24931Z"/><path class="cls-1" d="M30.85677,15.52079a1.1049,1.1049,0,0,1,.21094.69824v1.3584a.143.143,0,0,1-.04.10352.14361.14361,0,0,1-.24707-.10352V16.219a.80507.80507,0,0,0-.14941-.50586.54705.54705,0,0,0-.46582-.19433.79309.79309,0,0,0-.38086.0957.814.814,0,0,0-.291.25684.6043.6043,0,0,0-.11035.34765v1.3584a.13984.13984,0,0,1-.041.10352.13762.13762,0,0,1-.10254.041.14025.14025,0,0,1-.14453-.14453V14.31376a.13871.13871,0,0,1,.14453-.14355.13687.13687,0,0,1,.10254.04.13984.13984,0,0,1,.041.10352V15.72a1.00982,1.00982,0,0,1,.36035-.33789.938.938,0,0,1,.47071-.13281A.76473.76473,0,0,1,30.85677,15.52079Z"/><path class="cls-1" d="M33.91634,15.31181a.1491.1491,0,0,1,.041.10547v2.16015a.14642.14642,0,0,1-.248.10352.143.143,0,0,1-.04-.10352v-.32129a1.01372,1.01372,0,0,1-.36035.36524.97835.97835,0,0,1-.52343.14843,1.03055,1.03055,0,0,1-.57813-.168,1.15935,1.15935,0,0,1-.40332-.46094,1.44812,1.44812,0,0,1-.14648-.65723,1.41083,1.41083,0,0,1,.14941-.65527,1.13787,1.13787,0,0,1,.40527-.4541,1.0706,1.0706,0,0,1,1.09668-.02344.91577.91577,0,0,1,.36035.36426v-.29785a.15265.15265,0,0,1,.04-.10547.14617.14617,0,0,1,.207,0ZM33.263,17.36845a.89241.89241,0,0,0,.3125-.36426,1.17933,1.17933,0,0,0,.11231-.52051,1.1404,1.1404,0,0,0-.11231-.50879.893.893,0,0,0-.3125-.3623.78743.78743,0,0,0-.44824-.13281.809.809,0,0,0-.44922.12988.88934.88934,0,0,0-.31152.35742,1.1508,1.1508,0,0,0-.11328.5166,1.20629,1.20629,0,0,0,.11035.52051.879.879,0,0,0,.30957.36426.79737.79737,0,0,0,.4541.13281A.7875.7875,0,0,0,33.263,17.36845Z"/><path class="cls-1" d="M35.19076,15.54716v1.6084a.34312.34312,0,0,0,.06738.24707.243.243,0,0,0,.17676.06445.28172.28172,0,0,0,.07226-.01172.28477.28477,0,0,1,.06739-.01172.09283.09283,0,0,1,.07422.03614.12428.12428,0,0,1,.03125.084.13184.13184,0,0,1-.07618.1123.35445.35445,0,0,1-.18261.0459.96471.96471,0,0,1-.23047-.02441.36194.36194,0,0,1-.19434-.14356.62621.62621,0,0,1-.09375-.38378V15.54716h-.35058a.14042.14042,0,0,1-.09864-.03809.12473.12473,0,0,1-.04-.0957.12684.12684,0,0,1,.04-.09668.14042.14042,0,0,1,.09864-.03809h.35058v-.5332a.13912.13912,0,0,1,.041-.10254.1376.1376,0,0,1,.10254-.041.14022.14022,0,0,1,.14453.14355v.5332h.47949a.12754.12754,0,0,1,.09375.043.13669.13669,0,0,1,.041.09571.12146.12146,0,0,1-.03809.09375.13508.13508,0,0,1-.09668.03613Z"/><path class="cls-1" d="M36.32357,14.85868a.162.162,0,0,1-.05371-.13183V14.679a.16358.16358,0,0,1,.05566-.13281.23125.23125,0,0,1,.15137-.04492c.12793,0,.19141.05859.19141.17773v.04786a.16937.16937,0,0,1-.04981.13183.214.214,0,0,1-.14648.0459A.21948.21948,0,0,1,36.32357,14.85868Zm.252,2.82227a.14136.14136,0,0,1-.10351.041.14025.14025,0,0,1-.14453-.14453v-2.208a.14022.14022,0,0,1,.14453-.14355.13868.13868,0,0,1,.14355.14355v2.208A.143.143,0,0,1,36.57552,17.681Z"/><path class="cls-1" d="M39.35189,17.57743a.12809.12809,0,0,1-.0498.10352.15593.15593,0,0,1-.09375.041.13037.13037,0,0,1-.10547-.05273l-1.06153-1.123-.35937.30664v.72461a.14026.14026,0,0,1-.14453.14453.1376.1376,0,0,1-.10254-.041.13985.13985,0,0,1-.041-.10352V14.31376a.13985.13985,0,0,1,.041-.10352.13685.13685,0,0,1,.10254-.04.13872.13872,0,0,1,.14453.14355v2.18848l1.38672-1.19532a.1351.1351,0,0,1,.10058-.04785.13311.13311,0,0,1,.09668.0459.14317.14317,0,0,1,.043.09863.15657.15657,0,0,1-.05273.11036l-.98926.83984,1.042,1.11328A.16357.16357,0,0,1,39.35189,17.57743Z"/><path class="cls-1" d="M42.00912,15.31181a.14914.14914,0,0,1,.041.10547v2.16015a.14642.14642,0,0,1-.248.10352.143.143,0,0,1-.04-.10352v-.32129a1.01388,1.01388,0,0,1-.36035.36524.97841.97841,0,0,1-.52344.14843,1.03055,1.03055,0,0,1-.57813-.168,1.15943,1.15943,0,0,1-.40332-.46094,1.44825,1.44825,0,0,1-.14648-.65723,1.41083,1.41083,0,0,1,.14941-.65527,1.138,1.138,0,0,1,.40528-.4541,1.0706,1.0706,0,0,1,1.09668-.02344.9159.9159,0,0,1,.36035.36426v-.29785a.15261.15261,0,0,1,.04-.10547.14617.14617,0,0,1,.207,0Zm-.65332,2.05664a.89256.89256,0,0,0,.3125-.36426,1.17946,1.17946,0,0,0,.1123-.52051,1.14053,1.14053,0,0,0-.1123-.50879.89313.89313,0,0,0-.3125-.3623.78745.78745,0,0,0-.44824-.13281.8089.8089,0,0,0-.44922.12988.88929.88929,0,0,0-.31153.35742,1.15093,1.15093,0,0,0-.11328.5166,1.20629,1.20629,0,0,0,.11035.52051.879.879,0,0,0,.30957.36426.79741.79741,0,0,0,.45411.13281A.78752.78752,0,0,0,41.3558,17.36845Z"/><path class="cls-1" d="M44.61556,15.47294a1.08243,1.08243,0,0,1,.209.69336v1.41113a.13507.13507,0,0,1-.044.10352.14746.14746,0,0,1-.2041,0,.143.143,0,0,1-.04-.10352V16.181a.789.789,0,0,0-.15625-.50684.58394.58394,0,0,0-.48242-.19433.86363.86363,0,0,0-.69141.35351.58682.58682,0,0,0-.11523.34766v1.39648a.13981.13981,0,0,1-.041.10352.13758.13758,0,0,1-.10254.041.14026.14026,0,0,1-.14453-.14453V15.427a.13762.13762,0,0,1,.041-.10254.1398.1398,0,0,1,.10351-.041.14018.14018,0,0,1,.14356.14355v.26465a1.03187,1.03187,0,0,1,.37207-.34375,1.00455,1.00455,0,0,1,.49707-.13672A.78724.78724,0,0,1,44.61556,15.47294Z"/><path class="cls-1" d="M13.81185,23.3372a.12806.12806,0,0,1-.0498.10351.15589.15589,0,0,1-.09375.041.13039.13039,0,0,1-.10547-.05274l-1.06152-1.123-.35938.30664v.72461a.14028.14028,0,0,1-.14453.14453.13757.13757,0,0,1-.10254-.041.13981.13981,0,0,1-.041-.10351V20.07353a.13982.13982,0,0,1,.041-.10352.13686.13686,0,0,1,.10254-.04.13874.13874,0,0,1,.14453.14356V22.262l1.38672-1.19531a.13511.13511,0,0,1,.10059-.04785.13307.13307,0,0,1,.09667.0459.1431.1431,0,0,1,.043.09863.15651.15651,0,0,1-.05273.11035l-.98926.83984,1.042,1.11329A.16353.16353,0,0,1,13.81185,23.3372Z"/><path class="cls-1" d="M16.46908,21.07157a.14917.14917,0,0,1,.041.10547V23.3372a.14641.14641,0,0,1-.248.10351.14292.14292,0,0,1-.04-.10351v-.32129a1.01394,1.01394,0,0,1-.36035.36523.97833.97833,0,0,1-.52344.14844,1.03048,1.03048,0,0,1-.57813-.168,1.15929,1.15929,0,0,1-.40332-.46094,1.44824,1.44824,0,0,1-.14648-.65722,1.41084,1.41084,0,0,1,.14941-.65528,1.13809,1.13809,0,0,1,.40528-.4541,1.07063,1.07063,0,0,1,1.09668-.02343.91588.91588,0,0,1,.36035.36425V21.177a.15264.15264,0,0,1,.04-.10547.14617.14617,0,0,1,.207,0Zm-.65332,2.05664a.89253.89253,0,0,0,.3125-.36425,1.17952,1.17952,0,0,0,.1123-.52051,1.1405,1.1405,0,0,0-.1123-.50879.89309.89309,0,0,0-.3125-.36231.78752.78752,0,0,0-.44824-.13281.809.809,0,0,0-.44922.12988.88946.88946,0,0,0-.31153.35743,1.1509,1.1509,0,0,0-.11328.5166,1.20636,1.20636,0,0,0,.11035.52051.879.879,0,0,0,.30957.36425.79734.79734,0,0,0,.45411.13282A.78746.78746,0,0,0,15.81576,23.12821Z"/><path class="cls-1" d="M17.74349,21.30692v1.6084a.34305.34305,0,0,0,.06739.24707.243.243,0,0,0,.17675.06446.28179.28179,0,0,0,.07227-.01172.28426.28426,0,0,1,.06738-.01172.09284.09284,0,0,1,.07422.03613.12428.12428,0,0,1,.03125.084.13186.13186,0,0,1-.07617.1123.35461.35461,0,0,1-.18262.0459.96428.96428,0,0,1-.23047-.02442.36184.36184,0,0,1-.19433-.14355.62626.62626,0,0,1-.09375-.38379v-1.623h-.35059a.14039.14039,0,0,1-.09863-.03808.12471.12471,0,0,1-.04-.0957.12678.12678,0,0,1,.04-.09668.14035.14035,0,0,1,.09863-.03809h.35059v-.5332a.13912.13912,0,0,1,.041-.10254.13759.13759,0,0,1,.10254-.041.14022.14022,0,0,1,.14453.14356v.5332h.4795a.12758.12758,0,0,1,.09375.043.13667.13667,0,0,1,.041.0957.12143.12143,0,0,1-.03809.09375.135.135,0,0,1-.09667.03613Z"/><path class="cls-1" d="M20.98568,21.07157a.14918.14918,0,0,1,.041.10547V23.3372a.14642.14642,0,0,1-.24805.10351.14292.14292,0,0,1-.04-.10351v-.32129a1.01394,1.01394,0,0,1-.36035.36523.97833.97833,0,0,1-.52344.14844,1.03042,1.03042,0,0,1-.57812-.168,1.15914,1.15914,0,0,1-.40332-.46094,1.44811,1.44811,0,0,1-.14649-.65722,1.41084,1.41084,0,0,1,.14942-.65528,1.138,1.138,0,0,1,.40527-.4541,1.07063,1.07063,0,0,1,1.09668-.02343.91588.91588,0,0,1,.36035.36425V21.177a.15264.15264,0,0,1,.04-.10547.14617.14617,0,0,1,.207,0Zm-.65332,2.05664a.89253.89253,0,0,0,.3125-.36425,1.17938,1.17938,0,0,0,.1123-.52051,1.14037,1.14037,0,0,0-.1123-.50879.89309.89309,0,0,0-.3125-.36231.78752.78752,0,0,0-.44824-.13281.809.809,0,0,0-.44922.12988.88936.88936,0,0,0-.31152.35743,1.15077,1.15077,0,0,0-.11329.5166,1.20621,1.20621,0,0,0,.11036.52051.87887.87887,0,0,0,.30957.36425.7973.7973,0,0,0,.4541.13282A.78746.78746,0,0,0,20.33236,23.12821Z"/><path class="cls-1" d="M25.07748,23.3372a.128.128,0,0,1-.04981.10351.15589.15589,0,0,1-.09375.041.13039.13039,0,0,1-.10547-.05274l-1.06152-1.123-.35937.30664v.72461a.14028.14028,0,0,1-.14454.14453.13755.13755,0,0,1-.10253-.041.13977.13977,0,0,1-.041-.10351V20.07353a.13978.13978,0,0,1,.041-.10352.13684.13684,0,0,1,.10253-.04.13874.13874,0,0,1,.14454.14356V22.262l1.38671-1.19531a.13511.13511,0,0,1,.10059-.04785.13309.13309,0,0,1,.09668.0459.14315.14315,0,0,1,.043.09863.15652.15652,0,0,1-.05274.11035l-.98925.83984,1.042,1.11329A.16353.16353,0,0,1,25.07748,23.3372Z"/><path class="cls-1" d="M27.57162,21.08427a.14063.14063,0,0,1,.04.10254v1.35351a.9516.9516,0,0,1-.26367.72266,1.01275,1.01275,0,0,1-.7295.252.99866.99866,0,0,1-.72265-.252.95809.95809,0,0,1-.26172-.72266V21.18681a.1376.1376,0,0,1,.041-.10254.13981.13981,0,0,1,.10352-.041.14018.14018,0,0,1,.14355.14356v1.35351a.63279.63279,0,0,0,.69629.70606.71844.71844,0,0,0,.52051-.17969.70356.70356,0,0,0,.18457-.52637V21.18681a.13757.13757,0,0,1,.041-.10254.13977.13977,0,0,1,.10351-.041A.14135.14135,0,0,1,27.57162,21.08427Z"/><path class="cls-1" d="M30.17709,21.23271a1.08248,1.08248,0,0,1,.209.69335V23.3372a.13506.13506,0,0,1-.04394.10351.14744.14744,0,0,1-.20411,0,.143.143,0,0,1-.04-.10351V21.94071a.789.789,0,0,0-.15625-.50683.58394.58394,0,0,0-.48243-.19434.86357.86357,0,0,0-.6914.35352.58678.58678,0,0,0-.11524.34765V23.3372a.1398.1398,0,0,1-.041.10351.13759.13759,0,0,1-.10254.041.14026.14026,0,0,1-.14453-.14453V21.18681a.1376.1376,0,0,1,.041-.10254.13981.13981,0,0,1,.10352-.041.14018.14018,0,0,1,.14355.14356v.26465a1.03187,1.03187,0,0,1,.37207-.34375,1.00455,1.00455,0,0,1,.49707-.13672A.78723.78723,0,0,1,30.17709,21.23271Z"/><path class="cls-1" d="M32.62045,21.02177a.90435.90435,0,0,1,.31152.13672.24032.24032,0,0,1,.11816.18652.15038.15038,0,0,1-.03613.09668.11326.11326,0,0,1-.08887.043.14829.14829,0,0,1-.0791-.01953.36611.36611,0,0,1-.07031-.05762.48869.48869,0,0,0-.11914-.09082.81474.81474,0,0,0-.19043-.05566,1.4586,1.4586,0,0,0-.252-.02149.901.901,0,0,0-.48243.13477.94932.94932,0,0,0-.34277.36523,1.05247,1.05247,0,0,0-.125.50879,1.10193,1.10193,0,0,0,.12012.51758.9067.9067,0,0,0,.334.3623.89755.89755,0,0,0,.48633.13282,1.04623,1.04623,0,0,0,.27637-.0293,1.05709,1.05709,0,0,0,.2041-.08106,1.03794,1.03794,0,0,0,.11523-.08691.39066.39066,0,0,1,.06739-.0498.11617.11617,0,0,1,.0625-.01758.12053.12053,0,0,1,.09082.03613.13273.13273,0,0,1,.0332.09375.24707.24707,0,0,1-.11426.1748,1.0109,1.0109,0,0,1-.31738.16114,1.40334,1.40334,0,0,1-.44629.06738,1.18285,1.18285,0,0,1-.624-.166,1.12514,1.12514,0,0,1-.42481-.458,1.41363,1.41363,0,0,1-.15137-.65723,1.36178,1.36178,0,0,1,.15333-.6416,1.18223,1.18223,0,0,1,1.07128-.63574A1.64421,1.64421,0,0,1,32.62045,21.02177Z"/><path class="cls-1" d="M33.5931,20.61845a.162.162,0,0,1-.05371-.13184v-.04785a.16357.16357,0,0,1,.05567-.13281.23115.23115,0,0,1,.15136-.04492c.12793,0,.19141.05859.19141.17773v.04785a.16939.16939,0,0,1-.04981.13184.214.214,0,0,1-.14648.0459A.21953.21953,0,0,1,33.5931,20.61845Zm.252,2.82226a.14135.14135,0,0,1-.10352.041.14026.14026,0,0,1-.14453-.14453v-2.208a.1402.1402,0,0,1,.14453-.14355.13865.13865,0,0,1,.14355.14355v2.208A.143.143,0,0,1,33.84506,23.44071Z"/><path class="cls-1" d="M37.87631,21.02665a.14225.14225,0,0,1,.04.10254v2.11719a1.31115,1.31115,0,0,1-.14843.64746.99042.99042,0,0,1-.41309.4082,1.25473,1.25473,0,0,1-.59473.13965,1.59692,1.59692,0,0,1-.377-.043,1.003,1.003,0,0,1-.29-.11523.17488.17488,0,0,1-.10156-.13965.35742.35742,0,0,1,.00977-.04785.13357.13357,0,0,1,.04785-.07227.125.125,0,0,1,.07226-.02344.13821.13821,0,0,1,.05762.01368,1.22227,1.22227,0,0,0,.58594.168.8216.8216,0,0,0,.63086-.249.96071.96071,0,0,0,.2334-.68164v-.168a.88775.88775,0,0,1-.34571.32422,1.01929,1.01929,0,0,1-.49023.12207.79189.79189,0,0,1-.63379-.25.99986.99986,0,0,1-.21582-.67676V21.12919a.1402.1402,0,0,1,.14453-.14355.1376.1376,0,0,1,.10254.041.13912.13912,0,0,1,.041.10254v1.43066a.78943.78943,0,0,0,.15137.52344.58839.58839,0,0,0,.47266.17774.77608.77608,0,0,0,.377-.09864.805.805,0,0,0,.28809-.25976.599.599,0,0,0,.1084-.34278V21.12919a.13834.13834,0,0,1,.04-.10254.15116.15116,0,0,1,.207,0Z"/><path class="cls-1" d="M40.95834,21.07157a.14917.14917,0,0,1,.041.10547V23.3372a.14641.14641,0,0,1-.248.10351.14292.14292,0,0,1-.04-.10351v-.32129a1.01389,1.01389,0,0,1-.36036.36523.97827.97827,0,0,1-.52343.14844,1.03048,1.03048,0,0,1-.57813-.168,1.15921,1.15921,0,0,1-.40332-.46094,1.44824,1.44824,0,0,1-.14648-.65722,1.41084,1.41084,0,0,1,.14941-.65528,1.138,1.138,0,0,1,.40528-.4541,1.07061,1.07061,0,0,1,1.09667-.02343.91584.91584,0,0,1,.36036.36425V21.177a.15264.15264,0,0,1,.04-.10547.14617.14617,0,0,1,.207,0ZM40.305,23.12821a.89253.89253,0,0,0,.3125-.36425,1.17952,1.17952,0,0,0,.1123-.52051,1.1405,1.1405,0,0,0-.1123-.50879.89309.89309,0,0,0-.3125-.36231.78756.78756,0,0,0-.44825-.13281.809.809,0,0,0-.44921.12988.88939.88939,0,0,0-.31153.35743,1.1509,1.1509,0,0,0-.11328.5166,1.20636,1.20636,0,0,0,.11035.52051.879.879,0,0,0,.30957.36425.79733.79733,0,0,0,.4541.13282A.78749.78749,0,0,0,40.305,23.12821Z"/><path class="cls-1" d="M43.56478,21.23271a1.08248,1.08248,0,0,1,.209.69335V23.3372a.135.135,0,0,1-.044.10351.14743.14743,0,0,1-.2041,0,.14292.14292,0,0,1-.04-.10351V21.94071a.789.789,0,0,0-.15625-.50683.58392.58392,0,0,0-.48242-.19434.86361.86361,0,0,0-.69141.35352.58676.58676,0,0,0-.11523.34765V23.3372a.13977.13977,0,0,1-.041.10351.13755.13755,0,0,1-.10254.041.14028.14028,0,0,1-.14453-.14453V21.18681a.13757.13757,0,0,1,.041-.10254.13977.13977,0,0,1,.10351-.041.14019.14019,0,0,1,.14356.14356v.26465a1.03179,1.03179,0,0,1,.37207-.34375,1.00455,1.00455,0,0,1,.49707-.13672A.78721.78721,0,0,1,43.56478,21.23271Z"/><path class="cls-1" d="M46.70345,21.06962a.14576.14576,0,0,1,.041.10742v2.0791a1.24327,1.24327,0,0,1-.15625.64063,1.0278,1.0278,0,0,1-.42676.40527,1.342,1.342,0,0,1-.62207.13965,1.57845,1.57845,0,0,1-.35254-.043,1.4725,1.4725,0,0,1-.3164-.11035c-.08789-.04492-.13868-.0918-.15137-.13965a.1051.1051,0,0,1-.0332-.07715.08619.08619,0,0,1,.043-.07617.07559.07559,0,0,1,.04786-.01465.36475.36475,0,0,1,.11035.03321l.10058.04394a1.55984,1.55984,0,0,0,.55664.11524A.90431.90431,0,0,0,46.2142,23.93a.88622.88622,0,0,0,.24218-.65527v-.29688a.88357.88357,0,0,1-.3789.40528,1.0875,1.0875,0,0,1-.543.14648,1.10457,1.10457,0,0,1-.59668-.166,1.16373,1.16373,0,0,1-.4209-.458,1.47694,1.47694,0,0,1,0-1.31055,1.16376,1.16376,0,0,1,.4209-.458,1.09849,1.09849,0,0,1,.59277-.166,1.05817,1.05817,0,0,1,.55371.15136,1.0132,1.0132,0,0,1,.37207.36231V21.177a.14918.14918,0,0,1,.041-.10547.1377.1377,0,0,1,.10351-.043A.13913.13913,0,0,1,46.70345,21.06962Zm-.67187,2.06348a.85729.85729,0,0,0,.32617-.35938,1.14252,1.14252,0,0,0,.11816-.52539,1.1259,1.1259,0,0,0-.11816-.52344.86373.86373,0,0,0-.32617-.35742.88837.88837,0,0,0-.47266-.12793.84888.84888,0,0,0-.46777.13281.8954.8954,0,0,0-.32617.36231,1.184,1.184,0,0,0,0,1.03125.89537.89537,0,0,0,.32617.3623.84881.84881,0,0,0,.46777.13282A.88837.88837,0,0,0,46.03158,23.1331Z"/><path class="cls-1" d="M13.92025,25.73075a.13916.13916,0,0,1,.041.10254v3.26465a.13761.13761,0,0,1-.041.10254.14359.14359,0,0,1-.24707-.10254V28.762a1.03736,1.03736,0,0,1-.3584.374.94474.94474,0,0,1-.52539.15332,1.03462,1.03462,0,0,1-.57324-.165,1.15214,1.15214,0,0,1-.40527-.459,1.50938,1.50938,0,0,1,0-1.30957,1.15217,1.15217,0,0,1,.40527-.459,1.02552,1.02552,0,0,1,.56836-.165,1.00767,1.00767,0,0,1,.52344.1416.96893.96893,0,0,1,.36523.36719V25.83329a.14225.14225,0,0,1,.04-.10254.15115.15115,0,0,1,.207,0Zm-.65332,3.16016a.87439.87439,0,0,0,.3125-.36231,1.17631,1.17631,0,0,0,.11231-.5205,1.15257,1.15257,0,0,0-.11231-.51368.8994.8994,0,0,0-.3125-.3623.82957.82957,0,0,0-.89746,0,.89722.89722,0,0,0-.31152.3623,1.23225,1.23225,0,0,0,0,1.03223.89732.89732,0,0,0,.31152.36231.83483.83483,0,0,0,.89746.002Z"/><path class="cls-1" d="M14.70052,26.37821a.162.162,0,0,1-.05371-.13183v-.04785a.16027.16027,0,0,1,.05567-.13184.23145.23145,0,0,1,.15136-.0459c.12793,0,.19141.05957.19141.17774v.04785a.1694.1694,0,0,1-.0498.13183.20927.20927,0,0,1-.14649.0459A.2146.2146,0,0,1,14.70052,26.37821Zm.252,2.82227a.14138.14138,0,0,1-.10352.041.1398.1398,0,0,1-.10351-.041.13757.13757,0,0,1-.041-.10254v-2.208a.14028.14028,0,0,1,.14453-.14453.14135.14135,0,0,1,.10352.041.143.143,0,0,1,.04.10351v2.208A.14068.14068,0,0,1,14.95248,29.20048Z"/><path class="cls-1" d="M16.222,27.06767v1.60742a.34152.34152,0,0,0,.06738.24707.23963.23963,0,0,0,.17676.06543.25009.25009,0,0,0,.07226-.0127.28477.28477,0,0,1,.06739-.01172.09283.09283,0,0,1,.07422.03614.1261.1261,0,0,1,.03125.084.1332.1332,0,0,1-.07618.11328.3541.3541,0,0,1-.18261.04492,1.02114,1.02114,0,0,1-.23047-.02343.36944.36944,0,0,1-.19434-.14453.62626.62626,0,0,1-.09375-.38379V27.06767h-.35058a.13712.13712,0,0,1-.09864-.03907.13439.13439,0,0,1,0-.1914.1413.1413,0,0,1,.09864-.03906h.35058v-.53223a.13981.13981,0,0,1,.041-.10352.1376.1376,0,0,1,.10254-.041.14026.14026,0,0,1,.14453.14453v.53223h.47949a.12514.12514,0,0,1,.09375.04394.135.135,0,0,1,.041.0957.12436.12436,0,0,1-.03809.09375.13937.13937,0,0,1-.09668.03614Z"/><path class="cls-1" d="M19.306,26.844a.143.143,0,0,1,.04.10352v1.35351a.95308.95308,0,0,1-.26367.72266,1.01273,1.01273,0,0,1-.72949.252.99868.99868,0,0,1-.72266-.252.95958.95958,0,0,1-.26172-.72266V26.94755A.14026.14026,0,0,1,17.513,26.803a.13758.13758,0,0,1,.10254.041.13981.13981,0,0,1,.041.10352v1.35351a.63263.63263,0,0,0,.69629.70508.71434.71434,0,0,0,.52051-.17968.70123.70123,0,0,0,.18457-.5254V26.94755a.14025.14025,0,0,1,.14453-.14453A.14136.14136,0,0,1,19.306,26.844Z"/><path class="cls-1" d="M20.37631,29.20048a.13984.13984,0,0,1-.10352.041.14016.14016,0,0,1-.14355-.14355V25.83329a.13915.13915,0,0,1,.041-.10254.1376.1376,0,0,1,.10254-.041.1402.1402,0,0,1,.14453.14355v3.26465A.1376.1376,0,0,1,20.37631,29.20048Z"/><path class="cls-1" d="M21.18978,26.37821a.162.162,0,0,1-.05371-.13183v-.04785a.16027.16027,0,0,1,.05567-.13184.23143.23143,0,0,1,.15136-.0459c.12793,0,.19141.05957.19141.17774v.04785a.16937.16937,0,0,1-.04981.13183.20925.20925,0,0,1-.14648.0459A.2146.2146,0,0,1,21.18978,26.37821Zm.252,2.82227a.14138.14138,0,0,1-.10352.041.13984.13984,0,0,1-.10352-.041.1376.1376,0,0,1-.041-.10254v-2.208a.14026.14026,0,0,1,.14453-.14453.14135.14135,0,0,1,.10352.041.143.143,0,0,1,.04.10351v2.208A.14067.14067,0,0,1,21.44174,29.20048Z"/><path class="cls-1" d="M22.05306,28.74735a.10505.10505,0,0,1,.0625-.0957.10382.10382,0,0,1,.07715-.0293.15028.15028,0,0,1,.10547.04786.898.898,0,0,0,.75391.375.72919.72919,0,0,0,.40039-.1084.351.351,0,0,0,.1709-.31446.33353.33353,0,0,0-.15821-.30175,1.54372,1.54372,0,0,0-.44238-.17286,1.86954,1.86954,0,0,1-.624-.26171.54361.54361,0,0,1-.22559-.47266.60027.60027,0,0,1,.11035-.35352.73477.73477,0,0,1,.30078-.24218,1.02168,1.02168,0,0,1,.42871-.08594,1.17126,1.17126,0,0,1,.416.0791.88.88,0,0,1,.35742.252.11585.11585,0,0,1,.043.09571.13031.13031,0,0,1-.04785.10058.12826.12826,0,0,1-.08692.0293.11715.11715,0,0,1-.08593-.03906.76712.76712,0,0,0-.27344-.19629.86292.86292,0,0,0-.34082-.06738.69041.69041,0,0,0-.38672.10546.35354.35354,0,0,0-.16113.31739.34411.34411,0,0,0,.17578.292,1.80159,1.80159,0,0,0,.4873.18262,2.2629,2.2629,0,0,1,.41211.13964.68189.68189,0,0,1,.2666.21582.60176.60176,0,0,1,.10352.36915.58592.58592,0,0,1-.25.49707,1.01047,1.01047,0,0,1-.61914.18457,1.12448,1.12448,0,0,1-.93066-.43653A.20739.20739,0,0,1,22.05306,28.74735Z"/><path class="cls-1" d="M27.53549,26.89481a1.12106,1.12106,0,0,1,.40527.45313,1.43708,1.43708,0,0,1,.14648.65527,1.45168,1.45168,0,0,1-.14648.65528,1.14564,1.14564,0,0,1-.40332.46289,1.02153,1.02153,0,0,1-.57324.168.97736.97736,0,0,1-.50684-.13672,1.10628,1.10628,0,0,1-.377-.36231v.31739a.14909.14909,0,0,1-.041.10546.13557.13557,0,0,1-.10254.043.1377.1377,0,0,1-.10351-.043.14909.14909,0,0,1-.041-.10546V25.83817a.14024.14024,0,0,1,.14453-.14355.13757.13757,0,0,1,.10254.041.13908.13908,0,0,1,.041.10253v1.416a1.01385,1.01385,0,0,1,.36523-.37891.96647.96647,0,0,1,.51367-.14355A1.05551,1.05551,0,0,1,27.53549,26.89481ZM27.38412,28.887a.91828.91828,0,0,0,.31152-.36719,1.1687,1.1687,0,0,0,.11328-.5166,1.1466,1.1466,0,0,0-.11328-.51562.87653.87653,0,0,0-.31152-.35742.80339.80339,0,0,0-.44922-.12989.83532.83532,0,0,0-.45606.127.84418.84418,0,0,0-.31152.35742,1.26795,1.26795,0,0,0,.002,1.03906.89552.89552,0,0,0,.3125.36524.801.801,0,0,0,.45313.13183A.7914.7914,0,0,0,27.38412,28.887Z"/><path class="cls-1" d="M30.71224,27.972a.13937.13937,0,0,1-.10058.041H28.7972a1.0964,1.0964,0,0,0,.11817.51562.88518.88518,0,0,0,.33594.36036.97814.97814,0,0,0,.51562.13183.88228.88228,0,0,0,.41309-.0957.86279.86279,0,0,0,.293-.24512.16348.16348,0,0,1,.10058-.043.13236.13236,0,0,1,.125.125.14515.14515,0,0,1-.04785.10059,1.20959,1.20959,0,0,1-.38672.30762,1.07031,1.07031,0,0,1-.49219.11914,1.31416,1.31416,0,0,1-.65234-.15821,1.12317,1.12317,0,0,1-.44238-.44336,1.34186,1.34186,0,0,1-.15821-.66015,1.45081,1.45081,0,0,1,.15625-.68946,1.12749,1.12749,0,0,1,.415-.45117,1.05562,1.05562,0,0,1,.55176-.15527,1.13719,1.13719,0,0,1,.54.13379,1.07216,1.07216,0,0,1,.41113.39355,1.19589,1.19589,0,0,1,.16309.61426A.12915.12915,0,0,1,30.71224,27.972Zm-1.58593-.7705a.892.892,0,0,0-.30469.55273h1.63672v-.03906a.76574.76574,0,0,0-.14453-.377A.77576.77576,0,0,0,30.014,27.094a.86187.86187,0,0,0-.37207-.084A.80272.80272,0,0,0,29.12631,27.20146Z"/><path class="cls-1" d="M31.17318,28.74735a.105.105,0,0,1,.0625-.0957.1038.1038,0,0,1,.07715-.0293.15029.15029,0,0,1,.10547.04786.89793.89793,0,0,0,.7539.375.72919.72919,0,0,0,.40039-.1084.351.351,0,0,0,.1709-.31446.33352.33352,0,0,0-.1582-.30175,1.54384,1.54384,0,0,0-.44238-.17286,1.8696,1.8696,0,0,1-.624-.26171.54361.54361,0,0,1-.22558-.47266.60027.60027,0,0,1,.11035-.35352.73477.73477,0,0,1,.30078-.24218,1.02168,1.02168,0,0,1,.42871-.08594,1.17126,1.17126,0,0,1,.416.0791.88.88,0,0,1,.35742.252.11585.11585,0,0,1,.043.09571.13034.13034,0,0,1-.04785.10058.12826.12826,0,0,1-.08692.0293.11719.11719,0,0,1-.08594-.03906.767.767,0,0,0-.27343-.19629.86292.86292,0,0,0-.34082-.06738.69041.69041,0,0,0-.38672.10546.35354.35354,0,0,0-.16113.31739.34409.34409,0,0,0,.17578.292,1.80159,1.80159,0,0,0,.4873.18262,2.2629,2.2629,0,0,1,.41211.13964.682.682,0,0,1,.2666.21582.60176.60176,0,0,1,.10352.36915.58592.58592,0,0,1-.25.49707,1.01047,1.01047,0,0,1-.61914.18457,1.12451,1.12451,0,0,1-.93067-.43653A.20745.20745,0,0,1,31.17318,28.74735Z"/><path class="cls-1" d="M35.73568,26.83231a.14594.14594,0,0,1,.041.10547v2.16016a.13761.13761,0,0,1-.041.10254.14359.14359,0,0,1-.24707-.10254v-.32227a.9989.9989,0,0,1-.36035.36524.96988.96988,0,0,1-.52344.14844,1.0305,1.0305,0,0,1-.57812-.168,1.15639,1.15639,0,0,1-.40332-.46,1.45233,1.45233,0,0,1-.14649-.65821,1.41368,1.41368,0,0,1,.14942-.65527,1.13512,1.13512,0,0,1,.40527-.45313,1.07377,1.07377,0,0,1,1.09668-.02441.9181.9181,0,0,1,.36035.36524v-.29786a.14927.14927,0,0,1,.04-.10547.14619.14619,0,0,1,.207,0ZM35.08236,28.889a.89552.89552,0,0,0,.3125-.36524,1.17335,1.17335,0,0,0,.1123-.52051,1.1404,1.1404,0,0,0-.1123-.50879.89948.89948,0,0,0-.3125-.3623.83477.83477,0,0,0-.89746-.002.87653.87653,0,0,0-.31152.35742,1.1466,1.1466,0,0,0-.11329.51562,1.2,1.2,0,0,0,.11036.52051A.88183.88183,0,0,0,34.18,28.889a.8041.8041,0,0,0,.4541.13183A.79417.79417,0,0,0,35.08236,28.889Z"/><path class="cls-1" d="M37.84994,26.76981a.12425.12425,0,0,1,.07715.11524.14943.14943,0,0,1-.03907.10742.11979.11979,0,0,1-.09082.041.37389.37389,0,0,1-.09375-.02344.39037.39037,0,0,0-.13183-.02441.57217.57217,0,0,0-.35254.13671,1.07046,1.07046,0,0,0-.28809.35254.9391.9391,0,0,0-.11328.4375v1.18555a.14016.14016,0,0,1-.14355.14355.13983.13983,0,0,1-.10352-.041.1376.1376,0,0,1-.041-.10254V26.94755a.14025.14025,0,0,1,.14453-.14453.13762.13762,0,0,1,.10254.041.13984.13984,0,0,1,.041.10352v.42187a1.10665,1.10665,0,0,1,.334-.45312.83109.83109,0,0,1,.52539-.18457A.38128.38128,0,0,1,37.84994,26.76981Z"/><path class="cls-1" d="M37.78744,29.19169a.20135.20135,0,0,1-.043-.13672v-.10156a.19013.19013,0,0,1,.043-.13379.15775.15775,0,0,1,.125-.04785h.0332a.15912.15912,0,0,1,.125.04785.19483.19483,0,0,1,.043.13379V29.055a.20648.20648,0,0,1-.043.13672.157.157,0,0,1-.125.0498h-.0332A.15563.15563,0,0,1,37.78744,29.19169Z"/><path class="cls-3" d="M68.912,21.92865H90.64233a2.7099,2.7099,0,0,1,2.7099,2.7099v13.907a2.70987,2.70987,0,0,1-2.70987,2.70987H68.912a2.70984,2.70984,0,0,1-2.70984-2.70984v-13.907A2.70987,2.70987,0,0,1,68.912,21.92865Z"/><line class="cls-4" x1="66.20215" y1="31.81754" x2="65.23505" y2="31.56304"/><line class="cls-5" x1="63.1958" y1="31.0264" x2="47.90125" y2="27.00155"/><line class="cls-4" x1="46.88165" y1="26.73323" x2="45.91455" y2="26.47874"/></svg>